<?xml version="1.0" encoding="utf-8"?>
<!-- Generator: Adobe Illustrator 16.0.0, SVG Export Plug-In . SVG Version: 6.00 Build 0)  -->
<!DOCTYPE svg PUBLIC "-//W3C//DTD SVG 1.1//EN" "http://www.w3.org/Graphics/SVG/1.1/DTD/svg11.dtd">
<svg version="1.1" id="图层_1" xmlns="http://www.w3.org/2000/svg" xmlns:xlink="http://www.w3.org/1999/xlink" x="0px" y="0px"
	 width="180px" height="81.334px" viewBox="0 0 180 81.334" enable-background="new 0 0 180 81.334" xml:space="preserve">
<g>
	<g>
		<path d="M73.705,49.559c-2.222,0.922-4.549,1.381-6.981,1.381c-3.921,0-6.93-1.171-9.031-3.512
			c-2.101-2.342-3.15-5.804-3.15-10.389c0-2.221,0.29-4.229,0.869-6.026c0.581-1.796,1.408-3.321,2.483-4.573
			s2.377-2.218,3.905-2.896c1.527-0.68,3.239-1.019,5.135-1.019c1.287,0,2.483,0.109,3.586,0.328
			c1.104,0.22,2.165,0.556,3.185,1.008v3.714c-1.005-0.552-2.045-0.973-3.12-1.263s-2.25-0.436-3.522-0.436
			c-1.303,0-2.48,0.244-3.533,0.732c-1.054,0.487-1.949,1.195-2.686,2.122c-0.735,0.927-1.301,2.058-1.697,3.396
			c-0.396,1.336-0.595,2.863-0.595,4.573c0,3.594,0.729,6.303,2.187,8.127c1.457,1.826,3.593,2.738,6.409,2.738
			c1.188,0,2.326-0.138,3.417-0.413c1.089-0.274,2.136-0.661,3.141-1.156V49.559z"/>
		<path d="M97.388,50.601H81.43V22.863h3.841v24.513h12.117V50.601z"/>
		<path d="M121.538,43.088c0,1.316-0.27,2.468-0.806,3.46c-0.538,0.989-1.289,1.812-2.25,2.471c-0.963,0.658-2.119,1.149-3.47,1.474
			c-1.353,0.327-2.841,0.489-4.468,0.489c-0.736,0-1.469-0.028-2.196-0.084c-0.729-0.057-1.429-0.128-2.101-0.213
			c-0.673-0.084-1.305-0.183-1.9-0.298c-0.593-0.112-1.131-0.233-1.612-0.359v-3.651c1.063,0.397,2.253,0.709,3.575,0.936
			c1.324,0.226,2.826,0.339,4.51,0.339c1.217,0,2.254-0.097,3.109-0.286c0.855-0.19,1.556-0.473,2.102-0.849
			c0.544-0.376,0.94-0.832,1.188-1.368c0.246-0.539,0.372-1.154,0.372-1.849c0-0.749-0.21-1.389-0.628-1.92
			c-0.417-0.531-0.966-1.004-1.644-1.421c-0.679-0.418-1.454-0.8-2.323-1.147c-0.871-0.345-1.759-0.701-2.664-1.07
			c-0.906-0.368-1.794-0.767-2.663-1.199c-0.87-0.432-1.645-0.94-2.324-1.528c-0.679-0.586-1.229-1.276-1.644-2.068
			c-0.42-0.792-0.627-1.732-0.627-2.823c0-0.947,0.197-1.881,0.595-2.802c0.396-0.919,1.011-1.735,1.846-2.45
			c0.834-0.715,1.906-1.291,3.215-1.729s2.868-0.658,4.68-0.658c0.467,0,0.972,0.021,1.518,0.064
			c0.544,0.042,1.096,0.103,1.655,0.18c0.558,0.078,1.109,0.166,1.654,0.265s1.051,0.205,1.518,0.318v3.396
			c-1.09-0.312-2.179-0.548-3.267-0.711c-1.091-0.163-2.145-0.244-3.162-0.244c-2.165,0-3.757,0.36-4.775,1.082
			s-1.529,1.691-1.529,2.908c0,0.75,0.21,1.393,0.627,1.93c0.417,0.538,0.965,1.02,1.645,1.443c0.679,0.426,1.453,0.811,2.323,1.156
			c0.87,0.349,1.758,0.705,2.664,1.072c0.905,0.367,1.793,0.771,2.663,1.209c0.87,0.439,1.644,0.959,2.323,1.561
			c0.681,0.602,1.228,1.304,1.645,2.111C121.329,41.029,121.538,41.983,121.538,43.088z"/>
		<path d="M146.621,36.425c0,1.329-0.103,2.604-0.308,3.819s-0.534,2.349-0.985,3.396c-0.454,1.046-1.041,1.998-1.762,2.854
			c-0.723,0.855-1.606,1.586-2.653,2.195c-1.047,0.608-2.264,1.079-3.649,1.41c-1.388,0.334-2.964,0.501-4.734,0.501h-5.94V22.863
			h7.152c4.328,0,7.558,1.115,9.687,3.343C145.557,28.435,146.621,31.841,146.621,36.425z M142.654,36.7
			c0-1.967-0.185-3.63-0.554-4.988c-0.367-1.356-0.926-2.453-1.675-3.289c-0.751-0.834-1.692-1.438-2.822-1.813
			c-1.134-0.375-2.463-0.563-3.991-0.563h-3.246v21.286h2.822C139.498,47.333,142.654,43.788,142.654,36.7z"/>
		<path d="M169.73,42.302c0,1.331-0.258,2.509-0.774,3.533c-0.517,1.028-1.252,1.894-2.207,2.601
			c-0.955,0.708-2.109,1.244-3.459,1.613c-1.351,0.365-2.854,0.552-4.511,0.552h-7.257V22.863h7.937c6.183,0,9.273,2.25,9.273,6.748
			c0,1.5-0.357,2.787-1.07,3.863c-0.714,1.074-1.878,1.874-3.492,2.398c0.75,0.141,1.462,0.381,2.133,0.721
			c0.673,0.34,1.264,0.778,1.772,1.315c0.509,0.539,0.913,1.176,1.211,1.911C169.582,40.556,169.73,41.384,169.73,42.302z
			 M164.807,30.121c0-0.565-0.084-1.101-0.255-1.602c-0.169-0.502-0.466-0.935-0.891-1.295s-0.996-0.646-1.718-0.859
			c-0.723-0.212-1.636-0.318-2.738-0.318h-3.906v8.68h3.778c0.863,0,1.646-0.092,2.345-0.274c0.701-0.186,1.303-0.469,1.805-0.85
			c0.501-0.384,0.891-0.861,1.167-1.433C164.67,31.597,164.807,30.913,164.807,30.121z M165.719,42.43
			c0-0.708-0.147-1.343-0.445-1.908c-0.296-0.567-0.729-1.044-1.294-1.435c-0.566-0.389-1.255-0.689-2.069-0.9
			c-0.813-0.214-1.729-0.319-2.749-0.319h-3.862v9.551h3.991c2.164,0,3.776-0.405,4.838-1.211S165.719,44.142,165.719,42.43z"/>
	</g>
	<path fill="#8FC31F" d="M31.344,16.988c-8.888,0-16.087,2.171-16.087,4.85c0,0,0,3.226,0,9.296c0,6.077,32.178,6.408,32.178-0.334
		c0-6.741,0-8.962,0-8.962C47.435,19.159,40.23,16.988,31.344,16.988z"/>
	<path fill="#8FC31F" d="M47.435,46.055c0,7.588-32.178,7.209-32.178,0.374c0-6.839,0-2.84,0-10.469
		c0,5.974,32.178,6.669,32.178-0.282C47.435,42.754,47.435,38.462,47.435,46.055z"/>
	<path fill="#8A4122" d="M47.435,61.381c0,7.591-32.178,7.213-32.178,0.376c0-6.842,0-2.84,0-10.467
		c0,5.976,32.178,6.671,32.178-0.28C47.435,58.083,47.435,53.791,47.435,61.381z"/>
	<g>
		<path d="M56.656,59.71c0.21,0,0.41,0.021,0.603,0.065c0.192,0.043,0.355,0.106,0.494,0.184v0.59
			c-0.191-0.072-0.37-0.126-0.53-0.164c-0.161-0.035-0.326-0.054-0.494-0.054c-0.176,0-0.351,0.027-0.524,0.087
			c-0.173,0.057-0.329,0.152-0.466,0.284c-0.137,0.131-0.246,0.308-0.332,0.524c-0.083,0.218-0.125,0.488-0.125,0.81
			c0,0.236,0.03,0.452,0.094,0.65c0.063,0.196,0.156,0.369,0.278,0.514c0.123,0.145,0.278,0.256,0.465,0.339
			c0.186,0.081,0.399,0.12,0.644,0.12c0.177,0,0.354-0.019,0.533-0.056c0.181-0.038,0.355-0.092,0.526-0.164v0.589
			c-0.052,0.03-0.121,0.062-0.204,0.092s-0.177,0.059-0.276,0.08c-0.1,0.023-0.206,0.041-0.319,0.056
			c-0.112,0.012-0.226,0.02-0.338,0.02c-0.291,0-0.568-0.042-0.83-0.132c-0.26-0.089-0.487-0.223-0.682-0.407
			c-0.195-0.184-0.349-0.413-0.462-0.692c-0.112-0.279-0.168-0.614-0.168-0.997c0-0.285,0.029-0.543,0.09-0.771
			c0.058-0.228,0.14-0.431,0.244-0.604c0.103-0.172,0.224-0.32,0.362-0.443c0.139-0.121,0.286-0.221,0.443-0.298
			c0.155-0.077,0.318-0.134,0.485-0.169C56.336,59.727,56.497,59.71,56.656,59.71z"/>
		<path d="M62.763,61.997c0,0.341-0.05,0.651-0.146,0.931c-0.098,0.28-0.234,0.52-0.414,0.72c-0.179,0.2-0.393,0.354-0.646,0.463
			c-0.253,0.111-0.536,0.165-0.85,0.165c-0.322,0-0.612-0.054-0.865-0.165c-0.254-0.108-0.471-0.263-0.648-0.463
			c-0.179-0.2-0.315-0.439-0.409-0.72c-0.094-0.279-0.142-0.59-0.142-0.931c0-0.344,0.049-0.655,0.145-0.936
			c0.099-0.282,0.237-0.521,0.415-0.722c0.179-0.202,0.395-0.358,0.648-0.468c0.254-0.108,0.539-0.162,0.853-0.162
			c0.32,0,0.606,0.054,0.863,0.162c0.256,0.109,0.47,0.266,0.647,0.468c0.177,0.2,0.312,0.439,0.407,0.722
			C62.715,61.342,62.763,61.653,62.763,61.997z M62.021,61.997c0-0.268-0.032-0.505-0.098-0.714
			c-0.065-0.21-0.157-0.387-0.274-0.532c-0.117-0.144-0.256-0.254-0.417-0.326c-0.162-0.075-0.338-0.113-0.529-0.113
			c-0.193,0-0.369,0.038-0.531,0.113c-0.161,0.072-0.3,0.183-0.417,0.326c-0.117,0.146-0.208,0.322-0.274,0.532
			c-0.065,0.209-0.099,0.446-0.099,0.714c0,0.265,0.033,0.501,0.099,0.711c0.066,0.208,0.157,0.382,0.275,0.525
			c0.12,0.144,0.26,0.254,0.421,0.327c0.161,0.075,0.338,0.112,0.53,0.112c0.191,0,0.367-0.037,0.526-0.112
			c0.16-0.073,0.299-0.184,0.416-0.327s0.209-0.317,0.274-0.525C61.989,62.498,62.021,62.262,62.021,61.997z"/>
		<path d="M63.926,64.163V57.55h0.708v6.613H63.926z"/>
		<path d="M66.097,64.163V57.55h0.708v6.613H66.097z"/>
		<path d="M70.28,63.659c0.235,0,0.448-0.019,0.641-0.056c0.195-0.038,0.387-0.092,0.578-0.164v0.589
			c-0.154,0.078-0.348,0.137-0.575,0.181c-0.229,0.045-0.474,0.066-0.734,0.066c-0.312,0-0.604-0.04-0.876-0.118
			c-0.271-0.08-0.508-0.207-0.708-0.383c-0.197-0.176-0.354-0.409-0.467-0.693c-0.113-0.285-0.169-0.628-0.169-1.029
			c0-0.396,0.054-0.738,0.164-1.029c0.109-0.292,0.255-0.535,0.437-0.729c0.183-0.195,0.392-0.342,0.629-0.438
			c0.236-0.099,0.484-0.146,0.742-0.146c0.243,0,0.47,0.04,0.682,0.12c0.212,0.079,0.394,0.206,0.549,0.38
			c0.155,0.175,0.277,0.397,0.366,0.673c0.09,0.273,0.135,0.602,0.135,0.985c0,0.037,0,0.067,0,0.093
			c0,0.026-0.001,0.086-0.005,0.178h-2.995c0,0.277,0.041,0.513,0.125,0.704c0.084,0.196,0.198,0.352,0.342,0.471
			c0.146,0.122,0.315,0.209,0.511,0.264C69.845,63.631,70.055,63.659,70.28,63.659z M69.907,60.316
			c-0.164,0-0.316,0.033-0.456,0.097s-0.264,0.149-0.368,0.259s-0.188,0.239-0.253,0.387c-0.065,0.146-0.104,0.304-0.121,0.473h2.22
			c0-0.171-0.022-0.329-0.067-0.477c-0.044-0.148-0.11-0.278-0.196-0.386c-0.088-0.11-0.192-0.197-0.319-0.259
			C70.221,60.347,70.072,60.316,69.907,60.316z"/>
		<path d="M74.737,59.71c0.21,0,0.411,0.021,0.603,0.065c0.19,0.043,0.356,0.106,0.493,0.184v0.59
			c-0.191-0.072-0.368-0.126-0.529-0.164c-0.161-0.035-0.326-0.054-0.494-0.054c-0.177,0-0.352,0.027-0.525,0.087
			c-0.173,0.057-0.327,0.152-0.466,0.284c-0.136,0.131-0.247,0.308-0.331,0.524c-0.083,0.218-0.125,0.488-0.125,0.81
			c0,0.236,0.031,0.452,0.094,0.65c0.062,0.196,0.154,0.369,0.278,0.514c0.123,0.145,0.279,0.256,0.465,0.339
			c0.185,0.081,0.399,0.12,0.644,0.12c0.176,0,0.353-0.019,0.534-0.056c0.179-0.038,0.354-0.092,0.525-0.164v0.589
			c-0.053,0.03-0.121,0.062-0.204,0.092s-0.177,0.059-0.276,0.08c-0.1,0.023-0.207,0.041-0.319,0.056
			c-0.113,0.012-0.226,0.02-0.339,0.02c-0.291,0-0.567-0.042-0.828-0.132c-0.26-0.089-0.487-0.223-0.684-0.407
			c-0.193-0.184-0.348-0.413-0.46-0.692c-0.113-0.279-0.17-0.614-0.17-0.997c0-0.285,0.029-0.543,0.089-0.771
			c0.06-0.228,0.143-0.431,0.245-0.604c0.104-0.172,0.224-0.32,0.363-0.443c0.139-0.121,0.285-0.221,0.442-0.298
			s0.319-0.134,0.486-0.169C74.416,59.727,74.578,59.71,74.737,59.71z"/>
		<path d="M79.263,64.172c-0.061,0.023-0.153,0.048-0.278,0.067c-0.126,0.021-0.275,0.033-0.447,0.036
			c-0.229,0-0.428-0.029-0.594-0.085c-0.168-0.057-0.307-0.136-0.419-0.243c-0.11-0.102-0.193-0.229-0.249-0.379
			c-0.055-0.149-0.082-0.316-0.082-0.499v-2.641h-0.836v-0.605h0.836v-1.188h0.709v1.188h1.297v0.605h-1.297v2.532
			c0,0.102,0.014,0.192,0.043,0.277c0.029,0.088,0.074,0.16,0.137,0.223c0.063,0.062,0.142,0.111,0.24,0.146
			c0.097,0.036,0.215,0.052,0.351,0.052c0.095,0,0.194-0.007,0.3-0.023c0.105-0.014,0.201-0.035,0.29-0.059V64.172z"/>
		<path d="M84.634,63.682h-0.019c-0.059,0.074-0.132,0.147-0.219,0.218c-0.088,0.069-0.191,0.136-0.306,0.192
			c-0.116,0.057-0.242,0.102-0.38,0.134c-0.137,0.033-0.283,0.05-0.438,0.05c-0.21,0-0.401-0.031-0.577-0.094
			c-0.176-0.062-0.326-0.153-0.453-0.273c-0.125-0.119-0.224-0.268-0.293-0.442c-0.071-0.171-0.106-0.369-0.106-0.588
			c0-0.216,0.039-0.408,0.116-0.58c0.078-0.168,0.187-0.315,0.327-0.432c0.139-0.121,0.308-0.213,0.504-0.275
			c0.196-0.063,0.415-0.097,0.651-0.097c0.226,0.002,0.434,0.023,0.626,0.059c0.191,0.038,0.363,0.082,0.512,0.139h0.018v-0.304
			c0-0.117-0.006-0.223-0.022-0.314c-0.016-0.089-0.04-0.172-0.077-0.242c-0.079-0.146-0.205-0.266-0.379-0.361
			c-0.174-0.097-0.408-0.145-0.703-0.145c-0.221,0-0.426,0.021-0.62,0.063c-0.192,0.041-0.385,0.098-0.576,0.171v-0.596
			c0.072-0.035,0.158-0.069,0.257-0.1c0.099-0.033,0.204-0.062,0.313-0.083c0.11-0.023,0.226-0.043,0.348-0.054
			c0.122-0.012,0.243-0.017,0.366-0.017c0.438,0,0.796,0.078,1.075,0.232c0.278,0.155,0.479,0.359,0.601,0.616
			c0.045,0.096,0.078,0.205,0.098,0.321c0.021,0.118,0.029,0.244,0.029,0.387v2.896h-0.594L84.634,63.682z M84.597,62.258
			c-0.131-0.037-0.284-0.072-0.462-0.105c-0.181-0.033-0.377-0.052-0.592-0.055c-0.301,0-0.536,0.064-0.706,0.19
			c-0.169,0.13-0.253,0.325-0.253,0.59c0,0.135,0.021,0.252,0.063,0.352c0.042,0.101,0.099,0.183,0.175,0.248
			c0.074,0.066,0.163,0.116,0.263,0.147c0.102,0.031,0.211,0.048,0.326,0.048c0.152,0,0.291-0.022,0.422-0.065
			c0.13-0.044,0.247-0.096,0.348-0.157c0.103-0.062,0.188-0.123,0.261-0.184c0.069-0.062,0.123-0.108,0.155-0.142V62.258z"/>
		<path d="M86.722,64.163V57.55h0.707v6.613H86.722z"/>
		<path d="M88.891,64.163V57.55h0.708v6.613H88.891z"/>
		<path d="M92.914,58.814v-0.79h0.707v0.79H92.914z M92.933,64.163v-4.34h0.708v4.34H92.933z"/>
		<path d="M95.74,60.428h0.013c0.081-0.103,0.168-0.196,0.264-0.282c0.096-0.088,0.204-0.164,0.322-0.229
			c0.119-0.065,0.248-0.117,0.391-0.152c0.141-0.037,0.296-0.054,0.462-0.054c0.2,0,0.386,0.026,0.559,0.08
			c0.174,0.057,0.323,0.143,0.452,0.265c0.127,0.123,0.229,0.282,0.304,0.478c0.075,0.198,0.111,0.438,0.111,0.725v2.906h-0.708
			v-2.792c0-0.375-0.071-0.643-0.216-0.809c-0.146-0.164-0.355-0.246-0.633-0.246c-0.244,0-0.479,0.068-0.709,0.202
			c-0.229,0.136-0.424,0.321-0.589,0.56v3.085h-0.707v-4.34h0.548L95.74,60.428z"/>
		<path d="M102.505,58.107c-0.092-0.02-0.191-0.033-0.302-0.043c-0.109-0.009-0.203-0.014-0.284-0.014
			c-0.156,0-0.3,0.021-0.427,0.061c-0.125,0.038-0.23,0.101-0.316,0.188c-0.084,0.088-0.15,0.203-0.196,0.344
			c-0.047,0.142-0.068,0.313-0.068,0.513v0.668h1.292v0.605h-1.292v3.734h-0.709v-3.734h-0.761v-0.605h0.761v-0.664
			c0-0.313,0.043-0.575,0.126-0.791c0.085-0.214,0.199-0.391,0.346-0.529c0.146-0.139,0.317-0.24,0.516-0.306s0.41-0.099,0.64-0.099
			c0.146,0,0.28,0.007,0.405,0.022c0.122,0.016,0.213,0.031,0.271,0.051V58.107z"/>
		<path d="M106.83,61.997c0,0.341-0.051,0.651-0.146,0.931c-0.097,0.28-0.235,0.52-0.413,0.72c-0.179,0.2-0.395,0.354-0.647,0.463
			c-0.252,0.111-0.535,0.165-0.85,0.165c-0.322,0-0.611-0.054-0.865-0.165c-0.253-0.108-0.47-0.263-0.648-0.463
			c-0.178-0.2-0.314-0.439-0.408-0.72c-0.095-0.279-0.143-0.59-0.143-0.931c0-0.344,0.05-0.655,0.146-0.936
			c0.097-0.282,0.236-0.521,0.413-0.722c0.18-0.202,0.396-0.358,0.648-0.468c0.255-0.108,0.539-0.162,0.854-0.162
			c0.319,0,0.605,0.054,0.862,0.162c0.256,0.109,0.472,0.266,0.648,0.468c0.177,0.2,0.312,0.439,0.407,0.722
			C106.782,61.342,106.83,61.653,106.83,61.997z M106.089,61.997c0-0.268-0.031-0.505-0.098-0.714
			c-0.065-0.21-0.158-0.387-0.273-0.532c-0.118-0.144-0.256-0.254-0.419-0.326c-0.161-0.075-0.337-0.113-0.528-0.113
			c-0.193,0-0.369,0.038-0.53,0.113c-0.162,0.072-0.302,0.183-0.419,0.326c-0.116,0.146-0.208,0.322-0.274,0.532
			c-0.064,0.209-0.097,0.446-0.097,0.714c0,0.265,0.032,0.501,0.097,0.711c0.066,0.208,0.158,0.382,0.276,0.525
			c0.119,0.144,0.26,0.254,0.422,0.327c0.16,0.075,0.337,0.112,0.528,0.112c0.192,0,0.368-0.037,0.527-0.112
			c0.161-0.073,0.299-0.184,0.417-0.327c0.115-0.144,0.208-0.317,0.273-0.525C106.058,62.498,106.089,62.262,106.089,61.997z"/>
		<path d="M110.328,60.398h-0.054c-0.168,0-0.333,0.015-0.493,0.046c-0.162,0.03-0.313,0.076-0.456,0.14
			c-0.14,0.062-0.27,0.14-0.382,0.23c-0.114,0.092-0.21,0.2-0.286,0.324v3.024h-0.708v-4.34h0.547l0.139,0.688h0.013
			c0.07-0.109,0.156-0.216,0.259-0.314c0.102-0.096,0.216-0.181,0.345-0.254c0.127-0.072,0.269-0.131,0.421-0.171
			c0.151-0.043,0.311-0.062,0.479-0.062c0.029,0,0.061,0,0.092,0c0.033,0.002,0.061,0.005,0.085,0.007V60.398z"/>
		<path d="M114.625,64.163h-0.707v-2.792c0-0.19-0.021-0.349-0.062-0.481c-0.042-0.133-0.101-0.241-0.179-0.327
			c-0.077-0.084-0.17-0.147-0.278-0.188c-0.107-0.039-0.229-0.059-0.362-0.059c-0.254,0-0.484,0.068-0.691,0.202
			c-0.206,0.136-0.393,0.321-0.557,0.56v3.085h-0.708v-4.34h0.548l0.138,0.604h0.014c0.079-0.103,0.165-0.196,0.259-0.282
			c0.093-0.088,0.195-0.164,0.31-0.229s0.239-0.117,0.378-0.152c0.136-0.037,0.286-0.054,0.446-0.054
			c0.323,0,0.592,0.078,0.804,0.232c0.215,0.155,0.378,0.367,0.494,0.635h0.02c0.191-0.272,0.41-0.484,0.657-0.637
			c0.246-0.155,0.534-0.23,0.863-0.23c0.153,0,0.315,0.021,0.486,0.063c0.17,0.042,0.327,0.12,0.471,0.234
			c0.143,0.113,0.263,0.271,0.356,0.473c0.095,0.2,0.142,0.459,0.142,0.776v2.906h-0.707v-2.792c0-0.19-0.021-0.349-0.062-0.481
			c-0.042-0.133-0.101-0.241-0.179-0.327c-0.077-0.084-0.17-0.147-0.278-0.188c-0.107-0.039-0.229-0.059-0.363-0.059
			c-0.252,0-0.484,0.068-0.691,0.202c-0.208,0.136-0.396,0.321-0.561,0.56V64.163z"/>
		<path d="M121.371,63.682h-0.018c-0.059,0.074-0.132,0.147-0.22,0.218c-0.088,0.069-0.191,0.136-0.305,0.192
			c-0.117,0.057-0.243,0.102-0.381,0.134c-0.137,0.033-0.283,0.05-0.439,0.05c-0.208,0-0.4-0.031-0.576-0.094
			c-0.175-0.062-0.324-0.153-0.453-0.273c-0.125-0.119-0.224-0.268-0.293-0.442c-0.07-0.171-0.106-0.369-0.106-0.588
			c0-0.216,0.039-0.408,0.117-0.58c0.077-0.168,0.187-0.315,0.326-0.432c0.141-0.121,0.309-0.213,0.505-0.275
			c0.196-0.063,0.414-0.097,0.65-0.097c0.226,0.002,0.434,0.023,0.626,0.059c0.193,0.038,0.362,0.082,0.512,0.139h0.018v-0.304
			c0-0.117-0.006-0.223-0.021-0.314c-0.016-0.089-0.041-0.172-0.078-0.242c-0.08-0.146-0.205-0.266-0.38-0.361
			c-0.173-0.097-0.407-0.145-0.702-0.145c-0.22,0-0.426,0.021-0.619,0.063s-0.386,0.098-0.577,0.171v-0.596
			c0.073-0.035,0.158-0.069,0.257-0.1c0.1-0.033,0.203-0.062,0.313-0.083c0.11-0.023,0.226-0.043,0.349-0.054
			c0.12-0.012,0.243-0.017,0.365-0.017c0.438,0,0.797,0.078,1.076,0.232c0.278,0.155,0.478,0.359,0.6,0.616
			c0.045,0.096,0.078,0.205,0.097,0.321c0.021,0.118,0.03,0.244,0.03,0.387v2.896h-0.594L121.371,63.682z M121.334,62.258
			c-0.131-0.037-0.283-0.072-0.463-0.105s-0.376-0.052-0.591-0.055c-0.301,0-0.534,0.064-0.705,0.19
			c-0.17,0.13-0.254,0.325-0.254,0.59c0,0.135,0.021,0.252,0.064,0.352c0.041,0.101,0.099,0.183,0.174,0.248
			c0.074,0.066,0.162,0.116,0.263,0.147c0.103,0.031,0.211,0.048,0.326,0.048c0.151,0,0.291-0.022,0.422-0.065
			c0.131-0.044,0.247-0.096,0.349-0.157s0.188-0.123,0.259-0.184c0.071-0.062,0.124-0.108,0.156-0.142V62.258z"/>
		<path d="M125.701,64.172c-0.062,0.023-0.154,0.048-0.278,0.067c-0.127,0.021-0.275,0.033-0.448,0.036
			c-0.229,0-0.426-0.029-0.594-0.085c-0.168-0.057-0.307-0.136-0.418-0.243c-0.111-0.102-0.194-0.229-0.249-0.379
			c-0.054-0.149-0.082-0.316-0.082-0.499v-2.641h-0.836v-0.605h0.836v-1.188h0.708v1.188h1.297v0.605h-1.297v2.532
			c0,0.102,0.014,0.192,0.043,0.277c0.029,0.088,0.074,0.16,0.138,0.223c0.063,0.062,0.141,0.111,0.239,0.146
			c0.098,0.036,0.215,0.052,0.352,0.052c0.095,0,0.193-0.007,0.3-0.023c0.104-0.014,0.201-0.035,0.29-0.059V64.172z"/>
		<path d="M126.687,58.814v-0.79h0.708v0.79H126.687z M126.706,64.163v-4.34h0.708v4.34H126.706z"/>
		<path d="M132.697,61.997c0,0.341-0.05,0.651-0.146,0.931c-0.097,0.28-0.234,0.52-0.414,0.72c-0.178,0.2-0.393,0.354-0.646,0.463
			c-0.252,0.111-0.535,0.165-0.85,0.165c-0.322,0-0.611-0.054-0.865-0.165c-0.254-0.108-0.471-0.263-0.649-0.463
			c-0.178-0.2-0.313-0.439-0.408-0.72c-0.095-0.279-0.142-0.59-0.142-0.931c0-0.344,0.05-0.655,0.146-0.936
			c0.098-0.282,0.236-0.521,0.414-0.722c0.178-0.202,0.395-0.358,0.649-0.468c0.254-0.108,0.538-0.162,0.853-0.162
			c0.319,0,0.605,0.054,0.862,0.162c0.256,0.109,0.471,0.266,0.648,0.468c0.176,0.2,0.311,0.439,0.406,0.722
			C132.65,61.342,132.697,61.653,132.697,61.997z M131.956,61.997c0-0.268-0.031-0.505-0.098-0.714
			c-0.064-0.21-0.156-0.387-0.273-0.532c-0.117-0.144-0.256-0.254-0.419-0.326c-0.161-0.075-0.337-0.113-0.527-0.113
			c-0.194,0-0.37,0.038-0.531,0.113c-0.162,0.072-0.301,0.183-0.419,0.326c-0.115,0.146-0.206,0.322-0.273,0.532
			c-0.065,0.209-0.098,0.446-0.098,0.714c0,0.265,0.032,0.501,0.098,0.711c0.067,0.208,0.158,0.382,0.276,0.525
			c0.119,0.144,0.258,0.254,0.421,0.327c0.161,0.075,0.337,0.112,0.529,0.112s0.367-0.037,0.527-0.112
			c0.16-0.073,0.299-0.184,0.416-0.327s0.209-0.317,0.273-0.525C131.925,62.498,131.956,62.262,131.956,61.997z"/>
		<path d="M134.502,60.428h0.013c0.081-0.103,0.168-0.196,0.264-0.282c0.096-0.088,0.204-0.164,0.322-0.229
			c0.119-0.065,0.248-0.117,0.391-0.152c0.14-0.037,0.296-0.054,0.462-0.054c0.2,0,0.386,0.026,0.558,0.08
			c0.175,0.057,0.324,0.143,0.453,0.265c0.127,0.123,0.229,0.282,0.304,0.478c0.074,0.198,0.112,0.438,0.112,0.725v2.906h-0.709
			v-2.792c0-0.375-0.071-0.643-0.216-0.809c-0.146-0.164-0.356-0.246-0.633-0.246c-0.244,0-0.479,0.068-0.709,0.202
			c-0.228,0.136-0.424,0.321-0.589,0.56v3.085h-0.706v-4.34h0.547L134.502,60.428z"/>
		<path d="M144.489,61.997c0,0.341-0.049,0.651-0.146,0.931c-0.098,0.28-0.235,0.52-0.414,0.72s-0.394,0.354-0.646,0.463
			c-0.253,0.111-0.536,0.165-0.851,0.165c-0.321,0-0.611-0.054-0.864-0.165c-0.255-0.108-0.471-0.263-0.649-0.463
			c-0.177-0.2-0.314-0.439-0.408-0.72c-0.095-0.279-0.142-0.59-0.142-0.931c0-0.344,0.049-0.655,0.145-0.936
			c0.099-0.282,0.237-0.521,0.415-0.722c0.178-0.202,0.396-0.358,0.648-0.468c0.254-0.108,0.538-0.162,0.853-0.162
			c0.32,0,0.606,0.054,0.862,0.162c0.257,0.109,0.471,0.266,0.649,0.468c0.176,0.2,0.312,0.439,0.406,0.722
			C144.442,61.342,144.489,61.653,144.489,61.997z M143.749,61.997c0-0.268-0.032-0.505-0.098-0.714
			c-0.065-0.21-0.157-0.387-0.273-0.532c-0.118-0.144-0.257-0.254-0.419-0.326c-0.16-0.075-0.338-0.113-0.528-0.113
			c-0.193,0-0.37,0.038-0.53,0.113c-0.162,0.072-0.301,0.183-0.419,0.326c-0.115,0.146-0.207,0.322-0.273,0.532
			c-0.065,0.209-0.099,0.446-0.099,0.714c0,0.265,0.033,0.501,0.099,0.711c0.066,0.208,0.158,0.382,0.275,0.525
			c0.12,0.144,0.259,0.254,0.422,0.327c0.16,0.075,0.337,0.112,0.528,0.112c0.192,0,0.369-0.037,0.527-0.112
			c0.16-0.073,0.299-0.184,0.417-0.327c0.116-0.144,0.208-0.317,0.273-0.525C143.717,62.498,143.749,62.262,143.749,61.997z"/>
		<path d="M148.125,58.107c-0.092-0.02-0.191-0.033-0.303-0.043c-0.108-0.009-0.202-0.014-0.283-0.014
			c-0.156,0-0.3,0.021-0.426,0.061c-0.126,0.038-0.232,0.101-0.317,0.188c-0.084,0.088-0.151,0.203-0.196,0.344
			c-0.046,0.142-0.068,0.313-0.068,0.513v0.668h1.291v0.605h-1.291v3.734h-0.709v-3.734h-0.761v-0.605h0.761v-0.664
			c0-0.313,0.043-0.575,0.126-0.791c0.084-0.214,0.199-0.391,0.345-0.529c0.146-0.139,0.318-0.24,0.517-0.306
			s0.41-0.099,0.639-0.099c0.146,0,0.281,0.007,0.405,0.022s0.214,0.031,0.271,0.051V58.107z"/>
	</g>
	<g>
		<path fill="#8FC31F" d="M160.846,58.951c-0.184-0.057-0.392-0.097-0.619-0.118s-0.486-0.033-0.772-0.033h-0.569v4.77h0.569
			c0.286,0,0.545-0.011,0.772-0.032s0.436-0.062,0.619-0.118c0.485-0.152,0.856-0.42,1.116-0.799c0.26-0.381,0.389-0.87,0.389-1.462
			c0-0.588-0.129-1.065-0.389-1.43C161.702,59.362,161.331,59.103,160.846,58.951z"/>
		<path fill="#8FC31F" d="M150.893,56.226v10.031h20.36V56.226H150.893z M156.861,64.239h-3.878V58.13h3.709v0.67h-2.964v1.975
			h2.635v0.67h-2.635v2.125h3.133V64.239z M162.958,62.162c-0.088,0.315-0.222,0.598-0.399,0.848
			c-0.179,0.252-0.4,0.468-0.667,0.651c-0.267,0.182-0.578,0.321-0.934,0.424c-0.205,0.059-0.425,0.099-0.662,0.122
			c-0.237,0.021-0.494,0.032-0.771,0.032h-1.385V58.13h1.398c0.276,0,0.534,0.013,0.771,0.034c0.237,0.022,0.458,0.062,0.664,0.121
			c0.354,0.102,0.667,0.239,0.933,0.422c0.267,0.178,0.487,0.39,0.662,0.636c0.177,0.245,0.307,0.521,0.394,0.825
			c0.086,0.307,0.13,0.637,0.13,0.99C163.091,61.513,163.047,61.85,162.958,62.162z M169.16,61.904c0,0.14-0.008,0.291-0.022,0.445
			c-0.017,0.154-0.038,0.302-0.073,0.434c-0.057,0.225-0.146,0.434-0.26,0.626c-0.116,0.191-0.267,0.358-0.452,0.497
			c-0.186,0.141-0.409,0.251-0.67,0.329c-0.261,0.08-0.564,0.119-0.915,0.119c-0.335,0-0.629-0.038-0.881-0.11
			c-0.253-0.072-0.471-0.174-0.652-0.302c-0.18-0.131-0.328-0.283-0.445-0.462c-0.115-0.178-0.206-0.374-0.269-0.584
			c-0.046-0.151-0.078-0.314-0.099-0.487c-0.019-0.175-0.029-0.344-0.029-0.505V58.13h0.744v3.79c0,0.138,0.01,0.28,0.03,0.423
			c0.02,0.146,0.05,0.277,0.093,0.396c0.106,0.296,0.284,0.528,0.533,0.697c0.247,0.172,0.575,0.256,0.983,0.256
			c0.222,0,0.419-0.026,0.592-0.077c0.172-0.051,0.322-0.124,0.449-0.219c0.128-0.093,0.235-0.209,0.319-0.34
			c0.087-0.133,0.151-0.28,0.196-0.44c0.031-0.102,0.052-0.214,0.064-0.336c0.013-0.125,0.018-0.243,0.018-0.359v-3.79h0.745V61.904
			z"/>
	</g>
</g>
</svg>
