<?xml version="1.0" encoding="utf-8"?>
<!-- Generator: Adobe Illustrator 16.0.0, SVG Export Plug-In . SVG Version: 6.00 Build 0)  -->
<!DOCTYPE svg PUBLIC "-//W3C//DTD SVG 1.1//EN" "http://www.w3.org/Graphics/SVG/1.1/DTD/svg11.dtd">
<svg version="1.1" id="图层_1" xmlns="http://www.w3.org/2000/svg" xmlns:xlink="http://www.w3.org/1999/xlink" x="0px" y="0px"
	 width="316px" height="69px" viewBox="0 0 316 69" enable-background="new 0 0 316 69" xml:space="preserve">
<g>
	<g>
		<path d="M68.769,32.243c1.703,0,3.166,0.16,4.391,0.478c1.224,0.319,2.348,0.823,3.369,1.515c1.559,1.055,2.765,2.408,3.616,4.061
			c0.851,1.653,1.277,3.474,1.277,5.461c0,1.988-0.429,3.813-1.285,5.478c-0.857,1.664-2.059,3.017-3.607,4.061
			c-1,0.691-2.121,1.197-3.362,1.515c-1.241,0.319-2.707,0.478-4.398,0.478h-8.467V32.243H68.769z M68.769,35.39h-5.205v16.771
			h5.205c2.844,0,5.08-0.748,6.706-2.241c1.625-1.494,2.438-3.537,2.438-6.129c0-2.602-0.813-4.654-2.438-6.153
			C73.848,36.14,71.613,35.39,68.769,35.39z"/>
		<path d="M98.126,53.676c-1.011,0.648-2.051,1.134-3.122,1.458c-1.071,0.323-2.177,0.485-3.32,0.485
			c-2.405,0-4.324-0.744-5.758-2.232c-1.434-1.489-2.15-3.473-2.15-5.956c0-2.273,0.689-4.119,2.067-5.535
			c1.378-1.417,3.177-2.125,5.396-2.125c2.196,0,3.937,0.719,5.223,2.158c1.284,1.439,1.927,3.382,1.927,5.832v0.444h-11.4
			c0.087,1.439,0.56,2.562,1.417,3.37c0.856,0.807,2.004,1.211,3.443,1.211c0.966,0,1.974-0.179,3.023-0.536
			s2.134-0.898,3.254-1.623V53.676z M86.99,46.049h8.056c-0.1-1.11-0.5-2-1.203-2.668c-0.702-0.67-1.582-1.005-2.636-1.005
			c-1.164,0-2.103,0.31-2.817,0.93C87.676,43.927,87.209,44.841,86.99,46.049z"/>
		<path d="M106.149,55.588l-7.331-15.52h3.377l4.695,10.099l4.382-10.099h3.312l-7.017,15.52H106.149z"/>
		<path d="M129.56,53.676c-1.011,0.648-2.052,1.134-3.122,1.458c-1.071,0.323-2.178,0.485-3.319,0.485
			c-2.405,0-4.324-0.744-5.758-2.232c-1.433-1.489-2.15-3.473-2.15-5.956c0-2.273,0.689-4.119,2.067-5.535
			c1.378-1.417,3.178-2.125,5.396-2.125c2.197,0,3.938,0.719,5.222,2.158c1.284,1.439,1.928,3.382,1.928,5.832v0.444h-11.4
			c0.088,1.439,0.561,2.562,1.417,3.37c0.857,0.807,2.004,1.211,3.443,1.211c0.966,0,1.975-0.179,3.023-0.536
			c1.05-0.357,2.134-0.898,3.254-1.623V53.676z M118.423,46.049h8.057c-0.1-1.11-0.5-2-1.203-2.668
			c-0.704-0.67-1.581-1.005-2.636-1.005c-1.164,0-2.103,0.31-2.817,0.93C119.109,43.927,118.642,44.841,118.423,46.049z"/>
		<path d="M132.756,55.291V32.243h3.032v23.048H132.756z"/>
		<path d="M138.785,47.664c0-2.208,0.786-4.081,2.357-5.619c1.569-1.537,3.485-2.306,5.748-2.306c1.065,0,2.084,0.2,3.056,0.601
			c0.973,0.401,1.843,0.975,2.61,1.722c0.781,0.791,1.375,1.658,1.78,2.603c0.406,0.945,0.608,1.945,0.608,3
			c0,1.042-0.208,2.059-0.625,3.047c-0.418,0.988-1.005,1.85-1.764,2.586c-0.768,0.757-1.632,1.328-2.593,1.713
			c-0.962,0.384-1.985,0.577-3.073,0.577c-2.263,0-4.179-0.769-5.748-2.307C139.571,51.744,138.785,49.871,138.785,47.664z
			 M141.966,47.664c0,1.417,0.478,2.624,1.433,3.624c0.954,0.999,2.108,1.499,3.459,1.499c1.341,0,2.49-0.502,3.452-1.507
			c0.96-1.005,1.441-2.211,1.441-3.616c0-1.396-0.479-2.593-1.435-3.592c-0.954-0.999-2.107-1.5-3.459-1.5
			c-1.351,0-2.505,0.5-3.459,1.5C142.443,45.071,141.966,46.269,141.966,47.664z"/>
		<path d="M157.896,62.952V40.068h3.065v0.857c0.57-0.406,1.175-0.706,1.811-0.898c0.638-0.193,1.34-0.288,2.109-0.288
			c2.196,0,3.986,0.736,5.371,2.208c1.384,1.471,2.076,3.376,2.076,5.717c0,2.338-0.692,4.244-2.076,5.716
			c-1.385,1.472-3.175,2.208-5.371,2.208c-0.79,0-1.503-0.09-2.133-0.272c-0.633-0.181-1.229-0.469-1.787-0.865v8.501H157.896z
			 M160.961,43.413v8.534c0.493,0.362,0.996,0.629,1.507,0.799c0.511,0.171,1.057,0.255,1.639,0.255
			c1.549,0,2.769-0.475,3.657-1.425c0.89-0.95,1.334-2.254,1.334-3.912c0-1.648-0.444-2.941-1.334-3.88
			c-0.889-0.939-2.108-1.408-3.657-1.408c-0.582,0-1.128,0.082-1.639,0.246C161.957,42.787,161.454,43.05,160.961,43.413z"/>
		<path d="M188.637,53.676c-1.01,0.648-2.05,1.134-3.121,1.458c-1.071,0.323-2.178,0.485-3.32,0.485
			c-2.404,0-4.324-0.744-5.757-2.232c-1.434-1.489-2.15-3.473-2.15-5.956c0-2.273,0.688-4.119,2.067-5.535
			c1.378-1.417,3.177-2.125,5.396-2.125c2.196,0,3.937,0.719,5.222,2.158c1.285,1.439,1.928,3.382,1.928,5.832v0.444h-11.4
			c0.089,1.439,0.562,2.562,1.418,3.37c0.856,0.807,2.004,1.211,3.442,1.211c0.967,0,1.975-0.179,3.023-0.536
			c1.048-0.357,2.133-0.898,3.253-1.623V53.676z M177.5,46.049h8.056c-0.099-1.11-0.499-2-1.201-2.668
			c-0.703-0.67-1.582-1.005-2.636-1.005c-1.165,0-2.104,0.31-2.818,0.93C178.188,43.927,177.72,44.841,177.5,46.049z"/>
		<path d="M191.768,55.291V40.068h3.031v3.312c0.845-1.33,1.605-2.257,2.281-2.785c0.677-0.527,1.409-0.791,2.199-0.791
			c0.549,0,1.106,0.121,1.673,0.362s1.167,0.615,1.805,1.12l-1.647,2.702c-0.496-0.428-0.967-0.738-1.418-0.931
			c-0.45-0.192-0.923-0.288-1.417-0.288c-0.823,0-1.543,0.346-2.158,1.038c-0.614,0.692-1.055,1.653-1.317,2.883v8.6H191.768z"/>
		<path d="M203.398,54.253v-3.246c0.911,0.604,1.79,1.066,2.636,1.384c0.846,0.319,1.62,0.478,2.323,0.478
			c0.779,0,1.393-0.146,1.836-0.437c0.445-0.291,0.667-0.689,0.667-1.194c0-0.637-0.829-1.367-2.487-2.191
			c-0.483-0.241-0.856-0.433-1.119-0.577c-1.416-0.725-2.389-1.425-2.917-2.101c-0.525-0.675-0.79-1.501-0.79-2.479
			c0-1.273,0.456-2.284,1.368-3.031c0.91-0.747,2.163-1.12,3.756-1.12c0.855,0,1.681,0.101,2.47,0.304
			c0.791,0.205,1.566,0.52,2.323,0.947v2.966c-0.934-0.516-1.788-0.898-2.562-1.145c-0.775-0.247-1.507-0.371-2.199-0.371
			c-0.636,0-1.128,0.11-1.474,0.33s-0.52,0.538-0.52,0.955c0,0.77,1.06,1.675,3.178,2.719l0.281,0.131
			c1.658,0.835,2.741,1.568,3.247,2.199c0.504,0.632,0.757,1.431,0.757,2.397c0,1.34-0.503,2.411-1.508,3.212
			c-1.004,0.802-2.336,1.203-3.994,1.203c-0.956,0-1.865-0.11-2.727-0.33C205.081,55.038,204.233,54.704,203.398,54.253z"/>
		<path d="M218.522,35.852c-0.495-0.253-0.86-0.549-1.097-0.89c-0.236-0.341-0.354-0.731-0.354-1.17c0-0.549,0.179-1.01,0.535-1.383
			c0.357-0.374,0.795-0.561,1.311-0.561c0.67,0,1.216,0.286,1.641,0.857c0.422,0.571,0.633,1.329,0.633,2.273
			c0,1.186-0.343,2.21-1.029,3.073s-1.661,1.502-2.925,1.919l-0.032-0.61c0.439-0.373,0.767-0.812,0.988-1.317
			c0.22-0.505,0.33-1.087,0.33-1.747V35.852z"/>
		<path d="M233.63,55.291V32.243h3.031v23.048H233.63z"/>
		<path d="M248.241,54.039c-0.769,0.539-1.496,0.926-2.182,1.162c-0.687,0.236-1.425,0.355-2.217,0.355
			c-1.361,0-2.426-0.327-3.196-0.981c-0.768-0.653-1.152-1.551-1.152-2.693c0-1.076,0.418-2.021,1.253-2.834
			c0.832-0.812,2.092-1.499,3.772-2.059l3.606-1.203c0.012-0.087,0.021-0.175,0.025-0.263c0.006-0.088,0.008-0.214,0.008-0.379
			c0-0.912-0.222-1.568-0.666-1.969c-0.446-0.4-1.179-0.602-2.199-0.602c-0.847,0-1.72,0.179-2.62,0.536
			c-0.901,0.357-1.802,0.887-2.702,1.59V41.7c0.779-0.637,1.654-1.118,2.62-1.442c0.965-0.323,1.993-0.485,3.08-0.485
			c1.956,0,3.378,0.43,4.268,1.293c0.89,0.862,1.334,2.254,1.334,4.176v6.441c0,0.538,0.046,0.92,0.141,1.146
			c0.092,0.225,0.249,0.337,0.469,0.337c0.186,0,0.382-0.049,0.585-0.148c0.203-0.099,0.535-0.33,0.997-0.692v1.845
			c-0.551,0.472-1.104,0.821-1.665,1.046c-0.561,0.226-1.142,0.338-1.745,0.338c-0.583,0-1.02-0.122-1.31-0.363
			C248.454,54.951,248.286,54.565,248.241,54.039z M248.126,52.193v-4.464c-2.043,0.637-3.451,1.225-4.225,1.763
			c-0.775,0.539-1.162,1.164-1.162,1.877c0,0.626,0.2,1.109,0.602,1.451c0.4,0.34,0.964,0.51,1.688,0.51
			c0.539,0,1.065-0.096,1.583-0.289C247.128,52.85,247.633,52.567,248.126,52.193z"/>
		<path d="M255.325,54.583V32.243h3.065v8.682c0.57-0.406,1.184-0.706,1.837-0.898c0.653-0.193,1.381-0.288,2.183-0.288
			c2.219,0,3.997,0.722,5.337,2.166c1.342,1.444,2.01,3.364,2.01,5.759c0,2.536-0.753,4.497-2.256,5.88
			c-1.505,1.384-3.631,2.076-6.376,2.076c-0.923,0-1.858-0.085-2.809-0.255C257.366,55.195,256.37,54.934,255.325,54.583z
			 M258.391,52.227c0.549,0.197,1.076,0.346,1.582,0.444c0.504,0.1,1.004,0.149,1.498,0.149c1.604,0,2.848-0.446,3.731-1.335
			c0.884-0.89,1.326-2.152,1.326-3.789c0-1.592-0.428-2.851-1.285-3.772c-0.856-0.923-2.016-1.384-3.476-1.384
			c-0.582,0-1.151,0.093-1.705,0.28c-0.555,0.186-1.112,0.472-1.672,0.856V52.227z"/>
	</g>
	<g>
		<path d="M276.009,26.844c0.799,0,1.546,0.144,2.249,0.429c0.7,0.286,1.325,0.708,1.877,1.263c0.545,0.542,0.965,1.167,1.256,1.878
			c0.292,0.711,0.437,1.455,0.437,2.232c0,0.781-0.144,1.52-0.429,2.216c-0.287,0.696-0.703,1.311-1.247,1.846
			c-0.579,0.561-1.224,0.991-1.933,1.29c-0.712,0.3-1.448,0.45-2.21,0.45c-0.76,0-1.491-0.147-2.191-0.441
			c-0.701-0.293-1.329-0.722-1.885-1.283c-0.558-0.551-0.98-1.177-1.271-1.878c-0.292-0.7-0.438-1.434-0.438-2.2
			c0-0.771,0.146-1.51,0.44-2.216c0.294-0.706,0.723-1.342,1.283-1.91c0.546-0.545,1.165-0.961,1.858-1.248
			C274.498,26.987,275.232,26.844,276.009,26.844z M281.072,32.653c0-0.681-0.125-1.327-0.375-1.938s-0.608-1.151-1.076-1.623
			c-0.489-0.482-1.039-0.849-1.648-1.101c-0.608-0.251-1.255-0.377-1.939-0.377c-0.679,0-1.318,0.123-1.921,0.37
			c-0.601,0.247-1.139,0.605-1.612,1.077c-0.488,0.487-0.865,1.041-1.126,1.663c-0.264,0.621-0.395,1.264-0.395,1.929
			c0,0.66,0.128,1.295,0.386,1.902c0.258,0.608,0.628,1.156,1.111,1.644c0.483,0.476,1.03,0.843,1.636,1.096
			c0.607,0.254,1.248,0.381,1.921,0.381c0.657,0,1.293-0.128,1.908-0.385c0.616-0.256,1.174-0.628,1.68-1.116
			c0.474-0.461,0.833-0.992,1.08-1.592S281.072,33.34,281.072,32.653z M277.594,31.228c-0.067-0.404-0.241-0.715-0.52-0.933
			c-0.278-0.218-0.644-0.327-1.096-0.327c-0.553,0-0.986,0.238-1.301,0.713c-0.315,0.475-0.474,1.131-0.474,1.966
			c0,0.825,0.163,1.467,0.489,1.926c0.326,0.46,0.78,0.69,1.363,0.69c0.432,0,0.79-0.123,1.077-0.371
			c0.286-0.247,0.466-0.585,0.539-1.016h1.142c-0.048,0.682-0.33,1.236-0.848,1.661c-0.517,0.425-1.17,0.638-1.958,0.638
			c-0.955,0-1.704-0.315-2.248-0.945c-0.544-0.63-0.815-1.507-0.815-2.63c0-1.05,0.286-1.897,0.858-2.54s1.323-0.964,2.253-0.964
			c0.746,0,1.367,0.197,1.863,0.589c0.496,0.395,0.773,0.909,0.831,1.544H277.594z"/>
	</g>
	<g>
		<path d="M50.921,47.16c-3.27-4.925-5.709-8.587-6.726-10.131c-1.017-1.545-1.029-1.36-1.029-5.453
			c0-4.092-0.006-12.723-0.006-14.198s0.604-1.168,0.951-1.941c0.345-0.772-0.159-2.465-2.268-2.465s-2.214,0.01-3.931,0.01
			s-10.392,0.522-8.336,1.696c2.056,1.174,4.258,2.248,4.258,3.291c0,1.042,0.053,11.39,0.053,13.792
			c0,2.402,0.393,2.904-1.188,5.36c-1.581,2.456-3.829,6.021-6.468,9.769c-2.641,3.749-1.499,8.132,2.376,8.132
			s17.814,0.06,20.039,0.06S54.191,52.085,50.921,47.16z M48.67,53.437c-0.769,0-18.587,0-20.303,0s-2.587-2.354-1.716-3.828
			c0.871-1.475,8.306-12.524,8.654-14.13c0.348-1.605,0.204-16.166,0.204-17.855c0-1.32-2.727-2.871-2.846-2.99
			c-0.119-0.119,1.367-0.106,2.331-0.106c0.963,0,7.233,0,7.233,0s0.552,0.114,0.436,0.337s-1.029,0.997-1.036,1.994
			c-0.007,0.996-0.133,17.609,0.022,18.653c0.156,1.042,6.241,10.099,8.261,13.221S49.438,53.437,48.67,53.437z"/>
		<g>
			<path d="M32.444,49.016v-0.35c0-0.18,0.093-0.324,0.276-0.431l3.564-2.11c0.098-0.064,0.194-0.097,0.292-0.097
				c0.115,0,0.217,0.044,0.309,0.134c0.092,0.089,0.137,0.2,0.137,0.33c0,0.168-0.066,0.292-0.198,0.372l-3.334,1.973l3.335,1.961
				c0.132,0.086,0.197,0.214,0.197,0.383c0,0.129-0.045,0.239-0.137,0.33c-0.091,0.089-0.194,0.135-0.309,0.135
				c-0.091,0-0.188-0.032-0.292-0.097l-3.566-2.103C32.536,49.346,32.444,49.202,32.444,49.016z"/>
			<path d="M42.214,46.056l-3.674,6.231c-0.058,0.094-0.15,0.14-0.275,0.14c-0.119,0-0.229-0.04-0.331-0.122
				c-0.102-0.08-0.153-0.184-0.153-0.309c0-0.112,0.036-0.23,0.108-0.356l3.677-6.225c0.061-0.098,0.155-0.147,0.285-0.147
				c0.114,0,0.222,0.038,0.324,0.116c0.102,0.077,0.153,0.178,0.153,0.304C42.328,45.808,42.29,45.93,42.214,46.056z"/>
			<path d="M47.594,48.665v0.352c0,0.183-0.087,0.327-0.263,0.432l-3.567,2.102c-0.104,0.065-0.203,0.097-0.296,0.097
				c-0.115,0-0.218-0.043-0.31-0.129c-0.091-0.086-0.138-0.196-0.138-0.329c0-0.173,0.068-0.299,0.205-0.377l3.33-1.974l-3.33-1.96
				c-0.136-0.087-0.204-0.217-0.204-0.39c0-0.133,0.046-0.243,0.138-0.33c0.091-0.087,0.195-0.129,0.31-0.129
				c0.09,0,0.188,0.032,0.296,0.097l3.566,2.107C47.506,48.337,47.594,48.481,47.594,48.665z"/>
		</g>
	</g>
</g>
</svg>
