<?xml version="1.0" encoding="utf-8"?>
<!-- Generator: Adobe Illustrator 16.0.0, SVG Export Plug-In . SVG Version: 6.00 Build 0)  -->
<!DOCTYPE svg PUBLIC "-//W3C//DTD SVG 1.1//EN" "http://www.w3.org/Graphics/SVG/1.1/DTD/svg11.dtd">
<svg version="1.1" id="图层_1" xmlns="http://www.w3.org/2000/svg" xmlns:xlink="http://www.w3.org/1999/xlink" x="0px" y="0px"
	 width="293.817px" height="84px" viewBox="0 0 293.817 84" enable-background="new 0 0 293.817 84" xml:space="preserve">
<g>
	<g>
		<path d="M59.941,39.76c1.702,0,3.167,0.159,4.391,0.476c1.225,0.32,2.349,0.826,3.37,1.518c1.559,1.056,2.764,2.407,3.617,4.061
			c0.85,1.655,1.276,3.475,1.276,5.462c0,1.989-0.429,3.815-1.285,5.479c-0.857,1.665-2.06,3.018-3.608,4.063
			c-1,0.692-2.12,1.197-3.362,1.513c-1.242,0.32-2.708,0.48-4.399,0.48h-8.469V39.76H59.941z M59.941,42.906h-5.207v16.772h5.207
			c2.845,0,5.08-0.746,6.707-2.24c1.625-1.494,2.438-3.537,2.438-6.13c0-2.604-0.813-4.654-2.438-6.152
			C65.021,43.656,62.786,42.906,59.941,42.906z"/>
		<path d="M89.303,61.194c-1.011,0.648-2.052,1.135-3.123,1.458c-1.071,0.325-2.178,0.487-3.319,0.487
			c-2.406,0-4.326-0.744-5.76-2.234c-1.433-1.486-2.149-3.472-2.149-5.955c0-2.273,0.688-4.119,2.067-5.537
			c1.378-1.414,3.177-2.124,5.396-2.124c2.197,0,3.938,0.72,5.224,2.157c1.285,1.44,1.927,3.384,1.927,5.835v0.443H78.164
			c0.089,1.439,0.562,2.562,1.418,3.369c0.856,0.809,2.004,1.21,3.443,1.21c0.966,0,1.975-0.178,3.023-0.533
			c1.049-0.357,2.134-0.898,3.254-1.623V61.194z M78.164,53.566h8.057c-0.097-1.109-0.5-1.999-1.201-2.67
			c-0.704-0.669-1.583-1.003-2.637-1.003c-1.165,0-2.104,0.309-2.817,0.93C78.852,51.443,78.385,52.356,78.164,53.566z"/>
		<path d="M97.327,63.107l-7.333-15.522h3.377l4.696,10.101l4.383-10.101h3.312l-7.019,15.522H97.327z"/>
		<path d="M120.74,61.194c-1.011,0.648-2.05,1.135-3.123,1.458c-1.072,0.325-2.177,0.487-3.319,0.487
			c-2.406,0-4.325-0.744-5.758-2.234c-1.434-1.486-2.151-3.472-2.151-5.955c0-2.273,0.691-4.119,2.068-5.537
			c1.379-1.414,3.178-2.124,5.396-2.124c2.196,0,3.939,0.72,5.223,2.157c1.286,1.44,1.928,3.384,1.928,5.835v0.443h-11.401
			c0.088,1.439,0.559,2.562,1.417,3.369c0.856,0.809,2.004,1.21,3.443,1.21c0.966,0,1.974-0.178,3.024-0.533
			c1.049-0.357,2.134-0.898,3.253-1.623V61.194z M109.602,53.566h8.058c-0.101-1.109-0.501-1.999-1.204-2.67
			c-0.703-0.669-1.582-1.003-2.637-1.003c-1.165,0-2.103,0.309-2.817,0.93C110.288,51.443,109.822,52.356,109.602,53.566z"/>
		<path d="M123.937,62.811V39.76h3.032v23.051H123.937z"/>
		<path d="M129.966,55.182c0-2.208,0.785-4.081,2.357-5.619c1.57-1.536,3.487-2.307,5.75-2.307c1.065,0,2.083,0.201,3.055,0.602
			c0.974,0.401,1.843,0.974,2.612,1.721c0.781,0.792,1.373,1.66,1.78,2.604c0.405,0.944,0.609,1.944,0.609,2.999
			c0,1.043-0.208,2.06-0.625,3.047c-0.417,0.991-1.006,1.853-1.764,2.589c-0.769,0.756-1.634,1.328-2.595,1.713
			c-0.961,0.382-1.986,0.577-3.072,0.577c-2.263,0-4.18-0.771-5.75-2.307C130.751,59.261,129.966,57.39,129.966,55.182z
			 M133.146,55.182c0,1.417,0.478,2.624,1.434,3.624c0.955,1,2.109,1.498,3.459,1.498c1.34,0,2.491-0.5,3.452-1.507
			c0.96-1.006,1.443-2.209,1.443-3.615c0-1.395-0.479-2.593-1.434-3.593c-0.956-0.998-2.108-1.499-3.46-1.499
			c-1.351,0-2.505,0.501-3.459,1.499C133.624,52.589,133.146,53.787,133.146,55.182z"/>
		<path d="M149.08,70.471V47.585h3.066v0.856c0.569-0.405,1.174-0.705,1.812-0.896c0.636-0.192,1.339-0.289,2.108-0.289
			c2.197,0,3.987,0.737,5.371,2.206c1.383,1.475,2.077,3.38,2.077,5.72c0,2.339-0.694,4.245-2.077,5.718
			c-1.384,1.47-3.174,2.208-5.371,2.208c-0.792,0-1.503-0.093-2.134-0.272c-0.631-0.183-1.228-0.469-1.786-0.866v8.502H149.08z
			 M152.146,50.93v8.536c0.494,0.361,0.996,0.629,1.506,0.798c0.51,0.17,1.057,0.256,1.639,0.256c1.549,0,2.769-0.476,3.658-1.426
			c0.891-0.95,1.334-2.254,1.334-3.912c0-1.646-0.444-2.942-1.334-3.88c-0.889-0.94-2.108-1.408-3.658-1.408
			c-0.583,0-1.129,0.081-1.639,0.246C153.142,50.305,152.639,50.568,152.146,50.93z"/>
		<path d="M179.824,61.194c-1.009,0.648-2.051,1.135-3.122,1.458c-1.071,0.325-2.177,0.487-3.321,0.487
			c-2.405,0-4.326-0.744-5.757-2.234c-1.434-1.486-2.151-3.472-2.151-5.955c0-2.273,0.688-4.119,2.068-5.537
			c1.379-1.414,3.176-2.124,5.396-2.124c2.197,0,3.938,0.72,5.223,2.157c1.286,1.44,1.927,3.384,1.927,5.835v0.443h-11.401
			c0.087,1.439,0.56,2.562,1.416,3.369c0.857,0.809,2.005,1.21,3.443,1.21c0.967,0,1.975-0.178,3.025-0.533
			c1.047-0.357,2.133-0.898,3.253-1.623V61.194z M168.687,53.566h8.057c-0.1-1.109-0.501-1.999-1.204-2.67
			c-0.702-0.669-1.581-1.003-2.636-1.003c-1.165,0-2.104,0.309-2.816,0.93C169.373,51.443,168.906,52.356,168.687,53.566z"/>
		<path d="M182.956,62.811V47.585h3.031v3.312c0.845-1.328,1.607-2.256,2.282-2.784c0.674-0.527,1.408-0.791,2.199-0.791
			c0.549,0,1.107,0.122,1.672,0.362c0.566,0.241,1.167,0.617,1.805,1.121l-1.648,2.701c-0.496-0.428-0.967-0.738-1.417-0.929
			c-0.45-0.194-0.924-0.29-1.418-0.29c-0.823,0-1.542,0.348-2.157,1.037c-0.616,0.692-1.055,1.655-1.318,2.886v8.601H182.956z"/>
		<path d="M194.588,61.771v-3.246c0.912,0.604,1.79,1.064,2.635,1.384c0.847,0.319,1.622,0.478,2.324,0.478
			c0.78,0,1.392-0.145,1.836-0.436c0.444-0.292,0.668-0.69,0.668-1.196c0-0.636-0.829-1.365-2.488-2.189
			c-0.483-0.241-0.858-0.435-1.121-0.577c-1.417-0.724-2.389-1.425-2.916-2.102c-0.527-0.674-0.791-1.5-0.791-2.479
			c0-1.273,0.456-2.284,1.368-3.031c0.912-0.746,2.164-1.12,3.756-1.12c0.856,0,1.681,0.102,2.471,0.305
			c0.792,0.204,1.566,0.519,2.323,0.947v2.965c-0.932-0.515-1.787-0.896-2.561-1.144c-0.774-0.247-1.508-0.37-2.2-0.37
			c-0.638,0-1.128,0.109-1.474,0.328c-0.347,0.221-0.52,0.538-0.52,0.956c0,0.768,1.06,1.677,3.181,2.721l0.279,0.13
			c1.658,0.835,2.741,1.568,3.245,2.2c0.506,0.631,0.759,1.431,0.759,2.396c0,1.342-0.503,2.413-1.507,3.214
			c-1.006,0.802-2.338,1.204-3.997,1.204c-0.956,0-1.864-0.111-2.727-0.331C196.271,62.557,195.422,62.222,194.588,61.771z"/>
		<path d="M209.713,43.368c-0.495-0.254-0.859-0.55-1.096-0.891c-0.236-0.342-0.354-0.73-0.354-1.169
			c0-0.549,0.18-1.011,0.536-1.385c0.357-0.373,0.792-0.56,1.309-0.56c0.67,0,1.216,0.285,1.641,0.855
			c0.422,0.572,0.635,1.329,0.635,2.274c0,1.187-0.345,2.212-1.03,3.073c-0.687,0.862-1.663,1.5-2.924,1.919l-0.033-0.609
			c0.438-0.375,0.768-0.813,0.988-1.318c0.22-0.505,0.33-1.088,0.33-1.747V43.368z"/>
		<path d="M224.822,62.811V39.76h3.031v23.051H224.822z"/>
		<path d="M239.437,61.558c-0.77,0.539-1.496,0.925-2.184,1.16c-0.687,0.237-1.425,0.356-2.216,0.356
			c-1.362,0-2.428-0.327-3.195-0.98c-0.769-0.655-1.153-1.552-1.153-2.695c0-1.075,0.417-2.021,1.252-2.833
			c0.833-0.814,2.092-1.5,3.773-2.061l3.608-1.203c0.011-0.086,0.018-0.175,0.024-0.265c0.006-0.084,0.009-0.213,0.009-0.377
			c0-0.911-0.223-1.566-0.667-1.969c-0.445-0.4-1.178-0.602-2.2-0.602c-0.845,0-1.72,0.178-2.619,0.535
			c-0.9,0.356-1.801,0.887-2.703,1.592v-3.002c0.78-0.635,1.655-1.116,2.621-1.44c0.965-0.322,1.994-0.485,3.08-0.485
			c1.956,0,3.378,0.431,4.268,1.294c0.89,0.862,1.334,2.254,1.334,4.175v6.444c0,0.537,0.047,0.919,0.141,1.145
			c0.093,0.225,0.25,0.337,0.469,0.337c0.186,0,0.382-0.05,0.585-0.148c0.202-0.1,0.535-0.328,0.997-0.691v1.846
			c-0.549,0.472-1.104,0.821-1.664,1.046c-0.562,0.227-1.143,0.339-1.747,0.339c-0.582,0-1.019-0.122-1.31-0.364
			C239.648,62.469,239.48,62.084,239.437,61.558z M239.321,59.712v-4.463c-2.042,0.636-3.452,1.222-4.227,1.762
			c-0.775,0.536-1.161,1.165-1.161,1.879c0,0.625,0.201,1.108,0.602,1.447c0.399,0.341,0.963,0.513,1.688,0.513
			c0.539,0,1.066-0.096,1.582-0.288C238.322,60.369,238.826,60.087,239.321,59.712z"/>
		<path d="M246.522,62.102V39.76h3.063v8.682c0.572-0.405,1.183-0.705,1.837-0.896c0.653-0.192,1.382-0.289,2.184-0.289
			c2.218,0,3.997,0.724,5.336,2.166c1.341,1.445,2.012,3.365,2.012,5.76c0,2.537-0.753,4.497-2.259,5.882
			c-1.504,1.384-3.629,2.076-6.375,2.076c-0.924,0-1.859-0.085-2.81-0.256C248.562,62.714,247.565,62.452,246.522,62.102z
			 M249.585,59.745c0.55,0.197,1.078,0.346,1.582,0.444c0.506,0.099,1.006,0.147,1.5,0.147c1.603,0,2.849-0.443,3.734-1.333
			c0.881-0.89,1.326-2.152,1.326-3.789c0-1.595-0.428-2.853-1.287-3.773c-0.856-0.923-2.016-1.384-3.476-1.384
			c-0.583,0-1.151,0.092-1.705,0.28c-0.555,0.186-1.111,0.472-1.673,0.855V59.745z"/>
	</g>
	<g>
		<path d="M267.207,34.359c0.799,0,1.547,0.145,2.248,0.43c0.701,0.286,1.327,0.707,1.878,1.263c0.546,0.54,0.963,1.166,1.256,1.878
			c0.292,0.712,0.436,1.455,0.436,2.232c0,0.781-0.144,1.52-0.429,2.216c-0.286,0.697-0.702,1.313-1.247,1.847
			c-0.578,0.562-1.224,0.991-1.934,1.29c-0.711,0.299-1.447,0.449-2.209,0.449c-0.76,0-1.492-0.147-2.193-0.44
			c-0.701-0.294-1.329-0.723-1.885-1.284c-0.557-0.549-0.98-1.175-1.271-1.877c-0.293-0.701-0.438-1.434-0.438-2.2
			c0-0.771,0.146-1.511,0.442-2.218c0.293-0.704,0.721-1.343,1.282-1.907c0.546-0.546,1.165-0.962,1.857-1.248
			C265.695,34.504,266.43,34.359,267.207,34.359z M272.27,40.169c0-0.681-0.125-1.328-0.375-1.939
			c-0.25-0.608-0.61-1.149-1.076-1.622c-0.489-0.48-1.039-0.849-1.649-1.1c-0.609-0.252-1.255-0.378-1.939-0.378
			c-0.678,0-1.318,0.125-1.92,0.369c-0.602,0.247-1.14,0.607-1.612,1.078c-0.489,0.486-0.865,1.041-1.129,1.663
			c-0.263,0.62-0.393,1.264-0.393,1.929c0,0.661,0.128,1.295,0.386,1.904c0.257,0.607,0.628,1.154,1.112,1.641
			c0.483,0.478,1.027,0.843,1.636,1.097c0.607,0.255,1.248,0.382,1.92,0.382c0.657,0,1.293-0.129,1.908-0.385
			c0.615-0.257,1.175-0.63,1.681-1.115c0.473-0.463,0.833-0.993,1.082-1.592C272.147,41.5,272.27,40.855,272.27,40.169z
			 M268.793,38.743c-0.069-0.404-0.243-0.716-0.521-0.933c-0.278-0.218-0.644-0.329-1.096-0.329c-0.552,0-0.985,0.24-1.302,0.714
			c-0.315,0.476-0.472,1.131-0.472,1.967c0,0.824,0.163,1.467,0.489,1.927c0.325,0.46,0.78,0.688,1.364,0.688
			c0.431,0,0.79-0.122,1.075-0.369c0.288-0.248,0.468-0.587,0.541-1.019h1.142c-0.048,0.684-0.331,1.238-0.847,1.663
			c-0.518,0.425-1.17,0.639-1.958,0.639c-0.956,0-1.705-0.316-2.249-0.945c-0.545-0.632-0.815-1.509-0.815-2.631
			c0-1.051,0.286-1.898,0.859-2.541c0.571-0.643,1.323-0.964,2.252-0.964c0.747,0,1.368,0.197,1.863,0.588
			c0.497,0.396,0.774,0.91,0.833,1.545H268.793z"/>
	</g>
	<g>
		<g>
			<path fill="#898989" d="M26.665,39.166c0.002-0.072,0.003-0.146,0.004-0.22C26.668,39.02,26.667,39.094,26.665,39.166z"/>
			<path fill="#898989" d="M26.66,39.479c0.001-0.073,0.002-0.148,0.004-0.224C26.662,39.331,26.661,39.406,26.66,39.479z"/>
			<path fill="#898989" d="M26.671,38.84c0-0.067,0.002-0.135,0.003-0.203C26.674,38.705,26.672,38.772,26.671,38.84z"/>
			<path fill="#898989" d="M26.679,38.307c-0.001,0.067-0.002,0.135-0.002,0.199C26.677,38.441,26.678,38.374,26.679,38.307z"/>
			<path fill="#898989" d="M26.654,39.784c0.001-0.064,0.003-0.132,0.004-0.199C26.657,39.652,26.655,39.72,26.654,39.784z"/>
			<path fill="#898989" d="M26.623,40.907c0.002-0.053,0.004-0.108,0.006-0.158C26.626,40.799,26.625,40.854,26.623,40.907z"/>
			<path fill="#898989" d="M26.614,41.159c0.002-0.045,0.003-0.09,0.005-0.138C26.617,41.069,26.616,41.114,26.614,41.159z"/>
			<path fill="#898989" d="M26.604,41.399c0.002-0.042,0.004-0.086,0.005-0.129C26.608,41.313,26.606,41.357,26.604,41.399z"/>
			<path fill="#898989" d="M26.631,40.644c0.001-0.054,0.004-0.11,0.005-0.163C26.635,40.533,26.633,40.59,26.631,40.644z"/>
			<path fill="#898989" d="M26.64,40.364c0.001-0.052,0.003-0.105,0.003-0.158C26.643,40.259,26.641,40.313,26.64,40.364z"/>
			<path fill="#898989" d="M26.647,40.079c0.001-0.059,0.002-0.118,0.003-0.177C26.649,39.961,26.648,40.021,26.647,40.079z"/>
			<path fill="#898989" d="M26.701,36.029c0-0.092,0-0.183,0.002-0.273C26.701,35.847,26.701,35.938,26.701,36.029z"/>
			<path fill="#898989" d="M26.705,35.291c0-0.099,0.001-0.194,0.001-0.292C26.706,35.097,26.705,35.192,26.705,35.291z"/>
			<path fill="#898989" d="M26.703,35.659c0-0.099,0.001-0.199,0.001-0.303C26.704,35.46,26.703,35.561,26.703,35.659z"/>
			<path fill="#898989" d="M26.706,34.91c0-0.1,0-0.2,0.001-0.302C26.706,34.71,26.706,34.811,26.706,34.91z"/>
			<path fill="#898989" d="M26.707,34.538c0-0.101,0-0.203,0-0.305C26.708,34.335,26.707,34.438,26.707,34.538z"/>
			<path fill="#898989" d="M26.689,37.482c0.001-0.085,0.002-0.172,0.002-0.26C26.691,37.311,26.69,37.397,26.689,37.482z"/>
			<path fill="#898989" d="M26.685,37.828c0.001-0.087,0.002-0.177,0.003-0.266C26.687,37.651,26.687,37.741,26.685,37.828z"/>
			<path fill="#898989" d="M26.693,37.122c0-0.076,0.001-0.153,0.002-0.229C26.694,36.969,26.693,37.046,26.693,37.122z"/>
			<path fill="#898989" d="M26.696,36.756c0-0.096,0.001-0.188,0.002-0.285C26.697,36.567,26.696,36.66,26.696,36.756z"/>
			<path fill="#898989" d="M26.699,36.406c0-0.094,0.001-0.19,0.001-0.284C26.7,36.216,26.699,36.313,26.699,36.406z"/>
			<path fill="#898989" d="M26.681,38.17c0-0.072,0.002-0.148,0.002-0.222C26.683,38.021,26.682,38.098,26.681,38.17z"/>
			<path fill="#898989" d="M18.806,60.798L18.806,60.798c0.005,0.005,0.013,0.006,0.018,0.008
				C18.817,60.804,18.813,60.801,18.806,60.798z"/>
			<path fill="#898989" d="M26.594,41.629c0.002-0.041,0.004-0.084,0.005-0.123C26.599,41.545,26.596,41.588,26.594,41.629z"/>
			<path fill="#898989" d="M26.239,43.6c0.019-0.036,0.035-0.071,0.05-0.107C26.274,43.528,26.258,43.563,26.239,43.6z"/>
			<path fill="#898989" d="M26.303,43.463c0.013-0.03,0.027-0.06,0.04-0.088C26.33,43.403,26.317,43.433,26.303,43.463z"/>
			<path fill="#898989" d="M26.358,43.338c0.01-0.026,0.021-0.052,0.03-0.074C26.378,43.286,26.368,43.312,26.358,43.338z"/>
			<path fill="#898989" d="M19.209,60.924c-0.029-0.006-0.057-0.012-0.085-0.019C19.153,60.912,19.181,60.918,19.209,60.924z"/>
			<path fill="#898989" d="M19.034,60.882c-0.028-0.008-0.059-0.018-0.088-0.027C18.975,60.864,19.005,60.874,19.034,60.882z"/>
			<path fill="#898989" d="M19.381,60.946c-0.031-0.001-0.063-0.006-0.092-0.01C19.319,60.94,19.351,60.943,19.381,60.946z"/>
			<path fill="#898989" d="M41.083,56.249c-2.021-3.122-8.106-12.179-8.262-13.223c-0.075-0.502-0.084-4.613-0.074-8.853h-5.84
				c0.085,3.661,0.164,7.365,0.164,8.818c0,3.263-1.519,5.296-1.519,5.296s-3.681,6.567-5.049,8.835
				c-1.367,2.266-1.479,2.087-1.101,3.824c0.044,0.004,0.089,0.009,0.133,0.009c1.717,0,19.536,0,20.306,0
				C40.609,60.956,43.103,59.37,41.083,56.249z"/>
			<path fill="#898989" d="M26.405,43.219c0.007-0.019,0.014-0.038,0.021-0.055C26.419,43.181,26.412,43.2,26.405,43.219z"/>
			<path fill="#898989" d="M26.169,43.744c0.021-0.044,0.041-0.083,0.06-0.124C26.21,43.661,26.191,43.7,26.169,43.744z"/>
			<path fill="#898989" d="M26.561,42.228c0.002-0.03,0.003-0.063,0.005-0.093C26.564,42.165,26.563,42.197,26.561,42.228z"/>
			<path fill="#898989" d="M26.548,42.396c0.001-0.024,0.003-0.053,0.006-0.08C26.552,42.343,26.55,42.371,26.548,42.396z"/>
			<path fill="#898989" d="M26.443,43.109c0.003-0.012,0.008-0.024,0.012-0.034C26.451,43.085,26.446,43.098,26.443,43.109z"/>
			<path fill="#898989" d="M26.584,41.842c0.001-0.039,0.003-0.082,0.006-0.124C26.587,41.76,26.585,41.803,26.584,41.842z"/>
			<path fill="#898989" d="M26.535,42.55c0.002-0.021,0.004-0.045,0.006-0.069C26.539,42.505,26.537,42.529,26.535,42.55z"/>
			<path fill="#898989" d="M26.572,42.042c0.002-0.036,0.004-0.075,0.007-0.113C26.576,41.967,26.574,42.006,26.572,42.042z"/>
			<path fill="#898989" d="M26.165,43.755c-0.023,0.046-0.045,0.093-0.071,0.141l0,0C26.119,43.848,26.142,43.801,26.165,43.755z"/>
			<path fill="#898989" d="M26.491,42.911c0-0.006,0.001-0.015,0.003-0.02C26.493,42.896,26.492,42.905,26.491,42.911z"/>
			<path fill="#898989" d="M26.521,42.688c0.003-0.021,0.004-0.042,0.006-0.065C26.525,42.646,26.524,42.667,26.521,42.688z"/>
			<path fill="#898989" d="M26.506,42.809c0.003-0.019,0.005-0.039,0.008-0.061C26.511,42.77,26.509,42.79,26.506,42.809z"/>
		</g>
		<path d="M42.092,54.677c-3.269-4.925-5.71-8.589-6.727-10.132c-1.016-1.545-1.029-1.36-1.029-5.454
			c0-4.092-0.007-12.724-0.007-14.197c0-1.478,0.604-1.17,0.95-1.941c0.348-0.771-0.157-2.468-2.266-2.468
			c-2.109,0-2.215,0.011-3.932,0.011c-1.717,0-10.394,0.523-8.338,1.699c2.057,1.173,4.258,2.246,4.258,3.29
			c0,1.041,0.053,11.389,0.053,13.793c0,2.401,0.393,2.902-1.188,5.36c-1.581,2.455-3.829,6.021-6.469,9.769
			c-2.642,3.751-1.499,8.135,2.376,8.135c3.875,0,17.817,0.058,20.042,0.058C42.04,62.599,45.362,59.603,42.092,54.677z
			 M39.841,60.956c-0.77,0-18.589,0-20.306,0c-1.716,0-2.587-2.354-1.716-3.828c0.872-1.477,8.308-12.527,8.656-14.135
			c0.348-1.604,0.204-16.166,0.204-17.856c0-1.319-2.727-2.87-2.847-2.99c-0.119-0.118,1.368-0.106,2.332-0.106
			c0.963,0,7.234,0,7.234,0s0.553,0.114,0.437,0.336c-0.116,0.224-1.029,0.998-1.036,1.994c-0.008,0.998-0.133,17.613,0.022,18.656
			c0.155,1.044,6.241,10.101,8.262,13.223C43.103,59.37,40.609,60.956,39.841,60.956z"/>
		<g>
			<g>
				<path d="M23.613,56.533v-0.351c0-0.178,0.092-0.321,0.274-0.43l3.566-2.109c0.097-0.064,0.194-0.097,0.291-0.097
					c0.115,0,0.218,0.043,0.31,0.134c0.091,0.09,0.137,0.2,0.137,0.328c0,0.169-0.067,0.294-0.199,0.374l-3.335,1.973l3.336,1.961
					c0.132,0.087,0.197,0.215,0.197,0.384c0,0.13-0.045,0.239-0.137,0.33c-0.092,0.089-0.195,0.134-0.31,0.134
					c-0.09,0-0.186-0.031-0.291-0.095l-3.567-2.106C23.705,56.864,23.613,56.721,23.613,56.533z"/>
				<path d="M33.384,53.573l-3.676,6.232c-0.056,0.094-0.148,0.141-0.273,0.141c-0.12,0-0.229-0.041-0.332-0.122
					c-0.102-0.08-0.154-0.185-0.154-0.31c0-0.112,0.036-0.229,0.108-0.354l3.677-6.227c0.061-0.1,0.156-0.147,0.285-0.147
					c0.114,0,0.222,0.037,0.324,0.115c0.102,0.078,0.153,0.178,0.153,0.304C33.497,53.323,33.459,53.446,33.384,53.573z"/>
				<path d="M38.765,56.183v0.351c0,0.184-0.088,0.328-0.262,0.433l-3.568,2.104c-0.104,0.063-0.204,0.095-0.296,0.095
					c-0.115,0-0.219-0.042-0.31-0.128c-0.092-0.088-0.138-0.197-0.138-0.33c0-0.173,0.068-0.298,0.204-0.377l3.33-1.974
					l-3.331-1.962c-0.136-0.087-0.204-0.216-0.204-0.39c0-0.132,0.045-0.241,0.138-0.328c0.09-0.087,0.194-0.129,0.31-0.129
					c0.089,0,0.189,0.032,0.296,0.097l3.566,2.105C38.677,55.855,38.765,55.999,38.765,56.183z"/>
			</g>
			<circle fill="#DCDDDD" cx="32.453" cy="48.375" r="1.824"/>
			<path fill="#DCDDDD" d="M30.428,44.605c0,0.657-0.532,1.188-1.188,1.188c-0.658,0-1.19-0.53-1.19-1.188
				c0-0.659,0.533-1.191,1.19-1.191C29.896,43.414,30.428,43.946,30.428,44.605z"/>
		</g>
		<path fill="#DCDDDD" d="M30.258,39.13c0-1.055-0.855-1.909-1.909-1.909c-0.533,0-1.014,0.219-1.361,0.572
			c-0.116-5.421-0.309-12.656-0.309-12.656c0,0.022,0,0.049,0,0.075c0,0.009,0,0.02,0,0.028c0,0.055,0,0.12,0,0.191
			c0,0.016,0,0.034,0,0.052c0.001,0.074,0.001,0.155,0.001,0.243c0,0.02,0,0.042,0,0.063c0,0.033,0,0.067,0,0.104
			c0,0.025,0.001,0.051,0.001,0.077c0,0.047,0,0.094,0,0.146c0,0.008,0,0.018,0,0.024c0,0.14,0.001,0.292,0.003,0.451
			c0,0.086,0,0.17,0.001,0.261c0.003,0.572,0.007,1.251,0.011,2.001c0,0.025,0,0.048,0,0.074c0.002,0.41,0.004,0.842,0.005,1.288
			c0,0.018,0,0.037,0,0.054c0.001,0.065,0.001,0.132,0.001,0.197c0,0.033,0,0.068,0.001,0.104c0,0.209,0,0.416,0.001,0.632
			c0,0.011,0,0.022,0,0.033c0,0.146,0,0.29,0,0.435c0,0.018,0,0.033,0,0.051c0,0.077,0.001,0.154,0.001,0.231
			c0,0.001,0,0.001,0,0.003c0,0.16,0,0.316,0,0.478c0,0.011,0,0.021,0,0.032c0.001,0.073,0.001,0.149,0.001,0.224
			c0,0.026,0,0.055,0,0.082c0,0.12,0,0.242,0,0.366c0,0.036,0,0.071,0,0.106c0,0.066,0,0.135-0.001,0.2c0,0.034,0,0.066,0,0.099
			c0,0.12,0,0.24,0,0.359c0,0.036,0,0.071,0,0.105c-0.001,0.063-0.001,0.125-0.001,0.187c0,0.047,0,0.095,0,0.142
			c0,0.095,0,0.188,0,0.283c0,0.058-0.001,0.112-0.001,0.17c0,0.054,0,0.107,0,0.164c0,0.051,0,0.102,0,0.154
			c-0.001,0.084-0.001,0.171-0.002,0.255c0,0.059,0,0.116,0,0.174c0,0.061,0,0.124,0,0.188c0,0.041-0.001,0.082-0.001,0.123
			c0,0.093,0,0.185-0.001,0.279c0,0.053,0,0.106,0,0.163c-0.001,0.053-0.001,0.106-0.002,0.158c0,0.063,0,0.122-0.001,0.184
			c0,0.043,0,0.086,0,0.128c-0.001,0.095-0.002,0.188-0.002,0.282c0,0.04,0,0.08-0.002,0.119c0,0.067,0,0.136-0.001,0.201
			c0,0.04,0,0.081-0.001,0.119c-0.001,0.094-0.002,0.186-0.003,0.277c0,0.037-0.001,0.073-0.001,0.109
			c-0.001,0.068-0.002,0.137-0.003,0.207c0,0.034,0,0.067,0,0.103c0,0.009,0,0.018,0,0.026l0,0c-0.01,0.739-0.023,1.434-0.038,2.052
			c-0.001,0.01-0.001,0.018-0.001,0.025c-0.002,0.078-0.004,0.155-0.006,0.229c0,0.016,0,0.03,0,0.045
			c-0.003,0.072-0.005,0.142-0.007,0.213c-0.001,0.015-0.001,0.033-0.002,0.05c-0.002,0.064-0.004,0.128-0.006,0.19
			c0,0.022-0.001,0.044-0.002,0.065c-0.001,0.057-0.003,0.115-0.005,0.169c-0.001,0.024-0.002,0.049-0.003,0.072
			c-0.002,0.053-0.005,0.103-0.007,0.154c-0.001,0.025-0.002,0.052-0.003,0.075c-0.002,0.047-0.005,0.094-0.007,0.138
			c-0.001,0.028-0.002,0.054-0.004,0.08c-0.002,0.043-0.004,0.083-0.007,0.124c-0.001,0.026-0.003,0.052-0.003,0.077
			c-0.002,0.039-0.004,0.078-0.007,0.114c-0.002,0.026-0.004,0.052-0.005,0.078c-0.002,0.033-0.004,0.065-0.007,0.098
			c-0.001,0.027-0.004,0.053-0.005,0.078c-0.002,0.028-0.004,0.059-0.006,0.085c-0.002,0.024-0.005,0.049-0.007,0.073
			c-0.002,0.025-0.005,0.052-0.006,0.075c-0.002,0.025-0.005,0.047-0.008,0.07c-0.001,0.021-0.004,0.043-0.006,0.062
			c-0.002,0.024-0.005,0.046-0.007,0.068c-0.002,0.017-0.004,0.034-0.007,0.049c-0.003,0.023-0.006,0.045-0.01,0.068
			c-0.001,0.01-0.002,0.021-0.004,0.032c-0.005,0.029-0.011,0.06-0.016,0.081c-0.311,1.433-6.243,10.354-8.152,13.331
			c-0.068,0.104-0.129,0.201-0.187,0.289c-0.056,0.09-0.108,0.171-0.154,0.245c-0.068,0.108-0.123,0.198-0.164,0.27
			c-0.026,0.044-0.052,0.091-0.077,0.138c-0.007,0.015-0.014,0.032-0.022,0.048c-0.013,0.032-0.029,0.063-0.042,0.096
			c-0.008,0.02-0.015,0.04-0.023,0.06c-0.011,0.029-0.023,0.058-0.033,0.086c-0.007,0.023-0.014,0.046-0.02,0.067
			c-0.009,0.027-0.019,0.056-0.026,0.085c-0.007,0.021-0.012,0.046-0.017,0.068c-0.007,0.028-0.014,0.057-0.02,0.084
			c-0.005,0.025-0.009,0.051-0.014,0.074c-0.005,0.025-0.011,0.054-0.016,0.081c-0.003,0.025-0.007,0.05-0.01,0.075
			c-0.002,0.028-0.006,0.056-0.009,0.083c-0.002,0.024-0.003,0.052-0.005,0.078c-0.002,0.025-0.004,0.051-0.005,0.078
			c0,0.026,0,0.054,0,0.081c-0.001,0.025-0.002,0.051-0.001,0.078c0.001,0.025,0.001,0.055,0.002,0.082
			c0.001,0.024,0.002,0.048,0.004,0.074c0.001,0.028,0.004,0.057,0.007,0.086c0.002,0.023,0.004,0.048,0.007,0.071
			c0.004,0.028,0.008,0.057,0.013,0.087c0.004,0.023,0.007,0.046,0.011,0.069c0.005,0.029,0.011,0.059,0.017,0.087
			c0.005,0.021,0.009,0.044,0.015,0.064c0.006,0.031,0.013,0.062,0.021,0.092c0.005,0.021,0.011,0.041,0.017,0.06
			c0.008,0.031,0.017,0.062,0.027,0.091c0.006,0.019,0.013,0.037,0.019,0.058c0.01,0.031,0.022,0.063,0.033,0.092
			c0.007,0.018,0.014,0.036,0.021,0.052c0.012,0.031,0.026,0.062,0.038,0.094c0.007,0.014,0.015,0.031,0.022,0.048
			c0.015,0.031,0.03,0.062,0.045,0.091c0.007,0.016,0.015,0.03,0.022,0.045c0.017,0.03,0.034,0.06,0.051,0.09
			c0.008,0.014,0.015,0.027,0.023,0.04c0.02,0.03,0.038,0.06,0.057,0.089c0.008,0.013,0.017,0.023,0.025,0.036
			c0.021,0.029,0.041,0.058,0.063,0.087c0.009,0.01,0.017,0.021,0.025,0.032c0.022,0.029,0.045,0.055,0.07,0.084
			c0.008,0.009,0.016,0.018,0.023,0.027c0.026,0.027,0.051,0.055,0.077,0.079c0.007,0.008,0.016,0.018,0.023,0.024
			c0.028,0.026,0.056,0.054,0.084,0.078c0.007,0.008,0.015,0.014,0.022,0.02c0.029,0.025,0.06,0.048,0.09,0.072
			c0.007,0.005,0.014,0.011,0.021,0.015c0.032,0.024,0.064,0.046,0.097,0.068c0.007,0.003,0.014,0.007,0.02,0.012
			c0.035,0.021,0.069,0.043,0.105,0.062c0.006,0.002,0.011,0.006,0.018,0.011c0.036,0.018,0.074,0.035,0.112,0.054
			c0.005,0.001,0.011,0.005,0.017,0.007c0.038,0.015,0.078,0.031,0.12,0.045c0.004,0.001,0.008,0.001,0.013,0.003
			c0.042,0.016,0.084,0.027,0.127,0.037c0.003,0.002,0.007,0.002,0.01,0.003c0.045,0.01,0.09,0.02,0.136,0.027
			c0.002,0,0.003,0.001,0.004,0.001c0.049,0.008,0.098,0.014,0.147,0.018c-0.379-1.74-0.267-1.562,1.1-3.827
			c1.368-2.268,5.049-8.835,5.049-8.835s1.519-2.033,1.519-5.296c0-0.546-0.011-1.411-0.029-2.474
			c0.342,0.322,0.8,0.521,1.308,0.521C29.403,41.04,30.258,40.184,30.258,39.13z"/>
	</g>
</g>
</svg>
