<?xml version="1.0" encoding="utf-8"?>
<!-- Generator: Adobe Illustrator 16.0.0, SVG Export Plug-In . SVG Version: 6.00 Build 0)  -->
<!DOCTYPE svg PUBLIC "-//W3C//DTD SVG 1.1//EN" "http://www.w3.org/Graphics/SVG/1.1/DTD/svg11.dtd">
<svg version="1.1" id="图层_1" xmlns="http://www.w3.org/2000/svg" xmlns:xlink="http://www.w3.org/1999/xlink" x="0px" y="0px"
	 width="93.75px" height="57px" viewBox="0 0 93.75 57" enable-background="new 0 0 93.75 57" xml:space="preserve">
<g>
	<path fill="#E94622" d="M15.746,32.881c0,3.041-2.475,5.525-5.53,5.525c-3.04,0-5.511-2.485-5.511-5.525
		c0-3.071,2.471-5.53,5.511-5.53C13.271,27.351,15.746,29.81,15.746,32.881z"/>
	<path fill="#1C85AA" d="M88.783,10.22c0,3.715-2.992,6.691-6.692,6.691c-3.7,0-6.691-2.976-6.691-6.691
		c0-3.686,2.992-6.693,6.691-6.693C85.792,3.527,88.783,6.534,88.783,10.22z"/>
	<path fill="#3EA237" d="M56.364,42.449c0,6.075-4.946,11.056-11.042,11.056s-11.042-4.98-11.042-11.056
		c0-6.111,4.946-11.057,11.042-11.057S56.364,36.338,56.364,42.449z"/>
	<path fill="#7EC4DD" d="M35.125,15.359c0,1.715-1.392,3.103-3.103,3.103c-1.715,0-3.122-1.388-3.122-3.103
		c0-1.714,1.407-3.103,3.122-3.103C33.733,12.256,35.125,13.645,35.125,15.359z"/>
</g>
</svg>
