<?xml version="1.0" encoding="utf-8"?>
<!-- Generator: Adobe Illustrator 16.0.0, SVG Export Plug-In . SVG Version: 6.00 Build 0)  -->
<!DOCTYPE svg PUBLIC "-//W3C//DTD SVG 1.1//EN" "http://www.w3.org/Graphics/SVG/1.1/DTD/svg11.dtd">
<svg version="1.1" id="图层_1" xmlns="http://www.w3.org/2000/svg" xmlns:xlink="http://www.w3.org/1999/xlink" x="0px" y="0px"
	 width="194.75px" height="57px" viewBox="0 0 194.75 57" enable-background="new 0 0 194.75 57" xml:space="preserve">
<g>
	<g>
		<path fill="#E94622" d="M15.293,30.518c0,2.798-2.278,5.084-5.089,5.084c-2.797,0-5.071-2.287-5.071-5.084
			c0-2.826,2.274-5.088,5.071-5.088C13.015,25.43,15.293,27.692,15.293,30.518z"/>
		<path fill="#1C85AA" d="M82.504,9.665c0,3.418-2.753,6.157-6.158,6.157c-3.404,0-6.158-2.738-6.158-6.157
			c0-3.392,2.753-6.159,6.158-6.159C79.751,3.506,82.504,6.273,82.504,9.665z"/>
		<path fill="#3EA237" d="M52.67,39.324c0,5.59-4.551,10.173-10.16,10.173s-10.161-4.583-10.161-10.173
			c0-5.624,4.552-10.175,10.161-10.175S52.67,33.7,52.67,39.324z"/>
		<path fill="#7EC4DD" d="M33.126,14.394c0,1.579-1.282,2.856-2.856,2.856c-1.578,0-2.873-1.278-2.873-2.856
			c0-1.577,1.295-2.854,2.873-2.854C31.845,11.54,33.126,12.817,33.126,14.394z"/>
	</g>
	<g>
		<path fill="#33302F" d="M75.205,35.382h-6.347v12.806h-3.154V35.382h-6.308V32.19h15.809V35.382z"/>
		<path fill="#33302F" d="M80.811,41.8v3.195h11.843v3.193H80.811c-0.923,0-1.68-0.325-2.262-0.92
			c-0.606-0.596-0.893-1.38-0.893-2.273v-9.613c0-0.919,0.27-1.679,0.826-2.272c0.54-0.624,1.313-0.92,2.329-0.92h9.504
			c0.933,0,1.676,0.323,2.273,0.92c0.596,0.622,0.893,1.353,0.893,2.272v3.222c0,0.866-0.283,1.626-0.827,2.219
			c-0.592,0.65-1.379,0.977-2.339,0.977H80.811z M90.315,38.604v-3.222h-9.504v3.222H90.315z"/>
		<path fill="#33302F" d="M111.351,48.188H99.221c-1.705,0-2.722-0.704-3.045-2.135c-0.084-0.327-0.109-0.681-0.109-1.058v-9.613
			c0-0.839,0.3-1.569,0.88-2.219c0.595-0.65,1.339-0.973,2.274-0.973h12.129v3.192H99.221v9.613h12.129V48.188z"/>
		<path fill="#33302F" d="M129.001,48.188h-3.139V35.382h-9.53v12.806h-3.142V27.585h3.142v4.604h9.53
			c1.675,0,2.705,0.73,3.032,2.191c0.081,0.298,0.107,0.652,0.107,1.001V48.188z"/>
		<path fill="#33302F" d="M135.282,48.188h-3.167V27.585h3.167V48.188z"/>
		<path fill="#33302F" d="M150.608,48.188h-9.478c-1.706,0-2.706-0.704-3.058-2.135c-0.081-0.327-0.108-0.681-0.108-1.058v-9.613
			c0-0.839,0.297-1.569,0.894-2.219c0.598-0.65,1.353-0.973,2.272-0.973h9.478c0.919,0,1.678,0.323,2.274,0.946
			c0.595,0.625,0.919,1.379,0.919,2.246v9.613C153.802,47.131,152.719,48.188,150.608,48.188z M150.608,44.996v-9.613h-9.478v9.613
			H150.608z"/>
		<path fill="#33302F" d="M169.018,53.496h-5.416v-3.222h5.416v-2.085h-9.531c-0.812,0-1.569-0.325-2.219-0.92
			c-0.595-0.596-0.919-1.353-0.919-2.192v-9.694c0-0.893,0.27-1.651,0.836-2.272c0.568-0.597,1.33-0.92,2.302-0.92h12.669v18.084
			C172.156,52.413,171.129,53.496,169.018,53.496z M169.018,44.996v-9.613h-9.531v9.613H169.018z"/>
		<path fill="#33302F" d="M186.78,48.188h-11.317v-3.193h11.317V41.8h-8.396c-0.81,0-1.463-0.217-2.029-0.649
			c-0.543-0.407-0.893-0.978-1.055-1.681c-0.055-0.27-0.111-0.57-0.111-0.866v-3.222c0-0.839,0.3-1.569,0.866-2.219
			c0.624-0.65,1.382-0.973,2.329-0.973h10.453v3.192h-10.453v3.222h8.396c0.919,0,1.677,0.296,2.271,0.92
			c0.598,0.623,0.896,1.355,0.896,2.275v3.195c0,0.893-0.275,1.65-0.84,2.219C188.565,47.864,187.75,48.188,186.78,48.188z"/>
	</g>
</g>
</svg>
