<?xml version="1.0" encoding="utf-8"?>
<!-- Generator: Adobe Illustrator 16.0.0, SVG Export Plug-In . SVG Version: 6.00 Build 0)  -->
<!DOCTYPE svg PUBLIC "-//W3C//DTD SVG 1.1//EN" "http://www.w3.org/Graphics/SVG/1.1/DTD/svg11.dtd">
<svg version="1.1" id="图层_1" xmlns="http://www.w3.org/2000/svg" xmlns:xlink="http://www.w3.org/1999/xlink" x="0px" y="0px"
	 width="194.75px" height="57px" viewBox="0 0 194.75 57" enable-background="new 0 0 194.75 57" xml:space="preserve">
<g>
	<g>
		<g>
			<polygon fill="#83CDE1" points="13.262,27.506 12.829,27.268 12.664,26.82 26.852,15.957 27.265,16.136 27.474,16.612 			"/>
			<polygon fill="#7DB6D8" points="30.824,16.701 30.361,16.729 29.99,17.089 36.602,30.364 37.195,30.394 37.403,29.979 			"/>
			<polygon fill="#7DB6D8" points="49.608,33.192 49.146,32.924 49.029,32.506 70.611,13.575 71.044,13.813 71.251,14.231 			"/>
		</g>
		<g>
			<path fill="#E94622" d="M14.229,30.485c0,2.799-2.28,5.088-5.093,5.088c-2.8,0-5.075-2.289-5.075-5.088
				c0-2.828,2.275-5.093,5.075-5.093C11.949,25.392,14.229,27.657,14.229,30.485z"/>
			<path fill="#1C85AA" d="M81.492,9.615c0,3.423-2.755,6.162-6.163,6.162s-6.163-2.739-6.163-6.162
				c0-3.394,2.755-6.164,6.163-6.164S81.492,6.221,81.492,9.615z"/>
			<path fill="#3EA237" d="M51.636,39.296c0,5.596-4.555,10.183-10.169,10.183c-5.613,0-10.168-4.587-10.168-10.183
				c0-5.627,4.555-10.182,10.168-10.182C47.081,29.114,51.636,33.668,51.636,39.296z"/>
			<path fill="#7EC4DD" d="M32.075,14.348c0,1.58-1.281,2.858-2.857,2.858c-1.579,0-2.875-1.278-2.875-2.858
				c0-1.579,1.296-2.857,2.875-2.857C30.794,11.491,32.075,12.769,32.075,14.348z"/>
		</g>
	</g>
	<g>
		<path fill="#33302F" d="M74.188,35.353h-6.352v12.815h-3.158V35.353h-6.312v-3.196h15.822V35.353z"/>
		<path fill="#33302F" d="M79.798,41.776v3.197H91.65v3.195H79.798c-0.924,0-1.682-0.324-2.265-0.919
			c-0.606-0.598-0.893-1.381-0.893-2.276v-9.62c0-0.92,0.27-1.681,0.827-2.275c0.54-0.624,1.313-0.921,2.331-0.921h9.511
			c0.934,0,1.678,0.325,2.274,0.921c0.597,0.623,0.894,1.354,0.894,2.275v3.224c0,0.867-0.283,1.629-0.827,2.222
			c-0.594,0.649-1.38,0.978-2.341,0.978H79.798z M89.309,38.577v-3.224h-9.511v3.224H89.309z"/>
		<path fill="#33302F" d="M110.362,48.168H98.223c-1.708,0-2.725-0.704-3.047-2.137c-0.083-0.327-0.11-0.681-0.11-1.058v-9.62
			c0-0.841,0.3-1.57,0.879-2.221c0.597-0.65,1.341-0.975,2.278-0.975h12.139v3.196H98.223v9.62h12.139V48.168z"/>
		<path fill="#33302F" d="M128.026,48.168h-3.141V35.353h-9.539v12.815h-3.145V27.549h3.145v4.608h9.539
			c1.676,0,2.706,0.731,3.033,2.195c0.081,0.297,0.107,0.651,0.107,1.001V48.168z"/>
		<path fill="#33302F" d="M134.312,48.168h-3.168V27.549h3.168V48.168z"/>
		<path fill="#33302F" d="M149.649,48.168h-9.485c-1.707,0-2.707-0.704-3.061-2.137c-0.081-0.327-0.108-0.681-0.108-1.058v-9.62
			c0-0.841,0.297-1.57,0.894-2.221c0.599-0.65,1.354-0.975,2.274-0.975h9.485c0.92,0,1.679,0.325,2.277,0.947
			c0.595,0.625,0.92,1.381,0.92,2.249v9.62C152.847,47.11,151.763,48.168,149.649,48.168z M149.649,44.973v-9.62h-9.485v9.62
			H149.649z"/>
		<path fill="#33302F" d="M168.073,53.48h-5.418v-3.225h5.418v-2.088h-9.538c-0.813,0-1.57-0.324-2.221-0.919
			c-0.596-0.598-0.92-1.355-0.92-2.195v-9.701c0-0.894,0.271-1.652,0.837-2.275c0.569-0.596,1.332-0.921,2.304-0.921h12.68v18.099
			C171.215,52.396,170.188,53.48,168.073,53.48z M168.073,44.973v-9.62h-9.538v9.62H168.073z"/>
		<path fill="#33302F" d="M185.849,48.168h-11.326v-3.195h11.326v-3.197h-8.402c-0.809,0-1.465-0.218-2.031-0.65
			c-0.543-0.408-0.893-0.978-1.056-1.683c-0.054-0.27-0.11-0.569-0.11-0.867v-3.224c0-0.841,0.3-1.57,0.866-2.221
			c0.625-0.65,1.383-0.975,2.331-0.975h10.461v3.196h-10.461v3.224h8.402c0.92,0,1.68,0.297,2.272,0.922
			c0.598,0.623,0.898,1.356,0.898,2.277v3.197c0,0.895-0.274,1.651-0.841,2.222C187.636,47.844,186.822,48.168,185.849,48.168z"/>
	</g>
</g>
</svg>
