<?xml version="1.0" encoding="utf-8"?>
<!-- Generator: Adobe Illustrator 19.0.0, SVG Export Plug-In . SVG Version: 6.00 Build 0)  -->
<svg version="1.1" id="图层_1" xmlns="http://www.w3.org/2000/svg" xmlns:xlink="http://www.w3.org/1999/xlink" x="0px" y="0px"
	 viewBox="0 0 2484.039 688" enable-background="new 0 0 2484.039 688" xml:space="preserve">
<g>
	<path fill="#9C0013" d="M419.021,486.069l-57.074-98.999H112.33c9.698,45.487,33.739,85.542,67.039,115.575h223.327
		C408.464,497.441,413.844,491.851,419.021,486.069z"/>
	<path fill="#DB0013" d="M411.986,170.915l-23.16,40.116l-43.565,75.345l57.968,100.405h-0.298l66.807,115.864
		c33.296-30.033,57.345-70.088,67.035-115.575L411.986,170.915z"/>
	<path fill="#DF0013" d="M246.005,387.07l145.292-251.997c-21.035-6.789-43.438-10.557-66.741-10.557
		c-23.304,0-45.706,3.768-66.737,10.557L112.33,387.07H246.005"/>
	<path fill="#DF0013" d="M786.296,419.941c5.776,0,10.458,4.682,10.458,10.458v6.225c0,5.776-4.682,10.458-10.458,10.458h53.387
		v-27.142H786.296z"/>
	<path d="M839.729,447.083h-97.436v-27.142h97.389c-0.678-4.438-2.582-8.712-5.75-12.844c-7.434-8.568-16.566-12.844-27.399-12.844
		h-98.942v108.392h32.309h1.889h0.504v-0.509v-0.905v-28.443h38.544l15.748,29.857h43.097v-0.971
		c-11.697-18.229-18.384-28.736-20.047-31.533c0.211,0,1.346-0.402,3.399-1.191C832.974,462.923,838.535,455.632,839.729,447.083z"
		/>
	<path d="M881.77,394.254c-6.72,0-13.269,1.928-19.651,5.782c-9.194,6.729-13.794,14.246-13.794,22.551v50.709
		c0,4.573,1.301,9.023,3.903,13.352c7.473,10.653,17.486,15.998,30.045,15.998h99.687v-25.442h-79.786h-1.933
		c-12.186,0-22.064-9.879-22.064-22.064v-13.133c0-12.186,9.879-22.064,22.064-22.064h1.43h80.29v-25.688H881.77z"/>
	<path d="M1285.053,404.701c-2.005-1.739-4.004-3.261-5.996-4.566c-1.494-0.979-2.984-1.836-4.471-2.57
		c-0.495-0.245-0.991-0.476-1.485-0.694c-0.989-0.435-1.977-0.816-2.963-1.143c-2.958-0.98-5.901-1.47-8.828-1.47l-101.182-0.005
		v108.392h34.702v-82.714l50.482,0.013c12.453,0,22.549,10.092,22.554,22.544v60.157h25.688v-77.847
		c0-3.265-0.542-6.386-1.627-9.361C1290.533,411.614,1288.242,408.033,1285.053,404.701z"/>
	<rect x="1318.616" y="394.254" width="97.791" height="25.688"/>
	<rect x="1302.151" y="436.692" width="97.791" height="23.497"/>
	<rect x="1318.616" y="476.94" width="97.791" height="25.705"/>
	<path d="M1546.612,394.254c-0.166,0-14.575,16.761-43.232,50.313v-0.324l-43.232-49.989h-35.145v108.392h34.702v-64.499
		c23.334,27.154,37.887,44.034,43.675,50.646v0.158l43.736-50.804v64.499h34.641V394.254H1546.612z"/>
	<path d="M637.656,394.254h-39.053c-4.177,7.22-24.378,42.99-60.586,107.234v1.158h34.641l45.597-77.851l45.851,77.851h34.891
		v-0.509C658.691,430.928,638.243,394.973,637.656,394.254z"/>
	<path d="M1090.194,394.254h-39.053c-4.177,7.22-24.378,42.99-60.586,107.234v1.158h34.641l45.597-77.851l45.851,77.851h34.891
		v-0.509C1111.229,430.928,1090.781,394.973,1090.194,394.254z"/>
	<path d="M1689.99,394.254h-39.053c-4.177,7.22-24.378,42.99-60.586,107.234v1.158h34.641l45.597-77.851l45.851,77.851h34.891
		v-0.509C1711.026,430.928,1690.577,394.973,1689.99,394.254z"/>
	<path fill="#DF0013" d="M1949.227,419.941c5.776,0,10.458,4.682,10.458,10.458v6.225c0,5.776-4.682,10.458-10.458,10.458h53.387
		v-27.142H1949.227z"/>
	<polygon points="1734.14,394.254 1734.14,419.95 1780.683,419.95 1780.683,502.654 1815.385,502.654 1815.385,419.95 
		1861.928,419.95 1861.928,394.262 	"/>
	<path d="M1985.966,468.95c9.94-6.027,15.5-13.318,16.695-21.867h-97.436v-27.142h97.389c-0.678-4.438-2.582-8.712-5.75-12.844
		c-7.434-8.568-16.566-12.844-27.399-12.844h-98.942v108.392h34.702v-29.857h38.544l15.748,29.857h43.097v-0.971
		c-11.697-18.229-18.384-28.736-20.047-31.533C1982.778,470.141,1983.913,469.739,1985.966,468.95z"/>
	<rect x="2011.209" y="394.254" width="34.702" height="108.392"/>
	<path d="M2187.145,394.254h-41.755c-4.074,4.394-12.217,14.04-24.439,28.968c-15.954-18.887-24.202-28.549-24.749-28.968h-41.695
		v0.918c2.826,3.557,17.769,21.358,44.843,53.426l-44.843,53.785v0.262h42.197c4.24-4.552,12.157-13.97,23.742-28.218h0.696
		c11.587,14.249,19.524,23.667,23.805,28.218h42.197v-0.262c-9.445-11.493-24.413-29.352-44.905-53.594l44.905-53.763V394.254z"/>
</g>
</svg>
