<?xml version="1.0" encoding="utf-8"?>
<!-- Generator: Adobe Illustrator 19.0.0, SVG Export Plug-In . SVG Version: 6.00 Build 0)  -->
<svg version="1.1" id="图层_1" xmlns="http://www.w3.org/2000/svg" xmlns:xlink="http://www.w3.org/1999/xlink" x="0px" y="0px"
	 viewBox="0 0 49.9 49.9" style="enable-background:new 0 0 49.9 49.9;" xml:space="preserve">
<style type="text/css">
	.st0{fill:#34A7D0;}
</style>
<g id="XMLID_430_">
	<path id="XMLID_431_" class="st0" d="M30.2,8.9h-2.8c-0.5,0-1,0.1-1.4,0.4c-0.4,0.3-0.7,0.7-0.8,1.2l-3.8,13.6
		c-0.1,0.4,0.2,0.8,0.6,0.8h4.3c2,0,4-0.6,5.9-1.8c1.9-1.2,3.3-3.3,4.1-6.3c0.8-2.7,0.7-4.7-0.3-6C34.9,9.5,33.1,8.9,30.2,8.9z"/>
	<path id="XMLID_434_" class="st0" d="M44.6,0H5.3C2.4,0,0,2.4,0,5.3v39.2c0,3,2.4,5.3,5.3,5.3h39.2c3,0,5.3-2.4,5.3-5.3V5.3
		C49.9,2.4,47.5,0,44.6,0z M39.6,16.6c-0.9,3.1-2.5,5.5-4.9,7.1c-2.4,1.6-5,2.4-7.7,2.4h-5.8c-0.3,0-0.5,0.2-0.6,0.4L17,39.4
		c-0.2,0.5-0.1,0.9,0.2,1.2c0.3,0.3,0.7,0.4,1.2,0.4h18.1c2,0,4.2,1.7,2,1.7h-28c-0.8,0-0.6-1.1-0.6-1.1c0.1-0.3,0.3-0.7,0.6-0.7h1
		c0.7,0,1.2-0.1,1.5-0.4c0.3-0.3,0.6-0.7,0.7-1.2l8.1-28.9C22,10,22,9.6,21.8,9.3c-0.2-0.3-0.6-0.4-1.3-0.4h-0.4
		c-0.4,0-0.7-0.4-0.6-0.8c0.1-0.3,0.3-0.4,0.6-0.4h11.5c3.4,0,5.7,0.8,7.1,2.5C40,11.9,40.3,14,39.6,16.6z"/>
</g>
</svg>
