<?xml version="1.0" encoding="utf-8"?>
<!-- Generator: Adobe Illustrator 16.0.0, SVG Export Plug-In . SVG Version: 6.00 Build 0)  -->
<!DOCTYPE svg PUBLIC "-//W3C//DTD SVG 1.1//EN" "http://www.w3.org/Graphics/SVG/1.1/DTD/svg11.dtd">
<svg version="1.1" id="图层_1" xmlns="http://www.w3.org/2000/svg" xmlns:xlink="http://www.w3.org/1999/xlink" x="0px" y="0px"
	 width="257px" height="47.75px" viewBox="0 0 257 47.75" enable-background="new 0 0 257 47.75" xml:space="preserve">
<g>
	<path fill="#E83828" d="M44.11,44.759h-7.572L32.797,34.17H16.44l-3.595,10.589H5.303L20.878,3.167h7.773L44.11,44.759z
		 M30.974,28.544l-5.772-16.588c-0.178-0.543-1.036-0.639-1.249,0l-5.71,16.588H30.974z"/>
	<path fill="#E83828" d="M45.667,13.299h-2.116c-0.7,0-1.055-0.335-1.055-1.016c0-0.679,0.354-1.007,1.055-1.007h2.116
		c0.886,0,1.632-0.299,2.248-0.888c0.61-0.589,0.923-1.306,0.923-2.154c0-0.842-0.313-1.559-0.933-2.147
		c-0.616-0.6-1.369-0.89-2.238-0.89h-4.223c-0.709,0-1.061-0.344-1.061-1.015c0-0.676,0.352-1.015,1.061-1.015h4.223
		c1.466,0,2.706,0.498,3.737,1.489c1.027,0.992,1.545,2.185,1.545,3.578c0,1.677-0.702,3.031-2.111,4.049
		c1.409,1.025,2.111,2.377,2.111,4.06v2.022c0,1.403-0.521,2.602-1.555,3.592c-1.033,0.989-2.276,1.473-3.728,1.473h-4.223
		c-0.709,0-1.061-0.339-1.061-1.016c0-0.667,0.352-1.01,1.061-1.01h4.223c0.886,0,1.632-0.291,2.248-0.878
		c0.61-0.592,0.923-1.313,0.923-2.162v-2.022c0-0.839-0.313-1.555-0.933-2.155C47.289,13.599,46.536,13.299,45.667,13.299z"/>
	<path fill="#E83828" d="M58.694,6.618l-2.43,2.335c-0.21,0.198-0.451,0.296-0.743,0.296c-0.703,0-1.048-0.34-1.048-1.016
		c0-0.276,0.092-0.514,0.302-0.708l4.128-3.962c0.273-0.266,0.555-0.396,0.846-0.396c0.704,0,1.06,0.338,1.06,1.015v18.232
		c0,0.676-0.355,1.016-1.06,1.016c-0.7,0-1.055-0.339-1.055-1.016V6.618z"/>
	<path d="M52.293,44.759c-1.26,0-2.325-0.435-3.193-1.303c-0.869-0.87-1.305-1.935-1.305-3.195c0-0.817,0.199-1.572,0.597-2.266
		c0.853-1.487,2.152-2.232,3.901-2.232h4.498v-2.248c0-0.637-0.215-1.17-0.647-1.603c-0.432-0.431-0.966-0.646-1.601-0.646h-4.498
		c-0.75,0-1.124-0.375-1.124-1.125c0-0.749,0.374-1.124,1.124-1.124h4.498c1.26,0,2.325,0.435,3.193,1.303
		c0.87,0.869,1.305,1.934,1.305,3.195v10.12c0,0.749-0.376,1.124-1.125,1.124H52.293z M56.791,38.013h-4.498
		c-0.625,0-1.154,0.218-1.593,0.655c-0.437,0.437-0.655,0.968-0.655,1.593c0,0.613,0.222,1.143,0.664,1.585
		c0.443,0.442,0.972,0.665,1.584,0.665h4.498V38.013z"/>
	<path d="M72.468,40.823c0-0.716-0.317-1.227-0.954-1.534l-5.775-2.775c-1.51-0.729-2.267-1.915-2.267-3.563
		c0-1.294,0.534-2.293,1.603-2.997c0.92-0.614,2.067-0.921,3.441-0.921c1.67,0,3.163,0.415,4.481,1.244
		c0.397,0.25,0.596,0.58,0.596,0.988c0,0.306-0.11,0.57-0.332,0.793c-0.222,0.221-0.485,0.331-0.793,0.331
		c-0.203,0-0.38-0.045-0.527-0.137c-1.079-0.646-2.222-0.97-3.425-0.97c-1.862,0-2.794,0.556-2.794,1.668
		c0,0.706,0.307,1.205,0.92,1.5l5.826,2.812c1.499,0.727,2.25,1.914,2.25,3.561c0,1.363-0.54,2.386-1.619,3.067
		c-0.92,0.578-2.107,0.868-3.561,0.868c-2.158,0-3.971-0.414-5.436-1.244c-0.42-0.238-0.631-0.573-0.631-1.004
		c0-0.308,0.111-0.572,0.333-0.793c0.222-0.222,0.486-0.333,0.793-0.333c0.146,0,0.289,0.028,0.426,0.086
		c0.363,0.159,0.897,0.369,1.602,0.63c1.021,0.272,2.016,0.41,2.981,0.41C71.514,42.511,72.468,41.947,72.468,40.823z"/>
	<path d="M88.109,40.823c0-0.716-0.317-1.227-0.954-1.534l-5.775-2.775c-1.511-0.729-2.267-1.915-2.267-3.563
		c0-1.294,0.534-2.293,1.603-2.997c0.919-0.614,2.067-0.921,3.441-0.921c1.669,0,3.162,0.415,4.48,1.244
		c0.398,0.25,0.597,0.58,0.597,0.988c0,0.306-0.111,0.57-0.332,0.793c-0.222,0.221-0.485,0.331-0.793,0.331
		c-0.204,0-0.38-0.045-0.528-0.137c-1.079-0.646-2.221-0.97-3.424-0.97c-1.863,0-2.794,0.556-2.794,1.668
		c0,0.706,0.306,1.205,0.919,1.5l5.827,2.812c1.499,0.727,2.249,1.914,2.249,3.561c0,1.363-0.539,2.386-1.618,3.067
		c-0.92,0.578-2.108,0.868-3.562,0.868c-2.158,0-3.97-0.414-5.435-1.244c-0.42-0.238-0.631-0.573-0.631-1.004
		c0-0.308,0.111-0.572,0.333-0.793c0.221-0.222,0.486-0.333,0.793-0.333c0.146,0,0.288,0.028,0.426,0.086
		c0.363,0.159,0.896,0.369,1.601,0.63c1.022,0.272,2.017,0.41,2.982,0.41C87.155,42.511,88.109,41.947,88.109,40.823z"/>
	<path d="M94.772,39.137v-4.498c0-1.556,0.548-2.882,1.645-3.979c1.096-1.096,2.423-1.644,3.979-1.644
		c1.579,0,2.91,0.542,3.995,1.627c1.084,1.084,1.627,2.417,1.627,3.995v4.498c0,1.556-0.548,2.882-1.645,3.979
		c-1.096,1.096-2.421,1.644-3.978,1.644c-1.556,0-2.883-0.548-3.979-1.644C95.32,42.019,94.772,40.692,94.772,39.137z
		 M103.769,39.137v-4.498c0-0.931-0.329-1.727-0.988-2.386c-0.658-0.657-1.453-0.987-2.385-0.987c-0.933,0-1.727,0.33-2.386,0.987
		c-0.659,0.659-0.988,1.455-0.988,2.386v4.498c0,0.943,0.327,1.741,0.98,2.394c0.653,0.653,1.45,0.98,2.394,0.98
		c0.932,0,1.727-0.33,2.385-0.989C103.439,40.863,103.769,40.068,103.769,39.137z"/>
	<path d="M113.345,33.515v6.746c0,0.613,0.222,1.143,0.665,1.585c0.442,0.442,0.971,0.665,1.585,0.665h3.372
		c0.75,0,1.125,0.374,1.125,1.124c0,0.749-0.375,1.124-1.125,1.124h-3.372c-1.262,0-2.327-0.435-3.195-1.303
		c-0.869-0.87-1.303-1.935-1.303-3.195v-6.746c0-1.262,0.434-2.326,1.303-3.195c0.868-0.868,1.934-1.303,3.195-1.303h3.372
		c0.75,0,1.125,0.375,1.125,1.124c0,0.75-0.375,1.125-1.125,1.125h-3.372c-0.625,0-1.156,0.219-1.595,0.655
		C113.563,32.358,113.345,32.89,113.345,33.515z"/>
	<path d="M127.26,24.519v-1.124c0-0.75,0.375-1.125,1.125-1.125c0.749,0,1.124,0.375,1.124,1.125v1.124
		c0,0.75-0.375,1.125-1.124,1.125C127.635,25.644,127.26,25.269,127.26,24.519z M127.26,30.141c0-0.749,0.375-1.124,1.125-1.124
		c0.749,0,1.124,0.375,1.124,1.124v13.494c0,0.749-0.375,1.124-1.124,1.124c-0.75,0-1.125-0.375-1.125-1.124V30.141z"/>
	<path d="M140.623,44.759c-1.261,0-2.325-0.435-3.194-1.303c-0.868-0.87-1.304-1.935-1.304-3.195c0-0.817,0.199-1.572,0.597-2.266
		c0.852-1.487,2.152-2.232,3.901-2.232h4.498v-2.248c0-0.637-0.216-1.17-0.647-1.603c-0.432-0.431-0.966-0.646-1.602-0.646h-4.497
		c-0.751,0-1.125-0.375-1.125-1.125c0-0.749,0.374-1.124,1.125-1.124h4.497c1.261,0,2.325,0.435,3.194,1.303
		c0.869,0.869,1.304,1.934,1.304,3.195v10.12c0,0.749-0.375,1.124-1.124,1.124H140.623z M145.121,38.013h-4.498
		c-0.625,0-1.155,0.218-1.593,0.655c-0.437,0.437-0.655,0.968-0.655,1.593c0,0.613,0.221,1.143,0.663,1.585
		c0.444,0.442,0.972,0.665,1.585,0.665h4.498V38.013z"/>
	<path d="M154.299,31.266h-1.124c-0.751,0-1.124-0.375-1.124-1.125c0-0.749,0.373-1.124,1.124-1.124h1.124v-5.622
		c0-0.75,0.375-1.125,1.124-1.125c0.75,0,1.125,0.375,1.125,1.125v5.622h3.373c0.75,0,1.125,0.375,1.125,1.124
		c0,0.75-0.375,1.125-1.125,1.125h-3.373v12.369c0,0.749-0.375,1.124-1.125,1.124c-0.749,0-1.124-0.375-1.124-1.124V31.266z"/>
	<path d="M168.214,24.519v-1.124c0-0.75,0.375-1.125,1.125-1.125c0.749,0,1.124,0.375,1.124,1.125v1.124
		c0,0.75-0.375,1.125-1.124,1.125C168.589,25.644,168.214,25.269,168.214,24.519z M168.214,30.141c0-0.749,0.375-1.124,1.125-1.124
		c0.749,0,1.124,0.375,1.124,1.124v13.494c0,0.749-0.375,1.124-1.124,1.124c-0.75,0-1.125-0.375-1.125-1.124V30.141z"/>
	<path d="M177.251,39.137v-4.498c0-1.556,0.548-2.882,1.645-3.979c1.096-1.096,2.422-1.644,3.979-1.644
		c1.578,0,2.909,0.542,3.995,1.627c1.083,1.084,1.627,2.417,1.627,3.995v4.498c0,1.556-0.548,2.882-1.646,3.979
		c-1.096,1.096-2.421,1.644-3.977,1.644c-1.557,0-2.883-0.548-3.979-1.644C177.799,42.019,177.251,40.692,177.251,39.137z
		 M186.246,39.137v-4.498c0-0.931-0.329-1.727-0.988-2.386c-0.657-0.657-1.453-0.987-2.384-0.987c-0.933,0-1.727,0.33-2.386,0.987
		c-0.659,0.659-0.988,1.455-0.988,2.386v4.498c0,0.943,0.327,1.741,0.979,2.394c0.653,0.653,1.451,0.98,2.395,0.98
		c0.931,0,1.727-0.33,2.384-0.989C185.917,40.863,186.246,40.068,186.246,39.137z"/>
	<path d="M193.098,43.635V30.141c0-0.749,0.375-1.124,1.125-1.124h5.622c1.261,0,2.325,0.435,3.194,1.303
		c0.869,0.869,1.304,1.934,1.304,3.195v10.12c0,0.749-0.375,1.124-1.124,1.124c-0.75,0-1.125-0.375-1.125-1.124v-10.12
		c0-0.637-0.216-1.17-0.647-1.603c-0.432-0.431-0.966-0.646-1.602-0.646h-4.497v12.369c0,0.749-0.376,1.124-1.125,1.124
		C193.473,44.759,193.098,44.384,193.098,43.635z"/>
	<path d="M224.153,26.103l-2.59,2.59c-0.216,0.216-0.478,0.324-0.783,0.324c-0.749,0-1.125-0.375-1.125-1.124
		c0-0.308,0.108-0.568,0.323-0.784l4.396-4.396c0.296-0.295,0.597-0.443,0.902-0.443c0.751,0,1.124,0.375,1.124,1.125v20.24
		c0,0.749-0.373,1.124-1.124,1.124c-0.749,0-1.124-0.375-1.124-1.124V26.103z"/>
	<path d="M236.452,26.103l-2.591,2.59c-0.215,0.216-0.477,0.324-0.783,0.324c-0.749,0-1.124-0.375-1.124-1.124
		c0-0.308,0.107-0.568,0.323-0.784l4.396-4.396c0.296-0.295,0.597-0.443,0.903-0.443c0.75,0,1.124,0.375,1.124,1.125v20.24
		c0,0.749-0.374,1.124-1.124,1.124c-0.749,0-1.124-0.375-1.124-1.124V26.103z"/>
	<path d="M248.751,26.103l-2.59,2.59c-0.216,0.216-0.477,0.324-0.783,0.324c-0.749,0-1.124-0.375-1.124-1.124
		c0-0.308,0.107-0.568,0.322-0.784l4.396-4.396c0.296-0.295,0.597-0.443,0.903-0.443c0.75,0,1.124,0.375,1.124,1.125v20.24
		c0,0.749-0.374,1.124-1.124,1.124c-0.749,0-1.125-0.375-1.125-1.124V26.103z"/>
</g>
</svg>
