<?xml version="1.0" encoding="utf-8"?>
<!-- Generator: Adobe Illustrator 16.0.0, SVG Export Plug-In . SVG Version: 6.00 Build 0)  -->
<!DOCTYPE svg PUBLIC "-//W3C//DTD SVG 1.1//EN" "http://www.w3.org/Graphics/SVG/1.1/DTD/svg11.dtd">
<svg version="1.1" id="图层_1" xmlns="http://www.w3.org/2000/svg" xmlns:xlink="http://www.w3.org/1999/xlink" x="0px" y="0px"
	 width="87px" height="47.75px" viewBox="0 0 87 47.75" enable-background="new 0 0 87 47.75" xml:space="preserve">
<path fill="#E83828" d="M44.11,44.759h-7.572L32.797,34.17H16.44l-3.595,10.589H5.303L20.878,3.167h7.773L44.11,44.759z
	 M30.974,28.544l-5.772-16.588c-0.178-0.543-1.036-0.639-1.249,0l-5.71,16.588H30.974z"/>
<path fill="#E83828" d="M53.321,17.063h-2.902c-0.96,0-1.446-0.461-1.446-1.395c0-0.932,0.486-1.381,1.446-1.381h2.902
	c1.215,0,2.238-0.41,3.084-1.219c0.837-0.807,1.265-1.789,1.265-2.954c0-1.155-0.43-2.138-1.278-2.944
	c-0.846-0.822-1.878-1.221-3.07-1.221H47.53c-0.972,0-1.454-0.472-1.454-1.393c0-0.928,0.482-1.391,1.454-1.391h5.791
	c2.011,0,3.711,0.682,5.126,2.042c1.408,1.36,2.119,2.997,2.119,4.906c0,2.3-0.963,4.157-2.896,5.554
	c1.934,1.406,2.896,3.26,2.896,5.568v2.771c0,1.926-0.715,3.57-2.133,4.928c-1.417,1.357-3.122,2.02-5.112,2.02H47.53
	c-0.972,0-1.454-0.465-1.454-1.393c0-0.916,0.482-1.385,1.454-1.385h5.791c1.215,0,2.238-0.4,3.084-1.205
	c0.837-0.811,1.265-1.801,1.265-2.965v-2.771c0-1.152-0.43-2.133-1.278-2.957C55.546,17.473,54.514,17.063,53.321,17.063z"/>
<path fill="#E83828" d="M71.188,7.9l-3.333,3.202c-0.288,0.271-0.618,0.406-1.019,0.406c-0.965,0-1.438-0.467-1.438-1.394
	c0-0.379,0.126-0.705,0.414-0.972l5.661-5.434c0.375-0.365,0.761-0.543,1.16-0.543c0.966,0,1.452,0.463,1.452,1.391v25.005
	c0,0.928-0.486,1.393-1.452,1.393c-0.961,0-1.446-0.465-1.446-1.393V7.9z"/>
</svg>
