<?xml version="1.0" encoding="utf-8"?>
<!-- Generator: Adobe Illustrator 19.0.0, SVG Export Plug-In . SVG Version: 6.00 Build 0)  -->
<svg version="1.1" id="图层_1" xmlns="http://www.w3.org/2000/svg" xmlns:xlink="http://www.w3.org/1999/xlink" x="0px" y="0px"
	 viewBox="-111 234.9 372 372" style="enable-background:new -111 234.9 372 372;" xml:space="preserve">
<desc></desc>
<g>
	<g>
		<rect id="p" x="-99" y="246.9" width="12" height="12"/>
	</g>
	<g>
		<rect id="p_1_" x="-87" y="246.9" width="12" height="12"/>
	</g>
	<g>
		<rect id="p_2_" x="-75" y="246.9" width="12" height="12"/>
	</g>
	<g>
		<rect id="p_3_" x="-63" y="246.9" width="12" height="12"/>
	</g>
	<g>
		<rect id="p_4_" x="-51" y="246.9" width="12" height="12"/>
	</g>
	<g>
		<rect id="p_5_" x="-39" y="246.9" width="12" height="12"/>
	</g>
	<g>
		<rect id="p_6_" x="-27" y="246.9" width="12" height="12"/>
	</g>
	<g>
		<rect id="p_7_" x="-3" y="246.9" width="12" height="12"/>
	</g>
	<g>
		<rect id="p_8_" x="33" y="246.9" width="12" height="12"/>
	</g>
	<g>
		<rect id="p_9_" x="45" y="246.9" width="12" height="12"/>
	</g>
	<g>
		<rect id="p_10_" x="69" y="246.9" width="12" height="12"/>
	</g>
	<g>
		<rect id="p_11_" x="105" y="246.9" width="12" height="12"/>
	</g>
	<g>
		<rect id="p_12_" x="165" y="246.9" width="12" height="12"/>
	</g>
	<g>
		<rect id="p_13_" x="177" y="246.9" width="12" height="12"/>
	</g>
	<g>
		<rect id="p_14_" x="189" y="246.9" width="12" height="12"/>
	</g>
	<g>
		<rect id="p_15_" x="201" y="246.9" width="12" height="12"/>
	</g>
	<g>
		<rect id="p_16_" x="213" y="246.9" width="12" height="12"/>
	</g>
	<g>
		<rect id="p_17_" x="225" y="246.9" width="12" height="12"/>
	</g>
	<g>
		<rect id="p_18_" x="237" y="246.9" width="12" height="12"/>
	</g>
	<g>
		<rect id="p_19_" x="-99" y="258.9" width="12" height="12"/>
	</g>
	<g>
		<rect id="p_20_" x="-27" y="258.9" width="12" height="12"/>
	</g>
	<g>
		<rect id="p_21_" x="9" y="258.9" width="12" height="12"/>
	</g>
	<g>
		<rect id="p_22_" x="21" y="258.9" width="12" height="12"/>
	</g>
	<g>
		<rect id="p_23_" x="57" y="258.9" width="12" height="12"/>
	</g>
	<g>
		<rect id="p_24_" x="69" y="258.9" width="12" height="12"/>
	</g>
	<g>
		<rect id="p_25_" x="129" y="258.9" width="12" height="12"/>
	</g>
	<g>
		<rect id="p_26_" x="165" y="258.9" width="12" height="12"/>
	</g>
	<g>
		<rect id="p_27_" x="237" y="258.9" width="12" height="12"/>
	</g>
	<g>
		<rect id="p_28_" x="-99" y="270.9" width="12" height="12"/>
	</g>
	<g>
		<rect id="p_29_" x="-75" y="270.9" width="12" height="12"/>
	</g>
	<g>
		<rect id="p_30_" x="-63" y="270.9" width="12" height="12"/>
	</g>
	<g>
		<rect id="p_31_" x="-51" y="270.9" width="12" height="12"/>
	</g>
	<g>
		<rect id="p_32_" x="-27" y="270.9" width="12" height="12"/>
	</g>
	<g>
		<rect id="p_33_" x="21" y="270.9" width="12" height="12"/>
	</g>
	<g>
		<rect id="p_34_" x="45" y="270.9" width="12" height="12"/>
	</g>
	<g>
		<rect id="p_35_" x="57" y="270.9" width="12" height="12"/>
	</g>
	<g>
		<rect id="p_36_" x="69" y="270.9" width="12" height="12"/>
	</g>
	<g>
		<rect id="p_37_" x="129" y="270.9" width="12" height="12"/>
	</g>
	<g>
		<rect id="p_38_" x="165" y="270.9" width="12" height="12"/>
	</g>
	<g>
		<rect id="p_39_" x="189" y="270.9" width="12" height="12"/>
	</g>
	<g>
		<rect id="p_40_" x="201" y="270.9" width="12" height="12"/>
	</g>
	<g>
		<rect id="p_41_" x="213" y="270.9" width="12" height="12"/>
	</g>
	<g>
		<rect id="p_42_" x="237" y="270.9" width="12" height="12"/>
	</g>
	<g>
		<rect id="p_43_" x="-99" y="282.9" width="12" height="12"/>
	</g>
	<g>
		<rect id="p_44_" x="-75" y="282.9" width="12" height="12"/>
	</g>
	<g>
		<rect id="p_45_" x="-63" y="282.9" width="12" height="12"/>
	</g>
	<g>
		<rect id="p_46_" x="-51" y="282.9" width="12" height="12"/>
	</g>
	<g>
		<rect id="p_47_" x="-27" y="282.9" width="12" height="12"/>
	</g>
	<g>
		<rect id="p_48_" x="45" y="282.9" width="12" height="12"/>
	</g>
	<g>
		<rect id="p_49_" x="57" y="282.9" width="12" height="12"/>
	</g>
	<g>
		<rect id="p_50_" x="93" y="282.9" width="12" height="12"/>
	</g>
	<g>
		<rect id="p_51_" x="105" y="282.9" width="12" height="12"/>
	</g>
	<g>
		<rect id="p_52_" x="141" y="282.9" width="12" height="12"/>
	</g>
	<g>
		<rect id="p_53_" x="165" y="282.9" width="12" height="12"/>
	</g>
	<g>
		<rect id="p_54_" x="189" y="282.9" width="12" height="12"/>
	</g>
	<g>
		<rect id="p_55_" x="201" y="282.9" width="12" height="12"/>
	</g>
	<g>
		<rect id="p_56_" x="213" y="282.9" width="12" height="12"/>
	</g>
	<g>
		<rect id="p_57_" x="237" y="282.9" width="12" height="12"/>
	</g>
	<g>
		<rect id="p_58_" x="-99" y="294.9" width="12" height="12"/>
	</g>
	<g>
		<rect id="p_59_" x="-75" y="294.9" width="12" height="12"/>
	</g>
	<g>
		<rect id="p_60_" x="-63" y="294.9" width="12" height="12"/>
	</g>
	<g>
		<rect id="p_61_" x="-51" y="294.9" width="12" height="12"/>
	</g>
	<g>
		<rect id="p_62_" x="-27" y="294.9" width="12" height="12"/>
	</g>
	<g>
		<rect id="p_63_" x="9" y="294.9" width="12" height="12"/>
	</g>
	<g>
		<rect id="p_64_" x="33" y="294.9" width="12" height="12"/>
	</g>
	<g>
		<rect id="p_65_" x="57" y="294.9" width="12" height="12"/>
	</g>
	<g>
		<rect id="p_66_" x="69" y="294.9" width="12" height="12"/>
	</g>
	<g>
		<rect id="p_67_" x="93" y="294.9" width="12" height="12"/>
	</g>
	<g>
		<rect id="p_68_" x="117" y="294.9" width="12" height="12"/>
	</g>
	<g>
		<rect id="p_69_" x="129" y="294.9" width="12" height="12"/>
	</g>
	<g>
		<rect id="p_70_" x="165" y="294.9" width="12" height="12"/>
	</g>
	<g>
		<rect id="p_71_" x="189" y="294.9" width="12" height="12"/>
	</g>
	<g>
		<rect id="p_72_" x="201" y="294.9" width="12" height="12"/>
	</g>
	<g>
		<rect id="p_73_" x="213" y="294.9" width="12" height="12"/>
	</g>
	<g>
		<rect id="p_74_" x="237" y="294.9" width="12" height="12"/>
	</g>
	<g>
		<rect id="p_75_" x="-99" y="306.9" width="12" height="12"/>
	</g>
	<g>
		<rect id="p_76_" x="-27" y="306.9" width="12" height="12"/>
	</g>
	<g>
		<rect id="p_77_" x="21" y="306.9" width="12" height="12"/>
	</g>
	<g>
		<rect id="p_78_" x="45" y="306.9" width="12" height="12"/>
	</g>
	<g>
		<rect id="p_79_" x="69" y="306.9" width="12" height="12"/>
	</g>
	<g>
		<rect id="p_80_" x="105" y="306.9" width="12" height="12"/>
	</g>
	<g>
		<rect id="p_81_" x="165" y="306.9" width="12" height="12"/>
	</g>
	<g>
		<rect id="p_82_" x="237" y="306.9" width="12" height="12"/>
	</g>
	<g>
		<rect id="p_83_" x="-99" y="318.9" width="12" height="12"/>
	</g>
	<g>
		<rect id="p_84_" x="-87" y="318.9" width="12" height="12"/>
	</g>
	<g>
		<rect id="p_85_" x="-75" y="318.9" width="12" height="12"/>
	</g>
	<g>
		<rect id="p_86_" x="-63" y="318.9" width="12" height="12"/>
	</g>
	<g>
		<rect id="p_87_" x="-51" y="318.9" width="12" height="12"/>
	</g>
	<g>
		<rect id="p_88_" x="-39" y="318.9" width="12" height="12"/>
	</g>
	<g>
		<rect id="p_89_" x="-27" y="318.9" width="12" height="12"/>
	</g>
	<g>
		<rect id="p_90_" x="-3" y="318.9" width="12" height="12"/>
	</g>
	<g>
		<rect id="p_91_" x="21" y="318.9" width="12" height="12"/>
	</g>
	<g>
		<rect id="p_92_" x="45" y="318.9" width="12" height="12"/>
	</g>
	<g>
		<rect id="p_93_" x="69" y="318.9" width="12" height="12"/>
	</g>
	<g>
		<rect id="p_94_" x="93" y="318.9" width="12" height="12"/>
	</g>
	<g>
		<rect id="p_95_" x="117" y="318.9" width="12" height="12"/>
	</g>
	<g>
		<rect id="p_96_" x="141" y="318.9" width="12" height="12"/>
	</g>
	<g>
		<rect id="p_97_" x="165" y="318.9" width="12" height="12"/>
	</g>
	<g>
		<rect id="p_98_" x="177" y="318.9" width="12" height="12"/>
	</g>
	<g>
		<rect id="p_99_" x="189" y="318.9" width="12" height="12"/>
	</g>
	<g>
		<rect id="p_100_" x="201" y="318.9" width="12" height="12"/>
	</g>
	<g>
		<rect id="p_101_" x="213" y="318.9" width="12" height="12"/>
	</g>
	<g>
		<rect id="p_102_" x="225" y="318.9" width="12" height="12"/>
	</g>
	<g>
		<rect id="p_103_" x="237" y="318.9" width="12" height="12"/>
	</g>
	<g>
		<rect id="p_104_" x="-3" y="330.9" width="12" height="12"/>
	</g>
	<g>
		<rect id="p_105_" x="21" y="330.9" width="12" height="12"/>
	</g>
	<g>
		<rect id="p_106_" x="33" y="330.9" width="12" height="12"/>
	</g>
	<g>
		<rect id="p_107_" x="57" y="330.9" width="12" height="12"/>
	</g>
	<g>
		<rect id="p_108_" x="69" y="330.9" width="12" height="12"/>
	</g>
	<g>
		<rect id="p_109_" x="81" y="330.9" width="12" height="12"/>
	</g>
	<g>
		<rect id="p_110_" x="93" y="330.9" width="12" height="12"/>
	</g>
	<g>
		<rect id="p_111_" x="129" y="330.9" width="12" height="12"/>
	</g>
	<g>
		<rect id="p_112_" x="141" y="330.9" width="12" height="12"/>
	</g>
	<g>
		<rect id="p_113_" x="-99" y="342.9" width="12" height="12"/>
	</g>
	<g>
		<rect id="p_114_" x="-87" y="342.9" width="12" height="12"/>
	</g>
	<g>
		<rect id="p_115_" x="-63" y="342.9" width="12" height="12"/>
	</g>
	<g>
		<rect id="p_116_" x="-51" y="342.9" width="12" height="12"/>
	</g>
	<g>
		<rect id="p_117_" x="-27" y="342.9" width="12" height="12"/>
	</g>
	<g>
		<rect id="p_118_" x="9" y="342.9" width="12" height="12"/>
	</g>
	<g>
		<rect id="p_119_" x="21" y="342.9" width="12" height="12"/>
	</g>
	<g>
		<rect id="p_120_" x="33" y="342.9" width="12" height="12"/>
	</g>
	<g>
		<rect id="p_121_" x="69" y="342.9" width="12" height="12"/>
	</g>
	<g>
		<rect id="p_122_" x="105" y="342.9" width="12" height="12"/>
	</g>
	<g>
		<rect id="p_123_" x="165" y="342.9" width="12" height="12"/>
	</g>
	<g>
		<rect id="p_124_" x="237" y="342.9" width="12" height="12"/>
	</g>
	<g>
		<rect id="p_125_" x="-99" y="354.9" width="12" height="12"/>
	</g>
	<g>
		<rect id="p_126_" x="-75" y="354.9" width="12" height="12"/>
	</g>
	<g>
		<rect id="p_127_" x="-51" y="354.9" width="12" height="12"/>
	</g>
	<g>
		<rect id="p_128_" x="-3" y="354.9" width="12" height="12"/>
	</g>
	<g>
		<rect id="p_129_" x="9" y="354.9" width="12" height="12"/>
	</g>
	<g>
		<rect id="p_130_" x="45" y="354.9" width="12" height="12"/>
	</g>
	<g>
		<rect id="p_131_" x="69" y="354.9" width="12" height="12"/>
	</g>
	<g>
		<rect id="p_132_" x="81" y="354.9" width="12" height="12"/>
	</g>
	<g>
		<rect id="p_133_" x="93" y="354.9" width="12" height="12"/>
	</g>
	<g>
		<rect id="p_134_" x="105" y="354.9" width="12" height="12"/>
	</g>
	<g>
		<rect id="p_135_" x="129" y="354.9" width="12" height="12"/>
	</g>
	<g>
		<rect id="p_136_" x="153" y="354.9" width="12" height="12"/>
	</g>
	<g>
		<rect id="p_137_" x="177" y="354.9" width="12" height="12"/>
	</g>
	<g>
		<rect id="p_138_" x="189" y="354.9" width="12" height="12"/>
	</g>
	<g>
		<rect id="p_139_" x="213" y="354.9" width="12" height="12"/>
	</g>
	<g>
		<rect id="p_140_" x="225" y="354.9" width="12" height="12"/>
	</g>
	<g>
		<rect id="p_141_" x="-99" y="366.9" width="12" height="12"/>
	</g>
	<g>
		<rect id="p_142_" x="-51" y="366.9" width="12" height="12"/>
	</g>
	<g>
		<rect id="p_143_" x="-27" y="366.9" width="12" height="12"/>
	</g>
	<g>
		<rect id="p_144_" x="-3" y="366.9" width="12" height="12"/>
	</g>
	<g>
		<rect id="p_145_" x="21" y="366.9" width="12" height="12"/>
	</g>
	<g>
		<rect id="p_146_" x="33" y="366.9" width="12" height="12"/>
	</g>
	<g>
		<rect id="p_147_" x="81" y="366.9" width="12" height="12"/>
	</g>
	<g>
		<rect id="p_148_" x="105" y="366.9" width="12" height="12"/>
	</g>
	<g>
		<rect id="p_149_" x="117" y="366.9" width="12" height="12"/>
	</g>
	<g>
		<rect id="p_150_" x="141" y="366.9" width="12" height="12"/>
	</g>
	<g>
		<rect id="p_151_" x="177" y="366.9" width="12" height="12"/>
	</g>
	<g>
		<rect id="p_152_" x="189" y="366.9" width="12" height="12"/>
	</g>
	<g>
		<rect id="p_153_" x="213" y="366.9" width="12" height="12"/>
	</g>
	<g>
		<rect id="p_154_" x="-51" y="378.9" width="12" height="12"/>
	</g>
	<g>
		<rect id="p_155_" x="-39" y="378.9" width="12" height="12"/>
	</g>
	<g>
		<rect id="p_156_" x="-3" y="378.9" width="12" height="12"/>
	</g>
	<g>
		<rect id="p_157_" x="9" y="378.9" width="12" height="12"/>
	</g>
	<g>
		<rect id="p_158_" x="21" y="378.9" width="12" height="12"/>
	</g>
	<g>
		<rect id="p_159_" x="33" y="378.9" width="12" height="12"/>
	</g>
	<g>
		<rect id="p_160_" x="45" y="378.9" width="12" height="12"/>
	</g>
	<g>
		<rect id="p_161_" x="69" y="378.9" width="12" height="12"/>
	</g>
	<g>
		<rect id="p_162_" x="93" y="378.9" width="12" height="12"/>
	</g>
	<g>
		<rect id="p_163_" x="105" y="378.9" width="12" height="12"/>
	</g>
	<g>
		<rect id="p_164_" x="141" y="378.9" width="12" height="12"/>
	</g>
	<g>
		<rect id="p_165_" x="153" y="378.9" width="12" height="12"/>
	</g>
	<g>
		<rect id="p_166_" x="165" y="378.9" width="12" height="12"/>
	</g>
	<g>
		<rect id="p_167_" x="177" y="378.9" width="12" height="12"/>
	</g>
	<g>
		<rect id="p_168_" x="201" y="378.9" width="12" height="12"/>
	</g>
	<g>
		<rect id="p_169_" x="237" y="378.9" width="12" height="12"/>
	</g>
	<g>
		<rect id="p_170_" x="-63" y="390.9" width="12" height="12"/>
	</g>
	<g>
		<rect id="p_171_" x="-51" y="390.9" width="12" height="12"/>
	</g>
	<g>
		<rect id="p_172_" x="-39" y="390.9" width="12" height="12"/>
	</g>
	<g>
		<rect id="p_173_" x="-27" y="390.9" width="12" height="12"/>
	</g>
	<g>
		<rect id="p_174_" x="-15" y="390.9" width="12" height="12"/>
	</g>
	<g>
		<rect id="p_175_" x="-3" y="390.9" width="12" height="12"/>
	</g>
	<g>
		<rect id="p_176_" x="9" y="390.9" width="12" height="12"/>
	</g>
	<g>
		<rect id="p_177_" x="33" y="390.9" width="12" height="12"/>
	</g>
	<g>
		<rect id="p_178_" x="45" y="390.9" width="12" height="12"/>
	</g>
	<g>
		<rect id="p_179_" x="117" y="390.9" width="12" height="12"/>
	</g>
	<g>
		<rect id="p_180_" x="129" y="390.9" width="12" height="12"/>
	</g>
	<g>
		<rect id="p_181_" x="165" y="390.9" width="12" height="12"/>
	</g>
	<g>
		<rect id="p_182_" x="177" y="390.9" width="12" height="12"/>
	</g>
	<g>
		<rect id="p_183_" x="237" y="390.9" width="12" height="12"/>
	</g>
	<g>
		<rect id="p_184_" x="-75" y="402.9" width="12" height="12"/>
	</g>
	<g>
		<rect id="p_185_" x="-39" y="402.9" width="12" height="12"/>
	</g>
	<g>
		<rect id="p_186_" x="-15" y="402.9" width="12" height="12"/>
	</g>
	<g>
		<rect id="p_187_" x="9" y="402.9" width="12" height="12"/>
	</g>
	<g>
		<rect id="p_188_" x="57" y="402.9" width="12" height="12"/>
	</g>
	<g>
		<rect id="p_189_" x="81" y="402.9" width="12" height="12"/>
	</g>
	<g>
		<rect id="p_190_" x="93" y="402.9" width="12" height="12"/>
	</g>
	<g>
		<rect id="p_191_" x="105" y="402.9" width="12" height="12"/>
	</g>
	<g>
		<rect id="p_192_" x="117" y="402.9" width="12" height="12"/>
	</g>
	<g>
		<rect id="p_193_" x="129" y="402.9" width="12" height="12"/>
	</g>
	<g>
		<rect id="p_194_" x="165" y="402.9" width="12" height="12"/>
	</g>
	<g>
		<rect id="p_195_" x="177" y="402.9" width="12" height="12"/>
	</g>
	<g>
		<rect id="p_196_" x="189" y="402.9" width="12" height="12"/>
	</g>
	<g>
		<rect id="p_197_" x="201" y="402.9" width="12" height="12"/>
	</g>
	<g>
		<rect id="p_198_" x="213" y="402.9" width="12" height="12"/>
	</g>
	<g>
		<rect id="p_199_" x="225" y="402.9" width="12" height="12"/>
	</g>
	<g>
		<rect id="p_200_" x="237" y="402.9" width="12" height="12"/>
	</g>
	<g>
		<rect id="p_201_" x="-99" y="414.9" width="12" height="12"/>
	</g>
	<g>
		<rect id="p_202_" x="-75" y="414.9" width="12" height="12"/>
	</g>
	<g>
		<rect id="p_203_" x="-39" y="414.9" width="12" height="12"/>
	</g>
	<g>
		<rect id="p_204_" x="-27" y="414.9" width="12" height="12"/>
	</g>
	<g>
		<rect id="p_205_" x="21" y="414.9" width="12" height="12"/>
	</g>
	<g>
		<rect id="p_206_" x="33" y="414.9" width="12" height="12"/>
	</g>
	<g>
		<rect id="p_207_" x="45" y="414.9" width="12" height="12"/>
	</g>
	<g>
		<rect id="p_208_" x="81" y="414.9" width="12" height="12"/>
	</g>
	<g>
		<rect id="p_209_" x="105" y="414.9" width="12" height="12"/>
	</g>
	<g>
		<rect id="p_210_" x="129" y="414.9" width="12" height="12"/>
	</g>
	<g>
		<rect id="p_211_" x="141" y="414.9" width="12" height="12"/>
	</g>
	<g>
		<rect id="p_212_" x="153" y="414.9" width="12" height="12"/>
	</g>
	<g>
		<rect id="p_213_" x="165" y="414.9" width="12" height="12"/>
	</g>
	<g>
		<rect id="p_214_" x="189" y="414.9" width="12" height="12"/>
	</g>
	<g>
		<rect id="p_215_" x="213" y="414.9" width="12" height="12"/>
	</g>
	<g>
		<rect id="p_216_" x="237" y="414.9" width="12" height="12"/>
	</g>
	<g>
		<rect id="p_217_" x="-99" y="426.9" width="12" height="12"/>
	</g>
	<g>
		<rect id="p_218_" x="-75" y="426.9" width="12" height="12"/>
	</g>
	<g>
		<rect id="p_219_" x="-63" y="426.9" width="12" height="12"/>
	</g>
	<g>
		<rect id="p_220_" x="-51" y="426.9" width="12" height="12"/>
	</g>
	<g>
		<rect id="p_221_" x="-39" y="426.9" width="12" height="12"/>
	</g>
	<g>
		<rect id="p_222_" x="-15" y="426.9" width="12" height="12"/>
	</g>
	<g>
		<rect id="p_223_" x="-3" y="426.9" width="12" height="12"/>
	</g>
	<g>
		<rect id="p_224_" x="21" y="426.9" width="12" height="12"/>
	</g>
	<g>
		<rect id="p_225_" x="33" y="426.9" width="12" height="12"/>
	</g>
	<g>
		<rect id="p_226_" x="93" y="426.9" width="12" height="12"/>
	</g>
	<g>
		<rect id="p_227_" x="129" y="426.9" width="12" height="12"/>
	</g>
	<g>
		<rect id="p_228_" x="177" y="426.9" width="12" height="12"/>
	</g>
	<g>
		<rect id="p_229_" x="189" y="426.9" width="12" height="12"/>
	</g>
	<g>
		<rect id="p_230_" x="213" y="426.9" width="12" height="12"/>
	</g>
	<g>
		<rect id="p_231_" x="237" y="426.9" width="12" height="12"/>
	</g>
	<g>
		<rect id="p_232_" x="-99" y="438.9" width="12" height="12"/>
	</g>
	<g>
		<rect id="p_233_" x="-63" y="438.9" width="12" height="12"/>
	</g>
	<g>
		<rect id="p_234_" x="-51" y="438.9" width="12" height="12"/>
	</g>
	<g>
		<rect id="p_235_" x="-27" y="438.9" width="12" height="12"/>
	</g>
	<g>
		<rect id="p_236_" x="-15" y="438.9" width="12" height="12"/>
	</g>
	<g>
		<rect id="p_237_" x="9" y="438.9" width="12" height="12"/>
	</g>
	<g>
		<rect id="p_238_" x="57" y="438.9" width="12" height="12"/>
	</g>
	<g>
		<rect id="p_239_" x="69" y="438.9" width="12" height="12"/>
	</g>
	<g>
		<rect id="p_240_" x="81" y="438.9" width="12" height="12"/>
	</g>
	<g>
		<rect id="p_241_" x="93" y="438.9" width="12" height="12"/>
	</g>
	<g>
		<rect id="p_242_" x="105" y="438.9" width="12" height="12"/>
	</g>
	<g>
		<rect id="p_243_" x="129" y="438.9" width="12" height="12"/>
	</g>
	<g>
		<rect id="p_244_" x="141" y="438.9" width="12" height="12"/>
	</g>
	<g>
		<rect id="p_245_" x="153" y="438.9" width="12" height="12"/>
	</g>
	<g>
		<rect id="p_246_" x="201" y="438.9" width="12" height="12"/>
	</g>
	<g>
		<rect id="p_247_" x="-99" y="450.9" width="12" height="12"/>
	</g>
	<g>
		<rect id="p_248_" x="-75" y="450.9" width="12" height="12"/>
	</g>
	<g>
		<rect id="p_249_" x="-63" y="450.9" width="12" height="12"/>
	</g>
	<g>
		<rect id="p_250_" x="9" y="450.9" width="12" height="12"/>
	</g>
	<g>
		<rect id="p_251_" x="21" y="450.9" width="12" height="12"/>
	</g>
	<g>
		<rect id="p_252_" x="33" y="450.9" width="12" height="12"/>
	</g>
	<g>
		<rect id="p_253_" x="45" y="450.9" width="12" height="12"/>
	</g>
	<g>
		<rect id="p_254_" x="57" y="450.9" width="12" height="12"/>
	</g>
	<g>
		<rect id="p_255_" x="69" y="450.9" width="12" height="12"/>
	</g>
	<g>
		<rect id="p_256_" x="81" y="450.9" width="12" height="12"/>
	</g>
	<g>
		<rect id="p_257_" x="93" y="450.9" width="12" height="12"/>
	</g>
	<g>
		<rect id="p_258_" x="105" y="450.9" width="12" height="12"/>
	</g>
	<g>
		<rect id="p_259_" x="129" y="450.9" width="12" height="12"/>
	</g>
	<g>
		<rect id="p_260_" x="189" y="450.9" width="12" height="12"/>
	</g>
	<g>
		<rect id="p_261_" x="213" y="450.9" width="12" height="12"/>
	</g>
	<g>
		<rect id="p_262_" x="225" y="450.9" width="12" height="12"/>
	</g>
	<g>
		<rect id="p_263_" x="-99" y="462.9" width="12" height="12"/>
	</g>
	<g>
		<rect id="p_264_" x="-87" y="462.9" width="12" height="12"/>
	</g>
	<g>
		<rect id="p_265_" x="-75" y="462.9" width="12" height="12"/>
	</g>
	<g>
		<rect id="p_266_" x="-63" y="462.9" width="12" height="12"/>
	</g>
	<g>
		<rect id="p_267_" x="-51" y="462.9" width="12" height="12"/>
	</g>
	<g>
		<rect id="p_268_" x="-39" y="462.9" width="12" height="12"/>
	</g>
	<g>
		<rect id="p_269_" x="-27" y="462.9" width="12" height="12"/>
	</g>
	<g>
		<rect id="p_270_" x="9" y="462.9" width="12" height="12"/>
	</g>
	<g>
		<rect id="p_271_" x="33" y="462.9" width="12" height="12"/>
	</g>
	<g>
		<rect id="p_272_" x="57" y="462.9" width="12" height="12"/>
	</g>
	<g>
		<rect id="p_273_" x="81" y="462.9" width="12" height="12"/>
	</g>
	<g>
		<rect id="p_274_" x="93" y="462.9" width="12" height="12"/>
	</g>
	<g>
		<rect id="p_275_" x="117" y="462.9" width="12" height="12"/>
	</g>
	<g>
		<rect id="p_276_" x="129" y="462.9" width="12" height="12"/>
	</g>
	<g>
		<rect id="p_277_" x="189" y="462.9" width="12" height="12"/>
	</g>
	<g>
		<rect id="p_278_" x="201" y="462.9" width="12" height="12"/>
	</g>
	<g>
		<rect id="p_279_" x="237" y="462.9" width="12" height="12"/>
	</g>
	<g>
		<rect id="p_280_" x="-99" y="474.9" width="12" height="12"/>
	</g>
	<g>
		<rect id="p_281_" x="-87" y="474.9" width="12" height="12"/>
	</g>
	<g>
		<rect id="p_282_" x="-63" y="474.9" width="12" height="12"/>
	</g>
	<g>
		<rect id="p_283_" x="-51" y="474.9" width="12" height="12"/>
	</g>
	<g>
		<rect id="p_284_" x="-39" y="474.9" width="12" height="12"/>
	</g>
	<g>
		<rect id="p_285_" x="-15" y="474.9" width="12" height="12"/>
	</g>
	<g>
		<rect id="p_286_" x="-3" y="474.9" width="12" height="12"/>
	</g>
	<g>
		<rect id="p_287_" x="45" y="474.9" width="12" height="12"/>
	</g>
	<g>
		<rect id="p_288_" x="57" y="474.9" width="12" height="12"/>
	</g>
	<g>
		<rect id="p_289_" x="81" y="474.9" width="12" height="12"/>
	</g>
	<g>
		<rect id="p_290_" x="129" y="474.9" width="12" height="12"/>
	</g>
	<g>
		<rect id="p_291_" x="165" y="474.9" width="12" height="12"/>
	</g>
	<g>
		<rect id="p_292_" x="201" y="474.9" width="12" height="12"/>
	</g>
	<g>
		<rect id="p_293_" x="213" y="474.9" width="12" height="12"/>
	</g>
	<g>
		<rect id="p_294_" x="-99" y="486.9" width="12" height="12"/>
	</g>
	<g>
		<rect id="p_295_" x="-87" y="486.9" width="12" height="12"/>
	</g>
	<g>
		<rect id="p_296_" x="-75" y="486.9" width="12" height="12"/>
	</g>
	<g>
		<rect id="p_297_" x="-27" y="486.9" width="12" height="12"/>
	</g>
	<g>
		<rect id="p_298_" x="-3" y="486.9" width="12" height="12"/>
	</g>
	<g>
		<rect id="p_299_" x="9" y="486.9" width="12" height="12"/>
	</g>
	<g>
		<rect id="p_300_" x="45" y="486.9" width="12" height="12"/>
	</g>
	<g>
		<rect id="p_301_" x="81" y="486.9" width="12" height="12"/>
	</g>
	<g>
		<rect id="p_302_" x="93" y="486.9" width="12" height="12"/>
	</g>
	<g>
		<rect id="p_303_" x="105" y="486.9" width="12" height="12"/>
	</g>
	<g>
		<rect id="p_304_" x="141" y="486.9" width="12" height="12"/>
	</g>
	<g>
		<rect id="p_305_" x="153" y="486.9" width="12" height="12"/>
	</g>
	<g>
		<rect id="p_306_" x="165" y="486.9" width="12" height="12"/>
	</g>
	<g>
		<rect id="p_307_" x="177" y="486.9" width="12" height="12"/>
	</g>
	<g>
		<rect id="p_308_" x="189" y="486.9" width="12" height="12"/>
	</g>
	<g>
		<rect id="p_309_" x="201" y="486.9" width="12" height="12"/>
	</g>
	<g>
		<rect id="p_310_" x="213" y="486.9" width="12" height="12"/>
	</g>
	<g>
		<rect id="p_311_" x="225" y="486.9" width="12" height="12"/>
	</g>
	<g>
		<rect id="p_312_" x="-3" y="498.9" width="12" height="12"/>
	</g>
	<g>
		<rect id="p_313_" x="81" y="498.9" width="12" height="12"/>
	</g>
	<g>
		<rect id="p_314_" x="141" y="498.9" width="12" height="12"/>
	</g>
	<g>
		<rect id="p_315_" x="189" y="498.9" width="12" height="12"/>
	</g>
	<g>
		<rect id="p_316_" x="201" y="498.9" width="12" height="12"/>
	</g>
	<g>
		<rect id="p_317_" x="-99" y="510.9" width="12" height="12"/>
	</g>
	<g>
		<rect id="p_318_" x="-87" y="510.9" width="12" height="12"/>
	</g>
	<g>
		<rect id="p_319_" x="-75" y="510.9" width="12" height="12"/>
	</g>
	<g>
		<rect id="p_320_" x="-63" y="510.9" width="12" height="12"/>
	</g>
	<g>
		<rect id="p_321_" x="-51" y="510.9" width="12" height="12"/>
	</g>
	<g>
		<rect id="p_322_" x="-39" y="510.9" width="12" height="12"/>
	</g>
	<g>
		<rect id="p_323_" x="-27" y="510.9" width="12" height="12"/>
	</g>
	<g>
		<rect id="p_324_" x="21" y="510.9" width="12" height="12"/>
	</g>
	<g>
		<rect id="p_325_" x="45" y="510.9" width="12" height="12"/>
	</g>
	<g>
		<rect id="p_326_" x="69" y="510.9" width="12" height="12"/>
	</g>
	<g>
		<rect id="p_327_" x="81" y="510.9" width="12" height="12"/>
	</g>
	<g>
		<rect id="p_328_" x="93" y="510.9" width="12" height="12"/>
	</g>
	<g>
		<rect id="p_329_" x="105" y="510.9" width="12" height="12"/>
	</g>
	<g>
		<rect id="p_330_" x="129" y="510.9" width="12" height="12"/>
	</g>
	<g>
		<rect id="p_331_" x="141" y="510.9" width="12" height="12"/>
	</g>
	<g>
		<rect id="p_332_" x="165" y="510.9" width="12" height="12"/>
	</g>
	<g>
		<rect id="p_333_" x="189" y="510.9" width="12" height="12"/>
	</g>
	<g>
		<rect id="p_334_" x="201" y="510.9" width="12" height="12"/>
	</g>
	<g>
		<rect id="p_335_" x="-99" y="522.9" width="12" height="12"/>
	</g>
	<g>
		<rect id="p_336_" x="-27" y="522.9" width="12" height="12"/>
	</g>
	<g>
		<rect id="p_337_" x="9" y="522.9" width="12" height="12"/>
	</g>
	<g>
		<rect id="p_338_" x="21" y="522.9" width="12" height="12"/>
	</g>
	<g>
		<rect id="p_339_" x="69" y="522.9" width="12" height="12"/>
	</g>
	<g>
		<rect id="p_340_" x="93" y="522.9" width="12" height="12"/>
	</g>
	<g>
		<rect id="p_341_" x="105" y="522.9" width="12" height="12"/>
	</g>
	<g>
		<rect id="p_342_" x="117" y="522.9" width="12" height="12"/>
	</g>
	<g>
		<rect id="p_343_" x="129" y="522.9" width="12" height="12"/>
	</g>
	<g>
		<rect id="p_344_" x="141" y="522.9" width="12" height="12"/>
	</g>
	<g>
		<rect id="p_345_" x="189" y="522.9" width="12" height="12"/>
	</g>
	<g>
		<rect id="p_346_" x="-99" y="534.9" width="12" height="12"/>
	</g>
	<g>
		<rect id="p_347_" x="-75" y="534.9" width="12" height="12"/>
	</g>
	<g>
		<rect id="p_348_" x="-63" y="534.9" width="12" height="12"/>
	</g>
	<g>
		<rect id="p_349_" x="-51" y="534.9" width="12" height="12"/>
	</g>
	<g>
		<rect id="p_350_" x="-27" y="534.9" width="12" height="12"/>
	</g>
	<g>
		<rect id="p_351_" x="-3" y="534.9" width="12" height="12"/>
	</g>
	<g>
		<rect id="p_352_" x="57" y="534.9" width="12" height="12"/>
	</g>
	<g>
		<rect id="p_353_" x="69" y="534.9" width="12" height="12"/>
	</g>
	<g>
		<rect id="p_354_" x="93" y="534.9" width="12" height="12"/>
	</g>
	<g>
		<rect id="p_355_" x="129" y="534.9" width="12" height="12"/>
	</g>
	<g>
		<rect id="p_356_" x="141" y="534.9" width="12" height="12"/>
	</g>
	<g>
		<rect id="p_357_" x="153" y="534.9" width="12" height="12"/>
	</g>
	<g>
		<rect id="p_358_" x="165" y="534.9" width="12" height="12"/>
	</g>
	<g>
		<rect id="p_359_" x="177" y="534.9" width="12" height="12"/>
	</g>
	<g>
		<rect id="p_360_" x="189" y="534.9" width="12" height="12"/>
	</g>
	<g>
		<rect id="p_361_" x="201" y="534.9" width="12" height="12"/>
	</g>
	<g>
		<rect id="p_362_" x="225" y="534.9" width="12" height="12"/>
	</g>
	<g>
		<rect id="p_363_" x="-99" y="546.9" width="12" height="12"/>
	</g>
	<g>
		<rect id="p_364_" x="-75" y="546.9" width="12" height="12"/>
	</g>
	<g>
		<rect id="p_365_" x="-63" y="546.9" width="12" height="12"/>
	</g>
	<g>
		<rect id="p_366_" x="-51" y="546.9" width="12" height="12"/>
	</g>
	<g>
		<rect id="p_367_" x="-27" y="546.9" width="12" height="12"/>
	</g>
	<g>
		<rect id="p_368_" x="-3" y="546.9" width="12" height="12"/>
	</g>
	<g>
		<rect id="p_369_" x="9" y="546.9" width="12" height="12"/>
	</g>
	<g>
		<rect id="p_370_" x="45" y="546.9" width="12" height="12"/>
	</g>
	<g>
		<rect id="p_371_" x="69" y="546.9" width="12" height="12"/>
	</g>
	<g>
		<rect id="p_372_" x="81" y="546.9" width="12" height="12"/>
	</g>
	<g>
		<rect id="p_373_" x="93" y="546.9" width="12" height="12"/>
	</g>
	<g>
		<rect id="p_374_" x="117" y="546.9" width="12" height="12"/>
	</g>
	<g>
		<rect id="p_375_" x="153" y="546.9" width="12" height="12"/>
	</g>
	<g>
		<rect id="p_376_" x="237" y="546.9" width="12" height="12"/>
	</g>
	<g>
		<rect id="p_377_" x="-99" y="558.9" width="12" height="12"/>
	</g>
	<g>
		<rect id="p_378_" x="-75" y="558.9" width="12" height="12"/>
	</g>
	<g>
		<rect id="p_379_" x="-63" y="558.9" width="12" height="12"/>
	</g>
	<g>
		<rect id="p_380_" x="-51" y="558.9" width="12" height="12"/>
	</g>
	<g>
		<rect id="p_381_" x="-27" y="558.9" width="12" height="12"/>
	</g>
	<g>
		<rect id="p_382_" x="21" y="558.9" width="12" height="12"/>
	</g>
	<g>
		<rect id="p_383_" x="69" y="558.9" width="12" height="12"/>
	</g>
	<g>
		<rect id="p_384_" x="81" y="558.9" width="12" height="12"/>
	</g>
	<g>
		<rect id="p_385_" x="93" y="558.9" width="12" height="12"/>
	</g>
	<g>
		<rect id="p_386_" x="141" y="558.9" width="12" height="12"/>
	</g>
	<g>
		<rect id="p_387_" x="153" y="558.9" width="12" height="12"/>
	</g>
	<g>
		<rect id="p_388_" x="177" y="558.9" width="12" height="12"/>
	</g>
	<g>
		<rect id="p_389_" x="189" y="558.9" width="12" height="12"/>
	</g>
	<g>
		<rect id="p_390_" x="213" y="558.9" width="12" height="12"/>
	</g>
	<g>
		<rect id="p_391_" x="225" y="558.9" width="12" height="12"/>
	</g>
	<g>
		<rect id="p_392_" x="237" y="558.9" width="12" height="12"/>
	</g>
	<g>
		<rect id="p_393_" x="-99" y="570.9" width="12" height="12"/>
	</g>
	<g>
		<rect id="p_394_" x="-27" y="570.9" width="12" height="12"/>
	</g>
	<g>
		<rect id="p_395_" x="-3" y="570.9" width="12" height="12"/>
	</g>
	<g>
		<rect id="p_396_" x="9" y="570.9" width="12" height="12"/>
	</g>
	<g>
		<rect id="p_397_" x="21" y="570.9" width="12" height="12"/>
	</g>
	<g>
		<rect id="p_398_" x="45" y="570.9" width="12" height="12"/>
	</g>
	<g>
		<rect id="p_399_" x="57" y="570.9" width="12" height="12"/>
	</g>
	<g>
		<rect id="p_400_" x="69" y="570.9" width="12" height="12"/>
	</g>
	<g>
		<rect id="p_401_" x="117" y="570.9" width="12" height="12"/>
	</g>
	<g>
		<rect id="p_402_" x="165" y="570.9" width="12" height="12"/>
	</g>
	<g>
		<rect id="p_403_" x="177" y="570.9" width="12" height="12"/>
	</g>
	<g>
		<rect id="p_404_" x="201" y="570.9" width="12" height="12"/>
	</g>
	<g>
		<rect id="p_405_" x="213" y="570.9" width="12" height="12"/>
	</g>
	<g>
		<rect id="p_406_" x="237" y="570.9" width="12" height="12"/>
	</g>
	<g>
		<rect id="p_407_" x="-99" y="582.9" width="12" height="12"/>
	</g>
	<g>
		<rect id="p_408_" x="-87" y="582.9" width="12" height="12"/>
	</g>
	<g>
		<rect id="p_409_" x="-75" y="582.9" width="12" height="12"/>
	</g>
	<g>
		<rect id="p_410_" x="-63" y="582.9" width="12" height="12"/>
	</g>
	<g>
		<rect id="p_411_" x="-51" y="582.9" width="12" height="12"/>
	</g>
	<g>
		<rect id="p_412_" x="-39" y="582.9" width="12" height="12"/>
	</g>
	<g>
		<rect id="p_413_" x="-27" y="582.9" width="12" height="12"/>
	</g>
	<g>
		<rect id="p_414_" x="-3" y="582.9" width="12" height="12"/>
	</g>
	<g>
		<rect id="p_415_" x="33" y="582.9" width="12" height="12"/>
	</g>
	<g>
		<rect id="p_416_" x="45" y="582.9" width="12" height="12"/>
	</g>
	<g>
		<rect id="p_417_" x="105" y="582.9" width="12" height="12"/>
	</g>
	<g>
		<rect id="p_418_" x="129" y="582.9" width="12" height="12"/>
	</g>
	<g>
		<rect id="p_419_" x="141" y="582.9" width="12" height="12"/>
	</g>
	<g>
		<rect id="p_420_" x="165" y="582.9" width="12" height="12"/>
	</g>
	<g>
		<rect id="p_421_" x="189" y="582.9" width="12" height="12"/>
	</g>
</g>
</svg>
