<?xml version="1.0" encoding="utf-8"?>
<!-- Generator: Adobe Illustrator 21.0.0, SVG Export Plug-In . SVG Version: 6.00 Build 0)  -->
<svg version="1.1" id="图层_1" xmlns="http://www.w3.org/2000/svg" xmlns:xlink="http://www.w3.org/1999/xlink" x="0px" y="0px"
	 viewBox="0 0 1920 1080" style="enable-background:new 0 0 1920 1080;" xml:space="preserve">
<style type="text/css">
	.st0{fill:url(#SVGID_1_);}
	.st1{fill:url(#SVGID_2_);}
	.st2{fill:url(#SVGID_3_);}
	.st3{fill:#414141;}
	.st4{font-family:'SourceHanSansCN-Normal-GBpc-EUC-H';}
	.st5{font-size:84.4665px;}
	.st6{font-size:28.5559px;}
	.st7{letter-spacing:5;}
	.st8{fill:#4F4F4F;}
	.st9{fill:#010101;}
	.st10{font-size:51.2356px;}
	.st11{font-family:'SourceHanSansCN-Heavy-GBpc-EUC-H';}
	.st12{font-size:20.4445px;}
	.st13{letter-spacing:4;}
	.st14{font-family:'SourceHanSansCN-ExtraLight-GBpc-EUC-H';}
</style>
<linearGradient id="SVGID_1_" gradientUnits="userSpaceOnUse" x1="575.2091" y1="1104.4629" x2="1623.2253" y2="505.864">
	<stop  offset="0" style="stop-color:#9C9D94"/>
	<stop  offset="2.876979e-02" style="stop-color:#9FA098"/>
	<stop  offset="0.2765" style="stop-color:#B8B9B5"/>
	<stop  offset="0.5231" style="stop-color:#C9CCC9"/>
	<stop  offset="0.7658" style="stop-color:#D3D6D6"/>
	<stop  offset="1" style="stop-color:#D7DADA"/>
</linearGradient>
<polygon class="st0" points="1920,1080 713.1,1080 1206.9,0 1656,0 1920,0 "/>
<linearGradient id="SVGID_2_" gradientUnits="userSpaceOnUse" x1="659.9156" y1="737.8374" x2="1819.0972" y2="1073.928">
	<stop  offset="0" style="stop-color:#9C9D94"/>
	<stop  offset="2.876979e-02" style="stop-color:#9FA098"/>
	<stop  offset="0.2765" style="stop-color:#B8B9B5"/>
	<stop  offset="0.5231" style="stop-color:#C9CCC9"/>
	<stop  offset="0.7658" style="stop-color:#D3D6D6"/>
	<stop  offset="1" style="stop-color:#D7DADA"/>
</linearGradient>
<polygon class="st1" points="1920,1080 713.1,1080 976.9,503 1920,939 "/>
<linearGradient id="SVGID_3_" gradientUnits="userSpaceOnUse" x1="1453.3302" y1="-197.075" x2="2486.4973" y2="426.8036" gradientTransform="matrix(-1 0 0 -1 2615 680)">
	<stop  offset="0" style="stop-color:#9C9D94"/>
	<stop  offset="0.1041" style="stop-color:#AAABA4"/>
	<stop  offset="0.2956" style="stop-color:#BEC0BC"/>
	<stop  offset="0.4995" style="stop-color:#CCCECD"/>
	<stop  offset="0.7224" style="stop-color:#D4D7D7"/>
	<stop  offset="1" style="stop-color:#D7DADA"/>
</linearGradient>
<polygon class="st2" points="0,0 1206.9,0 713.1,1080 264,1080 0,1080 "/>
<text transform="matrix(1 0 0 1 93 147.0625)" class="st3 st4 st5">PILIPALA  BETASIX&amp;SL1.14</text>
<path class="st3" d="M1815.2,55.1c-2,0-4.8-0.9-7.5-3.2V35.8c3-2.8,5.7-4.2,8.3-4.2c5.8,0,8.1,4.6,8.1,11.4
	C1824,50.5,1820.3,55.1,1815.2,55.1z M1904.2,24.2v44.9c0,1.4-1.2,2.6-2.6,2.6h-7.6c3.1-1.4,4.4-4.8,4.4-9.4V28h-5.1v34.2
	c0,3.7-0.7,6.1-3.8,6.1c-1.1,0-2.1-0.3-2.9-0.6l-1,4h-75.3c-1.4,0-2.6-1.2-2.6-2.6v-7.8l-0.1-5.4c2.8,2.3,5.7,3.6,8.5,3.6
	c7.1,0,13.3-6.1,13.3-16.6c0-9.4-4.3-15.7-12.2-15.7c-3.6,0-7,2-9.8,4.3h-0.2l-0.5-3.5h-4.2v41.1c0,1.4-1.2,2.6-2.6,2.6h-127.2
	c-1.4,0-2.6-1.2-2.6-2.6V24.2c0-1.4,1.2-2.6,2.6-2.6H1786c0,0.8,0.3,1.5,0.8,2.1h5.5c0.5-0.6,0.8-1.3,0.8-2.1h99.2
	c0,0.8,0.3,1.5,0.8,2.1h5.5c0.5-0.6,0.8-1.3,0.8-2.1h2.2C1903,21.6,1904.2,22.8,1904.2,24.2z M1718.5,39.2c0-7.9-3-12-9.3-12
	c-3.7,0-7,2.4-10.1,5.9c-1.2-3.6-3.8-5.9-8.5-5.9c-3.7,0-6.9,2.3-9.6,5.3h-0.2l-0.5-4.5h-4.2v30.7h5.1V36.4c2.8-3.2,5.4-4.7,7.8-4.7
	c3.9,0,5.7,2.4,5.7,8.2v18.8h5.1V36.4c2.9-3.2,5.4-4.7,7.8-4.7c3.9,0,5.7,2.4,5.7,8.2v18.8h5.1V39.2z M1750.6,39.8
	c0-7.6-3.2-12.6-10.6-12.6c-4.9,0-9.3,2.2-12.1,4l2,3.6c2.4-1.6,5.7-3.3,9.2-3.3c5,0,6.3,3.8,6.3,7.8c-13.1,1.5-18.9,4.8-18.9,11.5
	c0,5.5,3.8,8.7,9,8.7c3.8,0,7.2-2,10.2-4.4h0.2l0.5,3.7h4.2V39.8z M1779.7,50.3c0-5.8-4.9-7.6-9.4-9.3c-3.4-1.3-6.8-2.4-6.8-5.3
	c0-2.4,1.8-4.4,5.6-4.4c2.8,0,4.9,1.1,7.1,2.7l2.5-3.3c-2.4-1.9-5.8-3.4-9.6-3.4c-6.7,0-10.6,3.8-10.6,8.7c0,5.2,4.9,7.3,9.2,8.9
	c3.4,1.3,7,2.7,7,5.8c0,2.7-2,4.8-6.1,4.8c-3.7,0-6.4-1.5-9.1-3.6l-2.5,3.4c2.9,2.4,7.1,4.2,11.5,4.2
	C1775.7,59.4,1779.7,55.3,1779.7,50.3z M1792.1,28h-5.1v30.7h5.1V28z M1854.4,27.9c-1-0.5-1.9-0.7-3.3-0.7c-3.4,0-6.6,2.5-8.7,6.4
	h-0.2l-0.5-5.6h-4.2v30.7h5.1V38.9c2-5.3,5.2-7.1,7.8-7.1c1.2,0,2,0.1,3,0.5L1854.4,27.9z M1885.1,43.4c0-10.2-6.7-16.2-14.3-16.2
	c-7.5,0-14.3,5.9-14.3,16.2c0,10.2,6.7,16.1,14.3,16.1C1878.4,59.4,1885.1,53.5,1885.1,43.4z M1731.6,50.4c0,3.5,2.4,4.9,5.4,4.9
	c3,0,5.4-1.4,8.4-4.1v-8.6C1735.2,43.9,1731.6,46.4,1731.6,50.4z M1870.9,31.5c-5.3,0-8.9,4.8-8.9,11.9c0,7.1,3.6,11.8,8.9,11.8
	c5.3,0,8.9-4.7,8.9-11.8C1879.8,36.3,1876.2,31.5,1870.9,31.5z"/>
<g>
	<text transform="matrix(1 0 0 1 1670.1335 103.7706)" class="st3 st4 st6 st7">码肆计划工程集</text>
</g>
<g>
	<g>
		<path id="XMLID_60_" class="st8" d="M1677,1017.5l-6.5,11.2c-0.4,0.6-0.4,1.4,0,2l14.5,25.3c0.7,1.2,2.3,1.4,3.3,0.4
			c3.2-3.5,5.6-7.8,6.7-12.5c0.1-0.5,0-1-0.2-1.5l-14.3-24.8C1679.8,1016.2,1677.8,1016.2,1677,1017.5z"/>
		<path id="XMLID_59_" class="st8" d="M1672.9,1008.9c-1.8-0.4-3.7-0.6-5.7-0.6c-2.7,0-5.4,0.4-7.9,1.1c-0.6,0.2-1.1,0.6-1.4,1.1
			l-18.8,32.5h17.7l17.6-30.6C1675.3,1011,1674.5,1009.2,1672.9,1008.9z"/>
		<path id="XMLID_58_" class="st3" d="M1679.2,1055.3l-6.5-11.2c-0.4-0.6-1-1-1.8-1c-4.7,0-31.8,0-31.8,0c0.2,0.9,0.4,1.8,0.7,2.6
			c0,0,0,0,0,0c1.5,4.6,4.1,8.8,7.6,12.1c0.4,0.4,0.9,0.6,1.4,0.6h28.6C1679,1058.3,1680,1056.6,1679.2,1055.3z"/>
	</g>
	<path id="XMLID_53_" class="st9" d="M1791.4,1046.6h8.4c1,0,1.7-0.8,1.7-1.7s-0.8-1.7-1.7-1.7h-8.4c-1,0-1.7,0.8-1.7,1.7
		S1790.4,1046.6,1791.4,1046.6z"/>
	<g>
		<path id="XMLID_57_" class="st8" d="M1726.4,1048.3c0,1-0.8,1.7-1.7,1.7h4.9c0.2-0.5,0.3-1.1,0.3-1.7c0-0.6-0.1-1.2-0.3-1.7h-4.9
			C1725.7,1046.6,1726.4,1047.4,1726.4,1048.3z"/>
		<path id="XMLID_56_" class="st9" d="M1897,1055.4l-4.6-4.6l4.6-4.6h0c0.3-0.3,0.5-0.7,0.5-1.2c0-1-0.8-1.7-1.7-1.7
			c-0.5,0-0.9,0.2-1.2,0.5l0,0l-4.6,4.6l-4.6-4.6c-0.3-0.3-0.7-0.5-1.2-0.5c-1,0-1.7,0.8-1.7,1.7c0,0.5,0.2,0.9,0.5,1.2l4.6,4.6
			l-4.6,4.6l0,0c-0.3,0.3-0.5,0.7-0.5,1.2c0,1,0.8,1.7,1.7,1.7c0.5,0,0.9-0.2,1.2-0.5l0,0l4.6-4.6l4.6,4.6l0,0
			c0.3,0.3,0.7,0.5,1.2,0.5c1,0,1.7-0.8,1.7-1.7C1897.5,1056.1,1897.3,1055.7,1897,1055.4z"/>
		<path id="XMLID_55_" class="st9" d="M1841.6,1046.6h5v10c0,1,0.8,1.7,1.7,1.7c1,0,1.7-0.8,1.7-1.7v0v-10h5c1,0,1.7-0.8,1.7-1.7
			s-0.8-1.7-1.7-1.7h-13.4c-1,0-1.7,0.8-1.7,1.7S1840.7,1046.6,1841.6,1046.6z"/>
		<path id="XMLID_54_" class="st9" d="M1878.3,1043.2c-1,0-1.7,0.8-1.7,1.7v11.7c0,1,0.8,1.7,1.7,1.7s1.7-0.8,1.7-1.7v-11.7
			C1880,1043.9,1879.3,1043.2,1878.3,1043.2z"/>
		<path id="XMLID_52_" class="st9" d="M1799.8,1054.9h-8.4c-1,0-1.7,0.8-1.7,1.7s0.8,1.7,1.7,1.7h8.4c1,0,1.7-0.8,1.7-1.7
			S1800.8,1054.9,1799.8,1054.9z"/>
		<path id="XMLID_51_" class="st9" d="M1788.1,1052.5h8.4c1,0,1.7-0.8,1.7-1.7s-0.8-1.7-1.7-1.7h0h-8.4h0c-1,0-1.7,0.8-1.7,1.7
			S1787.1,1052.5,1788.1,1052.5z"/>
		<path id="XMLID_50_" class="st9" d="M1819,1043.2c-0.4,0-0.8,0.2-1.1,0.4l0,0l-5.6,4.9l-5.6-4.9l0,0c-0.3-0.3-0.7-0.4-1.1-0.4
			c-1,0-1.7,0.8-1.7,1.7v11.7c0,1,0.8,1.7,1.7,1.7c1,0,1.7-0.8,1.7-1.7v-7.9l3.9,3.4l0,0c0.3,0.3,0.7,0.4,1.1,0.4s0.8-0.2,1.1-0.4
			l0,0l3.9-3.4v7.9c0,1,0.8,1.7,1.7,1.7s1.7-0.8,1.7-1.7v-11.7C1820.7,1043.9,1819.9,1043.2,1819,1043.2z"/>
		<path id="XMLID_49_" class="st9" d="M1712.2,1055.7l-6.7-11.8l0,0c-0.3-0.5-0.9-0.9-1.5-0.9c-0.6,0-1.2,0.3-1.5,0.9l0,0l-6.8,11.7
			l0,0c-0.1,0.3-0.2,0.5-0.2,0.9c0,1,0.8,1.7,1.7,1.7h6.7c1,0,1.7-0.8,1.7-1.7c0-1-0.8-1.7-1.7-1.7h-3.7l3.8-6.5l5.2,9.1l0,0
			c0.3,0.5,0.8,0.8,1.5,0.8c1,0,1.7-0.8,1.7-1.7C1712.4,1056.2,1712.3,1056,1712.2,1055.7L1712.2,1055.7z"/>
		<path id="XMLID_48_" class="st9" d="M1824.8,1058.3c0.6,0,1.2-0.3,1.5-0.9l0,0l5.3-9.1l5.2,9.1l0,0c0.3,0.5,0.8,0.8,1.5,0.8
			c1,0,1.7-0.8,1.7-1.7c0-0.3-0.1-0.6-0.2-0.8l0,0l-6.7-11.8l0,0c-0.3-0.5-0.9-0.9-1.5-0.9c-0.6,0-1.2,0.3-1.5,0.9l0,0l-6.8,11.7
			l0,0c-0.1,0.3-0.2,0.5-0.2,0.9C1823,1057.6,1823.8,1058.3,1824.8,1058.3z"/>
		<path id="XMLID_47_" class="st9" d="M1729.7,1055.8l-1.9-3.3c0.8-0.6,1.4-1.4,1.8-2.4h-4.9h-4.9h-1.7v-3.4h1.7h4.9h4.9
			c-0.7-2-2.6-3.4-4.9-3.4l0,0h-8.3c-1,0-1.7,0.8-1.7,1.7v11.7c0,1,0.8,1.7,1.7,1.7s1.7-0.8,1.7-1.7v0v-3.1h6.2l2.3,4l0,0
			c0.3,0.5,0.8,0.8,1.5,0.8c1,0,1.7-0.8,1.7-1.7C1729.9,1056.3,1729.8,1056,1729.7,1055.8L1729.7,1055.8z"/>
		<path id="XMLID_46_" class="st9" d="M1745.6,1054.9h-5.9c-2.3,0-4.1-1.9-4.1-4.1c0-2.3,1.9-4.1,4.1-4.1h5.9c1,0,1.7-0.8,1.7-1.7
			s-0.8-1.7-1.7-1.7h-5.9c-4.2,0-7.6,3.4-7.6,7.6c0,4.2,3.4,7.6,7.6,7.6h5.9c1,0,1.7-0.8,1.7-1.7
			C1747.4,1055.6,1746.6,1054.9,1745.6,1054.9z"/>
		<path id="XMLID_45_" class="st9" d="M1751.4,1058.3c0.6,0,1.2-0.3,1.5-0.9l0,0l5.3-9.1l5.2,9.1l0,0c0.3,0.5,0.8,0.8,1.5,0.8
			c1,0,1.7-0.8,1.7-1.7c0-0.3-0.1-0.6-0.2-0.8l0,0l-6.7-11.8l0,0c-0.3-0.5-0.9-0.9-1.5-0.9c-0.6,0-1.2,0.3-1.5,0.9l0,0l-6.8,11.7
			l0,0c-0.1,0.3-0.2,0.5-0.2,0.9C1749.7,1057.6,1750.5,1058.3,1751.4,1058.3z"/>
		<path id="XMLID_44_" class="st9" d="M1782.3,1043.2c-1,0-1.7,0.8-1.7,1.7v7.6l-8.8-8.8c-0.3-0.3-0.7-0.5-1.2-0.5
			c-1,0-1.7,0.8-1.7,1.7v11.7c0,1,0.8,1.7,1.7,1.7s1.7-0.8,1.7-1.7v-7.6l8.8,8.8l0,0c0.3,0.3,0.7,0.5,1.2,0.5c1,0,1.7-0.8,1.7-1.7
			v-11.7C1784,1043.9,1783.3,1043.2,1782.3,1043.2z"/>
		<path id="XMLID_43_" class="st8" d="M1870.8,1048.3c0,1-0.8,1.7-1.7,1.7h4.9c0.2-0.5,0.3-1.1,0.3-1.7c0-0.6-0.1-1.2-0.3-1.7h-4.9
			C1870.1,1046.6,1870.8,1047.4,1870.8,1048.3z"/>
		<path id="XMLID_42_" class="st9" d="M1874.1,1055.8l-1.9-3.3c0.8-0.6,1.4-1.4,1.8-2.4h-4.9h-4.9h-1.7v-3.4h1.7h4.9h4.9
			c-0.7-2-2.6-3.4-4.9-3.4l0,0h-8.3c-1,0-1.7,0.8-1.7,1.7v11.7c0,1,0.8,1.7,1.7,1.7s1.7-0.8,1.7-1.7v0v-3.1h6.2l2.3,4l0,0
			c0.3,0.5,0.8,0.8,1.5,0.8c1,0,1.7-0.8,1.7-1.7C1874.3,1056.3,1874.2,1056,1874.1,1055.8L1874.1,1055.8z"/>
	</g>
	<g>
		<path class="st8" d="M1835.2,1017l-0.9-2c-0.2-0.4,0-0.8,0.4-0.9l0,0c0.4-0.2,0.8,0,0.9,0.4l0.9,2c0.2,0.4,0,0.8-0.4,0.9l0,0
			C1835.8,1017.5,1835.4,1017.3,1835.2,1017z"/>
		<polygon class="st8" points="1886.6,1008.3 1897.5,1019.2 1897.5,1008.3 		"/>
		<path class="st9" d="M1809,1025.2L1809,1025.2l-2.5-5.2l0,0l2.5-5.2l0,0c0.1-0.1,0.1-0.3,0.1-0.5c-0.1-0.3-0.4-0.5-0.7-0.5h-5.1
			c-0.4,0-0.7,0.3-0.7,0.7v20.4h1.4l0,0v-8.7l0,0h4.4c0.3,0,0.6-0.2,0.7-0.5C1809.1,1025.5,1809.1,1025.4,1809,1025.2z
			 M1807.3,1024.8h-3.3v-9.5l0,0h3.3l0,0l-2.2,4.5l0,0c0,0.1-0.1,0.2-0.1,0.3s0,0.2,0.1,0.3l0,0L1807.3,1024.8L1807.3,1024.8z"/>
		<path class="st9" d="M1816.6,1028L1816.6,1028v-8.2c0-0.4-0.3-0.7-0.6-0.7c-0.4-0.1-0.8,0.3-0.8,0.7v3.1l0,0h-3.8v0l2.4-5.2l0,0
			h7.3c0.4,0,0.7-0.3,0.7-0.6c0.1-0.4-0.3-0.8-0.7-0.8h-6.7l0.7-1.4c0.2-0.3,0-0.8-0.3-0.9l0,0c-0.3-0.2-0.8,0-0.9,0.3l-0.9,2l0,0
			h-2.6c-0.4,0-0.7,0.3-0.7,0.6c-0.1,0.4,0.3,0.8,0.7,0.8h2l0,0l-2.6,5.6c-0.2,0.3,0,0.8,0.3,0.9c0.1,0,0.2,0.1,0.3,0.1v0h4.9l0,0
			v3.7l0,0h-5.4c-0.4,0-0.7,0.4-0.7,0.8c0,0.4,0.4,0.6,0.7,0.6h5.4l0,0v5.5h1.4h0v-5.5h5.9l0,0v-1.4l0,0H1816.6z"/>
		<path class="st9" d="M1867.9,1032.7h-5l1.4-11.3c0,0,0,0,0,0c0,0,0,0,0,0c0,0,0,0,0,0c0,0,0,0,0-0.1c0,0,0,0,0-0.1c0,0,0,0,0-0.1
			c0,0,0,0,0-0.1c0,0,0,0,0-0.1c0,0,0,0,0-0.1c0,0,0,0,0,0c0,0,0,0,0-0.1c0,0,0,0-0.1,0c0,0,0,0-0.1,0c0,0,0,0-0.1,0c0,0,0,0-0.1,0
			c0,0,0,0-0.1,0c0,0,0,0-0.1,0c0,0,0,0,0,0c0,0,0,0,0,0c0,0,0,0,0,0h-9l0.8-3.7c0-0.1,0-0.1,0-0.2h11.8c0.4,0,0.7-0.3,0.7-0.7
			s-0.3-0.7-0.7-0.7h-17.7c-0.4,0-0.7,0.3-0.7,0.7s0.3,0.7,0.7,0.7h4.5l-2.4,11.2l0,0c0,0,0,0.1,0,0.1c0,0,0,0,0,0.1l0,0v0
			c0,0,0,0,0,0c0,0,0,0.1,0,0.1c0,0,0,0,0,0.1c0,0,0,0,0,0.1c0,0,0,0,0,0.1c0,0,0,0,0,0c0,0,0,0,0,0.1c0,0,0,0,0,0c0,0,0,0,0.1,0.1
			c0,0,0,0,0,0c0,0,0.1,0,0.1,0c0,0,0,0,0,0c0,0,0.1,0,0.1,0c0,0,0,0,0,0h0c0,0,0.1,0,0.1,0c0,0,0,0,0,0l0,0h7.5
			c0.4,0,0.7-0.3,0.7-0.7l0,0c0-0.4-0.3-0.7-0.7-0.7h-6.6l1.1-5.2h8.5l-1.3,10.7h-12.7c-0.4,0-0.7,0.3-0.7,0.7
			c0,0.4,0.3,0.7,0.7,0.7h19.2c0.4,0,0.7-0.3,0.7-0.7C1868.6,1033,1868.3,1032.7,1867.9,1032.7z"/>
		<path class="st9" d="M1844.3,1018H1826c-0.4,0-0.7,0.3-0.7,0.7s0.3,0.7,0.7,0.7h5.9c-0.3,5-1.2,11.3-6.4,14.3c0,0,0,0,0,0
			c-0.2,0.1-0.3,0.3-0.3,0.6c0,0.4,0.3,0.7,0.7,0.7c0.1,0,0.2,0,0.3-0.1c0,0,0,0,0,0c0,0,0,0,0.1,0c0,0,0,0,0,0
			c3.8-2.2,5.7-6.4,6.5-10.1h8.5c-0.4,4.4-0.8,7.5-1.3,8.4h-4.8c-0.4,0-0.7,0.3-0.7,0.7l0,0c0,0.4,0.3,0.7,0.7,0.7h4.9
			c0.3,0,0.9,0.1,1.3-0.9c0.4-1.2,0.9-3,1.3-9.6c0-0.4-0.3-0.7-0.7-0.7h-9c0.1-1,0.3-2.6,0.3-4h11c0.4,0,0.7-0.3,0.7-0.7
			S1844.7,1018,1844.3,1018z"/>
		<path class="st9" d="M1879.8,1030.2c0.4-0.1,0.6-0.4,0.6-0.8c-0.1-0.4-0.4-0.6-0.8-0.6l-1,0.2v-12.7h0.4c0.4,0,0.7-0.3,0.7-0.7
			c0-0.4-0.3-0.7-0.7-0.7h-7.3c-0.4,0-0.7,0.3-0.7,0.7c0,0.4,0.3,0.7,0.7,0.7h0.6v13.7l-0.7,0.1c-0.4,0.1-0.6,0.4-0.6,0.8
			c0.1,0.4,0.4,0.6,0.8,0.6l5.4-0.9v3.7c0,0.4,0.3,0.7,0.7,0.7c0.4,0,0.7-0.3,0.7-0.7v-3.9L1879.8,1030.2z M1873.7,1021.1h3.5v3.3
			h-3.5V1021.1z M1877.2,1016.3v3.4h-3.5v-3.4H1877.2z M1873.7,1029.7v-3.9h3.5v3.3L1873.7,1029.7z"/>
		<path class="st9" d="M1892.1,1025.2c0-0.4-0.3-0.7-0.7-0.7h-5.3l0-4.3h4.3c0.4,0,0.7-0.3,0.7-0.7s-0.3-0.7-0.7-0.7h-2.7l2-3.3
			c0.2-0.3,0.1-0.8-0.2-1c-0.3-0.2-0.8-0.1-1,0.2l-2.5,4h-5.2c-0.4,0-0.7,0.3-0.7,0.7s0.3,0.7,0.7,0.7h3.8v4.3h-4.3
			c-0.4,0-0.7,0.3-0.7,0.7c0,0.4,0.3,0.7,0.7,0.7h4.3c0,0.7-1.1,5.8-4.9,7.8c0,0,0,0,0,0c-0.2,0.1-0.3,0.3-0.3,0.6
			c0,0.4,0.3,0.7,0.7,0.7c0.1,0,0.3,0,0.4-0.1l0,0c0,0,0,0,0,0c0,0,0,0,0,0c3.1-2.4,3.5-3.3,4.5-5.6c0.1-0.3,0.6-0.3,0.7,0
			c1.2,2.3,2.7,4.4,5.1,5.7c0,0,0,0,0,0c0.1,0.1,0.2,0.1,0.3,0.1c0.4,0,0.7-0.3,0.7-0.7c0-0.3-0.2-0.5-0.4-0.6l0,0
			c-2.4-0.7-5.4-6.3-5.4-7.8h5.3C1891.7,1025.9,1892.1,1025.5,1892.1,1025.2z"/>
		<path class="st9" d="M1883.1,1017.8c0.2,0.3,0.6,0.4,1,0.2l0,0c0.3-0.2,0.4-0.6,0.2-1l-1.5-2.3c-0.2-0.3-0.6-0.4-1-0.2
			c-0.3,0.2-0.4,0.6-0.2,1L1883.1,1017.8z"/>
		<path class="st8" d="M1820.4,1022.9h-3.8v1.4h3.8c0.4,0,0.7-0.3,0.7-0.7C1821.1,1023.2,1820.8,1022.9,1820.4,1022.9z"/>
	</g>
</g>
<text transform="matrix(1 0 0 1 93 221.771)" class="st3 st4 st10">正式版开发概要</text>
<text transform="matrix(1 0 0 1 1149.9922 276.6611)"><tspan x="0" y="0" class="st3 st11 st12 st13">palaDB全部重构：</tspan><tspan x="0" y="24.5" class="st3 st14 st12 st13">•文本数据采用三分库设计（灵感来源于AKG K3003），</tspan><tspan x="0" y="49.1" class="st3 st14 st12 st13">达到了逻辑简明与业务高效的完美契合。</tspan><tspan x="0" y="73.6" class="st3 st14 st12 st13">•删除原有palaRoot（根级数据表）和palaUser（用户数据表），</tspan><tspan x="0" y="98.1" class="st3 st14 st12 st13">两者精简后兼为一表，提升了数据整合度。</tspan><tspan x="0" y="122.7" class="st3 st14 st12 st13">•视图部分全部重构，对StudioLibrary对象式架构提供基层支持</tspan><tspan x="0" y="147.2" class="st3 st14 st12 st13">•数据库函数大量精简，采用父子级和归类查询思路，</tspan><tspan x="0" y="171.7" class="st3 st14 st12 st13">简洁明了的函数设计很好地提升了开发效率。</tspan></text>
<text transform="matrix(1 0 0 1 51 484.1641)"><tspan x="0" y="0" class="st3 st11 st12 st13">氛元素主题190213（fen）:</tspan><tspan x="0" y="24.5" class="st3 st14 st12 st13">•提供了基于JQuery的Ajax支持，减轻了服务端业务压力，无刷新加载提升了用户体验。</tspan><tspan x="0" y="49.1" class="st3 st14 st12 st13">•响应式网页设计使得氛元素主题能兼容任何屏幕规格的浏览设备，移动端最佳的浏览设备为 iPad Pro，</tspan><tspan x="0" y="73.6" class="st3 st14 st12 st13">桌面端最佳分辨率为1080p。</tspan><tspan x="0" y="98.1" class="st3 st14 st12 st13">•为第三代对象式架构提供了UI及命名支持，优化了css分类。</tspan><tspan x="0" y="122.7" class="st3 st14 st12 st13">•数据层操作全部移交服务端，提升了安全系数。</tspan><tspan x="0" y="147.2" class="st3 st14 st12 st13">•删除了ReadOnly条带，因为该样式不利于数据层整合。</tspan><tspan x="0" y="171.7" class="st3 st14 st12 st13">•半透明的UI设计，与背景图搭配提升了浏览体验。</tspan><tspan x="0" y="196.3" class="st3 st14 st12 st13">•新增功能：点击头像可返回首页，推进式加载按钮可用（该按钮有利于减轻服务端数据库遍历压力）。</tspan></text>
<text transform="matrix(1 0 0 1 51 276.6611)"><tspan x="0" y="0" class="st3 st11 st12 st13">PILIPALA第六开发版（PILIPALA Beta6 LTS）：</tspan><tspan x="0" y="24.5" class="st3 st14 st12 st13">•应用了第三代对象式架构，将整个网站系统的耦合度显著降低，极大地避免了各部分的彼此牵连，</tspan><tspan x="0" y="49.1" class="st3 st14 st12 st13">并降低了逻辑复杂度。</tspan><tspan x="0" y="73.6" class="st3 st14 st12 st13">•提供了主题编写支持，用户可以根据需要自行编写主题、更改网站样式。</tspan><tspan x="0" y="98.1" class="st3 st14 st12 st13">•采用主页映射，将站点首页映射到启动页，利于简化链接复杂度。</tspan><tspan x="0" y="122.7" class="st3 st14 st12 st13">•废除webio（网页IO桥），全局数据处理部署于webservice，简化了数据操作逻辑。</tspan><tspan x="0" y="147.2" class="st3 st14 st12 st13">•去除了服务端ajax支持，因为它会大幅提升现有架构复杂度。</tspan><tspan x="0" y="171.7" class="st3 st14 st12 st13">•该版本使用WebApplication代替WebSite建筑，因为前者提供了更佳的MSBuild支持。</tspan></text>
<text transform="matrix(1 0 0 1 51 724)"><tspan x="0" y="0" class="st3 st11 st12 st13">StudioLibrary1.14LTS全面支持：</tspan><tspan x="0" y="24.5" class="st3 st14 st12 st13">•名称缩写由StdLib（已经使用了3年）展写为StudioLibrary，缩写为SL。</tspan><tspan x="0" y="49.1" class="st3 st14 st12 st13">•重构的FutabaRio架构对日益增长的业务负担提供了更易理解的命名空间工作分配。</tspan><tspan x="0" y="73.6" class="st3 st14 st12 st13">•新增的nsguide.cs文件描述了各个命名空间的父子关系，并在此对命名空间作集中注释，利于代码的简明。</tspan><tspan x="0" y="98.1" class="st3 st14 st12 st13">•删除了实际应用不大的exe文件运行类、PixelGraphic转码类（提供了一种基于图形和16进制的加密算法）、</tspan><tspan x="0" y="122.7" class="st3 st14 st12 st13">ArrayAlgorithm算法类（提供了一种基于矩阵的加密算法），这有利于SL的业务专注。</tspan><tspan x="0" y="147.2" class="st3 st14 st12 st13">•Sql参数化查询结构、Sql连接签名结构、Sql查询描述结构、Xml节点描述结构重新命名，部分内置访问器优化，</tspan><tspan x="0" y="171.7" class="st3 st14 st12 st13">使得开发更加高效。</tspan><tspan x="0" y="196.3" class="st3 st14 st12 st13">•噼里啪啦命名空间全部重构，应用了第三代对象式架构以全面兼容palaDB，使其完全脱离业务实现架构束缚，</tspan><tspan x="0" y="220.8" class="st3 st14 st12 st13">为开发及向后兼容与维护提供便利。</tspan><tspan x="0" y="245.3" class="st3 st14 st12 st13">•采用大量接口约束噼里啪啦方法与结构，明确了各个方法的分工和彼此联系。</tspan><tspan x="0" y="269.9" class="st3 st14 st12 st13">•删除了暂时没有开发价值的多线程操作类，因为应用这一操作类会为线程操作带来不必要的逻辑负担。</tspan><tspan x="0" y="294.4" class="st3 st14 st12 st13">•优化注释内容，注意到//行注释不够精准严格，因此新增的代码注释全部采用了/*  */块注释。</tspan></text>
<g id="XMLID_430_">
	<path id="XMLID_431_" class="st8" d="M1619.9,643.8h-17.4c-3.3,0-6.2,0.8-8.7,2.5c-2.5,1.7-4.3,4.1-5.2,7.4l-23.3,83.3
		c-0.7,2.4,1.1,4.7,3.6,4.7h26.1c12.4,0,24.4-3.7,36-11.2c11.6-7.4,19.9-20.2,25-38.4c4.6-16.5,4.1-28.7-1.5-36.6
		C1648.8,647.7,1637.3,643.8,1619.9,643.8z"/>
	<path id="XMLID_434_" class="st8" d="M1707.9,589.4h-240.4c-18.1,0-32.7,14.7-32.7,32.7v240.4c0,18.1,14.7,32.7,32.7,32.7h240.4
		c18.1,0,32.7-14.7,32.7-32.7V622.1C1740.6,604,1726,589.4,1707.9,589.4z M1677.4,690.9c-5.3,19-15.4,33.5-30.1,43.4
		c-14.8,9.9-30.4,14.9-46.9,14.9h-35.6c-1.7,0-3.1,1.1-3.6,2.7l-22.1,79.1c-0.9,3.3-0.6,5.8,1,7.4c1.6,1.7,4.1,2.5,7.4,2.5h111.1
		c12,0,25.7,10.6,12.2,10.6h-171.3c-5,0-3.6-6.5-3.6-6.5c0.4-1.6,1.9-4.1,3.6-4.1h5.9c4.1,0,7.2-0.8,9.4-2.5
		c2.1-1.6,3.6-4.1,4.6-7.4l49.6-177.2c0.9-3.3,0.8-5.8-0.4-7.4c-1.2-1.6-3.9-2.5-8-2.5h-2.5c-2.5,0-4.2-2.3-3.6-4.7
		c0.4-1.6,1.9-2.7,3.6-2.7h70.3c20.6,0,35.1,5.2,43.4,15.5C1679.8,662.2,1681.8,675.2,1677.4,690.9z"/>
</g>
</svg>
