<?xml version="1.0" encoding="utf-8"?>
<!-- Generator: Adobe Illustrator 16.0.0, SVG Export Plug-In . SVG Version: 6.00 Build 0)  -->
<!DOCTYPE svg PUBLIC "-//W3C//DTD SVG 1.1//EN" "http://www.w3.org/Graphics/SVG/1.1/DTD/svg11.dtd">
<svg version="1.1" id="图层_1" xmlns="http://www.w3.org/2000/svg" xmlns:xlink="http://www.w3.org/1999/xlink" x="0px" y="0px"
	 width="288.001px" height="216px" viewBox="0 0 288.001 216" enable-background="new 0 0 288.001 216" xml:space="preserve">
<rect fill="#CC3300" width="288.001" height="216"/>
<g>
	<rect x="86.788" y="106.825" fill="#FFFFFF" width="16.09" height="7.529"/>
	<rect x="86.788" y="121.885" fill="#FFFFFF" width="16.09" height="7.533"/>
	<rect x="86.788" y="136.947" fill="#FFFFFF" width="16.09" height="7.531"/>
	<rect x="86.788" y="61.645" fill="#FFFFFF" width="16.09" height="7.529"/>
	<polygon fill="#FFFFFF" points="75.238,39.053 102.878,39.053 102.878,31.521 77.507,31.521 	"/>
	<polygon fill="#FFFFFF" points="102.878,54.112 102.878,46.579 72.97,46.579 70.7,54.112 	"/>
	<rect x="86.788" y="91.767" fill="#FFFFFF" width="16.09" height="7.529"/>
	<rect x="86.788" y="76.702" fill="#FFFFFF" width="16.09" height="7.533"/>
	<path fill="#FFFFFF" d="M201.53,106.825c-0.125,2.644-0.52,5.162-1.228,7.529h16.357c0.384-2.428,0.588-4.944,0.641-7.529H201.53z"
		/>
	<path fill="#FFFFFF" d="M201.099,99.296h15.945c-0.263-2.617-0.708-5.12-1.306-7.529h-17.06
		C199.824,94.111,200.63,96.621,201.099,99.296z"/>
	<polygon fill="#FFFFFF" points="204.608,46.579 188.331,46.579 186.077,54.112 202.339,54.112 	"/>
	<path fill="#FFFFFF" d="M181.574,69.174h20.074c-1.627-1.299-2.718-1.951-3.261-1.951l1.681-5.578h-16.241L181.574,69.174z"/>
	<path fill="#FFFFFF" d="M179.885,76.702c5.124,1.149,9.582,3.662,13.386,7.533h19.913c-0.256-0.574-0.505-1.156-0.782-1.717
		c-1.135-2.136-2.332-4.065-3.583-5.816H179.885z"/>
	<polygon fill="#FFFFFF" points="209.146,31.521 148.464,31.521 146.195,39.053 206.877,39.053 	"/>
	<path fill="#FFFFFF" d="M159.383,126.902c-1.71-1.542-3.161-3.223-4.399-5.018h-17.477c0.813,2.64,1.846,5.146,3.075,7.533h21.985
		C161.49,128.665,160.425,127.846,159.383,126.902z"/>
	<polygon fill="#FFFFFF" points="157.815,46.584 143.925,46.584 141.658,54.107 157.815,54.107 	"/>
	<path fill="#FFFFFF" d="M150.146,106.825h-14.972c0.067,2.602,0.282,5.11,0.645,7.529h15.537
		C150.652,112.007,150.272,109.485,150.146,106.825z"/>
	<path fill="#FFFFFF" d="M147.592,139.368c1.809,1.929,3.711,3.62,5.694,5.11h45.509c2.262-1.72,4.42-3.729,6.475-6.039
		c0.433-0.485,0.807-0.996,1.215-1.492h-60.98C146.17,137.771,146.859,138.585,147.592,139.368z"/>
	<path fill="#FFFFFF" d="M192.943,126.547c-1.082,1.081-2.196,2.025-3.333,2.871h21.962c1.303-2.405,2.389-4.917,3.249-7.533
		h-18.047C195.681,123.525,194.406,125.08,192.943,126.547z"/>
	<polygon fill="#FFFFFF" points="141.657,54.107 141.657,54.112 141.658,54.107 	"/>
</g>
<g>
	<rect x="139.727" y="160.282" fill="#FFFFFF" width="3.82" height="1.559"/>
	<rect x="174.719" y="167.419" fill="#FFFFFF" width="3.141" height="1.406"/>
	<rect x="175.961" y="160.341" fill="#FFFFFF" width="0.633" height="1.465"/>
	<rect x="76.727" y="167.208" fill="#FFFFFF" width="2.848" height="1.688"/>
	<path fill="#FFFFFF" d="M203.09,160.669c0.336,0.414,0.625,0.793,0.867,1.137l-0.352,0.223h1.816
		c0.32-0.461,0.609-0.914,0.867-1.359H203.09z"/>
	<rect x="73.023" y="167.208" fill="#FFFFFF" width="2.836" height="1.688"/>
	<rect x="231.297" y="166.716" fill="#FFFFFF" width="1.992" height="1.781"/>
	<rect x="187.668" y="160.563" fill="#FFFFFF" width="2.813" height="0.867"/>
	<rect x="231.297" y="161.606" fill="#FFFFFF" width="1.992" height="1.781"/>
	<path fill="#FFFFFF" d="M177.578,165.052h0.281v-2.496h-0.621v2.191C177.238,164.95,177.352,165.052,177.578,165.052z"/>
	<rect x="111.344" y="165.286" fill="#FFFFFF" width="2.895" height="3.094"/>
	<path fill="#FFFFFF" d="M79.633,163.892c-1.25-0.711-2.156-1.57-2.719-2.578h-1.16c-0.633,0.969-1.563,1.828-2.789,2.578H79.633z"
		/>
	<path fill="#FFFFFF" d="M174.719,165.614v1.078h3.141v-0.938h-0.551c-0.477,0-0.715-0.246-0.715-0.738v-2.461h-0.633v0.855
		c0,1.109-0.281,2.016-0.844,2.719C174.961,165.927,174.828,165.755,174.719,165.614z"/>
	<rect x="76.727" y="164.712" fill="#FFFFFF" width="2.848" height="1.699"/>
	<rect x="139.727" y="162.626" fill="#FFFFFF" width="3.82" height="1.582"/>
	<path fill="#FFFFFF" d="M175.328,162.556h-0.609v2.801c0.406-0.469,0.609-1.152,0.609-2.051V162.556z"/>
	<path fill="#FFFFFF" d="M131.91,163.681h-2.039v-0.855l1.125-2.379h-2.93c0,0.57-0.004,1.105-0.012,1.605
		c0.609,2.047,1.375,3.629,2.297,4.746C131.063,165.868,131.582,164.829,131.91,163.681z"/>
	<path fill="#FFFFFF" d="M90.871,161.817h-2.32c0,1.344-0.004,2.172-0.012,2.484h2.332V161.817z"/>
	<rect x="166.41" y="164.606" fill="#FFFFFF" width="4.945" height="1.043"/>
	<rect x="166.41" y="162.872" fill="#FFFFFF" width="4.945" height="1.043"/>
	<rect x="166.41" y="166.341" fill="#FFFFFF" width="4.945" height="1.055"/>
	<path fill="#FFFFFF" d="M56.535,160.282h-8.473v8.719h8.473V160.282z M56.137,163.153h-2.25v3.574c0,1.133-0.539,1.699-1.617,1.699
		c-0.438,0-0.891-0.008-1.359-0.023c-0.047-0.273-0.109-0.582-0.188-0.926c0.523,0.063,0.969,0.094,1.336,0.094
		c0.641,0,0.961-0.363,0.961-1.09v-2.742c-0.949,1.473-2.352,2.777-4.207,3.914c-0.148-0.258-0.348-0.52-0.598-0.785
		c1.82-1.008,3.234-2.246,4.242-3.715h-3.82v-0.797h4.383v-1.688h0.867v1.688h2.25V163.153z"/>
	<rect x="73.023" y="164.712" fill="#FFFFFF" width="2.836" height="1.699"/>
	<rect x="64.129" y="166.446" fill="#FFFFFF" width="4.359" height="2.391"/>
	<rect x="202.645" y="165.544" fill="#FFFFFF" width="4.23" height="0.82"/>
	<rect x="231.297" y="164.161" fill="#FFFFFF" width="1.992" height="1.781"/>
	<rect x="202.645" y="164.103" fill="#FFFFFF" width="4.23" height="0.809"/>
	<rect x="189.461" y="163.646" fill="#FFFFFF" width="1.781" height="1.008"/>
	<rect x="186.906" y="163.646" fill="#FFFFFF" width="1.781" height="1.008"/>
	<polygon fill="#FFFFFF" points="266.4,155.25 262.625,155.25 260.625,155.25 260.625,173.923 262.625,173.923 266.4,173.923 
		269.215,164.586 	"/>
	<path fill="#FFFFFF" d="M0,174h254.688v-18.75H0V174z M69.402,170.384h-0.914v-0.727h-4.359v0.727h-0.914v-4.758h6.188V170.384z
		 M229.293,169.786c-0.066-0.289-0.141-0.594-0.223-0.914c-0.531,0.055-1.188,0.129-1.969,0.223
		c-0.336,0.039-0.652,0.113-0.949,0.223l-0.398-0.82c0.266-0.141,0.512-0.43,0.738-0.867c0.477-1.063,0.977-2.531,1.5-4.406
		l0.867,0.234c-0.625,1.852-1.219,3.473-1.781,4.863c0.504-0.051,1.104-0.111,1.799-0.182c-0.152-0.566-0.326-1.174-0.521-1.822
		l0.75-0.234c0.477,1.484,0.82,2.629,1.031,3.434L229.293,169.786z M246.754,162.005c0.664,1.258,1.355,2.688,2.074,4.289
		l-0.973,0.48c-0.602-1.516-1.262-2.969-1.98-4.359L246.754,162.005z M242.723,158.759c0.742,1.234,1.371,2.348,1.887,3.34
		c-0.367,0.188-0.68,0.355-0.938,0.504c-0.547-1.211-1.137-2.352-1.77-3.422L242.723,158.759z M240.145,161.114h0.973v6.867
		c0,0.711,0.316,1.066,0.949,1.066h2.52c0.672,0,1.051-0.281,1.137-0.844c0.086-0.492,0.16-1.082,0.223-1.77
		c0.328,0.133,0.664,0.258,1.008,0.375c-0.117,0.82-0.227,1.434-0.328,1.84c-0.211,0.875-0.828,1.313-1.852,1.313h-2.941
		c-1.125,0-1.688-0.586-1.688-1.758V161.114z M238.422,162.368l0.938,0.258c-0.359,1.664-0.789,3.281-1.289,4.852l-0.938-0.363
		C237.648,165.646,238.078,164.063,238.422,162.368z M232.164,159.063c-0.238,0.617-0.48,1.199-0.727,1.746h2.309
		c-0.313-0.582-0.633-1.125-0.961-1.629l0.703-0.387c0.383,0.516,0.762,1.074,1.137,1.676l-0.586,0.34h2.531v0.797h-2.438v1.781
		h2.203v0.773h-2.203v1.781h2.203v0.773h-2.203v1.781h2.484v0.797h-5.32v1.055h-0.844v-7.535c-0.211,0.383-0.422,0.742-0.633,1.078
		c-0.148-0.211-0.363-0.441-0.645-0.691c0.82-1.164,1.535-2.629,2.145-4.395L232.164,159.063z M225.32,161.677v-0.82h1.588
		c0.109-0.609,0.197-1.246,0.264-1.91h0.855c-0.07,0.66-0.16,1.297-0.27,1.91h2.016v0.82h-2.18
		c-0.414,1.926-1.047,3.629-1.898,5.109c-0.18-0.227-0.387-0.465-0.621-0.715c0.738-1.227,1.295-2.691,1.67-4.395H225.32z
		 M221.934,159.333c0.688,0.523,1.391,1.105,2.109,1.746l-0.715,0.727c-0.641-0.648-1.309-1.266-2.004-1.852L221.934,159.333z
		 M213.098,163.247v-0.867h2.52v-1.77c-0.617,0.082-1.281,0.164-1.992,0.246c-0.055-0.297-0.141-0.609-0.258-0.938
		c1.922-0.18,3.574-0.414,4.957-0.703l0.281,0.938c-0.59,0.105-1.266,0.215-2.027,0.328v1.898h3
		c-0.055-0.957-0.113-2.113-0.176-3.469h0.984c0.027,1.25,0.068,2.406,0.123,3.469h4.283v0.867h-4.23
		c0.09,1.207,0.25,2.246,0.48,3.117c0.863-0.766,1.609-1.617,2.238-2.555l0.844,0.563c-0.816,1.105-1.738,2.088-2.766,2.947
		c0.219,0.555,0.48,1.01,0.785,1.365c0.398,0.469,0.746,0.703,1.043,0.703c0.164,0,0.281-0.129,0.352-0.387
		c0.109-0.406,0.223-1.066,0.34-1.98c0.328,0.148,0.629,0.262,0.902,0.34c-0.141,0.875-0.281,1.555-0.422,2.039
		c-0.18,0.625-0.563,0.941-1.148,0.949c-0.672-0.008-1.309-0.41-1.91-1.207c-0.266-0.348-0.5-0.756-0.703-1.225
		c-0.855,0.633-1.777,1.189-2.766,1.67c-0.203-0.305-0.402-0.551-0.598-0.738c1.117-0.531,2.127-1.145,3.029-1.84
		c-0.324-1.035-0.535-2.289-0.633-3.762h-3.053v1.939c0.773-0.137,1.574-0.283,2.402-0.439c0.016,0.352,0.027,0.66,0.035,0.926
		c-0.82,0.156-1.633,0.313-2.438,0.469v2.754c0,0.891-0.426,1.34-1.277,1.348c-0.523,0.008-1.047-0.004-1.57-0.035
		c-0.039-0.352-0.105-0.684-0.199-0.996c0.57,0.078,1.082,0.117,1.535,0.117c0.367,0.008,0.551-0.18,0.551-0.563v-2.438
		c-0.773,0.152-1.539,0.305-2.297,0.457l-0.234-1.008c0.809-0.129,1.652-0.27,2.531-0.422v-2.109H213.098z M208.375,170.419
		c-0.203-0.281-0.418-0.52-0.645-0.715c1.797-1.125,3.223-2.512,4.277-4.16l0.738,0.551
		C211.543,167.899,210.086,169.341,208.375,170.419z M208.785,166.177c-0.211-0.273-0.418-0.512-0.621-0.715
		c1.352-0.953,2.539-2.105,3.563-3.457l0.738,0.586C211.324,163.981,210.098,165.177,208.785,166.177z M211.199,159.04l0.738,0.563
		c-0.836,1-1.848,1.953-3.035,2.859c-0.195-0.242-0.402-0.473-0.621-0.691C209.484,160.966,210.457,160.056,211.199,159.04z
		 M201.262,162.028h1.898c-0.219-0.328-0.457-0.664-0.715-1.008l0.586-0.352h-1.418v-0.68h2.836
		c-0.164-0.281-0.352-0.574-0.563-0.879l0.691-0.375c0.234,0.344,0.469,0.703,0.703,1.078l-0.305,0.176h2.906v0.68h-1.43
		l0.656,0.363c-0.234,0.281-0.508,0.613-0.82,0.996h1.945v0.68h-6.973V162.028z M201.203,167.993h3.141v-0.973h-1.699v0.41h-0.773
		v-3.984h5.777v3.984h-0.773v-0.41h-1.688v0.973h3.094v0.68h-3.094v1.781h-0.844v-1.781h-3.141V167.993z M186.133,168.146v-0.656
		h2.555v-0.75h-2.836v-0.656h2.836v-0.809h-1.781v0.328h-0.773v-2.578h2.555v-0.938h-1.02v0.352h-0.773v-1.875h-1.254v-0.68h1.254
		v-0.867h0.773v0.867h2.813v-0.867h0.773v0.867h1.301v0.68h-1.301v1.875h-0.773v-0.352h-1.02v0.938h2.555v2.578h-0.773v-0.328
		h-1.781v0.809h2.742v0.656h-2.742v0.75h2.414v0.656h-2.414v0.82c0.875-0.047,1.734-0.094,2.578-0.141
		c-0.031,0.188-0.047,0.391-0.047,0.609c0.922-1.258,1.414-3.07,1.477-5.438c0.008-0.469,0.016-1.035,0.023-1.699h-1.242v-0.797
		h1.254c0.008-0.734,0.016-1.566,0.023-2.496h0.844c-0.008,0.945-0.02,1.777-0.035,2.496h2.426c-0.07,3.055-0.133,5.27-0.188,6.645
		c-0.031,0.789-0.16,1.328-0.387,1.617c-0.227,0.305-0.629,0.453-1.207,0.445c-0.242,0-0.652-0.008-1.23-0.023
		c-0.047-0.359-0.105-0.668-0.176-0.926c0.672,0.063,1.117,0.09,1.336,0.082c0.32,0,0.527-0.074,0.621-0.223
		c0.109-0.117,0.176-0.414,0.199-0.891c0.07-1.539,0.129-3.516,0.176-5.93h-1.582c-0.008,0.609-0.016,1.117-0.023,1.523
		c-0.047,3.047-0.711,5.293-1.992,6.738c-0.148-0.242-0.344-0.504-0.586-0.785c0.055-0.07,0.113-0.145,0.176-0.223
		c-2.125,0.125-4.199,0.27-6.223,0.434l-0.105-0.832c1.063-0.047,2.102-0.094,3.117-0.141v-0.867H186.133z M184.023,159.146h0.75
		v11.18h-0.75V159.146z M183.344,162.298c0.219,0.914,0.414,1.793,0.586,2.637l-0.574,0.176c-0.156-0.984-0.328-1.871-0.516-2.66
		L183.344,162.298z M181.984,159.579h0.727v10.055h-0.727V159.579z M181.305,162.368c0.227,0.93,0.418,1.809,0.574,2.637
		l-0.563,0.164c-0.148-0.969-0.32-1.852-0.516-2.648L181.305,162.368z M179.922,159.157h0.75v4.301
		c0.008,3.125-0.449,5.445-1.371,6.961c-0.156-0.219-0.359-0.438-0.609-0.656c0.82-1.359,1.23-3.488,1.23-6.387V159.157z
		 M179.793,162.38c-0.148,1.125-0.313,2.133-0.492,3.023c-0.219-0.094-0.418-0.168-0.598-0.223c0.227-0.961,0.391-1.93,0.492-2.906
		L179.793,162.38z M173.723,159.567h5.063v0.773h-1.547v1.465h1.348v8.566h-0.727v-0.797h-3.141v0.832h-0.727v-8.602h1.336v-1.465
		h-1.605V159.567z M164.875,160.364h2.203c-0.184-0.262-0.469-0.625-0.855-1.09l0.68-0.504c0.406,0.438,0.754,0.836,1.043,1.195
		l-0.533,0.398h2.156c0.34-0.469,0.682-0.988,1.025-1.559l0.891,0.457c-0.25,0.32-0.549,0.688-0.896,1.102h2.49v0.773h-3.943
		l-0.299,1.02h3.387v6.387h-0.867v-0.434h-4.945v0.434h-0.867v-6.387h2.414l0.229-1.02h-3.311V160.364z M162.707,159.122
		c0.539,0.625,1.07,1.305,1.594,2.039l-0.82,0.563c-0.523-0.813-1.02-1.508-1.488-2.086L162.707,159.122z M161.676,163.88v-0.855
		h2.25v5.127c0.566,0.703,1.402,1.072,2.508,1.107l2.836,0.035l3.973-0.094c-0.133,0.305-0.262,0.605-0.387,0.902l-3.902,0.035
		l-2.602-0.047c-1.313-0.008-2.285-0.457-2.918-1.348c-0.227,0.18-0.684,0.68-1.371,1.5l-0.504-0.996
		c0.508-0.453,1-0.885,1.477-1.295v-4.072H161.676z M149.711,164.29v-0.891h5.08c0.035-0.555,0.053-1.512,0.053-2.871h-4.488v-0.891
		h10.125v0.891h-4.605c-0.008,0.816-0.023,1.773-0.047,2.871h5.25v0.891h-5.092c0.746,2.477,2.498,4.133,5.256,4.969
		c-0.32,0.383-0.59,0.707-0.809,0.973c-2.547-1.027-4.223-2.725-5.027-5.092c-0.617,2.203-2.324,3.951-5.121,5.244
		c-0.164-0.211-0.406-0.508-0.727-0.891c2.926-1.246,4.629-2.98,5.109-5.203H149.711z M138.859,168.813v-9.328h5.555v5.836h-0.867
		v-0.316h-1.98c0.242,0.703,0.574,1.336,0.996,1.898c0.703-0.445,1.445-0.996,2.227-1.652l0.621,0.738
		c-0.859,0.602-1.625,1.117-2.297,1.547c0.68,0.688,1.535,1.238,2.566,1.652c-0.289,0.281-0.539,0.566-0.75,0.855
		c-2.172-1.141-3.57-2.82-4.195-5.039h-1.008v3.984c0.523-0.234,1.207-0.578,2.051-1.031c0.008,0.359,0.027,0.668,0.059,0.926
		c-0.695,0.336-1.371,0.699-2.027,1.09c-0.156,0.086-0.367,0.25-0.633,0.492l-0.668-0.879
		C138.742,169.384,138.859,169.126,138.859,168.813z M134.594,159.45h3.551v0.82c-0.383,1.102-0.75,2.188-1.102,3.258
		c0.625,0.852,0.98,1.617,1.066,2.297c0.227,1.492-0.145,2.328-1.113,2.508c-0.352,0.07-0.746,0.078-1.184,0.023
		c-0.063-0.32-0.148-0.648-0.258-0.984c0.414,0.102,0.773,0.133,1.078,0.094c0.531-0.102,0.711-0.66,0.539-1.676
		c-0.109-0.625-0.465-1.328-1.066-2.109c0.281-0.852,0.648-1.988,1.102-3.41h-1.734v10.23h-0.879V159.45z M126.133,159.614h5.848
		v0.879l-1.137,2.355h2.039v0.867c-0.445,1.438-1.074,2.699-1.887,3.785c0.836,0.797,1.742,1.438,2.719,1.922
		c-0.25,0.227-0.512,0.516-0.785,0.867c-0.93-0.578-1.777-1.258-2.543-2.039c-0.797,0.875-1.73,1.613-2.801,2.215
		c-0.219-0.289-0.438-0.539-0.656-0.75c1.109-0.633,2.047-1.359,2.813-2.18c-0.719-0.891-1.313-2.039-1.781-3.445
		c-0.125,2.578-0.918,4.676-2.379,6.293c-0.227-0.234-0.465-0.453-0.715-0.656c0.992-1.086,1.633-2.266,1.922-3.539
		c0.281-1.094,0.41-3.008,0.387-5.742h-1.043V159.614z M122.078,162.122v-0.785h1.652v-2.32h0.809v2.32h1.523v0.785h-1.523v1.723
		l0.375-0.375c0.563,0.492,1.074,0.969,1.535,1.43l-0.609,0.633c-0.383-0.43-0.816-0.883-1.301-1.359v6.223h-0.809v-6.035
		c-0.383,1.219-0.836,2.203-1.359,2.953c-0.102-0.336-0.227-0.68-0.375-1.031c0.813-1.266,1.387-2.652,1.723-4.16H122.078z
		 M119.148,159.099c0.625,0.422,1.23,0.867,1.816,1.336l-0.574,0.668c-0.539-0.484-1.125-0.957-1.758-1.418L119.148,159.099z
		 M117.848,158.841c0.02,1.25,0.051,2.361,0.094,3.334l3.422-0.393l0.105,0.844l-3.486,0.41c0.082,1.324,0.232,2.441,0.451,3.352
		c0.813-0.824,1.488-1.758,2.027-2.801l0.82,0.469c-0.699,1.258-1.551,2.365-2.555,3.322c0.309,0.844,0.703,1.424,1.184,1.74
		c0.375,0.234,0.621,0.117,0.738-0.352c0.102-0.477,0.191-1.07,0.27-1.781c0.359,0.156,0.66,0.27,0.902,0.34
		c-0.133,0.836-0.27,1.504-0.41,2.004c-0.203,0.641-0.555,0.961-1.055,0.961c-0.398,0-0.777-0.16-1.137-0.48
		c-0.473-0.41-0.871-1.012-1.195-1.805c-0.648,0.539-1.355,1.023-2.121,1.453c-0.164-0.242-0.367-0.5-0.609-0.773
		c0.895-0.469,1.699-1.01,2.414-1.623c-0.301-1.059-0.504-2.367-0.609-3.926l-1.863,0.217l-0.141-0.855l1.951-0.223
		c-0.043-0.953-0.088-2.098-0.135-3.434H117.848z M110.453,164.489h1.816v-5.625h0.914v2.215h2.613v0.844h-2.613v2.566h1.945v5.344
		h-0.891v-0.68h-2.895v0.82h-0.891V164.489z M108.285,160.622l0.879,0.41c-0.43,0.844-0.887,1.641-1.371,2.391l-0.797-0.469
		C107.496,162.22,107.926,161.442,108.285,160.622z M106,158.923h0.891v5.502c0.84,0.484,1.637,0.975,2.391,1.471l-0.598,0.809
		c-0.57-0.422-1.168-0.838-1.793-1.248v3.1c0,0.445,0.18,0.668,0.539,0.668h0.645c0.352,0,0.555-0.215,0.609-0.645
		c0.055-0.359,0.102-0.824,0.141-1.395c0.289,0.125,0.582,0.238,0.879,0.34c-0.055,0.516-0.113,0.957-0.176,1.324
		c-0.125,0.805-0.563,1.207-1.313,1.207h-1.008c-0.805,0-1.207-0.461-1.207-1.383V158.923z M103.867,158.923h0.879v5.355
		c0,3.008-0.965,5.066-2.895,6.176c-0.188-0.266-0.391-0.531-0.609-0.797c1.508-0.809,2.365-2.205,2.572-4.189
		c-0.465,0.355-1.107,0.842-1.928,1.459l-0.598-0.773c0.797-0.508,1.656-1.115,2.578-1.822V158.923z M102.672,160.646
		c0.406,0.789,0.758,1.563,1.055,2.32l-0.855,0.41c-0.289-0.836-0.617-1.625-0.984-2.367L102.672,160.646z M98.137,162.099v-0.785
		h1.406v-2.367h0.914v2.367h1.348v0.785h-1.348v2.537c0.418-0.133,0.848-0.271,1.289-0.416c-0.016,0.383-0.023,0.684-0.023,0.902
		c-0.355,0.113-0.777,0.252-1.266,0.416v3.416c0,0.836-0.375,1.266-1.125,1.289c-0.32,0.008-0.684,0.008-1.09,0
		c-0.039-0.289-0.09-0.613-0.152-0.973c0.391,0.047,0.711,0.07,0.961,0.07c0.328,0,0.492-0.176,0.492-0.527v-2.971
		c-0.43,0.148-0.898,0.311-1.406,0.486l-0.129-0.973c0.488-0.137,1-0.283,1.535-0.439v-2.818H98.137z M85.586,164.302h2.01
		c0.012-0.609,0.018-1.438,0.018-2.484h-1.477v-0.844h1.477v-2.063h0.938v2.063h2.32v-2.063h0.938v2.063h1.734v0.844h-1.734v2.484
		H94v0.844h-2.191v3.563h-0.938v-3.563h-2.408c-0.23,1.594-0.904,2.781-2.021,3.563c-0.203-0.227-0.441-0.465-0.715-0.715
		c0.957-0.605,1.549-1.555,1.775-2.848h-1.916V164.302z M83.816,159.052c0.594,0.742,1.141,1.48,1.641,2.215
		c-0.328,0.211-0.617,0.406-0.867,0.586c-0.43-0.75-0.938-1.516-1.523-2.297L83.816,159.052z M82.539,163.88v-0.867h2.297v4.998
		c0.484,0.766,1.266,1.158,2.344,1.178l2.777,0.059l4.148-0.105c-0.086,0.258-0.195,0.566-0.328,0.926l-3.891,0.012l-2.824-0.059
		c-1.289-0.023-2.203-0.477-2.742-1.359c-0.32,0.297-0.789,0.82-1.406,1.57l-0.48-0.973c0.691-0.668,1.191-1.146,1.5-1.436v-3.943
		H82.539z M70.984,161.313v-0.844h4.242c0.297-0.492,0.535-1.035,0.715-1.629l0.926,0.258c-0.18,0.492-0.383,0.949-0.609,1.371
		h5.391v0.844H77.91c0.727,1.063,2.133,1.93,4.219,2.602c-0.234,0.289-0.438,0.57-0.609,0.844c-0.375-0.133-0.727-0.277-1.055-0.434
		v6.047h-0.891v-0.656h-6.551v0.656h-0.891v-6c-0.359,0.188-0.734,0.363-1.125,0.527c-0.203-0.32-0.402-0.602-0.598-0.844
		c1.813-0.617,3.219-1.531,4.219-2.742H70.984z M62.594,160.728h3.246v-1.875h0.938v1.875h3.281v0.844h-3.281v1.828h2.871v0.844
		H62.98v-0.844h2.859v-1.828h-3.246V160.728z M60.719,158.771l0.891,0.352c-0.844,1.656-1.535,2.902-2.074,3.738
		c0.453-0.012,0.926-0.025,1.418-0.041c0.266-0.453,0.543-0.947,0.832-1.482l0.867,0.434c-0.891,1.484-1.785,2.859-2.684,4.125
		c1.039-0.148,1.898-0.281,2.578-0.398c-0.047,0.305-0.082,0.602-0.105,0.891c-0.867,0.125-2.051,0.309-3.551,0.551l-0.188-0.867
		c0.5-0.52,1.096-1.344,1.787-2.473c-0.656,0.043-1.252,0.086-1.787,0.129l-0.223-0.797
		C59.199,161.97,59.945,160.583,60.719,158.771z M62.664,167.735c-0.023,0.313-0.035,0.609-0.035,0.891
		c-1.266,0.266-2.578,0.578-3.938,0.938l-0.258-0.902C59.879,168.38,61.289,168.071,62.664,167.735z M47.172,159.462h10.254v10.934
		h-0.891v-0.574h-8.473v0.586h-0.891V159.462z"/>
</g>
<g>
	<path fill="#FFFFFF" d="M113.556,185.872h7.263c-0.232-0.449-0.455-0.846-0.666-1.189l1.189-0.476
		c0.301,0.523,0.595,1.079,0.88,1.665h6.938v1.047h-15.605V185.872z M115.696,199.908h-1.205v-7.438h13.861v5.393
		c0,1.301-0.613,1.95-1.839,1.95c-0.688,0-1.459-0.01-2.315-0.031c-0.063-0.359-0.148-0.777-0.254-1.253
		c0.973,0.074,1.718,0.111,2.236,0.111c0.645,0,0.967-0.323,0.967-0.968v-4.187h-11.451V199.908z M116.268,187.966h10.292v3.87
		h-1.205v-0.508h-7.882v0.491h-1.205V187.966z M125.355,188.949h-7.882v1.396h7.882V188.949z M117.837,194.532h7.168v3.314h-6.026
		v0.682h-1.142V194.532z M123.864,196.863v-1.349h-4.885v1.349H123.864z"/>
	<path fill="#FFFFFF" d="M129.732,191.059h15.764v1.396h-15.764V191.059z"/>
	<path fill="#FFFFFF" d="M146.02,194.675h2.553v-4.536h5.614v-2.823h-4.662c-0.714,1.285-1.513,2.469-2.396,3.553
		c-0.274-0.296-0.603-0.592-0.983-0.888c1.502-1.692,2.628-3.59,3.379-5.694l1.3,0.365c-0.222,0.523-0.454,1.031-0.697,1.522h10.911
		v1.142h-5.566v2.823h5.297v1.11h-5.297v3.426h6.28v1.142h-6.28v4.282h-1.285v-4.282h-8.167V194.675z M149.825,194.675h4.361v-3.426
		h-4.361V194.675z"/>
	<path fill="#FFFFFF" d="M162.212,196.8c1.691-0.401,3.409-0.841,5.154-1.316c0.011,0.37,0.026,0.734,0.048,1.094
		c-1.787,0.487-3.373,0.937-4.758,1.349L162.212,196.8z M164.337,193.104c1.1-0.116,2.221-0.248,3.362-0.396
		c-0.043,0.349-0.085,0.692-0.127,1.031c-1.724,0.211-3.246,0.428-4.567,0.649l-0.285-1.126c0.629-0.555,1.419-1.564,2.37-3.029
		c-0.813,0.059-1.651,0.133-2.514,0.223l-0.301-0.999c0.877-0.973,1.897-2.665,3.061-5.075l1.205,0.523
		c-1.089,1.84-2.04,3.33-2.854,4.473c0.592-0.021,1.258-0.048,1.998-0.08c0.381-0.623,0.788-1.311,1.222-2.062l1.142,0.539
		C166.451,190.197,165.215,191.974,164.337,193.104z M170.261,191.519c-0.164,3.479-1.245,6.291-3.243,8.438
		c-0.381-0.381-0.72-0.677-1.016-0.889c1.354-1.427,2.231-3.019,2.633-4.773c0.386-1.512,0.565-4.107,0.539-7.787h-1.411v-1.126
		h7.914v1.189l-1.539,3.188h2.633v1.174c-0.613,1.914-1.445,3.587-2.498,5.02c1.021,1.036,2.271,1.938,3.751,2.704
		c-0.317,0.307-0.671,0.697-1.063,1.174c-1.396-0.883-2.572-1.824-3.528-2.823c-1.084,1.227-2.36,2.247-3.83,3.061
		c-0.297-0.391-0.593-0.729-0.889-1.015c1.522-0.862,2.813-1.88,3.87-3.053C171.632,194.74,170.857,193.247,170.261,191.519z
		 M172.821,189.727l1.522-3.22h-3.965c0.006,0.756,0.003,1.47-0.008,2.141c0.81,2.739,1.821,4.854,3.037,6.344
		c0.898-1.226,1.581-2.595,2.046-4.107h-2.633V189.727z"/>
</g>
</svg>
