<?xml version="1.0" encoding="utf-8"?>
<!-- Generator: Adobe Illustrator 16.0.0, SVG Export Plug-In . SVG Version: 6.00 Build 0)  -->
<!DOCTYPE svg PUBLIC "-//W3C//DTD SVG 1.1//EN" "http://www.w3.org/Graphics/SVG/1.1/DTD/svg11.dtd">
<svg version="1.1" id="图层_1" xmlns="http://www.w3.org/2000/svg" xmlns:xlink="http://www.w3.org/1999/xlink" x="0px" y="0px"
	 width="283.46px" height="283.46px" viewBox="0 0 283.46 283.46" enable-background="new 0 0 283.46 283.46" xml:space="preserve">
<path fill="#2EA7E0" d="M244.932,157.693c-0.359-1.575-0.871-3.008-1.518-4.299c-0.645-1.292-1.5-2.515-2.582-3.672
	c-1.082-1.158-2.238-2.107-3.455-2.848c-1.213-0.74-2.35-1.29-3.414-1.65l-0.02-0.006v1.447h-2.43v-2.078
	c-0.627-0.156-1.063-0.313-1.82-0.474c1.975-0.685,3.547-1.329,4.725-1.937c1.176-0.607,2.412-1.452,3.701-2.533
	c1.291-1.082,2.428-2.391,3.398-3.928c0.967-1.538,1.707-3.265,2.219-5.182c0.512-1.917,0.76-3.938,0.76-6.063
	c0-1.708-0.189-3.388-0.59-5.039c-0.396-1.651-1.006-3.188-1.822-4.612s-1.803-2.657-2.939-3.701
	c-1.139-1.044-2.545-1.926-4.213-2.647c-1.672-0.721-3.568-1.262-5.713-1.623c-2.145-0.36-5.344-0.541-9.594-0.541
	c-3.035,0-6.891,0.057-11.559,0.17s-8.588,0.171-11.775,0.171c-3.156,0-7.121-0.038-11.904-0.114
	c-3.037,0-47.887-0.171-52.555-0.057c-4.669,0.114-8.593,0.171-11.782,0.171c-3.15,0-7.116-0.038-11.898-0.114
	c0.038,2.733,0.057,4.801,0.057,6.206c0,4.631-0.209,13.133-0.627,25.507c-0.175,5.134-0.331,9.49-0.479,13.375h0.261v-0.199h3.923
	c-0.002,0.068-0.005,0.132-0.008,0.199h0.241v-3.037h0.1v-0.456h7.592v5.869h-7.529v2.43h2.13v2.026h-2.809
	c-0.063,1.478-0.123,2.816-0.181,4h-0.214v0.198h-2.719v0.356h-1.268c-0.022,0.513-0.045,1.063-0.069,1.484
	c-0.221,4.266-0.605,9.559-1.143,15.849c-5.408-2.928-13.9-8.228-13.9-8.228l-8.589,0.065L70.56,172.41
	c-6.529,0.077-10.708,0.113-12.531,0.113l-6.263-0.056l0.266-6.115h-1.988v-5.467h2.226l0.422-9.712
	c6.078-0.209,11.126-0.309,15.382-0.328v-3.368h4.441v3.378c2.908,0.024,7.562,0.07,14.333,0.147
	c0.228-4.82,0.493-8.957,0.798-12.412c-3.81,0.101-7.133,0.179-9.973,0.234v0.062H75.85v-0.027
	c-2.753,0.049-4.979,0.073-6.662,0.073c-1.636,0-3.245-0.042-4.873-0.052v-1.083h-7.591v0.456h-0.1v0.542
	c-1.047-0.019-2.111-0.009-3.155-0.033l0.926-20.212c3.491-0.114,6.102-0.18,7.828-0.199c1.728-0.02,5.552-0.029,11.474-0.029
	c2.111,0,4.16,0.024,6.205,0.043v-0.064h2.429v0.093c2.301,0.038,4.19,0.085,5.542,0.157l0.731,0.039v-0.403h2.429v0.53l2.249,0.118
	l0.683-12.297l-16.454,0.057l-10.932,0.057c-10.177,0-19.951-0.038-29.326-0.114v7.743l-0.74,22.944l-1.19,25.223l-1.651,21.806
	l11.273-0.058l18.731-0.056c7.828,0,31.29,0.035,41.392,0.11c0,0.001,0,0.002,0,0.003l0.234-0.001c0.057,0,0.12,0.001,0.177,0.001
	c0.003-0.001,0.005-0.002,0.008-0.002l9.887-0.056l13.778,0.058c11.159,0,18.458-0.294,21.891-0.883
	c3.436-0.588,6.539-1.765,9.311-3.53c2.77-1.764,4.941-4.165,6.518-7.202c1.574-3.035,2.363-6.375,2.363-10.02
	c0-1.708-0.18-3.351-0.541-4.925c-0.123-0.546-0.365-0.979-0.523-1.49h-1.217v-2.932h0.145c-0.492-0.959-1.197-1.855-1.934-2.742
	v2.387h-2.078v-2.757h1.818c-0.125-0.14-0.182-0.3-0.311-0.437c-1.082-1.158-2.229-2.107-3.445-2.848
	c-1.213-0.74-2.354-1.29-3.414-1.65c-1.063-0.361-2.488-0.731-4.271-1.11c1.973-0.685,3.549-1.329,4.727-1.937
	c1.176-0.607,2.408-1.452,3.701-2.533c1.291-1.082,2.418-2.391,3.385-3.928c0.971-1.538,1.711-3.265,2.223-5.182
	c0.396-1.495,0.506-3.103,0.598-4.721h-7.021v-1.822h-8.703v-7.188h13.666v1.822h1.314l17.052-8.668c0,0,0.042,1.577,0.042,2.785
	c0,4.631-0.207,13.133-0.627,25.507c-0.16,4.678-0.303,8.668-0.441,12.313h-0.152v1.996h2.078c0.023-0.631,0.051-1.333,0.074-1.996
	h3.539v5.868h-2.561v-3.872h-1.053c-0.053,1.391-0.105,2.648-0.152,3.872h-0.795v1.595h-1.105v4.099H182.9
	c-0.037,0.797-0.08,1.698-0.111,2.372c-0.266,5.125-0.766,11.71-1.486,19.757l10.305-0.058l13.775,0.058
	c11.158,0,18.463-0.294,21.898-0.883c3.436-0.588,6.529-1.765,9.299-3.53c2.773-1.764,4.953-4.165,6.529-7.202
	c1.576-3.035,2.354-6.375,2.354-10.02C245.463,160.91,245.293,159.268,244.932,157.693z M68.462,143.781h0.508v-2.329h-0.508v-2.025
	h11.947v5.874h-2.737v-2.027H75.85v2.027h-7.388V143.781z M56.624,139.795c2.553,0.047,5.12,0.067,7.691,0.086v2.787h-7.691V139.795
	z M79.901,116.365c0.603,0.009,1.229,0.005,1.822,0.014c0.228,0.005,0.389,0.01,0.606,0.015v0.97h-2.429V116.365z M45.997,131.887
	h-6.784v1.67H37.39v-2.628h0.916v-4.911h7.69V131.887z M47.311,112.454h3.016v-1.137h7.691v5.869h-1.293v0.178h-0.1v0.456h-9.313
	V112.454z M156.02,130.241h1.313v2.33h-1.313V130.241z M154.23,138.416h2.43v2.937h-2.43V138.416z M151.754,112h0.25v0.153
	c-0.063-0.021-0.164-0.043-0.25-0.065V112z M121.336,138.416h-0.1v0.456h-9.313v-5.366h9.414V138.416z M120.75,127.751v-1.822h3.421
	l0.31-8.575h13.637c2.88,0,5.066,0.181,6.562,0.541c1.494,0.36,2.775,0.949,3.832,1.765c1.064,0.815,1.854,1.85,2.359,3.103
	c0.512,1.253,0.768,2.581,0.768,3.986c0,1.442-0.236,2.856-0.711,4.241c-0.471,1.386-1.219,2.657-2.238,3.815
	c-1.025,1.158-2.273,2.012-3.748,2.562c-1.477,0.55-2.886,0.92-4.234,1.11c-1.342,0.189-3.961,0.285-7.861,0.285h-0.717v0.297
	h-3.036v-0.297h-5.384l0.36-10.011h-2.268v-1H120.75z M150.547,139.881v2.026h-3.035v-2.026H150.547z M131.523,146.563v1.604h-5.329
	v-1.097h1.276v-0.508H131.523z M152.083,164.25h-1v1.375h0.594c-0.279,0.729-0.592,1.424-0.976,2.046
	c-0.59,0.953-1.264,1.731-2.021,2.339c-0.76,0.611-1.803,1.182-3.133,1.712c-1.328,0.536-2.723,0.906-4.184,1.116
	c-1.462,0.208-3.502,0.313-6.121,0.313h-12.929l0.85-23.287h1.962v0.345h9.542v-0.345h2.849c0.313,0,0.526,0.028,0.826,0.034v-1.515
	h1.883v1.585c1.865,0.096,3.493,0.251,4.579,0.551c0.926,0.256,1.779,0.611,2.572,1.046v2.227h2.083v-0.703
	c0.201,0.229,0.374,0.477,0.542,0.727v5.727h2.083V164.25z M184.354,125.435h2.896v1.822h-2.896V125.435z M189.42,144.616h-4.445
	v-7.287h4.445V144.616z M198.834,118.626h1.832l0.047-1.271h13.645c2.875,0,5.068,0.181,6.559,0.541
	c1.488,0.36,2.779,0.949,3.832,1.765c1.063,0.815,1.852,1.85,2.363,3.103c0.512,1.253,0.76,2.581,0.76,3.986
	c0,1.442-0.229,2.856-0.703,4.241c-0.473,1.386-1.225,2.657-2.24,3.815c-1.023,1.158-2.277,2.012-3.756,2.562
	c-1.473,0.55-2.885,0.92-4.232,1.11c-1.34,0.189-3.959,0.285-7.857,0.285h-9.137l0.531-14.77h-1.643V118.626z M225.252,141.907
	v2.938h-2.428v-2.938H225.252z M215.934,147.625v1.974h-7.686v-1.974H215.934z M198,127.28h1.641v4.911h-0.105v0.076h-1.412v-2.833
	H198V127.28z M198.018,168.097h-1.279l0.17-4.658h1.109V168.097z M228.326,164.45c-0.344,1.194-0.799,2.271-1.385,3.221
	c-0.59,0.953-1.271,1.731-2.033,2.339c-0.758,0.611-1.803,1.182-3.131,1.712c-1.326,0.536-2.713,0.906-4.176,1.116
	c-1.461,0.208-3.51,0.313-6.129,0.313h-12.924l0.189-5.055h0.637v0.966H202v-6.438h-2.625v0.813h-0.467l0.361-9.969h-6.205v-5.163
	h8.502v1.558h12.184c3.266,0,5.693,0.219,7.287,0.655c1.596,0.44,3,1.143,4.195,2.116c1.197,0.968,2.088,2.12,2.695,3.448
	c0.605,1.334,0.91,2.876,0.91,4.626C228.838,162.001,228.668,163.249,228.326,164.45z M242.445,162.761h-4.439v-7.288h4.439V162.761
	z"/>
</svg>
