<?xml version="1.0" encoding="utf-8"?>
<!-- Generator: Adobe Illustrator 19.0.0, SVG Export Plug-In . SVG Version: 6.00 Build 0)  -->
<svg version="1.1" id="图层_1" xmlns="http://www.w3.org/2000/svg" xmlns:xlink="http://www.w3.org/1999/xlink" x="0px" y="0px"
	 viewBox="0 0 174 96.5" enable-background="new 0 0 174 96.5" xml:space="preserve">
<g id="XMLID_1_">
	<linearGradient id="XMLID_182_" gradientUnits="userSpaceOnUse" x1="82.7965" y1="72.7486" x2="72.7461" y2="26.9247">
		<stop  offset="0" style="stop-color:#B70E5E"/>
		<stop  offset="0.7497" style="stop-color:#EA5504"/>
	</linearGradient>
	<path id="XMLID_12_" fill="url(#XMLID_182_)" d="M89.294,40.544h-8.177v-8.177L60.676,48.72h12.265v20.441
		c0,2.258,1.83,4.088,4.088,4.088s4.088-1.83,4.088-4.088V48.72h8.177c2.258,0,4.088-1.83,4.088-4.088v0
		C93.382,42.374,91.552,40.544,89.294,40.544z"/>
	<path id="XMLID_10_" fill="#EA5504" d="M52.635,23.25H40.37c-9.032,0-16.353,7.322-16.353,16.353l8.177,4.436v-4.436
		c0-4.516,3.661-8.177,8.177-8.177l12.265,0c2.258,0,4.088-1.83,4.088-4.088S54.892,23.25,52.635,23.25z"/>
	<linearGradient id="XMLID_183_" gradientUnits="userSpaceOnUse" x1="43.8138" y1="77.001" x2="38.3639" y2="55.2956">
		<stop  offset="0" style="stop-color:#B70E5E"/>
		<stop  offset="0.1274" style="stop-color:#BB165A"/>
		<stop  offset="0.3496" style="stop-color:#C5284F"/>
		<stop  offset="0.6401" style="stop-color:#D53C3B"/>
		<stop  offset="0.9843" style="stop-color:#EA5409"/>
		<stop  offset="1" style="stop-color:#EA5504"/>
	</linearGradient>
	<path id="XMLID_9_" fill="url(#XMLID_183_)" d="M48.546,52.46v4.436c0,4.516-3.661,8.177-8.177,8.177H28.105
		c-2.258,0-4.088,1.83-4.088,4.088s1.83,4.088,4.088,4.088h12.264l0.001,0c9.032,0,16.353-7.322,16.353-16.353L48.546,52.46z"/>
	<g id="XMLID_19_">
		<path id="XMLID_20_" d="M63.026,30.467c-0.333,0-0.563-0.249-0.563-0.573v-5.246c0-0.333,0.231-0.573,0.563-0.573h2.595
			c1.21,0,1.866,0.822,1.866,1.764c0,0.416-0.12,0.822-0.508,1.164c0.73,0.286,1.053,0.85,1.053,1.533c0,1.062-0.72,1.93-2.106,1.93
			H63.026z M65.622,25.202h-1.949v1.376h1.949c0.397,0,0.647-0.249,0.647-0.739C66.268,25.535,66.019,25.202,65.622,25.202z
			 M63.673,29.34h2.254c1.071,0,1.071-1.635,0-1.635c-0.702,0-1.524,0-2.254,0V29.34z"/>
		<path id="XMLID_25_" d="M68.993,30.467c-0.296-0.166-0.48-0.499-0.296-0.887l2.651-5.182c0.249-0.49,0.914-0.508,1.145,0
			l2.605,5.182c0.379,0.72-0.739,1.293-1.071,0.573L73.62,29.34h-3.408l-0.397,0.813C69.667,30.467,69.325,30.532,68.993,30.467z
			 M72.965,28.121l-1.044-2.281l-1.136,2.281H72.965z"/>
		<path id="XMLID_28_" d="M75.828,25.461c0.212-1.792,2.919-2.115,4.193-1.136c0.628,0.508-0.037,1.312-0.591,0.905
			c-0.684-0.434-2.235-0.637-2.429,0.323c-0.249,1.515,3.769,0.647,3.704,3.103c-0.065,2.346-3.464,2.402-4.738,1.349
			c-0.305-0.249-0.296-0.656-0.129-0.905c0.24-0.24,0.508-0.323,0.822-0.065c0.757,0.517,2.706,0.905,2.845-0.406
			C79.384,27.262,75.542,28.084,75.828,25.461z"/>
		<path id="XMLID_31_" d="M82.331,30.467c-0.323,0-0.573-0.249-0.573-0.573v-5.246c0-0.333,0.249-0.573,0.573-0.573h3.316
			c0.85,0,0.831,1.201,0,1.201h-2.66v1.386h2.327c0.822,0,0.822,1.21,0,1.21h-2.327v1.385h2.817c0.84,0,0.905,1.21,0,1.21H82.331z"
			/>
		<path id="XMLID_33_" d="M88.085,30.467c-0.305,0-0.637-0.166-0.637-0.573v-5.246c0-0.333,0.333-0.573,0.637-0.573H90.2
			c4.221,0,4.129,6.392,0.083,6.392H88.085z M88.667,25.202v4.138H90.2c2.494,0,2.605-4.138,0-4.138H88.667z"/>
		<path id="XMLID_36_" d="M100.37,30.56c-1.709,0.074-3.482-1.062-3.482-3.325c0-2.272,1.773-3.39,3.482-3.39
			c1.616,0.083,3.307,1.201,3.307,3.39C103.677,29.423,101.986,30.56,100.37,30.56z M100.268,25.045
			c-1.035,0-2.162,0.73-2.162,2.189c0,1.45,1.127,2.189,2.162,2.189c1.062,0,2.198-0.739,2.198-2.189
			C102.467,25.775,101.33,25.045,100.268,25.045z"/>
		<path id="XMLID_39_" d="M104.813,24.722c0-0.333,0.074-0.656,0.554-0.656c0.333,0,0.406,0.083,0.656,0.323l3.057,3.824V24.63
			c0-0.305,0.268-0.637,0.582-0.637c0.333,0,0.656,0.333,0.656,0.637v5.2c0,0.406-0.249,0.563-0.49,0.637
			c-0.323,0-0.48-0.074-0.748-0.323l-3.057-3.879v3.566c0,0.406-0.249,0.637-0.582,0.637c-0.332,0-0.628-0.231-0.628-0.637V24.722z"
			/>
		<path id="XMLID_41_" d="M114.188,25.461c0.212-1.792,2.919-2.115,4.193-1.136c0.628,0.508-0.037,1.312-0.591,0.905
			c-0.684-0.434-2.235-0.637-2.429,0.323c-0.249,1.515,3.769,0.647,3.704,3.103c-0.065,2.346-3.464,2.402-4.738,1.349
			c-0.305-0.249-0.296-0.656-0.129-0.905c0.24-0.24,0.508-0.323,0.822-0.065c0.757,0.517,2.706,0.905,2.845-0.406
			C117.744,27.262,113.902,28.084,114.188,25.461z"/>
		<path id="XMLID_43_" d="M121.863,25.23h-1.616c-0.804,0-0.804-1.182,0-1.182h4.369c0.822,0,0.822,1.182,0,1.182h-1.533v4.664
			c0,0.804-1.219,0.822-1.219,0V25.23z"/>
		<path id="XMLID_45_" d="M126.75,30.467c-0.305,0-0.637-0.166-0.637-0.573v-5.246c0-0.333,0.333-0.573,0.637-0.573h2.115
			c4.221,0,4.129,6.392,0.083,6.392H126.75z M127.332,25.202v4.138h1.533c2.494,0,2.605-4.138,0-4.138H127.332z"/>
		<path id="XMLID_48_" d="M133.086,24.63c0-0.305,0.258-0.563,0.582-0.563c0.296,0,0.545,0.259,0.545,0.563v4.628h2.512
			c0.905,0,0.924,1.21,0,1.21h-3.057c-0.323,0-0.582-0.231-0.582-0.563V24.63z"/>
		<path id="XMLID_50_" d="M138.425,24.63c0-0.757,1.219-0.785,1.219,0v5.274c0,0.766-1.219,0.785-1.219,0V24.63z"/>
		<path id="XMLID_52_" d="M141.565,30.467c-0.332,0-0.563-0.249-0.563-0.573v-5.246c0-0.333,0.231-0.573,0.563-0.573h2.596
			c1.21,0,1.866,0.822,1.866,1.764c0,0.416-0.12,0.822-0.508,1.164c0.73,0.286,1.053,0.85,1.053,1.533c0,1.062-0.72,1.93-2.106,1.93
			H141.565z M144.161,25.202h-1.949v1.376h1.949c0.397,0,0.647-0.249,0.647-0.739C144.807,25.535,144.558,25.202,144.161,25.202z
			 M142.212,29.34h2.254c1.071,0,1.071-1.635,0-1.635c-0.702,0-1.524,0-2.254,0V29.34z"/>
	</g>
	<g id="XMLID_142_">
		<g id="XMLID_97_">
			<path id="XMLID_98_" d="M87.483,66.684c-0.149-0.084-0.242-0.251-0.149-0.446l1.334-2.607c0.125-0.246,0.46-0.255,0.577,0
				l1.31,2.607c0.191,0.363-0.372,0.651-0.539,0.288l-0.205-0.409h-1.715l-0.2,0.409C87.822,66.684,87.65,66.717,87.483,66.684z
				 M89.482,65.504l-0.525-1.148l-0.572,1.148H89.482z"/>
			<path id="XMLID_101_" d="M90.982,63.793c0-0.167,0.037-0.33,0.279-0.33c0.167,0,0.205,0.042,0.33,0.163l1.539,1.924v-1.803
				c0-0.153,0.134-0.321,0.293-0.321c0.167,0,0.33,0.167,0.33,0.321v2.617c0,0.205-0.125,0.284-0.246,0.321
				c-0.163,0-0.242-0.037-0.376-0.163l-1.539-1.952v1.794c0,0.205-0.125,0.321-0.293,0.321c-0.167,0-0.316-0.116-0.316-0.321V63.793
				z"/>
			<path id="XMLID_103_" d="M95.688,66.684c-0.149-0.084-0.242-0.251-0.149-0.446l1.334-2.607c0.125-0.246,0.46-0.255,0.577,0
				l1.31,2.607c0.191,0.363-0.372,0.651-0.539,0.288l-0.205-0.409h-1.715l-0.2,0.409C96.027,66.684,95.855,66.717,95.688,66.684z
				 M97.686,65.504l-0.525-1.148l-0.572,1.148H97.686z"/>
			<path id="XMLID_106_" d="M99.502,66.684c-0.153,0-0.321-0.084-0.321-0.288v-2.64c0-0.167,0.167-0.288,0.321-0.288h1.065
				c2.124,0,2.077,3.216,0.042,3.216H99.502z M99.795,64.035v2.082h0.772c1.255,0,1.31-2.082,0-2.082H99.795z"/>
			<path id="XMLID_109_" d="M103.74,66.475l-1.227-2.57c-0.181-0.367,0.367-0.669,0.572-0.284l0.414,0.934l0.535,1.227l0.525-1.227
				l0.414-0.934c0.186-0.353,0.725-0.13,0.567,0.256l-1.185,2.598C104.247,66.768,103.917,66.838,103.74,66.475z"/>
			<path id="XMLID_111_" d="M105.682,66.684c-0.149-0.084-0.242-0.251-0.149-0.446l1.334-2.607c0.125-0.246,0.46-0.255,0.577,0
				l1.31,2.607c0.191,0.363-0.372,0.651-0.539,0.288l-0.205-0.409h-1.715l-0.2,0.409C106.021,66.684,105.849,66.717,105.682,66.684z
				 M107.68,65.504l-0.525-1.148l-0.572,1.148H107.68z"/>
			<path id="XMLID_114_" d="M109.18,63.793c0-0.167,0.037-0.33,0.279-0.33c0.167,0,0.205,0.042,0.33,0.163l1.539,1.924v-1.803
				c0-0.153,0.134-0.321,0.293-0.321c0.167,0,0.33,0.167,0.33,0.321v2.617c0,0.205-0.125,0.284-0.246,0.321
				c-0.163,0-0.242-0.037-0.376-0.163l-1.539-1.952v1.794c0,0.205-0.125,0.321-0.293,0.321c-0.167,0-0.316-0.116-0.316-0.321V63.793
				z"/>
			<path id="XMLID_116_" d="M112.479,65.053c0-0.897,0.562-1.668,1.631-1.668c0.404,0,0.725,0.121,1.064,0.414
				c0.125,0.116,0.139,0.321,0.014,0.451c-0.125,0.112-0.316,0.098-0.427-0.014c-0.191-0.2-0.386-0.255-0.651-0.255
				c-0.716,0-1.06,0.506-1.06,1.073c0,0.577,0.339,1.106,1.06,1.106c0.265,0,0.511-0.107,0.725-0.297
				c0.144-0.112,0.344-0.056,0.428,0.056c0.074,0.102,0.111,0.274-0.051,0.437c-0.325,0.302-0.716,0.363-1.101,0.363
				C112.986,66.717,112.479,65.95,112.479,65.053z"/>
			<path id="XMLID_118_" d="M116.149,66.684c-0.163,0-0.288-0.125-0.288-0.288v-2.64c0-0.167,0.125-0.288,0.288-0.288h1.669
				c0.427,0,0.418,0.604,0,0.604h-1.338v0.697h1.171c0.414,0,0.414,0.609,0,0.609h-1.171v0.697h1.418c0.423,0,0.456,0.609,0,0.609
				H116.149z"/>
			<path id="XMLID_120_" d="M119.044,66.684c-0.153,0-0.321-0.084-0.321-0.288v-2.64c0-0.167,0.167-0.288,0.321-0.288h1.065
				c2.124,0,2.077,3.216,0.042,3.216H119.044z M119.337,64.035v2.082h0.772c1.255,0,1.31-2.082,0-2.082H119.337z"/>
			<path id="XMLID_123_" d="M123.587,63.747c0-0.153,0.13-0.284,0.293-0.284c0.149,0,0.274,0.13,0.274,0.284v2.329h1.264
				c0.455,0,0.465,0.609,0,0.609h-1.539c-0.163,0-0.293-0.116-0.293-0.284V63.747z"/>
			<path id="XMLID_125_" d="M126.273,63.747c0-0.381,0.614-0.395,0.614,0v2.654c0,0.386-0.614,0.395-0.614,0V63.747z"/>
			<path id="XMLID_127_" d="M127.853,66.684c-0.167,0-0.284-0.125-0.284-0.288v-2.64c0-0.167,0.116-0.288,0.284-0.288h1.306
				c0.609,0,0.939,0.414,0.939,0.887c0,0.209-0.06,0.414-0.255,0.586c0.367,0.144,0.53,0.427,0.53,0.771
				c0,0.535-0.363,0.971-1.06,0.971H127.853z M129.159,64.035h-0.981v0.693h0.981c0.2,0,0.325-0.125,0.325-0.372
				C129.484,64.203,129.358,64.035,129.159,64.035z M128.178,66.117h1.134c0.539,0,0.539-0.822,0-0.822c-0.353,0-0.767,0-1.134,0
				V66.117z"/>
			<path id="XMLID_131_" d="M131.537,66.382c0,0.404-0.618,0.418-0.618,0.009v-2.64c0-0.163,0.126-0.284,0.279-0.284h1.236
				c1.18,0,1.422,1.58,0.437,1.975l0.618,0.753c0.242,0.358-0.242,0.702-0.52,0.349l-0.702-1.004h-0.73V66.382z M131.537,65.006
				h0.897c0.604,0,0.641-0.976,0-0.976h-0.897V65.006z"/>
			<path id="XMLID_134_" d="M133.995,66.684c-0.149-0.084-0.242-0.251-0.149-0.446l1.334-2.607c0.126-0.246,0.46-0.255,0.577,0
				l1.31,2.607c0.191,0.363-0.372,0.651-0.539,0.288l-0.205-0.409h-1.715l-0.2,0.409C134.334,66.684,134.162,66.717,133.995,66.684z
				 M135.993,65.504l-0.525-1.148l-0.572,1.148H135.993z"/>
			<path id="XMLID_137_" d="M138.106,66.382c0,0.404-0.618,0.418-0.618,0.009v-2.64c0-0.163,0.125-0.284,0.279-0.284h1.236
				c1.18,0,1.422,1.58,0.437,1.975l0.618,0.753c0.242,0.358-0.242,0.702-0.52,0.349l-0.702-1.004h-0.73V66.382z M138.106,65.006
				h0.897c0.604,0,0.641-0.976,0-0.976h-0.897V65.006z"/>
			<path id="XMLID_140_" d="M140.434,63.905c-0.251-0.311,0.274-0.669,0.521-0.33l0.855,1.274l0.869-1.274
				c0.246-0.339,0.753,0,0.511,0.311l-1.087,1.548v0.957c0.042,0.405-0.613,0.405-0.613,0v-0.957L140.434,63.905z"/>
		</g>
		<g id="XMLID_18_">
			<path id="XMLID_56_" d="M92.271,69.82v0.739h1.185c0.167,0,0.335,0.167,0.335,0.33c0,0.154-0.167,0.279-0.335,0.279h-1.185v0.976
				c0,0.163-0.116,0.288-0.279,0.288c-0.205,0-0.33-0.125-0.33-0.288v-2.64c0-0.167,0.125-0.288,0.33-0.288h1.631
				c0.205,0,0.326,0.121,0.326,0.288c0,0.149-0.121,0.316-0.326,0.316H92.271z"/>
			<path id="XMLID_58_" d="M96.1,72.478c-0.86,0.037-1.752-0.535-1.752-1.673c0-1.143,0.892-1.706,1.752-1.706
				c0.814,0.042,1.664,0.604,1.664,1.706S96.913,72.478,96.1,72.478z M96.049,69.703c-0.521,0-1.088,0.367-1.088,1.101
				c0,0.73,0.567,1.101,1.088,1.101c0.535,0,1.106-0.372,1.106-1.101C97.155,70.071,96.583,69.703,96.049,69.703z"/>
			<path id="XMLID_61_" d="M98.947,72.129c0,0.404-0.618,0.418-0.618,0.009v-2.64c0-0.163,0.125-0.284,0.279-0.284h1.236
				c1.18,0,1.422,1.58,0.437,1.975l0.618,0.753c0.242,0.358-0.242,0.702-0.52,0.349l-0.702-1.004h-0.73V72.129z M98.947,70.753
				h0.897c0.604,0,0.641-0.976,0-0.976h-0.897V70.753z"/>
			<path id="XMLID_64_" d="M106.075,71.321l0.693-1.915c0.139-0.376,0.702-0.2,0.562,0.204l-0.92,2.496
				c-0.084,0.265-0.163,0.344-0.321,0.344c-0.167,0-0.218-0.102-0.312-0.27l-0.808-1.836l-0.772,1.808
				c-0.084,0.195-0.163,0.306-0.33,0.306c-0.163,0-0.246-0.111-0.321-0.316l-0.901-2.533c-0.14-0.418,0.451-0.572,0.572-0.204
				l0.688,1.915l0.823-1.915c0.111-0.284,0.404-0.297,0.525-0.014L106.075,71.321z"/>
			<path id="XMLID_66_" d="M108.053,72.431c-0.163,0-0.288-0.125-0.288-0.288v-2.64c0-0.167,0.125-0.288,0.288-0.288h1.669
				c0.427,0,0.418,0.604,0,0.604h-1.338v0.697h1.171c0.414,0,0.414,0.609,0,0.609h-1.171v0.697h1.418c0.423,0,0.456,0.609,0,0.609
				H108.053z"/>
			<path id="XMLID_68_" d="M110.906,72.431c-0.167,0-0.284-0.125-0.284-0.288v-2.64c0-0.167,0.116-0.288,0.284-0.288h1.306
				c0.609,0,0.939,0.414,0.939,0.887c0,0.209-0.06,0.414-0.255,0.586c0.367,0.144,0.53,0.427,0.53,0.771
				c0,0.535-0.363,0.971-1.06,0.971H110.906z M112.212,69.782h-0.981v0.693h0.981c0.2,0,0.325-0.125,0.325-0.372
				C112.537,69.95,112.412,69.782,112.212,69.782z M111.231,71.864h1.134c0.539,0,0.539-0.822,0-0.822c-0.353,0-0.767,0-1.134,0
				V71.864z"/>
			<path id="XMLID_72_" d="M115.649,72.431c-0.153,0-0.321-0.084-0.321-0.288v-2.64c0-0.167,0.167-0.288,0.321-0.288h1.065
				c2.124,0,2.077,3.216,0.042,3.216H115.649z M115.942,69.782v2.082h0.772c1.255,0,1.31-2.082,0-2.082H115.942z"/>
			<path id="XMLID_75_" d="M119.12,72.431c-0.163,0-0.288-0.125-0.288-0.288v-2.64c0-0.167,0.125-0.288,0.288-0.288h1.669
				c0.427,0,0.418,0.604,0,0.604h-1.338v0.697h1.171c0.414,0,0.414,0.609,0,0.609h-1.171v0.697h1.418c0.423,0,0.456,0.609,0,0.609
				H119.12z"/>
			<path id="XMLID_77_" d="M122.744,72.222l-1.227-2.57c-0.181-0.367,0.367-0.669,0.572-0.284l0.414,0.934l0.535,1.227l0.525-1.227
				l0.414-0.934c0.186-0.353,0.725-0.13,0.567,0.256l-1.185,2.598C123.251,72.515,122.921,72.585,122.744,72.222z"/>
			<path id="XMLID_79_" d="M125.29,72.431c-0.163,0-0.288-0.125-0.288-0.288v-2.64c0-0.167,0.125-0.288,0.288-0.288h1.669
				c0.427,0,0.418,0.604,0,0.604h-1.338v0.697h1.171c0.414,0,0.414,0.609,0,0.609h-1.171v0.697h1.418c0.423,0,0.456,0.609,0,0.609
				H125.29z"/>
			<path id="XMLID_81_" d="M127.864,69.494c0-0.153,0.13-0.284,0.293-0.284c0.149,0,0.274,0.13,0.274,0.284v2.329h1.264
				c0.455,0,0.465,0.609,0,0.609h-1.539c-0.163,0-0.293-0.116-0.293-0.284V69.494z"/>
			<path id="XMLID_83_" d="M132.041,72.478c-0.86,0.037-1.752-0.535-1.752-1.673c0-1.143,0.892-1.706,1.752-1.706
				c0.814,0.042,1.664,0.604,1.664,1.706S132.855,72.478,132.041,72.478z M131.99,69.703c-0.521,0-1.087,0.367-1.087,1.101
				c0,0.73,0.567,1.101,1.087,1.101c0.535,0,1.106-0.372,1.106-1.101C133.096,70.071,132.525,69.703,131.99,69.703z"/>
			<path id="XMLID_86_" d="M134.276,69.494c0-0.153,0.121-0.321,0.316-0.321h1.074c0.604,0,1.148,0.405,1.148,1.18
				c0,0.735-0.544,1.143-1.148,1.143h-0.776v0.614c0,0.205-0.13,0.321-0.297,0.321c-0.153,0-0.316-0.116-0.316-0.321V69.494z
				 M134.889,69.759v1.158h0.776c0.312,0,0.558-0.274,0.558-0.563c0-0.325-0.246-0.595-0.558-0.595H134.889z"/>
			<path id="XMLID_89_" d="M137.923,70.391v1.719c0,0.205-0.167,0.321-0.335,0.321c-0.149,0-0.279-0.116-0.279-0.321v-2.617
				c0-0.242,0.205-0.321,0.279-0.321c0.135,0,0.214,0.079,0.293,0.167l1.022,1.38l1.06-1.432c0.153-0.19,0.53-0.116,0.53,0.205
				v2.617c0,0.205-0.13,0.321-0.279,0.321c-0.167,0-0.297-0.116-0.297-0.321v-1.719l-0.772,0.976c-0.167,0.205-0.376,0.205-0.53,0
				L137.923,70.391z"/>
			<path id="XMLID_91_" d="M141.421,72.431c-0.163,0-0.288-0.125-0.288-0.288v-2.64c0-0.167,0.126-0.288,0.288-0.288h1.669
				c0.427,0,0.418,0.604,0,0.604h-1.338v0.697h1.171c0.414,0,0.414,0.609,0,0.609h-1.171v0.697h1.418c0.423,0,0.456,0.609,0,0.609
				H141.421z"/>
			<path id="XMLID_93_" d="M144,69.54c0-0.167,0.037-0.33,0.279-0.33c0.167,0,0.205,0.042,0.33,0.163l1.539,1.924v-1.803
				c0-0.153,0.134-0.321,0.293-0.321c0.167,0,0.33,0.167,0.33,0.321v2.617c0,0.205-0.125,0.284-0.246,0.321
				c-0.163,0-0.242-0.037-0.376-0.163l-1.539-1.952v1.794c0,0.205-0.126,0.321-0.293,0.321c-0.167,0-0.316-0.116-0.316-0.321V69.54z
				"/>
			<path id="XMLID_95_" d="M148.288,69.796h-0.813c-0.405,0-0.405-0.595,0-0.595h2.198c0.414,0,0.414,0.595,0,0.595h-0.772v2.347
				c0,0.404-0.613,0.414-0.613,0V69.796z"/>
		</g>
	</g>
	<polygon id="XMLID_2_" fill="#EA5504" points="125.709,48.72 118.64,55.789 111.572,48.72 	"/>
</g>
</svg>
