<?xml version="1.0" encoding="utf-8"?>
<!-- Generator: Adobe Illustrator 19.0.0, SVG Export Plug-In . SVG Version: 6.00 Build 0)  -->
<svg version="1.1" id="图层_1" xmlns="http://www.w3.org/2000/svg" xmlns:xlink="http://www.w3.org/1999/xlink" x="0px" y="0px"
	 viewBox="0 0 272.5 130" enable-background="new 0 0 272.5 130" xml:space="preserve">
<g id="XMLID_171_">
	<path id="XMLID_5_" fill="#EA5504" d="M172.724,82.729h-17.729V43.726c0-1.958-1.587-3.546-3.546-3.546
		c-1.958,0-3.546,1.587-3.546,3.546v42.549c0,1.958,1.587,3.546,3.546,3.546l0,0h21.274c1.958,0,3.546-1.587,3.546-3.546
		C176.27,84.316,174.682,82.729,172.724,82.729z"/>
	<path id="XMLID_17_" fill="#00A0DA" d="M137.879,40.18L137.879,40.18c-1.958,0-3.546,1.587-3.546,3.546v19.627v0.004
		c-2.087-1.208-4.507-1.902-7.091-1.902c-7.833,0-14.183,6.35-14.183,14.183c0,7.833,6.35,14.183,14.183,14.183
		c7.833,0,14.183-6.35,14.183-14.183V43.726C141.424,41.767,139.837,40.18,137.879,40.18z M127.241,82.729
		c-3.916,0-7.091-3.175-7.091-7.091c0-3.917,3.175-7.091,7.091-7.091c3.917,0,7.091,3.175,7.091,7.091
		C134.333,79.554,131.158,82.729,127.241,82.729z"/>
	<path id="XMLID_3_" fill="#CFDB00" d="M195.024,43.726v31.912c0,7.833,6.35,14.183,14.183,14.183
		c7.833,0,14.183-6.35,14.183-14.183c0-7.833-6.35-14.183-14.183-14.183c-2.584,0-5.005,0.695-7.091,1.902v-0.004V43.726
		c0-1.958-1.587-3.546-3.546-3.546h0C196.612,40.18,195.024,41.767,195.024,43.726z M202.116,75.637
		c0-3.917,3.175-7.091,7.091-7.091c3.916,0,7.091,3.175,7.091,7.091c0,3.916-3.175,7.091-7.091,7.091
		C205.291,82.729,202.116,79.554,202.116,75.637z"/>
	<path id="XMLID_24_" fill="#EA5504" d="M106.057,61.454h-7.091v-7.091L81.237,68.546h10.637v17.729
		c0,1.958,1.587,3.546,3.546,3.546c1.958,0,3.546-1.587,3.546-3.546V68.546h7.091c1.958,0,3.546-1.587,3.546-3.546v0
		C109.603,63.042,108.015,61.454,106.057,61.454z"/>
	<path id="XMLID_6_" fill="#EA5504" d="M73.93,46.456H63.293c-7.833,0-14.183,6.35-14.183,14.183l7.091,3.848v-3.848
		c0-3.917,3.175-7.091,7.091-7.091l10.637,0c1.958,0,3.546-1.587,3.546-3.546S75.888,46.456,73.93,46.456z"/>
	<path id="XMLID_7_" fill="#B70E5E" d="M70.384,71.79v3.848c0,3.916-3.175,7.091-7.091,7.091H52.656
		c-1.958,0-3.546,1.587-3.546,3.546c0,1.958,1.587,3.546,3.546,3.546h10.636c0,0,0.001,0,0.001,0c7.833,0,14.183-6.35,14.183-14.183
		L70.384,71.79z"/>
	<g id="XMLID_8_">
		<path id="XMLID_13_" fill="#F18D00" d="M182.317,66.924v19.351c0,1.958,1.587,3.546,3.546,3.546h0
			c1.958,0,3.546-1.587,3.546-3.546V63.076L182.317,66.924z"/>
		<path id="XMLID_30_" fill="#EA5504" d="M185.863,54.363L185.863,54.363c-1.958,0-3.546,1.587-3.546,3.546v5.168l7.091-3.848v-1.32
			C189.409,55.95,187.821,54.363,185.863,54.363z"/>
	</g>
</g>
</svg>
