<?xml version="1.0" encoding="utf-8"?>
<!-- Generator: Adobe Illustrator 19.0.0, SVG Export Plug-In . SVG Version: 6.00 Build 0)  -->
<svg version="1.1" id="图层_1" xmlns="http://www.w3.org/2000/svg" xmlns:xlink="http://www.w3.org/1999/xlink" x="0px" y="0px"
	 viewBox="0 0 453.5 255.1" style="enable-background:new 0 0 453.5 255.1;" xml:space="preserve">
<style type="text/css">
	.st0{fill:url(#SVGID_1_);}
	.st1{fill:#5F001E;}
	.st2{fill:#FFFFFF;}
	.st3{fill:#F7F8F8;}
	.st4{font-family:'385-CAI978';}
	.st5{font-size:7.375px;}
	.st6{font-family:'YouYuan';}
</style>
<linearGradient id="SVGID_1_" gradientUnits="userSpaceOnUse" x1="0" y1="191.07" x2="453.5" y2="191.07">
	<stop  offset="0" style="stop-color:#EA5514"/>
	<stop  offset="1" style="stop-color:#D70051"/>
</linearGradient>
<rect y="127" class="st0" width="453.5" height="128.1"/>
<rect id="XMLID_38_" y="0" class="st1" width="453.5" height="255.1"/>
<g id="XMLID_2_">
	<path id="XMLID_42_" class="st2" d="M286,33.4c0,2.3-0.6,4.1-1.9,5.3c-1.3,1.3-2.7,2-4.3,2.2l5.1,12.7c0.2,0.5,0.5,0.8,0.8,0.9
		c0.3,0.2,0.6,0.3,0.9,0.3h1v1h-4.8l-5.7-14.7h-3.9v12.3c0,0.5,0.1,0.8,0.4,1s0.7,0.3,1.1,0.3h1v1H268v-1h1c0.6,0,1-0.1,1.2-0.3
		s0.3-0.6,0.3-1V28.9c0-0.5-0.1-0.8-0.3-1c-0.2-0.2-0.6-0.3-1.2-0.3h-1v-1h9.8c2.6,0,4.7,0.6,6.1,1.7C285.3,29.4,286,31.1,286,33.4z
		 M273.3,40h3.8c1.7,0,3.1-0.5,4.3-1.5c1.1-1,1.7-2.6,1.7-4.8c0-1.9-0.5-3.5-1.5-4.5c-1-1.1-2.6-1.6-4.8-1.6h-1.9
		c-0.5,0-0.8,0.1-1.1,0.3c-0.3,0.2-0.4,0.6-0.4,1V40H273.3z"/>
	<path id="XMLID_47_" class="st2" d="M289.9,27.5v-1h16.8l1.9,5.8l-0.9,0.3c-0.9-1.7-1.9-3-2.9-3.9s-2.2-1.3-3.4-1.3h-4.8
		c-0.5,0-0.8,0.1-1.1,0.3c-0.3,0.2-0.4,0.6-0.4,1v10.6h5c1.1,0,2-0.3,2.5-0.9c0.5-0.6,0.8-1.4,0.8-2.6v-1h1v10.1h-1v-0.7
		c0-1.3-0.3-2.2-0.8-2.9s-1.3-1-2.5-1h-5v12.9c0,0.5,0.1,0.8,0.4,1s0.7,0.3,1.1,0.3h4.5c1.7,0,3.2-0.5,4.4-1.5
		c1.2-1,2.1-2.5,2.8-4.5l0.9,0.3l-1.9,6.7h-17.5v-1h1c0.6,0,1-0.1,1.2-0.3s0.3-0.6,0.3-1V28.9c0-0.5-0.1-0.8-0.3-1
		c-0.2-0.2-0.6-0.3-1.2-0.3h-0.9V27.5z"/>
	<path id="XMLID_57_" class="st2" d="M325.8,55.8h-8.9v-1h1.5c0.6,0,1-0.1,1.2-0.3s0.3-0.6,0.3-1v-24c0-0.9-0.1-1.4-0.2-1.5
		s-0.6-0.2-1.4-0.2c-1.6,0-2.7,0.3-3.3,0.9c-0.6,0.6-1.4,2.1-2.3,4.6l-1-0.2l1.5-6.5h16.3l1.4,6.5l-0.9,0.2
		c-0.9-2.4-1.6-3.9-2.1-4.5s-1.6-0.9-3.2-0.9c-1.1,0-1.8,0.1-1.9,0.2s-0.2,0.7-0.2,1.7v23.8c0,0.5,0.1,0.8,0.4,1s0.7,0.3,1.1,0.3
		h1.5v0.9H325.8z"/>
	<path id="XMLID_60_" class="st2" d="M343.6,54.8c1.7,0,3.2-0.6,4.4-1.7c1.2-1.1,1.8-2.6,1.8-4.3V28.9c0-0.5-0.1-0.8-0.3-1
		c-0.2-0.2-0.6-0.3-1.2-0.3h-1v-1h6.2v1h-1c-0.5,0-0.8,0.1-1.1,0.3c-0.3,0.2-0.4,0.6-0.4,1v19.9c0,2.3-0.8,4.1-2.3,5.4
		c-1.5,1.3-3.3,2-5.2,2c-2.1,0-3.9-0.6-5.4-1.7c-1.5-1.1-2.3-3-2.3-5.5V28.9c0-0.5-0.1-0.8-0.3-1c-0.2-0.2-0.6-0.3-1.2-0.3h-0.9v-1
		h7.5v1H340c-0.5,0-0.8,0.1-1.1,0.3c-0.3,0.2-0.4,0.6-0.4,1V49c0,2.3,0.5,3.8,1.5,4.6C340.7,54.4,342,54.8,343.6,54.8z"/>
	<path id="XMLID_63_" class="st2" d="M373.8,33.4c0,2.3-0.6,4.1-1.9,5.3c-1.3,1.3-2.7,2-4.3,2.2l5.1,12.7c0.2,0.5,0.5,0.8,0.8,0.9
		c0.3,0.2,0.6,0.3,0.9,0.3h1v1h-4.8L365,41.1h-3.9v12.3c0,0.5,0.1,0.8,0.4,1s0.7,0.3,1.1,0.3h1v1h-7.9v-1h1c0.6,0,1-0.1,1.2-0.3
		s0.3-0.6,0.3-1V28.9c0-0.5-0.1-0.8-0.3-1c-0.2-0.2-0.6-0.3-1.2-0.3h-1v-1h9.8c2.6,0,4.7,0.6,6.1,1.7
		C373,29.4,373.8,31.1,373.8,33.4z M361.1,40h3.8c1.7,0,3.1-0.5,4.3-1.5c1.1-1,1.7-2.6,1.7-4.8c0-1.9-0.5-3.5-1.5-4.5
		c-1-1.1-2.6-1.6-4.8-1.6h-1.9c-0.5,0-0.8,0.1-1.1,0.3c-0.3,0.2-0.4,0.6-0.4,1V40H361.1z"/>
	<path id="XMLID_76_" class="st2" d="M393.6,49.2h0.3V28.9c0-0.5-0.1-0.8-0.3-1c-0.2-0.2-0.6-0.3-1.2-0.3H391v-1h6.9v1h-1.4
		c-0.5,0-0.8,0.1-1.1,0.3c-0.3,0.2-0.4,0.6-0.4,1v26.9h-1l-13-25.7h-0.3v23.2c0,0.5,0.1,0.8,0.4,1s0.7,0.3,1.1,0.3h1.4v1h-6.9v-1
		h1.4c0.6,0,1-0.1,1.2-0.3s0.3-0.6,0.3-1V28.9c0-0.5-0.1-0.8-0.3-1c-0.2-0.2-0.6-0.3-1.2-0.3h-1v-1h5L393.6,49.2z"/>
	<path id="XMLID_84_" class="st2" d="M412.8,27.5v-1h6.2v1h-0.7c-0.5,0-0.9,0.2-1.3,0.5s-0.7,1-0.9,1.9l-7,25.9h-1l-6.3-25.9
		c-0.1-0.8-0.3-1.4-0.6-1.8c-0.3-0.4-0.7-0.6-1.3-0.6H399v-1h7.4v1h-0.7c-0.6,0-0.9,0.2-1.1,0.5s-0.2,0.8-0.1,1.4l4.8,20.1h0.3
		l5.1-19.5c0.1-0.5,0.2-0.8,0.2-1c0-0.3-0.1-0.7-0.3-0.9c-0.2-0.3-0.6-0.4-1.3-0.4h-0.5V27.5z"/>
</g>
<g id="XMLID_21_">
	<path id="XMLID_30_" class="st3" d="M405.6,148.3h-5.1v-5.1l-12.9,10.3h7.7v12.9c0,1.4,1.2,2.6,2.6,2.6s2.6-1.2,2.6-2.6v-12.9h5.1
		c1.4,0,2.6-1.2,2.6-2.6l0,0C408.1,149.4,407,148.3,405.6,148.3z"/>
	<path id="XMLID_29_" class="st3" d="M382.5,137.4h-7.7c-5.7,0-10.3,4.6-10.3,10.3l5.1,2.8v-2.8c0-2.8,2.3-5.1,5.1-5.1h7.7
		c1.4,0,2.6-1.2,2.6-2.6C385.1,138.5,383.9,137.4,382.5,137.4z"/>
	<path id="XMLID_27_" class="st3" d="M379.9,155.7v2.8c0,2.8-2.3,5.1-5.1,5.1h-7.7c-1.4,0-2.6,1.2-2.6,2.6s1.2,2.6,2.6,2.6h7.7l0,0
		c5.7,0,10.3-4.6,10.3-10.3L379.9,155.7z"/>
	<g id="XMLID_24_">
		<path id="XMLID_26_" class="st3" d="M389.1,141.9c-0.2,0-0.4-0.2-0.4-0.4v-3.3c0-0.2,0.1-0.4,0.4-0.4h1.6c0.8,0,1.2,0.5,1.2,1.1
			c0,0.3-0.1,0.5-0.3,0.7c0.5,0.2,0.7,0.5,0.7,1c0,0.7-0.5,1.2-1.3,1.2L389.1,141.9L389.1,141.9z M390.7,138.6h-1.2v0.9h1.2
			c0.2,0,0.4-0.2,0.4-0.5C391.1,138.8,390.9,138.6,390.7,138.6z M389.5,141.2h1.4c0.7,0,0.7-1,0-1c-0.4,0-1,0-1.4,0V141.2z"/>
		<path id="XMLID_25_" class="st3" d="M392.8,141.9c-0.2-0.1-0.3-0.3-0.2-0.6l1.7-3.3c0.2-0.3,0.6-0.3,0.7,0l1.6,3.3
			c0.2,0.5-0.5,0.8-0.7,0.4l-0.3-0.5h-2.1l-0.2,0.5C393.2,141.9,393,142,392.8,141.9z M395.3,140.4l-0.7-1.4l-0.7,1.4H395.3z"/>
		<path id="XMLID_28_" class="st3" d="M397.1,138.8c0.1-1.1,1.8-1.3,2.6-0.7c0.4,0.3,0,0.8-0.4,0.6c-0.4-0.3-1.4-0.4-1.5,0.2
			c-0.2,1,2.4,0.4,2.3,2c0,1.5-2.2,1.5-3,0.8c-0.2-0.2-0.2-0.4-0.1-0.6c0.2-0.2,0.3-0.2,0.5,0c0.5,0.3,1.7,0.6,1.8-0.3
			C399.3,139.9,396.9,140.4,397.1,138.8z"/>
		<path id="XMLID_31_" class="st3" d="M401.2,141.9c-0.2,0-0.4-0.2-0.4-0.4v-3.3c0-0.2,0.2-0.4,0.4-0.4h2.1c0.5,0,0.5,0.8,0,0.8
			h-1.7v0.9h1.5c0.5,0,0.5,0.8,0,0.8h-1.5v0.9h1.8c0.5,0,0.6,0.8,0,0.8h-2.2V141.9z"/>
		<path id="XMLID_33_" class="st3" d="M404.8,141.9c-0.2,0-0.4-0.1-0.4-0.4v-3.3c0-0.2,0.2-0.4,0.4-0.4h1.3c2.7,0,2.6,4,0.1,4
			L404.8,141.9L404.8,141.9z M405.2,138.6v2.6h1c1.6,0,1.6-2.6,0-2.6H405.2z"/>
		<path id="XMLID_36_" class="st3" d="M412.5,142c-1.1,0-2.2-0.7-2.2-2.1c0-1.4,1.1-2.1,2.2-2.1c1,0.1,2.1,0.8,2.1,2.1
			C414.6,141.3,413.6,142,412.5,142z M412.5,138.5c-0.7,0-1.4,0.5-1.4,1.4s0.7,1.4,1.4,1.4c0.7,0,1.4-0.5,1.4-1.4
			S413.1,138.5,412.5,138.5z"/>
		<path id="XMLID_39_" class="st3" d="M415.3,138.3c0-0.2,0-0.4,0.3-0.4c0.2,0,0.3,0.1,0.4,0.2l1.9,2.4v-2.3c0-0.2,0.2-0.4,0.4-0.4
			c0.2,0,0.4,0.2,0.4,0.4v3.3c0,0.3-0.2,0.4-0.3,0.4c-0.2,0-0.3,0-0.5-0.2l-1.9-2.4v2.2c0,0.3-0.2,0.4-0.4,0.4
			c-0.2,0-0.4-0.1-0.4-0.4v-3.2H415.3z"/>
		<path id="XMLID_41_" class="st3" d="M421.2,138.8c0.1-1.1,1.8-1.3,2.6-0.7c0.4,0.3,0,0.8-0.4,0.6c-0.4-0.3-1.4-0.4-1.5,0.2
			c-0.2,1,2.4,0.4,2.3,2c0,1.5-2.2,1.5-3,0.8c-0.2-0.2-0.2-0.4-0.1-0.6c0.2-0.2,0.3-0.2,0.5,0c0.5,0.3,1.7,0.6,1.8-0.3
			C423.5,139.9,421,140.4,421.2,138.8z"/>
		<path id="XMLID_43_" class="st3" d="M426,138.6h-1c-0.5,0-0.5-0.7,0-0.7h2.7c0.5,0,0.5,0.7,0,0.7h-1v2.9c0,0.5-0.8,0.5-0.8,0
			L426,138.6L426,138.6z"/>
		<path id="XMLID_45_" class="st3" d="M429.1,141.9c-0.2,0-0.4-0.1-0.4-0.4v-3.3c0-0.2,0.2-0.4,0.4-0.4h1.3c2.7,0,2.6,4,0.1,4
			L429.1,141.9L429.1,141.9z M429.5,138.6v2.6h1c1.6,0,1.6-2.6,0-2.6H429.5z"/>
		<path id="XMLID_48_" class="st3" d="M433.1,138.2c0-0.2,0.2-0.4,0.4-0.4c0.2,0,0.3,0.2,0.3,0.4v2.9h1.6c0.6,0,0.6,0.8,0,0.8h-1.9
			c-0.2,0-0.4-0.1-0.4-0.4V138.2L433.1,138.2z"/>
		<path id="XMLID_50_" class="st3" d="M436.5,138.2c0-0.5,0.8-0.5,0.8,0v3.3c0,0.5-0.8,0.5-0.8,0V138.2z"/>
		<path id="XMLID_52_" class="st3" d="M438.4,141.9c-0.2,0-0.4-0.2-0.4-0.4v-3.3c0-0.2,0.1-0.4,0.4-0.4h1.6c0.8,0,1.2,0.5,1.2,1.1
			c0,0.3-0.1,0.5-0.3,0.7c0.5,0.2,0.7,0.5,0.7,1c0,0.7-0.5,1.2-1.3,1.2L438.4,141.9L438.4,141.9z M440.1,138.6h-1.2v0.9h1.2
			c0.2,0,0.4-0.2,0.4-0.5C440.5,138.8,440.3,138.6,440.1,138.6z M438.8,141.2h1.4c0.7,0,0.7-1,0-1c-0.4,0-1,0-1.4,0V141.2z"/>
	</g>
	<g id="XMLID_142_">
		<g id="XMLID_97_">
			<path id="XMLID_98_" class="st3" d="M404.4,164.7c-0.1-0.1-0.2-0.2-0.1-0.3l0.8-1.6c0.1-0.2,0.3-0.2,0.4,0l0.8,1.6
				c0.1,0.2-0.2,0.4-0.3,0.2l-0.1-0.3h-1.1l-0.1,0.3C404.6,164.7,404.5,164.7,404.4,164.7z M405.7,163.9l-0.3-0.7l-0.4,0.7H405.7z"
				/>
			<path id="XMLID_101_" class="st3" d="M406.6,162.9c0-0.1,0-0.2,0.2-0.2c0.1,0,0.1,0,0.2,0.1l1,1.2v-1.1c0-0.1,0.1-0.2,0.2-0.2
				s0.2,0.1,0.2,0.2v1.6c0,0.1-0.1,0.2-0.2,0.2s-0.2,0-0.2-0.1l-1-1.2v1.1c0,0.1-0.1,0.2-0.2,0.2s-0.2-0.1-0.2-0.2V162.9
				L406.6,162.9z"/>
			<path id="XMLID_103_" class="st3" d="M409.6,164.7c-0.1-0.1-0.2-0.2-0.1-0.3l0.8-1.6c0.1-0.2,0.3-0.2,0.4,0l0.8,1.6
				c0.1,0.2-0.2,0.4-0.3,0.2l-0.1-0.3H410l-0.1,0.3C409.8,164.7,409.7,164.7,409.6,164.7z M410.8,163.9l-0.3-0.7l-0.4,0.7H410.8z"/>
			<path id="XMLID_106_" class="st3" d="M412,164.7c-0.1,0-0.2-0.1-0.2-0.2v-1.7c0-0.1,0.1-0.2,0.2-0.2h0.7c1.3,0,1.3,2,0,2
				L412,164.7L412,164.7z M412.2,163v1.3h0.5c0.8,0,0.8-1.3,0-1.3H412.2z"/>
			<path id="XMLID_109_" class="st3" d="M414.7,164.6l-0.8-1.6c-0.1-0.2,0.2-0.4,0.4-0.2l0.3,0.6l0.3,0.8l0.3-0.8l0.3-0.6
				c0.1-0.2,0.5-0.1,0.4,0.2l-0.7,1.6C415,164.7,414.8,164.8,414.7,164.6z"/>
			<path id="XMLID_111_" class="st3" d="M415.9,164.7c-0.1-0.1-0.2-0.2-0.1-0.3l0.8-1.6c0.1-0.2,0.3-0.2,0.4,0l0.8,1.6
				c0.1,0.2-0.2,0.4-0.3,0.2l-0.1-0.3h-1.1l-0.1,0.3C416.1,164.7,416,164.7,415.9,164.7z M417.1,163.9l-0.3-0.7l-0.4,0.7H417.1z"/>
			<path id="XMLID_114_" class="st3" d="M418.1,162.9c0-0.1,0-0.2,0.2-0.2c0.1,0,0.1,0,0.2,0.1l1,1.2v-1.1c0-0.1,0.1-0.2,0.2-0.2
				s0.2,0.1,0.2,0.2v1.6c0,0.1-0.1,0.2-0.2,0.2s-0.2,0-0.2-0.1l-1-1.2v1.1c0,0.1-0.1,0.2-0.2,0.2s-0.2-0.1-0.2-0.2V162.9
				L418.1,162.9z"/>
			<path id="XMLID_116_" class="st3" d="M420.1,163.7c0-0.6,0.4-1,1-1c0.3,0,0.5,0.1,0.7,0.3c0.1,0.1,0.1,0.2,0,0.3s-0.2,0.1-0.3,0
				c-0.1-0.1-0.2-0.2-0.4-0.2c-0.5,0-0.7,0.3-0.7,0.7s0.2,0.7,0.7,0.7c0.2,0,0.3-0.1,0.5-0.2c0.1-0.1,0.2,0,0.3,0
				c0,0.1,0.1,0.2,0,0.3c-0.2,0.2-0.5,0.2-0.7,0.2C420.5,164.7,420.1,164.2,420.1,163.7z"/>
			<path id="XMLID_118_" class="st3" d="M422.5,164.7c-0.1,0-0.2-0.1-0.2-0.2v-1.7c0-0.1,0.1-0.2,0.2-0.2h1c0.3,0,0.3,0.4,0,0.4
				h-0.8v0.4h0.7c0.3,0,0.3,0.4,0,0.4h-0.7v0.4h0.9c0.3,0,0.3,0.4,0,0.4h-1.1V164.7z"/>
			<path id="XMLID_120_" class="st3" d="M424.3,164.7c-0.1,0-0.2-0.1-0.2-0.2v-1.7c0-0.1,0.1-0.2,0.2-0.2h0.7c1.3,0,1.3,2,0,2
				L424.3,164.7L424.3,164.7z M424.5,163v1.3h0.5c0.8,0,0.8-1.3,0-1.3H424.5z"/>
			<path id="XMLID_123_" class="st3" d="M427.1,162.8c0-0.1,0.1-0.2,0.2-0.2s0.2,0.1,0.2,0.2v1.5h0.8c0.3,0,0.3,0.4,0,0.4h-1
				c-0.1,0-0.2-0.1-0.2-0.2V162.8L427.1,162.8z"/>
			<path id="XMLID_125_" class="st3" d="M428.8,162.8c0-0.2,0.4-0.2,0.4,0v1.7c0,0.2-0.4,0.2-0.4,0V162.8z"/>
			<path id="XMLID_127_" class="st3" d="M429.8,164.7c-0.1,0-0.2-0.1-0.2-0.2v-1.7c0-0.1,0.1-0.2,0.2-0.2h0.8c0.4,0,0.6,0.3,0.6,0.6
				c0,0.1,0,0.3-0.2,0.4c0.2,0.1,0.3,0.3,0.3,0.5c0,0.3-0.2,0.6-0.7,0.6L429.8,164.7L429.8,164.7z M430.6,163H430v0.4h0.6
				c0.1,0,0.2-0.1,0.2-0.2C430.8,163.1,430.8,163,430.6,163z M430,164.3h0.7c0.3,0,0.3-0.5,0-0.5c-0.2,0-0.5,0-0.7,0V164.3z"/>
			<path id="XMLID_131_" class="st3" d="M432.1,164.5c0,0.3-0.4,0.3-0.4,0v-1.7c0-0.1,0.1-0.2,0.2-0.2h0.8c0.7,0,0.9,1,0.3,1.2
				l0.4,0.5c0.2,0.2-0.2,0.4-0.3,0.2l-0.4-0.6h-0.5v0.6H432.1z M432.1,163.6h0.6c0.4,0,0.4-0.6,0-0.6h-0.6V163.6z"/>
			<path id="XMLID_134_" class="st3" d="M433.7,164.7c-0.1-0.1-0.2-0.2-0.1-0.3l0.8-1.6c0.1-0.2,0.3-0.2,0.4,0l0.8,1.6
				c0.1,0.2-0.2,0.4-0.3,0.2l-0.1-0.3h-1.1l-0.1,0.3C433.9,164.7,433.8,164.7,433.7,164.7z M434.9,163.9l-0.3-0.7l-0.4,0.7H434.9z"
				/>
			<path id="XMLID_137_" class="st3" d="M436.3,164.5c0,0.3-0.4,0.3-0.4,0v-1.7c0-0.1,0.1-0.2,0.2-0.2h0.8c0.7,0,0.9,1,0.3,1.2
				l0.4,0.5c0.2,0.2-0.2,0.4-0.3,0.2l-0.4-0.6h-0.5v0.6H436.3z M436.3,163.6h0.6c0.4,0,0.4-0.6,0-0.6h-0.6V163.6z"/>
			<path id="XMLID_140_" class="st3" d="M437.7,162.9c-0.2-0.2,0.2-0.4,0.3-0.2l0.5,0.8l0.5-0.8c0.2-0.2,0.5,0,0.3,0.2l-0.7,1v0.6
				c0,0.3-0.4,0.3-0.4,0v-0.6L437.7,162.9z"/>
		</g>
		<g id="XMLID_23_">
			<path id="XMLID_56_" class="st3" d="M407.4,166.7v0.5h0.7c0.1,0,0.2,0.1,0.2,0.2c0,0.1-0.1,0.2-0.2,0.2h-0.7v0.6
				c0,0.1-0.1,0.2-0.2,0.2s-0.2-0.1-0.2-0.2v-1.7c0-0.1,0.1-0.2,0.2-0.2h1c0.1,0,0.2,0.1,0.2,0.2c0,0.1-0.1,0.2-0.2,0.2H407.4z"/>
			<path id="XMLID_58_" class="st3" d="M409.8,168.3c-0.5,0-1.1-0.3-1.1-1.1c0-0.7,0.6-1.1,1.1-1.1s1,0.4,1,1.1
				S410.4,168.3,409.8,168.3z M409.8,166.6c-0.3,0-0.7,0.2-0.7,0.7s0.4,0.7,0.7,0.7c0.3,0,0.7-0.2,0.7-0.7S410.2,166.6,409.8,166.6z
				"/>
			<path id="XMLID_61_" class="st3" d="M411.6,168.1c0,0.3-0.4,0.3-0.4,0v-1.7c0-0.1,0.1-0.2,0.2-0.2h0.8c0.7,0,0.9,1,0.3,1.2
				l0.4,0.5c0.2,0.2-0.2,0.4-0.3,0.2l-0.4-0.6h-0.5v0.6H411.6z M411.6,167.2h0.6c0.4,0,0.4-0.6,0-0.6h-0.6V167.2z"/>
			<path id="XMLID_64_" class="st3" d="M416.1,167.6l0.4-1.2c0.1-0.2,0.4-0.1,0.4,0.1l-0.6,1.6c-0.1,0.2-0.1,0.2-0.2,0.2
				s-0.1-0.1-0.2-0.2l-0.5-1.2l-0.5,1.1c-0.1,0.1-0.1,0.2-0.2,0.2s-0.2-0.1-0.2-0.2l-0.6-1.6c-0.1-0.3,0.3-0.4,0.4-0.1l0.4,1.2
				l0.5-1.2c0.1-0.2,0.3-0.2,0.3,0L416.1,167.6z"/>
			<path id="XMLID_66_" class="st3" d="M417.4,168.3c-0.1,0-0.2-0.1-0.2-0.2v-1.7c0-0.1,0.1-0.2,0.2-0.2h1c0.3,0,0.3,0.4,0,0.4h-0.8
				v0.4h0.7c0.3,0,0.3,0.4,0,0.4h-0.7v0.4h0.9c0.3,0,0.3,0.4,0,0.4h-1.1V168.3z"/>
			<path id="XMLID_68_" class="st3" d="M419.2,168.3c-0.1,0-0.2-0.1-0.2-0.2v-1.7c0-0.1,0.1-0.2,0.2-0.2h0.8c0.4,0,0.6,0.3,0.6,0.6
				c0,0.1,0,0.3-0.2,0.4c0.2,0.1,0.3,0.3,0.3,0.5c0,0.3-0.2,0.6-0.7,0.6L419.2,168.3L419.2,168.3z M420,166.6h-0.6v0.4h0.6
				c0.1,0,0.2-0.1,0.2-0.2C420.2,166.7,420.1,166.6,420,166.6z M419.4,167.9h0.7c0.3,0,0.3-0.5,0-0.5c-0.2,0-0.5,0-0.7,0V167.9z"/>
			<path id="XMLID_72_" class="st3" d="M422.1,168.3c-0.1,0-0.2-0.1-0.2-0.2v-1.7c0-0.1,0.1-0.2,0.2-0.2h0.7c1.3,0,1.3,2,0,2
				L422.1,168.3L422.1,168.3z M422.3,166.6v1.3h0.5c0.8,0,0.8-1.3,0-1.3H422.3z"/>
			<path id="XMLID_75_" class="st3" d="M424.3,168.3c-0.1,0-0.2-0.1-0.2-0.2v-1.7c0-0.1,0.1-0.2,0.2-0.2h1c0.3,0,0.3,0.4,0,0.4h-0.8
				v0.4h0.7c0.3,0,0.3,0.4,0,0.4h-0.7v0.4h0.9c0.3,0,0.3,0.4,0,0.4h-1.1V168.3z"/>
			<path id="XMLID_77_" class="st3" d="M426.6,168.2l-0.8-1.6c-0.1-0.2,0.2-0.4,0.4-0.2l0.3,0.6l0.3,0.8l0.3-0.8l0.3-0.6
				c0.1-0.2,0.5-0.1,0.4,0.2l-0.7,1.6C426.9,168.4,426.7,168.4,426.6,168.2z"/>
			<path id="XMLID_79_" class="st3" d="M428.2,168.3c-0.1,0-0.2-0.1-0.2-0.2v-1.7c0-0.1,0.1-0.2,0.2-0.2h1c0.3,0,0.3,0.4,0,0.4h-0.8
				v0.4h0.7c0.3,0,0.3,0.4,0,0.4h-0.7v0.4h0.9c0.3,0,0.3,0.4,0,0.4h-1.1V168.3z"/>
			<path id="XMLID_81_" class="st3" d="M429.8,166.5c0-0.1,0.1-0.2,0.2-0.2s0.2,0.1,0.2,0.2v1.5h0.8c0.3,0,0.3,0.4,0,0.4h-1
				c-0.1,0-0.2-0.1-0.2-0.2V166.5L429.8,166.5z"/>
			<path id="XMLID_83_" class="st3" d="M432.4,168.3c-0.5,0-1.1-0.3-1.1-1.1c0-0.7,0.6-1.1,1.1-1.1s1,0.4,1,1.1
				S433,168.3,432.4,168.3z M432.4,166.6c-0.3,0-0.7,0.2-0.7,0.7s0.4,0.7,0.7,0.7c0.3,0,0.7-0.2,0.7-0.7S432.8,166.6,432.4,166.6z"
				/>
			<path id="XMLID_86_" class="st3" d="M433.9,166.5c0-0.1,0.1-0.2,0.2-0.2h0.7c0.4,0,0.7,0.3,0.7,0.7c0,0.5-0.3,0.7-0.7,0.7h-0.5
				v0.4c0,0.1-0.1,0.2-0.2,0.2s-0.2-0.1-0.2-0.2V166.5L433.9,166.5z M434.2,166.6v0.7h0.5c0.2,0,0.4-0.2,0.4-0.4s-0.2-0.4-0.4-0.4
				L434.2,166.6L434.2,166.6z"/>
			<path id="XMLID_89_" class="st3" d="M436.1,167v1.1c0,0.1-0.1,0.2-0.2,0.2s-0.2-0.1-0.2-0.2v-1.6c0-0.2,0.1-0.2,0.2-0.2
				s0.1,0,0.2,0.1l0.6,0.9l0.7-0.9c0.1-0.1,0.3-0.1,0.3,0.1v1.6c0,0.1-0.1,0.2-0.2,0.2s-0.2-0.1-0.2-0.2V167l-0.5,0.6
				c-0.1,0.1-0.2,0.1-0.3,0L436.1,167z"/>
			<path id="XMLID_91_" class="st3" d="M438.3,168.3c-0.1,0-0.2-0.1-0.2-0.2v-1.7c0-0.1,0.1-0.2,0.2-0.2h1c0.3,0,0.3,0.4,0,0.4h-0.8
				v0.4h0.7c0.3,0,0.3,0.4,0,0.4h-0.7v0.4h0.9c0.3,0,0.3,0.4,0,0.4h-1.1V168.3z"/>
			<path id="XMLID_93_" class="st3" d="M440,166.5c0-0.1,0-0.2,0.2-0.2c0.1,0,0.1,0,0.2,0.1l1,1.2v-1.1c0-0.1,0.1-0.2,0.2-0.2
				s0.2,0.1,0.2,0.2v1.6c0,0.1-0.1,0.2-0.2,0.2s-0.2,0-0.2-0.1l-1-1.2v1.1c0,0.1-0.1,0.2-0.2,0.2s-0.2-0.1-0.2-0.2V166.5L440,166.5z
				"/>
			<path id="XMLID_95_" class="st3" d="M442.7,166.6h-0.5c-0.3,0-0.3-0.4,0-0.4h1.4c0.3,0,0.3,0.4,0,0.4H443v1.5
				c0,0.3-0.4,0.3-0.4,0v-1.5H442.7z"/>
		</g>
	</g>
	<polygon id="XMLID_22_" class="st3" points="428.5,153.4 424,157.8 419.6,153.4 	"/>
</g>
<g id="XMLID_202_">
	<rect id="XMLID_203_" x="361.8" y="64.9" class="st3" width="1.2" height="1.2"/>
	<path id="XMLID_204_" class="st3" d="M376.1,63.2c0.2,0.8,0.4,1.4,0.7,1.8c0.3-0.5,0.5-1.1,0.7-1.8H376.1z"/>
	<rect id="XMLID_205_" x="277" y="61.6" class="st3" width="2.5" height="1.3"/>
	<rect id="XMLID_206_" x="284.9" y="62.8" class="st3" width="1.6" height="0.7"/>
	<rect id="XMLID_207_" x="284.9" y="63.7" class="st3" width="1.6" height="0.7"/>
	<rect id="XMLID_208_" x="361.2" y="61.7" class="st3" width="1.9" height="0.8"/>
	<path id="XMLID_209_" class="st3" d="M386.4,65.2c-0.1,0-0.1,0-0.2,0.1s-0.1,0.2-0.1,0.3c0,0.1,0.1,0.2,0.2,0.3
		c0.1,0.1,0.3,0.1,0.4,0.1s0.1,0,0.2,0h0.1c0-0.2-0.1-0.4-0.2-0.6C386.6,65.2,386.5,65.2,386.4,65.2z"/>
	<path id="XMLID_210_" class="st3" d="M386.6,62.1c-0.3,0-0.5,0.2-0.7,0.5s-0.2,0.8-0.2,1.5c0,0.3,0,0.6,0,0.8
		c0,0.2,0.1,0.4,0.1,0.5c0.1-0.1,0.1-0.3,0.2-0.3c0.1-0.1,0.2-0.1,0.4-0.1c0.2,0,0.3,0.1,0.5,0.2c0.1,0.1,0.2,0.3,0.3,0.6
		c0.1-0.1,0.2-0.3,0.3-0.6c0.1-0.3,0.1-0.7,0.1-1.1c0-0.6-0.1-1.1-0.2-1.5C387.2,62.3,386.9,62.1,386.6,62.1z"/>
	<path id="XMLID_211_" class="st3" d="M270.2,63.2c-0.4,0.6-0.8,1.1-1.1,1.4l-0.1-0.1v2.4h1.2c0-0.4,0-0.7,0-1V63.2z"/>
	<path id="XMLID_212_" class="st3" d="M270.2,62.5c0.2-0.4,0.4-0.9,0.5-1.4H269v3.4c0.2-0.3,0.4-0.6,0.6-0.9
		C269.8,63.3,270,63,270.2,62.5z"/>
	<path id="XMLID_215_" class="st3" d="M270.7,61.1l0.5,0.3c-0.1,0.1-0.3,0.2-0.4,0.5s-0.3,0.6-0.4,0.8l0.3,0.2l-0.2,0.2v2.7
		c0,0.3,0,0.5,0,0.9l-0.4,0.2h4.4c0,0-0.1,0-0.3-0.1c-0.2,0-0.4-0.2-0.7-0.4c-0.3-0.2-0.6-0.6-0.8-1c-0.2-0.4-0.4-1.1-0.5-2.1h-1
		l-0.2,0.1l-0.2-0.2l1.4-0.1c0-0.4-0.1-0.8-0.1-1c0-0.3,0-0.6,0-0.9l0.6,0.3l-0.2,0.2c0,0.6,0,1.1,0.1,1.4l1.2-0.1l0.3-0.3l0.5,0.4
		l-2,0.1c0.1,1,0.3,1.7,0.6,2.1c0.3,0.4,0.6,0.7,1,0.9l0.3-1.1h0.1c-0.1,0.6-0.1,0.9-0.1,1.1s0.1,0.3,0.1,0.4s0,0.1-0.1,0.1h116.4
		V64l-1.2,2.6l-0.2-0.1l1.2-2.5l-1.2-2.4l0.2-0.1l1.2,2.5v-2.9H270.7z M274.2,62.5c0,0.1-0.1,0.1-0.1,0.1c-0.1,0-0.1-0.1-0.2-0.2
		c-0.1-0.2-0.4-0.5-0.7-0.7v-0.1c0.6,0.2,1,0.4,1,0.5c0.1,0.1,0.1,0.2,0.1,0.2S274.3,62.4,274.2,62.5z M282.2,61.3
		c0.5,0.2,0.7,0.4,0.8,0.5c0,0.1,0,0.3,0,0.4c-0.1,0.1-0.1,0.2-0.2,0.2s-0.1-0.1-0.1-0.2C282.5,61.9,282.4,61.7,282.2,61.3
		L282.2,61.3z M276.6,61.3l0.4,0.2h2.4l0.2-0.2l0.3,0.3l-0.2,0.2c0,0.7,0,1.2,0,1.4l-0.4,0.1V63H277v0.2l-0.4,0.1c0-0.3,0-0.7,0-1
		C276.6,61.9,276.6,61.6,276.6,61.3z M279.5,64.6l0.3-0.3l0.4,0.4l-0.2,0.2c-0.1,0.9-0.3,1.3-0.4,1.5c-0.1,0.1-0.2,0.2-0.3,0.3
		c-0.1,0.1-0.3,0.1-0.6,0.2c0-0.2-0.3-0.5-0.8-0.7v-0.1c0.4,0.1,0.8,0.2,1,0.2c0.1,0,0.2,0,0.3-0.1c0.1,0,0.2-0.5,0.4-1.4h-2.3
		l-0.2,0.2l-0.3-0.3c0.1-0.1,0.2-0.2,0.3-0.3c0.1-0.1,0.1-0.3,0.2-0.6h-1.4h-0.2l-0.2-0.2h4.7l0.3-0.3l0.4,0.5h-3.3l-0.3,0.9
		L279.5,64.6L279.5,64.6z M281.6,62.7c0.6,0.3,0.9,0.5,0.9,0.6s0,0.3-0.1,0.4c-0.1,0.1-0.1,0.1-0.1,0.1s-0.1-0.1-0.1-0.2
		C282,63.4,281.8,63.1,281.6,62.7L281.6,62.7z M282.2,66.5c-0.1,0-0.2-0.1-0.2-0.3c0-0.1,0-0.2,0-0.3c0-0.2,0.1-0.3,0.1-0.4
		s0-0.2-0.1-0.2c-0.1-0.1-0.2-0.1-0.5-0.2V65c0.3,0,0.5,0,0.6,0s0.2-0.1,0.2-0.2c0.1-0.1,0.4-1,0.9-2.7h0.1c-0.5,1.8-0.8,2.8-0.8,3
		c0,0.2-0.1,0.5-0.1,0.8s0,0.5,0,0.6s0,0.1-0.1,0.1C282.4,66.6,282.4,66.5,282.2,66.5z M283.6,66.6L283.6,66.6
		c0.5-0.6,0.9-1.2,1.1-1.6l0.4,0.3c-0.2,0.1-0.4,0.2-0.6,0.5C284.3,66,284,66.3,283.6,66.6z M287.1,66.3c0,0.1-0.1,0.2-0.1,0.2
		s-0.1-0.1-0.2-0.3c-0.1-0.3-0.4-0.6-0.7-1.1V65c0.5,0.3,0.9,0.6,0.9,0.7c0.1,0.1,0.1,0.2,0.1,0.3C287.2,66.1,287.2,66.2,287.1,66.3
		z M285.6,61.8L286,62c-0.1,0-0.2,0.1-0.3,0.2c-0.1,0.1-0.2,0.2-0.4,0.5h1.1l0.2-0.2l0.4,0.3l-0.2,0.2c0,1,0,1.6,0,1.7l-0.3,0.2
		v-0.2h-0.6v1.6c0,0.3-0.2,0.5-0.5,0.6c0-0.2-0.2-0.4-0.6-0.5v-0.1c0.2,0,0.4,0,0.5,0s0.2-0.1,0.2-0.2v-1.5h-0.6v0.1l-0.3,0.1
		c0-0.4,0-0.8,0-1.2s0-0.8,0-1.2l0.3,0.2h0.3c0.2-0.4,0.3-0.7,0.3-0.9H284c0,0.7,0,1.3,0,1.9c0,0.6-0.1,1.2-0.4,1.7
		c-0.2,0.5-0.6,1-1,1.4v-0.1c0.4-0.5,0.7-1,0.9-1.6c0.2-0.5,0.2-1.2,0.2-2s0-1.4,0-1.8l0.4,0.2h2.6l0.3-0.3l0.5,0.5h-1.9V61.8z
		 M291,63.7V66c0,0.4-0.2,0.6-0.6,0.7c0-0.2-0.3-0.4-0.8-0.6V66c0.4,0.1,0.6,0.1,0.8,0.1s0.2-0.1,0.2-0.3v-2.2h-1.8
		c-0.2,0-0.4,0-0.6,0.1l-0.2-0.2h2.6v-1.7h-1c-0.2,0-0.4,0-0.6,0.1l-0.2-0.2h3.3l0.3-0.3l0.5,0.5H291v1.7h1.7l0.4-0.4l0.5,0.5
		L291,63.7L291,63.7z M295.7,66.1c-0.1,0.1-0.1,0.1-0.2,0.1s-0.2,0-0.2-0.1c-0.1-0.1-0.1-0.1-0.1-0.2s0-0.2,0.1-0.2
		c0.1-0.1,0.1-0.1,0.2-0.1s0.2,0,0.2,0.1c0.1,0.1,0.1,0.1,0.1,0.2C295.8,66,295.8,66.1,295.7,66.1z M295.7,63.8
		c-0.1,0.1-0.1,0.1-0.2,0.1s-0.2,0-0.2-0.1c-0.1-0.1-0.1-0.1-0.1-0.2c0-0.1,0-0.2,0.1-0.2c0.1-0.1,0.1-0.1,0.2-0.1s0.2,0,0.2,0.1
		s0.1,0.1,0.1,0.2C295.8,63.7,295.8,63.8,295.7,63.8z M301.7,66.6l-1.2-2.6l1.3-2.6l0.2,0.1l-1.3,2.5l1.2,2.5L301.7,66.6z
		 M302.7,66.4l-0.2,0.1l-1.2-2.6l1.2-2.6l0.2,0.1l-1.2,2.5L302.7,66.4z M308.7,65.4c-0.1,0-0.2,0-0.3,0c-0.1,0-0.4,0-0.9,0
		s-0.9,0-1.3,0.1c-0.4,0-0.7,0.1-0.9,0.1s-0.4,0.1-0.6,0.1s-0.3,0-0.4-0.1s-0.1-0.2-0.1-0.2c0-0.1,0.1-0.1,0.2-0.1
		c0.2,0,0.4,0,0.7,0c0.3,0,0.7-0.1,1.4-0.1c0-0.3,0-0.6,0-0.9s0-0.5-0.1-0.6c0-0.1,0-0.2,0-0.2s0.1,0,0.2,0s0.1,0.1,0.2,0.1
		c0.3-0.3,0.6-0.5,0.8-0.7c0.2-0.2,0.3-0.3,0.3-0.3s-0.1,0-0.4,0c-0.3,0.1-0.7,0.1-1.1,0.2c-0.5,0.1-0.8,0.1-0.9,0.2
		c-0.2,0-0.3,0-0.4-0.2s-0.1-0.2,0.1-0.2s0.4,0,0.6,0s0.5,0,0.8-0.1c0.3,0,0.6-0.1,0.9-0.2c0.3-0.1,0.5-0.1,0.6-0.2
		c0.1,0,0.1,0,0.1,0s0,0,0.1,0c0,0,0.1,0.1,0.2,0.1c0.1,0.1,0.1,0.1,0.1,0.2c0,0.1,0,0.1-0.1,0.1s-0.3,0.1-0.5,0.3
		c-0.3,0.2-0.6,0.4-1,0.7c0,0.1,0,0.6,0,1.3c0.8-0.1,1.3-0.1,1.5-0.1s0.3,0,0.4,0s0.2,0.1,0.2,0.1C308.8,65.3,308.8,65.3,308.7,65.4
		C308.8,65.4,308.7,65.4,308.7,65.4z M314.1,62.9c-0.1,0.1-0.2,0.3-0.3,0.5c-0.1,0.3-0.3,0.6-0.6,1c-0.2,0.4-0.5,0.7-0.8,1
		s-0.6,0.5-0.9,0.7s-0.4,0.2-0.5,0.2c0,0,0.1-0.1,0.3-0.3c0.2-0.2,0.5-0.4,0.8-0.7c0.3-0.3,0.5-0.6,0.7-1c0.2-0.4,0.4-0.7,0.5-1
		s0.2-0.5,0.2-0.5s0,0-0.1,0s-0.2,0-0.4,0c-0.2,0-0.4,0.1-0.7,0.1c-0.3,0-0.5,0.1-0.8,0.1c-0.2,0-0.4,0.1-0.6,0.1
		c-0.1,0-0.1,0-0.2,0s-0.2,0-0.3,0c0.1,0.6,0.1,1,0.1,1.2c0,0.1,0,0.2,0,0.3c0,0-0.1,0-0.2-0.1s-0.1-0.2-0.1-0.4c0-0.1,0-0.3,0-0.6
		c0-0.2-0.1-0.4-0.1-0.5s0-0.2,0-0.2s0.1,0,0.2,0s0.3,0.1,0.4,0c0.1,0,0.5-0.1,1-0.2c0-0.2,0-0.4,0-0.5s-0.1-0.2-0.1-0.3
		s-0.1-0.1-0.1-0.2c0,0,0-0.1,0.1-0.1s0.2,0,0.3,0.1c0.1,0,0.2,0.1,0.2,0.2c0,0.1-0.1,0.2-0.1,0.3s0,0.2,0,0.4
		c0.5-0.1,0.8-0.1,1-0.1s0.3-0.1,0.4-0.1c0,0,0,0,0.1,0c0,0,0.1,0,0.2,0.1s0.1,0.1,0.2,0.2c0,0.1,0.1,0.1,0.1,0.1
		C314.2,62.8,314.2,62.9,314.1,62.9z M314.6,62.5C314.6,62.5,314.5,62.5,314.6,62.5c-0.1,0.1-0.2,0-0.2,0c-0.1-0.1-0.1-0.2-0.2-0.3
		s-0.2-0.2-0.3-0.3c-0.1-0.1-0.1-0.1-0.1-0.1s0.1,0,0.3,0.1c0.2,0.1,0.3,0.1,0.4,0.2C314.6,62.2,314.7,62.3,314.6,62.5
		C314.7,62.3,314.6,62.4,314.6,62.5z M315.1,62C315,62.1,315,62.1,315.1,62c-0.1,0.1-0.2,0-0.2,0c-0.1-0.1-0.2-0.2-0.3-0.3
		c-0.1-0.1-0.2-0.2-0.3-0.3c-0.1-0.1-0.1-0.1-0.1-0.1s0.1,0,0.3,0.1c0.2,0.1,0.3,0.1,0.4,0.2c0.1,0.1,0.2,0.2,0.2,0.2
		C315.1,61.9,315.1,62,315.1,62z M320.6,63.6c-0.1,0-0.2,0.1-0.4,0.2c-0.2,0.1-0.5,0.3-0.9,0.6c-0.1,0.5-0.2,0.8-0.3,1.1
		c-0.1,0.3-0.3,0.5-0.5,0.6c-0.2,0.2-0.3,0.3-0.5,0.4s-0.2,0.1-0.3,0.1c0,0,0.1-0.1,0.2-0.2s0.3-0.3,0.4-0.5
		c0.2-0.2,0.3-0.5,0.4-0.7s0.1-0.4,0.1-0.6c0-0.1,0-0.2,0-0.3c0-0.1,0-0.2,0-0.2s0.2,0,0.3,0.2c0.1-0.1,0.3-0.2,0.5-0.4
		c0.2-0.1,0.3-0.3,0.4-0.4c0.1-0.1,0.1-0.1,0.1-0.2s0,0-0.1,0c0,0-0.3,0-0.8,0.2c-0.5,0.1-0.9,0.2-1.1,0.3s-0.4,0-0.5-0.1
		c-0.1-0.2-0.1-0.2,0.2-0.2c0.3,0,0.6,0,1.2-0.1c0.5-0.1,0.9-0.2,1-0.3h0.1c0.1,0,0.2,0,0.3,0.1c0.1,0.1,0.1,0.2,0.2,0.2
		C320.7,63.5,320.7,63.5,320.6,63.6C320.7,63.6,320.6,63.6,320.6,63.6z M323.4,62.3c0,0,0.2,0,0.4,0.1c0.3,0.1,0.5,0.2,0.7,0.3
		s0.3,0.2,0.3,0.4c0,0.1,0,0.2,0,0.3s-0.1,0.1-0.1,0.1s-0.1,0-0.2-0.1s-0.3-0.3-0.4-0.5c-0.2-0.2-0.3-0.3-0.5-0.4
		C323.4,62.4,323.4,62.4,323.4,62.3z M327.3,63.3c-0.2,0.2-0.4,0.5-0.7,0.9c-0.3,0.3-0.7,0.6-1,0.9s-0.6,0.5-0.9,0.6
		c-0.3,0.2-0.5,0.3-0.6,0.4c-0.1,0-0.1,0.1-0.2,0.1c0,0-0.1,0-0.2-0.1c-0.1,0-0.1-0.1-0.1-0.2l-0.1-0.1c0,0,0-0.1,0.1-0.1
		s0.3,0,0.5-0.1s0.5-0.2,0.9-0.5s0.8-0.6,1.1-0.9c0.3-0.3,0.6-0.6,0.9-0.9c0.3-0.3,0.4-0.4,0.4-0.4C327.5,62.9,327.5,63,327.3,63.3z
		 M332.7,63.2c-0.2,0-0.4,0-0.5,0s-0.3,0-0.6,0.1c0.2,0.1,0.3,0.1,0.3,0.2v0.1v0.1c0,0.1-0.2,0.3-0.3,0.7c-0.2,0.4-0.4,0.7-0.6,1
		s-0.5,0.5-0.7,0.7c-0.2,0.1-0.3,0.2-0.4,0.2c0,0,0.1-0.1,0.3-0.3c0.2-0.2,0.4-0.5,0.6-0.8s0.4-0.6,0.5-0.9s0.2-0.5,0.2-0.6
		s0-0.2-0.1-0.3c-0.5,0.1-0.8,0.1-0.9,0.1s-0.2,0-0.4-0.1c-0.2,0.3-0.5,0.5-0.7,0.7c-0.3,0.2-0.4,0.3-0.4,0.2c0,0,0.1-0.1,0.3-0.3
		c0.2-0.2,0.4-0.4,0.6-0.7s0.3-0.5,0.4-0.7s0.1-0.4,0.1-0.5s0-0.1,0-0.1h0.1c0.1,0,0.1,0.1,0.2,0.2c0.1,0.1,0.1,0.1,0.1,0.2v0.1
		c0,0-0.1,0.1-0.1,0.2c0,0.1-0.2,0.3-0.4,0.6c0.5,0,1-0.1,1.4-0.1c0.4-0.1,0.7-0.1,0.8-0.2c0.1,0,0.2,0,0.3,0c0.1,0,0.2,0.1,0.2,0.2
		C333,63.2,332.9,63.2,332.7,63.2z M333.3,63C333.2,63,333.2,63,333.3,63c-0.1,0-0.2,0-0.2-0.1c-0.1-0.1-0.2-0.3-0.3-0.4
		c-0.1-0.1-0.2-0.2-0.2-0.2s0.1,0,0.3,0.1s0.3,0.2,0.4,0.2c0.1,0.1,0.1,0.2,0.1,0.3C333.3,62.9,333.3,62.9,333.3,63z M333.6,62.6
		c0,0-0.1,0-0.2-0.2c-0.1-0.1-0.2-0.3-0.4-0.4c-0.1-0.1-0.2-0.2-0.2-0.2s0.1,0,0.3,0.1c0.2,0.1,0.3,0.2,0.4,0.3s0.1,0.2,0.1,0.3
		C333.7,62.5,333.7,62.6,333.6,62.6z M336.7,64.1c0-0.1,0-0.4,0-0.9c0-0.4,0-0.7,0-0.8s0-0.2-0.1-0.3c0-0.1,0-0.1,0.1-0.1
		s0.2,0,0.3,0.1c0.1,0.1,0.1,0.1,0.1,0.2v0.1c0,0.1-0.1,0.4-0.1,0.9s0,0.8,0,1c0,0.2,0,0.3,0,0.3l-0.1,0.1c0,0-0.1-0.1-0.2-0.2
		C336.7,64.4,336.7,64.2,336.7,64.1z M338.9,62.4c0,0.2-0.1,0.5-0.1,1.1c0,0.6-0.1,1-0.2,1.4s-0.3,0.7-0.6,0.9
		c-0.3,0.3-0.5,0.5-0.8,0.6s-0.4,0.2-0.4,0.2s0.1-0.1,0.4-0.4c0.3-0.2,0.5-0.5,0.8-0.8c0.2-0.4,0.4-0.7,0.4-1.1
		c0-0.4,0.1-0.8,0.1-1.2s0-0.6,0-0.7c0-0.1,0-0.2-0.1-0.3V62v-0.1h0.1c0,0,0.1,0,0.2,0s0.2,0.1,0.2,0.1
		C338.9,62.1,338.9,62.2,338.9,62.4z M346.4,64.1c-0.1,0-0.3,0-0.5,0c-0.1,0-0.4,0-0.8,0c0,0.1-0.1,0.2-0.2,0.4
		c-0.1,0.2-0.3,0.4-0.5,0.7c-0.2,0.3-0.5,0.5-0.7,0.7c-0.3,0.2-0.5,0.4-0.7,0.5s-0.4,0.2-0.4,0.1c0,0,0.1-0.1,0.4-0.3
		c0.3-0.2,0.6-0.5,0.9-0.9s0.6-0.8,0.8-1.3c-0.5,0.1-0.9,0.1-1.1,0.2c-0.2,0-0.4,0.1-0.5,0.1s-0.1,0-0.2,0c0,0-0.1,0-0.2,0
		s-0.1-0.1-0.2-0.1c0-0.1-0.1-0.1-0.1-0.1s0.1-0.1,0.2,0c0.1,0,0.2,0,0.4,0c0.1,0,0.3,0,0.5,0s0.7-0.1,1.3-0.1
		c0.1-0.3,0.3-0.6,0.3-0.9c0.1-0.3,0.1-0.4,0.1-0.5h-0.1c0,0-0.2,0-0.3,0c-0.3,0-0.6,0.1-1.1,0.1c-0.5,0.1-0.8,0.1-0.9,0.2
		c-0.2,0-0.3,0-0.4-0.1s-0.1-0.2-0.1-0.2s0-0.1,0.1,0c0.1,0,0.3,0,0.6,0c0.2,0,0.6,0,1.2-0.1s0.9-0.1,1-0.2c0.1,0,0.2,0,0.2,0
		s0.1,0,0.2,0.1s0.1,0.1,0.2,0.2v0.1v0.1c-0.1,0.1-0.2,0.3-0.3,0.6c-0.1,0.2-0.2,0.4-0.3,0.6c0.4-0.1,0.6-0.1,0.7-0.1s0.2,0,0.4,0
		c0.1,0,0.2,0.1,0.2,0.2C346.6,64.1,346.5,64.1,346.4,64.1z M348.5,62.3c0,0,0.2,0,0.4,0.1c0.3,0.1,0.5,0.2,0.7,0.3s0.3,0.2,0.3,0.4
		c0,0.1,0,0.2,0,0.3s-0.1,0.1-0.1,0.1s-0.1,0-0.2-0.1s-0.3-0.3-0.4-0.5c-0.2-0.2-0.3-0.3-0.5-0.4C348.6,62.4,348.5,62.4,348.5,62.3z
		 M352.4,63.3c-0.2,0.2-0.4,0.5-0.7,0.9c-0.3,0.3-0.7,0.6-1,0.9s-0.6,0.5-0.9,0.6c-0.3,0.2-0.5,0.3-0.6,0.4c-0.1,0-0.1,0.1-0.2,0.1
		c0,0-0.1,0-0.2-0.1c-0.1,0-0.1-0.1-0.1-0.2l-0.1-0.1c0,0,0-0.1,0.1-0.1s0.3,0,0.5-0.1s0.5-0.2,0.9-0.5s0.8-0.6,1.1-0.9
		c0.3-0.3,0.6-0.6,0.9-0.9c0.3-0.3,0.4-0.4,0.4-0.4S352.6,63,352.4,63.3z M353.9,66.4c0.3-0.4,0.6-1,0.8-1.6l0.5,0.3l-0.2,0.1
		C354.6,65.8,354.3,66.2,353.9,66.4L353.9,66.4z M355.7,66.2c0,0.2-0.2,0.4-0.5,0.5c0-0.2-0.2-0.4-0.6-0.5v-0.1
		c0.3,0,0.5,0.1,0.6,0.1s0.2-0.1,0.2-0.2v-1.5h-0.9h-0.2l-0.2-0.2h1.3v-0.9h-0.7c-0.2,0-0.4,0-0.6,0.1l-0.2-0.2h1.8
		c0.2-0.5,0.3-0.9,0.4-1.2h-1.2c-0.2,0-0.4,0-0.6,0.1l-0.2-0.2h1.4c0-0.2-0.1-0.5-0.3-0.8l0,0c0.3,0.2,0.5,0.3,0.5,0.4
		c0.1,0.1,0.1,0.2,0.1,0.2c0,0.1,0,0.2-0.1,0.3h0.6l0.3-0.3l0.4,0.4h-0.9l0.4,0.3c-0.1,0-0.2,0.2-0.3,0.3c-0.1,0.2-0.2,0.4-0.4,0.6
		h0.6l0.3-0.3l0.4,0.4h-1.4v0.9h0.6l0.3-0.3l0.4,0.4h-1.3L355.7,66.2L355.7,66.2z M354.6,62.3L354.6,62.3c0.3,0.1,0.5,0.2,0.6,0.3
		s0.1,0.2,0.1,0.3s0,0.2-0.1,0.2c-0.1,0.1-0.1,0.1-0.1,0.1S355,63.1,355,63C354.9,62.9,354.8,62.6,354.6,62.3z M356,64.9
		c0.3,0.2,0.5,0.3,0.6,0.4s0.1,0.2,0.1,0.3c0,0.1,0,0.1-0.1,0.2c0,0.1-0.1,0.1-0.1,0.1s-0.1-0.1-0.1-0.2
		C356.4,65.5,356.2,65.3,356,64.9L356,64.9z M358.8,66.7l-0.4,0.2c0-0.9,0-2,0-3.3h-0.8c0,1.1-0.1,1.8-0.4,2.3s-0.7,0.8-1.1,1.1
		v-0.1c0.3-0.3,0.6-0.6,0.8-0.9c0.2-0.3,0.3-0.6,0.4-1s0.1-0.8,0.1-1.4c0-0.6,0-1.2,0-1.9l0.3,0.2c0.7-0.2,1.1-0.3,1.4-0.5l0.4,0.4
		c-0.2,0-0.5,0-0.7,0s-0.6,0.1-1.1,0.2v1.4h1.2l0.3-0.3l0.5,0.5h-0.9v2.3C358.7,66.1,358.7,66.4,358.8,66.7z M363,64.7l0.2-0.2
		l0.3,0.3l-0.2,0.1c0,0.7,0,1.1,0,1.3l-0.3,0.2v-0.3h-1.2v0.4l-0.3,0.1c0-0.5,0-0.8,0-1.2c0-0.3,0-0.7,0-1.1l0.4,0.2h0.4v-0.9h-1.1
		c0,0.5-0.1,1-0.2,1.5s-0.4,1-0.7,1.4h-0.1c0.2-0.3,0.4-0.7,0.5-1.2c0.1-0.4,0.2-1,0.2-1.8c0-0.8,0-1.6,0-2.3l0.4,0.3h1.9l0.2-0.2
		l0.3,0.3l-0.2,0.1c0,0.5,0,0.8,0,1l-0.3,0.1v-0.3h-1.9v1h1.1c0-0.4,0-0.7,0-1l0.5,0.2l-0.2,0.2v0.6h0.7l0.3-0.3l0.4,0.4h-1.3v0.9
		h0.2V64.7z M364.1,61.9l0.5,0.2l-0.2,0.2v2.3c0,0.3,0,0.6,0,0.8l-0.4,0.1c0-0.6,0-1.3,0-2C364,62.8,364.1,62.2,364.1,61.9z
		 M365.5,61.6v4.6c0,0.2,0,0.3-0.1,0.4s-0.2,0.2-0.3,0.2c-0.1-0.2-0.3-0.4-0.7-0.5v-0.1c0.5,0,0.7,0,0.8,0c0,0,0.1-0.1,0.1-0.2v-3.9
		c0-0.4,0-0.8,0-1.1l0.5,0.2L365.5,61.6z M366.4,65.6c0.3-0.1,0.6-0.2,1.1-0.4v-2.1h-0.2c-0.2,0-0.4,0-0.6,0.1l-0.2-0.2h1v-0.8
		c0-0.3,0-0.6,0-0.9l0.6,0.3l-0.2,0.2V63h0.4l0.3-0.3l0.4,0.4h-1.1v2l1-0.5v0.1c-1.2,0.7-1.9,1.1-2.2,1.3L366.4,65.6z M371.8,63.8
		c-0.1,1.1-0.1,1.8-0.2,2.2c-0.1,0.3-0.2,0.5-0.3,0.7c-0.2,0.1-0.3,0.2-0.5,0.3c-0.1-0.3-0.3-0.5-0.8-0.6v-0.1
		c0.3,0.1,0.6,0.1,0.8,0.1c0.2,0,0.4-0.1,0.4-0.5c0.1-0.3,0.1-1.1,0.2-2.1H371c-0.2,0.9-0.5,1.6-1,2.1s-1.1,0.8-1.8,1.1v-0.1
		c0.7-0.3,1.2-0.7,1.6-1.2s0.7-1.1,0.8-1.9h-0.5c-0.1,0.4-0.3,0.8-0.6,1.2c-0.3,0.4-0.7,0.7-1.3,1.1V66c0.4-0.2,0.7-0.6,1-0.9
		s0.5-0.8,0.6-1.3h-0.6l-0.2,0.1l-0.3-0.3l0.3-0.1c0.6-0.5,1.2-1.1,1.8-1.7h-1.5H369l-0.2-0.2h2l0.2-0.2l0.4,0.3l-0.2,0.1
		c-0.6,0.7-1.3,1.2-1.9,1.7h2.3l0.2-0.2l0.4,0.4L371.8,63.8z M373.5,64.4c0,1-0.3,1.8-0.7,2.5h-0.1c0.2-0.6,0.3-1.2,0.4-1.7
		s0.1-1.2,0.1-1.9c0-0.8,0-1.3,0-1.7l0.5,0.3l-0.2,0.2V63h0.6c0-0.9,0-1.6,0-1.9l0.5,0.2l-0.2,0.2V63h0.2l0.2-0.2l0.4,0.4h-1.8v1.1
		h0.9l0.2-0.2l0.3,0.3l-0.2,0.1c0,0.9,0,1.4,0,1.7l-0.3,0.2v-2H373.5z M378.5,66.4c-0.2,0-0.4,0-0.5,0.2c-0.4-0.3-0.8-0.6-1.2-1.1
		c-0.5,0.5-1,0.9-1.7,1.2v-0.1c0.6-0.3,1.1-0.8,1.5-1.3c-0.3-0.5-0.5-1.2-0.6-2.1h-0.3c0,1.7-0.4,2.9-1.1,3.7l-0.1-0.1
		c0.3-0.5,0.6-1.1,0.7-1.7s0.2-1.2,0.2-1.7s0-1.1,0-1.6l0.3,0.2c1-0.2,1.7-0.4,2-0.7l0.3,0.5c-0.1,0-0.3,0-0.5,0s-0.8,0.1-1.8,0.3v1
		h1.8l0.2-0.2l0.4,0.4l-0.3,0.1c-0.2,0.9-0.5,1.6-0.8,2C377.5,65.8,378,66.2,378.5,66.4L378.5,66.4z M380.2,66.3
		c-0.1,0.1-0.2,0.1-0.2,0.1s-0.1,0-0.2-0.1s-0.2-0.2-0.2-0.3c0-0.2,0-0.3,0.1-0.3c0.1-0.1,0.2-0.1,0.3-0.1c0.1,0,0.2,0,0.3,0.1
		c0.1,0.1,0.1,0.2,0.1,0.3C380.4,66.1,380.3,66.2,380.2,66.3z M380.2,64.8c-0.1,0.1-0.2,0.1-0.3,0.1c-0.1,0-0.2,0-0.3-0.1
		c-0.1-0.1-0.2-0.2-0.1-0.3c0-0.2,0.1-0.3,0.2-0.3c0.1-0.1,0.2-0.1,0.3-0.1c0.1,0,0.2,0,0.3,0.1c0.1,0.1,0.2,0.2,0.2,0.3
		C380.4,64.6,380.4,64.7,380.2,64.8z M387.4,66.3l0.1,0.1c0.1,0,0.1,0,0.2,0c0,0,0.1-0.1,0.1-0.2h0.1c0,0.2-0.1,0.3-0.2,0.4
		s-0.2,0.1-0.3,0.1c-0.1,0-0.2,0-0.2-0.1c-0.1,0-0.2-0.2-0.3-0.5c0,0,0,0-0.1,0c0,0-0.1,0-0.2,0c-0.4,0-0.7-0.2-1-0.5
		s-0.4-0.9-0.4-1.6c0-0.7,0.1-1.2,0.4-1.6c0.2-0.4,0.6-0.6,1-0.6s0.7,0.2,1,0.6c0.3,0.4,0.4,0.9,0.4,1.6c0,0.6-0.1,1-0.2,1.3
		s-0.3,0.5-0.5,0.7C387.3,66.1,387.3,66.2,387.4,66.3z M390.2,64l-1.2,2.6l-0.2-0.1L390,64l-1.2-2.4l0.2-0.1L390.2,64z"/>
</g>
<text transform="matrix(1 0 0 1 409.147 238.5158)" class="st3 st4 st5">“</text>
<text transform="matrix(1 0 0 1 412.247 239.1808)" class="st3 st6 st5">阵方互联</text>
<text transform="matrix(1 0 0 1 441.747 238.5158)" class="st3 st4 st5">”</text>
<g id="XMLID_40_">
	<path id="XMLID_37_" class="st3" d="M374.8,246.1l-2.2-3.9h-9.8c0.4,1.8,1.3,3.4,2.6,4.5h8.8C374.4,246.6,374.6,246.4,374.8,246.1z
		"/>
	<path id="XMLID_35_" class="st3" d="M374.5,233.8l-0.9,1.6l-1.7,3l2.3,3.9l0,0l2.6,4.6c1.3-1.2,2.3-2.8,2.6-4.5L374.5,233.8z"/>
	<path id="XMLID_34_" class="st3" d="M368,242.3l5.7-9.9c-0.8-0.3-1.7-0.4-2.6-0.4s-1.8,0.1-2.6,0.4l-5.7,9.9H368"/>
	<path id="XMLID_20_" class="st3" d="M389.2,243.5c0.2,0,0.4,0.2,0.4,0.4v0.2c0,0.2-0.2,0.4-0.4,0.4h2.1v-1.1L389.2,243.5
		L389.2,243.5z"/>
	<path id="XMLID_19_" class="st3" d="M391.3,244.6h-3.8v-1.1h3.8c0-0.2-0.1-0.3-0.2-0.5c-0.3-0.3-0.7-0.5-1.1-0.5h-3.9v4.3h1.3h0.1
		l0,0l0,0l0,0v-1.1h1.5l0.6,1.2h1.7l0,0c-0.5-0.7-0.7-1.1-0.8-1.2h0.1C391,245.2,391.3,244.9,391.3,244.6z"/>
	<path id="XMLID_18_" class="st3" d="M393,242.5c-0.3,0-0.5,0.1-0.8,0.2c-0.4,0.3-0.5,0.6-0.5,0.9v2c0,0.2,0.1,0.4,0.2,0.5
		c0.3,0.4,0.7,0.6,1.2,0.6h3.9v-1h-3.1h-0.1c-0.5,0-0.9-0.4-0.9-0.9v-0.5c0-0.5,0.4-0.9,0.9-0.9h0.1h3.2v-1L393,242.5L393,242.5z"/>
	<path id="XMLID_17_" class="st3" d="M408.8,242.9c-0.1-0.1-0.2-0.1-0.2-0.2c-0.1,0-0.1-0.1-0.2-0.1c0,0,0,0-0.1,0h-0.1
		c-0.1,0-0.2-0.1-0.3-0.1h-4v4.3h1.4v-3.3h2c0.5,0,0.9,0.4,0.9,0.9v2.4h1v-3.1c0-0.1,0-0.3-0.1-0.4
		C409,243.2,408.9,243.1,408.8,242.9z"/>
	<rect id="XMLID_16_" x="410.1" y="242.5" class="st3" width="3.8" height="1"/>
	<rect id="XMLID_15_" x="409.5" y="244.2" class="st3" width="3.8" height="0.9"/>
	<rect id="XMLID_14_" x="410.1" y="245.8" class="st3" width="3.8" height="1"/>
	<path id="XMLID_12_" class="st3" d="M419.1,242.5c0,0-0.6,0.7-1.7,2l0,0l-1.7-2h-1.4v4.3h1.4v-2.5c0.9,1.1,1.5,1.7,1.7,2l0,0l1.7-2
		v2.5h1.4v-4.3H419.1z"/>
	<path id="XMLID_11_" class="st3" d="M383.4,242.5h-1.5c-0.2,0.3-1,1.7-2.4,4.2l0,0h1.4l1.8-3.1l1.8,3.1h1.4l0,0
		C384.2,244,383.4,242.6,383.4,242.5z"/>
	<path id="XMLID_10_" class="st3" d="M401.2,242.5h-1.5c-0.2,0.3-1,1.7-2.4,4.2l0,0h1.4l1.8-3.1l1.8,3.1h1.4l0,0
		C402,244,401.2,242.6,401.2,242.5z"/>
	<path id="XMLID_9_" class="st3" d="M424.7,242.5h-1.5c-0.2,0.3-1,1.7-2.4,4.2l0,0h1.4l1.8-3.1l1.8,3.1h1.4l0,0
		C425.6,244,424.7,242.6,424.7,242.5z"/>
	<path id="XMLID_8_" class="st3" d="M434.9,243.5c0.2,0,0.4,0.2,0.4,0.4v0.2c0,0.2-0.2,0.4-0.4,0.4h2.1v-1.1L434.9,243.5
		L434.9,243.5z"/>
	<polygon id="XMLID_7_" class="st3" points="426.5,242.5 426.5,243.5 428.3,243.5 428.3,246.8 429.7,246.8 429.7,243.5 431.5,243.5 
		431.5,242.5 	"/>
	<path id="XMLID_6_" class="st3" d="M436.4,245.5c0.4-0.2,0.6-0.5,0.7-0.9h-3.8v-1.1h3.8c0-0.2-0.1-0.3-0.2-0.5
		c-0.3-0.3-0.7-0.5-1.1-0.5h-3.9v4.3h1.4v-1.2h1.5l0.6,1.2h1.7l0,0c-0.5-0.7-0.7-1.1-0.8-1.2C436.2,245.5,436.3,245.5,436.4,245.5z"
		/>
	<rect id="XMLID_5_" x="437.3" y="242.5" class="st3" width="1.4" height="4.3"/>
	<path id="XMLID_13_" class="st3" d="M444.3,242.5h-1.6c-0.2,0.2-0.5,0.6-1,1.1c-0.6-0.7-1-1.1-1-1.1H439l0,0
		c0.1,0.1,0.7,0.8,1.8,2.1l-1.8,2.1l0,0h1.7c0.2-0.2,0.5-0.5,0.9-1.1l0,0c0.5,0.6,0.8,0.9,0.9,1.1h1.7l0,0c-0.4-0.5-1-1.2-1.8-2.1
		L444.3,242.5L444.3,242.5L444.3,242.5z"/>
</g>
<g>
	<path class="st2" d="M141,254.6c-8.3,0-16.5,0-24.8,0c-0.2-0.4-0.2-0.8-0.5-1.1c-0.6-0.7-1.3-1.4-2-2.1c-1-1-2-1.1-3.2-0.3
		c-0.6,0.4-0.9,0.9-0.3,1.5c0.6,0.7,1.2,1.4,1.8,2c-17.4,0-34.8,0-52.2,0c-0.9-0.7-1.8-1.9-2.8-2.1c-1.4-0.4-3.1-0.3-4.5,0
		c-1.2,0.2-2.6,0.6-3,2.1c-2.8,0-5.5,0-8.3,0c0-0.2,0-0.4-0.1-0.5c-2.2-3-0.3-6.1,2.4-7.1c1.1-0.4,2.2-0.5,3.5-0.7
		c0.2-0.9,0.3-1.9,0.5-2.8c0.1-0.8-0.2-1.1-1-1.2c-2.2-0.1-4.2,0.4-6,1.7c-3.8,2.5-5.7,6.2-3.9,10.8c-1.7,0-3.3,0-5,0
		c0-0.8-0.4-1.3-1.2-1.1c-0.9,0.3-1.7,0.7-2.5,1.1c-5,0-9.9,0-14.9,0c-0.2-0.2-0.4-0.5-0.7-0.6c-1.7-0.7-3.5-1.3-5.2-2
		c-2.3-0.9-4.6-1.9-6.8-2.9c0-12.4,0-24.9,0-37.3c0.2-0.3,0.4-0.6,0.6-0.9c0.9-2.3,1.7-4.6,2.5-7c0.2-0.6,0.3-1.1,0.5-1.7
		c-0.1-0.1-0.2-0.1-0.3-0.2c-0.4,0.3-0.7,0.5-1.1,0.8c-0.7,0.6-1.5,1.3-2.2,1.9c0-9.4,0-18.7,0-28.1c0.3,0,0.6,0,0.9-0.1
		c3.6-1.6,7.3-3.2,10.9-4.9c0.4-0.2,1-0.7,1.1-1c0-0.4-0.4-1-0.8-1.3c-3-2.2-5.7-4.8-8-7.7c-0.6-0.8-1.1-1.8-1.6-2.7
		c-0.3-0.6,0.3-1.4,0.8-1.1c1.5,0.9,2.4,0.1,3.4-0.9c1.6-1.4,2.7-1.7,4,0.6c0.5,0.9,1,1.8,1.6,2.6c1.9,2.2,4.2,4,6.6,5.6
		c2.1,1.3,4.1,1.6,6.3,0.5c1.2-0.6,1.4-1.3,0.7-2.4c-0.3-0.4-0.6-0.9-0.9-1.2c-1.8-2-1.9-4.1-0.5-6.4c1.4-2.3,4.4-2.5,5.9-0.4
		c0.9,1.2,1.6,2.5,2.5,3.7c0.7,1,1.4,1.1,2.3,0.3c0.8-0.7,1.4-1.6,2-2.6c1.4-2.3,2.3-4.8,4.4-6.6c2.4-2.2,4.8-4.4,7.1-6.7
		c1.6-1.6,3.2-3.2,4.9-4.8c0.3-0.3,0.8-0.3,1.2-0.5c0,0.4,0,0.9-0.1,1.3c0,0.2-0.2,0.3-0.3,0.5c-1.2,1.6-2.3,3.2-3.5,4.7
		c-4.7,5.9-9.5,11.7-14.1,17.6c-3.2,4-6.2,8.2-9.4,12.3c-1,1.3-1.5,2.7-1.5,4.4c0,6.4,2.3,12.2,5.1,17.8c2.2,4.3,5.5,7.9,9,11.2
		c1.1,1.1,1.7,1,2.7-0.2c1.8-2,3.3-4.3,6.3-4.6c0.4,0,0.9,0,1.3,0c-0.1,0.4-0.1,1-0.4,1.3c-1,1.3-2.1,2.4-3.1,3.7
		c-0.3,0.4-0.2,1-0.3,1.6c0.5-0.2,1-0.3,1.5-0.5c0.4-0.1,1-0.3,1.3-0.2c1.4,0.7,1.5,0.7,2.3-0.6c0.3-0.4,0.5-0.9,0.7-1.3
		c0.9-2.1,1.5-2.2,2.9-0.5c0.1,0.1,0.1,0.1,0.1,0.2c2.4,3,4.8,6.1,7.2,9.1c1.2,1.6,2.5,3.1,3.8,4.7c-1.4,1.1-2.6,2.1-3.9,3.1
		c-1.2-2.1-2.3-4.1-3.5-6.1c-0.7,0.5-1.3,1.1-1.9,1.5c-0.6,0.4-0.7,0.8-0.3,1.4c0.9,1.5,1.7,3,2.6,4.5c0.4,0.7,0.5,1.2-0.3,1.7
		c-1.1,0.7-2.1,1.6-3.1,2.5c0.6,0.8,1.1,1.5,1.7,2.2c0.2,0.2,0.8,0.3,1,0.1c1-0.7,2-1.6,3-2.4c1.4,2.4,2.7,4.7,4,7
		c-1.1,1-2.2,1.9-3.4,2.8c0.5,0.7,1.1,1.4,1.6,2.2c0.4,0.5,0.7,0.5,1.2,0.1c0.7-0.6,1.5-1.2,2.4-1.8c0.8,1.5,1.6,2.8,2.4,4.2
		c1.1,1.9,1.1,1.9,2.9,0.6c0.6-0.5,0.8-0.9,0.4-1.7c-1-1.7-2-3.5-3-5.3c1.3-1,2.6-2.1,3.9-3.1c0.9,1.5,1.7,2.9,2.5,4.3
		c1.1,1.9,1.1,1.9,2.9,0.5c0.5-0.5,0.8-0.9,0.3-1.6c-1.1-1.8-2-3.6-3-5.4c0.5-0.4,0.9-0.8,1.3-1.1c0.4-0.4,0.9-0.7,1.4-1.1
		c1.5-1.3,1.5-1.3,0.4-2.8c-0.8-1.1-1.1-1.1-2.1-0.3c-0.9,0.7-1.8,1.4-2.8,2.2c-1.2-2.1-2.3-4.1-3.4-6c-0.5-0.8-0.3-1.3,0.3-1.8
		c0.4-0.3,0.8-0.6,1.1-0.9c1.8-1.7,1.8-1.7,0.1-3.5c-0.5-0.5-0.9-0.6-1.4-0.1c-0.6,0.5-1.2,1-1.9,1.6c0-2,0-3.8,0-5.5
		c0-0.6,0.5-1.3,0.4-1.9c-0.2-2.1-0.5-4.1-0.9-6.1c-0.2-1.1-0.3-2,0.4-2.9c0.8-1.1,0.5-2,0.2-3.2c-0.6-2-1-4-1.5-6
		c-0.4-1.7-0.7-3.5-1-5.2c-0.1-0.5-0.1-1.2,0.1-1.7c0.4-1.1,0.7-2.2,1.3-3.3c1.6-2.8,1.8-6,2.3-9.1c0.3-2.3,0.2-4.7,0.5-7
		c0.2-2.6,0.2-4.9-1.8-7c-1.4-1.4-2.2-3.3-2.2-5.4c0-1.5-0.1-2.9,0-4.4c0-0.5,0.4-1,0.7-1.5c0.3,0.4,0.6,0.8,0.9,1.3
		c0.3,0.5,0.6,1,0.9,1.5c0.5-0.3,1-0.6,1.4-1c0.6-0.6,0.9-1.4,1.6-1.8c0.9-0.6,1.3-1.4,1.5-2.3c0.7-2.7,1.1-5.5,2.6-8
		c0.8-1.4,1.4-3.1,2.5-4.3c1.4-1.6,3.1-3,4.7-4.4c1.7-1.4,3.6-2.6,5.1-4.1c2.1-2.1,4.5-3.7,7.1-5.1c1.5-0.8,3-1.6,4.4-2.5
		c0.3-0.2,0.6-0.7,0.8-1c-0.4-0.1-0.7-0.4-1.1-0.4c-0.7-0.1-1.4,0-2-0.1c-1.8-0.3-3.4,0-5.2,0.5c-2.7,0.8-5.4,1.9-8.3,0.8
		c-0.3-0.1-0.7-0.1-1,0c-2.2,0.9-4.3,1.8-6.5,2.8c-1,0.5-1.8,0.9-3,0.7c-3.1-0.5-6.3-0.8-9.3,0.8c-1.9,1-3.5,2.2-4.3,4.3
		c-1.1,2.9-2.1,5.8-3.2,8.7c-0.1,0.3-0.6,0.4-0.9,0.6c-0.1-0.1-0.2-0.2-0.2-0.3c0.1-0.3,0.1-0.5,0.2-0.7c0.4-0.9,0.8-1.9,1.2-2.8
		c0.4-1-0.1-1.6-1.1-1.6c-0.4,0-0.9,0.1-1.3,0.2c-2.9,0.6-5.9,1.4-8.8,1.9c-2.4,0.4-4.2,1.5-5.7,3.5c-3.5,4.7-7.2,9.3-10.8,13.9
		c-1.3,1.6-2.7,3.1-4.9,3.5c-1.4,0.2-2.8,0.5-4.1,0.8c-2.7,0.5-5.4,1-8,1.5c-1.2,0.2-1.9-0.8-1.4-1.9c0.2-0.6,0.5-1.2,0.7-1.8
		c1.2-3.5,3.2-6.3,6.6-8.2c2.7-1.5,5.3-3.4,7.8-5.1c0.4-0.3,0.6-0.8,0.9-1.2c-0.1-0.1-0.2-0.2-0.3-0.3c-0.6,0-1.3,0-1.9,0.1
		c-3.2,0.7-6.5,1.3-9.7,2c-3.3,0.7-6.5,1.5-9.7,2.2c-0.3,0.1-0.9-0.1-1.1-0.3c-0.2-0.2-0.1-0.8,0.1-1c2.1-2.5,3.1-5.6,4.5-8.5
		c0.5-1,1-1.8,2.3-2.1c5-1,10-2.2,15-3.3c4.8-1,9.6-2.1,14.3-3.1c1.4-0.3,3-0.4,4.3-1.1c3.2-1.9,6.7-2.7,10.3-3.4
		c4.5-0.8,8.9-1.7,13.3-2.6c0.5-0.1,1.3-0.8,1.3-1.2c0.1-1.8,0.3-3.7-1.2-5.2c-0.6-0.6-1.1-1.2-1.6-1.9c-1.3-1.7-2.5-3.5-3.9-5.1
		c-1.6-1.7-1.7-1.7-0.3-3.4c0.7-0.8,0.4-2.1-0.7-2.8c-1-0.7-1.3,0.2-1.7,0.8c-0.8,1.1-1.2,1.2-2.1,0.2c-1.6-1.8-3.1-3.7-4.7-5.6
		c-1.3-1.6-1.9-1.8-3.4-0.5c-4.2,3.3-8.4,6.7-12.6,10.1c-1.5,1.3-3,2.6-4.6,4c-0.3-0.3-0.6-0.6-0.8-0.8c0.3-0.4,0.5-0.7,0.6-1
		c0.2-0.3,0.3-0.6,0.4-1c0.2-0.8-0.3-1.4-1.2-1.5c-0.4,0-0.8-0.2-1.1-0.3c0.2-0.4,0.2-0.9,0.5-1.2c1.2-1,2.4-2,3.6-3
		c4.1-3.2,8.2-6.5,12.3-9.7c1-0.8,1.1-1.5,0.3-2.5c-1.4-1.7-2.8-3.4-4.2-5.1c-1-1.2-1.8-1.3-2.9-0.2c-0.3,0.3-0.9,0.3-1.3,0.4
		c0.1-0.4,0-0.9,0.2-1.3c0.1-0.3,0.6-0.6,0.7-0.9c0.1-0.5,0.3-1.3,0-1.6c-1.2-1.6-2.5-3.1-3.8-4.6c-0.6-0.7-1.2-0.7-2.1-0.3
		c-3.5,1.6-5.7,4.5-7.6,7.6c-1.1,1.8-1.9,3.6-2.4,5.6c-0.6,2.6-1.3,5.3-0.9,8c0.4,2.9-0.2,5.5-1.1,8c-1.2,3.4-2.8,6.7-4.1,10.1
		c-0.8,2.1-1.5,4.2-2.1,6.4c-0.1,0.4,0.4,1.1,0.6,1.6c0.5-0.2,0.9-0.4,1.4-0.7c0.5-0.3,1-0.8,1.5-1.1c0.7-0.6,1.6-1.1,2.2-1.8
		c1-1.2,1.8-2.5,2.8-3.7c0.2-0.3,0.9-0.5,1-0.4c0.3,0.3,0.5,0.8,0.5,1.2c-0.1,0.5-0.3,1.2-0.7,1.5c-3.5,3.3-5.9,7.7-10.2,10.3
		c-1.9,1.2-3.4,2.8-5.2,4c-1.3,0.8-2.9,1.3-4.4,1.9c-0.3,0.1-0.8-0.2-1-0.5c-0.2-0.2-0.1-0.8,0.1-1c1.8-2.5,3.3-5.2,5.4-7.3
		c2.1-2.2,2.5-4.8,3-7.6c0.5-2.9,1-5.9,1.3-8.8c0.4-3.6,1.4-7,2.7-10.3c1.3-3.5,2.5-7.1,4.2-10.4c1.8-3.8,4.1-7.4,6.1-11.1
		c0.3-0.6,0.6-1.6,0.4-2.2c-0.5-1.6-0.1-2.7,1.1-3.7c0.4-0.3,0.7-0.6,1-0.9c0.9-0.8,1-1.6,0.2-2.5c-1.2-1.5-2.5-2.9-3.7-4.4
		c-0.3-0.5-0.5-1.4-0.3-1.9c0.9-2.5,1.9-4.9,2.9-7.3c0.7-1.6,1.4-1.7,2.5-0.4c2,2.4,4,4.8,5.9,7.1c1,1.2,1.7,1.3,3,0.3
		c0.7-0.6,1.3-1.2,2.1-1.8c3.5-2.7,7-5.4,10.6-8c1.5-1.1,2.1-2.4,1.8-4.1c-0.1-0.5-0.1-0.9-0.3-1.4c-0.4-1.1,0.2-1.9,1-2.5
		c0.5-0.4,1.1-0.7,1.6-0.9c3.2-1.3,6.4-2.7,9.7-4c2.9-1.2,5.9-2.2,8.8-3.3c1.3-0.5,1.7-1.4,1.2-2.6c-2-4.7-4.4-9.2-7.3-13.5
		c-0.2-0.4-0.5-1.1-0.3-1.3c0.3-0.4,0.9-0.8,1.4-0.8c4.6-0.2,8.9,1,13.1,2.6c3.8,1.5,6.8,0,9.8-2c0.8-0.5,0.7-1.3,0.1-1.9
		c-0.3-0.3-0.7-0.6-1-0.8c-0.8-0.7-1-1.5-0.4-2.4c0.8-1.1,1.6-2.2,2.6-3.2c1.3-1.2,1.5-2.6,1.4-4.1c7,0,14,0,21,0
		c0.2,0.4,0.4,0.8,0.6,1.2c2.2,2.8,4.4,5.6,6.7,8.3c0.6,0.7,1.4,1.1,2.1,1.6c0.7,0.5,1.5,0.9,2.1,1.3c-0.5,0.9-0.8,1.6-1.2,2.4
		c1.1,0.1,1.8,0.1,2.5,0.2c1.2,0.2,2.5,0.2,3.5,0.7c2,0.9,3.9,2.1,5.7,3.2c0.5,0.3,1.1,0.9,1.3,1.4c1.4,3.6,3.9,6.5,6.4,9.4
		c0.5,0.6,1,1.3,1.2,2.1c0.8,3.2,1,6.5,0.7,9.8c-0.1,1.4-0.3,2.9-0.6,4.3c-0.1,0.4-0.5,0.7-0.8,1c-0.2-0.4-0.6-0.7-0.7-1.1
		c-0.3-0.9-0.4-1.9-0.6-2.8c-0.9-3.7-2.8-7-4.7-10.3c-1.3-2.2-3.1-4.2-4.7-6.3c-0.9-1.1-1.6-1.1-2.5-0.1c-0.7,0.8-1.3,1.6-2.1,2.4
		c-0.3,0.3-0.7,0.4-1,0.5c0-0.3-0.2-0.8,0-1c0.8-1.3,1.5-2.6,2.4-3.7c1.1-1.3,1.1-2-0.5-2.9c-0.8-0.5-1.7-0.9-2.4-1.4
		c-1.9-1.5-3.8-2.9-6.3-3.5c-0.7-0.2-1-0.5-0.4-1.3c0.3-0.3,0.4-0.9,0.5-1.3c-0.1-0.1-0.2-0.3-0.3-0.4c-1.9,0.4-3.9,0.7-5.8,1.2
		c-2.2,0.6-4.3,1.4-6.5,2.1c-2.5,0.8-5.1,1.6-7.6,2.6c-2.1,0.8-4.2,1.9-6.3,2.9c-5.8,2.5-10.8,6.2-16,9.8c-4.6,3.2-9,6.6-13.7,9.7
		c-2.7,1.8-5.7,3-8.6,4.6c-1.7,0.9-3.4,2-5,3.1c-1.2,0.8-2.2,1.9-3.2,2.9c-0.8,0.8-2,1.6-2.3,2.7c-0.5,1.9-0.5,4-0.8,6
		c-0.2,1.5-0.3,3.1-0.8,4.6c-0.3,1.1-0.5,1.8,0.3,2.7c1.7,2,3.3,4,5,5.9c1,1.2,2,2.3,3,3.5c0.6,0.7,1.4,0.7,1.8-0.2
		c0.7-1.4,1.4-2.7,1.7-4.2c0.4-1.8,0.5-3.7,0.8-5.6c0.3-1.8,0.6-3.5,1-5.3c0.3-1,0.8-1.9,2.1-2c4-0.4,7.9-1.2,11.8-2.6
		c1-0.4,1.7-1,2-2.1c0.3-1.2,0.9-2.3,1.2-3.5c0.3-1.1,1-2.2,0.3-3.5c-0.9-1.4-0.8-1.7,0.7-2.5c2.8-1.5,5.5-3.1,7.2-6.1
		c0.7-1.2,2-2.5,3.3-2.8c1.3-0.3,2.3-0.8,3.1-1.8c0.2-0.2,0.4-0.4,0.6-0.5c0.2-0.1,0.6-0.1,0.7,0c0.2,0.1,0.2,0.5,0.2,0.7
		c-0.2,0.5-0.5,0.9-0.8,1.3c-2.4,3.3-4.9,6.5-7.3,9.8c-0.4,0.5-0.5,1.2-0.7,1.8c0.1,0.1,0.3,0.2,0.4,0.2c1.7-2,3.4-4,5.1-6.1
		c1.1,1.1,0.1,1.8-0.2,2.5c-0.9,1.9-2,3.7-3,5.6c-1,1.8-1,3.8-0.4,5.7c0.2,0.9,1,1.1,1.5,0.5c1.1-1.5,2.4-3,2-5.2
		c-0.2-1,0.4-1.4,1.3-1.8c0.7-0.3,1.5-0.8,1.9-1.4c2.9-3.7,5.7-7.5,8.6-11.2c1.1-1.4,2.4-2.8,3.7-4.1c0.2-0.2,0.7-0.2,1-0.2
		c0,0.4,0.1,0.8,0,1.1c0,0.2-0.2,0.4-0.4,0.6c-2.4,2.9-4.8,5.8-7,8.8c-1.3,1.7-2.7,3.3-1.8,6c1.3,4.1,2.6,8.3,2.5,12.8
		c0,2,0.2,3.9-1.4,5.5c-0.2,0.2-0.4,0.5-0.4,0.8c-0.2,1.5-1.2,2.1-2.3,2.7c-1.2,0.5-2.2,0.3-2.7-1C94.1,69,93.6,68,94.3,67
		c0.3-0.4,0.1-1.1,0-1.6c0-0.6-0.3-1.3-0.2-1.8c0.7-2.4,1.5-4.8,2.4-7.1c0.4-1.1,0.4-1.9-0.4-2.2c-1.1-0.5-1.6,0.3-1.9,1.1
		c-0.5,1.1-0.8,2.2-1,3.3c-0.3,1.4-0.3,2.8-0.5,4.2c-0.2,1-0.6,1.1-1.4,0.4c-0.7-0.7-1.2-0.5-1.5,0.4c-0.5,1.8-0.9,3.6-1.6,5.3
		c-0.7,1.8-1,3.6-0.7,5.4c0.3,2,0.9,4,1.3,6c0.1,0.6-0.2,1.3-0.3,1.9c-0.4-0.5-1.1-0.9-1.2-1.4c-0.6-2.1-1-4.2-1.5-6.3
		c-0.1-0.4-0.3-0.9-0.5-1c-0.3-0.1-0.9,0.1-1.1,0.3c-2.9,2.5-5.7,5-8.5,7.5c-1.4,1.2-3.1,1.6-5,1.7c-2,0.1-4,0.5-5.6,1.8
		c-0.7,0.5-1,1.2-0.4,2c1.5,2.1,3.5,3.4,6,4c1.2,0.3,1.9,0.9,2,2.1c0,2.4,1.1,4.7,0.5,7.1c-0.3,1.2,0.4,1.6,1.5,1.1
		c0.8-0.3,1.5-0.2,2,0.4c1.5,1.7,3.1,3.4,4.5,5.3c1.8,2.3,5.2,2.9,7.6,1.2c0.6-0.4,1.2-0.6,1.9-0.5c1.9,0.3,3.9,0.7,5.7-0.6
		c0.2-0.1,0.8-0.1,1,0.1c0.2,0.2,0.2,0.7,0,0.9c-0.3,0.5-0.7,0.8-1.1,1.2c-0.5,0.5-0.7,1.1,0.1,1.5c1.6,0.8,4.2,1.1,5.6-0.5
		c1.1-1.2,2.1-2.5,3.3-3.7c0.4-0.4,0.9-0.9,1.4-1.1c1.4-0.5,2.9-0.7,4.3-1.2c1.4-0.5,2.7-1.2,4.3-1c0.3,0,0.8-0.2,1.1-0.4
		c2.4-1.5,4.8-3.1,7.2-4.6c0.6-0.4,1.2-1.1,1.8-0.3c0.2,0.2-0.4,1.2-0.9,1.6c-1.1,0.9-2.4,1.7-3.5,2.5c-2.7,2.1-5.3,4.2-7.9,6.2
		c-0.6,0.5-1.3,0.8-2.1,0.3c-1-0.6-1.6-0.3-1.8,0.8c-0.2,1.2-0.3,2.3-0.4,3.5c-0.1,0.7,0.6,1.3,1.3,1.2c1-0.2,2.1-0.4,3.1-0.6
		c4.2-0.8,8.3-1.6,12.5-2.5c2.5-0.5,5-1.1,5.7-4.3c0.1-0.5,1-0.9,1.6-1.1c0.9-0.3,2.1-0.2,2.8-0.7c4.8-3.2,9.4-6.8,13.4-11
		c1.4-1.5,3.3-2.6,3.9-4.8c0.1-0.2,0.5-0.5,0.6-0.4c0.3,0.2,0.7,0.5,0.9,0.9c0.8,2.1,1.7,4.3,2.4,6.5c1.9,5.9,3.6,11.8,5.5,17.7
		c0.3,0.8,1,1.6,1.8,2c1,0.6,2.2,0.8,3.2,1.4c1.1,0.6,2.2,1.4,3.2,2.3c0.3,0.2,0.4,1,0.2,1.3c-0.4,0.9-0.2,1.5,0.4,2.1
		c0.3,0.2,0.5,0.5,0.7,0.8c0.1,0.2,0.2,0.7,0.1,0.8c-0.2,0.2-0.6,0.4-0.8,0.4c-1.7-0.2-2.1,0.3-1.5,1.9c0.8,2.1,1.5,4.2,2.3,6.2
		c0.2,0.6,0.3,1.6,1.3,1.3c0.5-0.2,0.9-1,1.2-1.5c0.1-0.3,0.1-0.7,0-1c-0.3-1.6-0.6-3.1-0.8-4.7c-0.1-0.5,0.3-1.1,0.4-1.7
		c0.2,0,0.3,0,0.5,0c0.5,0.6,0.9,1.2,1.4,1.8c0.7,0.7,0.8,1.5,0.5,2.5c-0.2,0.7-0.1,1.6-0.1,2.4c0,0.4,0.1,0.9,0.1,1.3
		c-0.1-0.1-0.2-0.2-0.3-0.3c-1.2,0.9-2.6,1.7-3.7,2.8c-1.2,1.1-1.4,2.8-1.4,4.7c-0.5-0.6-0.7-1.1-1.1-1.4c-0.3-0.2-0.8-0.4-1-0.3
		c-1,0.7-1.9,1.5-2.8,2.3c3.8,4.6,7.5,9.1,11.2,13.6c0.6,0.8,1.6,1.5,0.8,2.8c-0.1,0.2,0,0.6,0.2,0.9c0.9,1.1,1.8,2.3,2.8,3.3
		c1.2,1.2,2.6,2.2,3.9,3.4c0.2,0.2,0.3,0.7,0.2,1c0,0.2-0.6,0.3-0.9,0.2c-2.3-0.8-3.6,0.8-4.9,2.2c-0.2,0.2-0.3,0.8-0.2,1.1
		c0.1,0.2,0.7,0.4,1,0.4c0.6,0,1.1-0.3,1.7-0.4c1.8-0.6,3.8-0.8,5.3-2.1c0.2-0.2,0.8-0.2,1.2-0.1c1.5,0.5,2.9,1.1,4.3,1.8
		c0.6,0.3,1.1,0.9,1.4,1.5c0.8,1.7,1.5,3.5,2.2,5.3c0.1,0.4,0.1,1-0.1,1.4c-0.9,1.6-1.9,3.2-3,4.6c-1.7,2.1-3.6,4-6.6,3.9
		c-1.1,0-1.9-0.4-2.4-1.3c-0.5-1,0.5-1.3,0.8-2c0.2-0.4,0.2-0.8,0.3-1.1c-0.4-0.1-0.8-0.2-1.1-0.2c-3.6,0.9-7.1,1.9-10.7,2.9
		c-1.9,0.5-3.7,1.1-5.5,1.8c-0.3,0.1-0.6,0.6-0.6,0.9c0,0.2,0.4,0.6,0.7,0.7c0.7,0.3,1.4,0.4,2.1,0.6c1.8,0.5,3.1,0.2,4.1-1.5
		c0.4-0.8,1.4-0.7,1.9,0.2c0.5,0.9,0.9,1.8,1.2,2.8c0.1,0.2,0,0.6-0.1,0.8c-0.8,1.3-1.5,2.8-2.5,4c-1,1.3-2.4,2.1-4.1,1.8
		c-1.4-0.2-1.9-1.2-1.4-2.4c0.3-0.7,0.6-1.4,1.1-2.1c0.9-1.5,0.8-1.9-1-2.3c-2.1-0.4-4.2-0.9-6.3-1.3c-1-0.2-2.1-0.3-3,0
		c-2.1,0.5-4.2,1.1-6.2,1.8c-1.7,0.5-1.9,1.2-0.7,2.6c2.1,2.5,4.2,5.1,6.3,7.6c1.2,1.4,3.7,3,5.7,2.2c3.1-1.1,6.2-2.1,9.3-3.1
		c6.6-2.1,13.3-4.1,19.9-6.1c1.3-0.4,2.5-1,3.9-0.4c0.3,0.1,0.7,0,1,0c1.3-0.2,2.4,0.7,2.5,2.1c-0.5-0.6-0.9-0.8-1.5-0.2
		c-0.3,0.3-0.7,0.6-1.1,0.9c-1.1,0.7-1.7,1.9-3.1,2.3c-2.1,0.5-4.2,1.4-6.3,2c-7.5,2.1-15.1,4.1-22.6,6.1c-1.6,0.4-1.9,1.2-0.8,2.5
		c2,2.5,4.1,5,6.2,7.4c0.7,0.8,1.6,1.2,2.7,1c1-0.2,2-0.5,3-0.6c1.1-0.1,2.2-0.2,3.2,0c1.1,0.2,2.1,0.7,3.1,1.3
		c0.7,0.4,1.2,1,1.8,1.5c-0.1,0.1-0.2,0.3-0.3,0.4c-1.1-0.4-2.3-0.8-3.4-1.3c-1.3-0.7-2.6-0.7-3.9-0.2c-5.2,2-10.2,4.2-14.5,7.8
		c-1.7,1.4-1.7,1.3-3.6,0.2c-1-0.6-1.7-0.5-2.2,0.6c-1.1,2.2-2.1,4.4-3.2,6.6c-1,2.1-2.1,4.1-3.2,6.1c-1.2,2.1-2.4,4.2-3.6,6.3
		c-0.3,0.5-0.2,1.1-0.3,1.7c-1.8,1.6-2.9,3.7-2.9,6.4c-0.6-0.7-1.1-1.3-1.7-2C142.8,252.9,141.9,253.7,141,254.6z M116.9,208.6
		c1.1-1.4,2.4-1.3,3.8-0.8c0.8,0.3,1.7,0.5,2.6,0.8c1.4,0.4,2.9,0.7,4.3,1.3c5.8,2.3,10.8,5.8,15.2,10.1c3.7,3.6,6.6,7.8,9.1,12.4
		c0.9,1.7,1.8,1.6,2.7-0.1c1-2,1.9-4.1,2.8-6.2c1.1-2.7,2.4-5.3,3.2-8c1.2-3.9,2.1-7.8,3.1-11.8c0.3-1-0.2-1.8-1-2.1
		c-2.2-1-4.4-2.1-6.7-2.8c-6.9-2-14-2.8-21.2-2.9c-2.3,0-4.5,0-6.8,0c-0.5,0-1.2-0.3-1.6-0.7c-1.7-1.9-3.3-3.9-4.9-5.8
		c-0.9-1.1-1.8-2.2-2.6-3.3c0.2-0.2,0.3-0.2,0.3-0.3c2.6-0.8,5.1-1.5,7.7-2.2c0.2-0.1,0.7,0.2,0.9,0.4c0.8,0.8,1.4,1.7,2.2,2.6
		c1.2,1.5,2.4,3,3.6,4.4c0.3,0.4,0.6,1,1.3,0.4c0.8-0.7,1.6-1.4,2.5-2.2c-0.3-0.4-0.5-0.8-0.7-1.1c-1.5-1.8-3-3.7-4.5-5.5
		c-0.2-0.3-0.3-0.6-0.4-0.9c-0.2-0.6-0.3-1.2-0.7-1.6c-2-2.5-4-5-6.1-7.3c-1-1.2-2.4-2.1-3.5-3.2c-0.3-0.3-0.6-0.8-0.8-1.2
		c-0.4-0.7-0.7-1.6-1.2-2.2c-1.6-1.9-3.2-3.8-4.8-5.7c-2.3-2.7-4.5-5.4-6.8-8.1c-0.8-0.9-1.5-1-2.3-0.2c-2.2,2.2-4.4,4.5-6.5,6.8
		c-0.7,0.7-0.4,1.4,0.5,1.7c0.3,0.1,0.7,0.1,1,0.1c1.2,0.1,2.2,0.7,2.6,1.8c0.6,1.6,1.6,2.7,3.2,3.4c0.3,0.1,0.4,0.5,0.6,0.8
		c-0.3,0.1-0.6,0.3-1,0.4c-0.8,0.3-1.7,0.3-2.3,0.8c-2.3,1.8-4.4,3.8-6.6,5.7c-0.9,0.8-1.4,1.7-1.3,2.9c0.2,1.3,0.4,2.6,0.8,3.7
		c0.7,1.8,1.6,3.5,2.5,5.2c0.7,1.3,1.7,1.9,3.1,1.5c1.7-0.4,3.2-0.1,4.6,0.9c1.1,0.8,2.3,0.8,3.6,0.4c0.9-0.3,1.9-0.5,2.8-0.8
		c0.8-0.3,1.3,0,1.7,0.5c1.3,1.6,2.7,3.3,4,4.9c0.8,1,1.7,2.1,2.7,3.4c-1.1,0-1.9-0.1-2.6,0c-1.9,0.2-3.3-0.5-4.7-1.6
		c-1.1-1-2.3-1.9-3.6-2.6c-1.3-0.7-2.8-1.4-4.3-1.6c-4.1-0.7-8.2,3.2-9.3,6.1c-0.4,0.9-0.5,1.9-0.8,3.2c1.5-0.1,2.7-0.3,3.6-0.3
		c0.7-1.1,1.2-2.1,1.8-3c1-1.3,2.4-2.2,4.2-1.9c0.6,0.1,1.5,0.5,1.6,0.9c0.2,0.9,0.1,2-0.3,2.8c-0.3,0.7-1.3,1-1.8,1.6
		c-1,1-2.2,1.9-3,3.1c-2.4,3.7,1,8.2,4,9c0.3,0.1,0.6,0.2,0.9,0.3c-0.1,1-0.2,1.9-0.2,2.8c0.1,0.1,0.2,0.2,0.4,0.3
		c0.4-0.3,0.9-0.6,1.1-1c0.6-1.6,1.6-2.5,3.1-3.3c2.1-1.1,4-2.7,4.4-5.5C116.1,208.1,116.4,208.3,116.9,208.6z M164.1,161.8
		c0.9-0.7,1.5-1.4,2.3-2c0.3-0.2,0.8-0.1,1.2,0c0.5,0.2,0.9,0.6,1.4,0.9c1.2,0.7,2.4,2,3.5,1.9c1.2-0.1,2.3-1.5,3.4-2.3
		c0,0,0-0.1,0.1-0.3c-0.2-0.1-0.3-0.3-0.5-0.4c-3.2-1.9-6.3-3.7-9.5-5.6c-5-3-10-5.9-15-8.9c-1.2-0.7-2.1-0.9-3,0.2
		c-0.1,0.1-0.2,0.2-0.4,0.3c-0.7,0.5-0.9,1.1-0.6,2c1,2.8,1.9,5.7,2.9,8.5c-0.3,0.2-0.5,0.4-0.7,0.5c-0.8,0.4-1.5,1-1.1,1.9
		c0.4,0.8,0.9,1.6,2.2,1.4c0.3-0.1,1,0.1,1.1,0.4c0.8,2,1.5,4,2.3,6.4c-1.6-0.7-2.8-1.3-4.1-1.7c-0.8-0.2-1.7-0.3-2.6-0.2
		c-1.2,0.1-2.5,0.3-3.8,0.4c-0.1-0.8-0.1-1.2-0.2-2c-1.4,0.3-2.8,0.4-4,1c-2.1,1.1-3.6-0.1-5.3-1c-0.2-0.1-0.5-0.7-0.4-0.9
		c0.1-0.3,0.6-0.5,0.9-0.5c0.6,0,1.2,0.2,1.9,0.1c0.8-0.1,0.9-0.7,0.5-1.3c-0.8-1.2-1.9-1.4-3.2-0.7c-1.3,0.7-2.7,1.2-4.1,1.6
		c-1.1,0.4-1.4,1-0.7,1.8c1.4,1.6,2.8,3.3,4.2,5c-1.3,1.5-1.9,3.2-1.8,5.1c0.2,3.9,4.6,6.6,8.1,4.8c1.2-0.6,1.7-0.4,2.5,0.6
		c0.8,1.1,1.6,2.3,3.4,1.9c0,0.1,0,0.3,0,0.4c-1.9,0.6-3.8,1.1-5.9,1.7c0,1.1,0,2.3,0,3.6c0.7,0,1.4,0.1,2,0
		c4.6-0.8,8.1-3.3,10.6-7.2c0.2-0.3,0.5-0.6,0.8-0.7c2-0.6,4.1-1.2,6.1-1.8c4.2-1.2,8.4-2.5,12.6-3.7c1.5-0.4,2.9-0.9,4.4-1.3
		c0.9-0.3,1.1-1.1,0.8-1.9c-0.4-0.8-0.7-1.7-0.9-2.6c-0.2-0.6-0.4-1-1.1-0.9c-0.6,0.1-1.2,0.1-1.8-0.1
		C169.5,165.4,166.9,163.6,164.1,161.8z M27.5,212.9c-1.2,0-2,0.6-1.9,1.4c0.2,1.2,0.4,2.3,0.6,3.5c0.6,3.3,1.3,6.6,2,10
		c0.7,3.5,1.4,7,2.1,10.5c0.6,2.6,1.2,5.2,1.9,7.7c0.1,0.5,0.4,1.2,0.7,1.3c0.5,0.1,1.1-0.2,1.5-0.6c1.3-1.3,2.5-2.8,3.9-4.1
		c4.8-4.7,9.6-9.4,14.4-14.1c1-0.9,1.1-1.4,0.2-2.5c-1.2-1.5-2.5-3-3.8-4.5c-0.8-1-1.9-1.4-3.2-1.4c-1,0-2-0.1-2.9,0
		c-1.4,0.2-2.6-0.2-3.8-0.9c-3.3-1.9-6.6-3.7-9.9-5.5C28.6,213.2,27.9,213,27.5,212.9z M71.6,207.9c0.8,0.9,1.4,1.7,2.1,2.5
		c0.7,0.9,1.4,1.8,2.1,2.8c0.3,0.5,0.4,1.3,0.7,1.7c3.1,3.7,6.3,7.4,9.5,11.1c4,4.6,7.9,9.1,11.9,13.6c0.6,0.6,1.1,1.9,2.1,1.4
		c0.8-0.4,1.2-1.5,1.6-2.4c0.2-0.4-0.1-1.3-0.5-1.6c-0.6-0.6-0.7-1-0.1-1.7c0.6-0.6,0.5-1.2-0.4-1.7c-0.5-0.3-1-0.8-1.4-1.2
		c-1.4-1.8-2.7-3.6-4.1-5.4c-1.8-2.3-4-4.3-6.7-5.7c-0.4-0.2-0.8-0.5-1.1-0.9c-2.7-3.3-5.4-6.6-8.1-9.8c-1.5-1.8-2.9-3.5-4.4-5.4
		C73.8,206.1,72.8,206.9,71.6,207.9z M25.8,195.7c-0.3-0.8-0.5-1.4-0.7-1.9c-0.4-1.1-0.9-2.3-1.1-3.4c-0.5-2.6-0.8-5.2-1.2-7.9
		c-0.1-0.4-0.4-1-0.7-1.1c-0.3-0.1-0.9,0.1-1.2,0.4c-0.8,0.6-1.5,1.3-2.2,2c-1.4,1.3-2.5,2.8-3.2,4.6c-1.1,2.8-3.7,4.4-5.7,6.5
		c-0.9,1-1.9,1.9-2.8,2.9c-1,1.1-0.3,2.8,1.4,3.4c1.2,0.4,2.1,1.1,2.6,2.3c0.2,0.4,0.6,1.1,1,1.1c0.5,0,1.2-0.3,1.5-0.8
		c0.7-0.8,1.3-1.7,1.8-2.6c0.6-1.1,1.5-1.5,2.6-1.8c2.2-0.7,4.3-1.4,6.4-2.3C24.9,196.9,25.3,196.2,25.8,195.7z M78.3,72.1
		c0-0.6,0-0.8-0.1-1.1c-0.4-2.6-0.7-5.2-1.1-7.8c-0.1-0.5-0.4-0.9-0.6-1.3c-0.4,0.3-1,0.4-1.3,0.8c-3.6,5.2-7.4,10.2-11.7,15
		C63.3,78,63.2,78.6,63,79c0.5,0.1,1,0.3,1.5,0.3c1.4-0.1,2.9-0.3,4.3-0.4c2.2-0.2,4.4-0.2,5.9-2.2c0.9-1.2,2-2.2,3-3.3
		C78.1,73,78.2,72.3,78.3,72.1z M101.8,215.9c-0.5,0.4-1,0.6-1.3,1c-0.8,0.8-1.5,0.6-2.1-0.1c-2.6-3.2-5.2-6.4-7.8-9.5
		c-2.2-2.8-4.5-5.5-6.8-8.2c-0.2-0.2-0.9-0.3-1.1-0.2c-0.8,0.5-1.5,1.1-2.1,1.8c-0.2,0.2-0.2,0.7-0.1,1c0.3,0.5,0.8,1,1.2,1.5
		c2.4,2.9,4.7,5.7,7.1,8.6c2.2,2.8,4.4,5.6,6.7,8.3c1.8,2.1,4.4,2.5,6.4,1.1c0.8-0.6,1.6-1.3,2.5-2
		C103.4,217.9,102.6,216.9,101.8,215.9z M133.2,134.2c0,0.1,0.1,0.2,0.1,0.3c1.2-0.6,2.5-1.2,3.7-1.8c0-1.8,2.1-1.8,2.6-3.1
		c0.1-0.1,0.1-0.3,0.1-0.5c0.2-1.2,0.7-2.1,1.8-2.8c1-0.6,1.8-1.5,1.4-2.8c-0.8-2.4-3-3.5-4.9-4.7c-1.3-0.8-2.3,0.6-3.3,1.3
		c-0.5,0.3-0.9,0.8-1.4,1.1c-0.7,0.5-0.9,1.2-0.6,2c0.6,1.6,0,2.8-1.1,4c-0.5,0.5-0.8,1.5-0.7,2.2c0.1,1.3,0.6,2.6,0.8,3.9
		C132,134,132.4,134.3,133.2,134.2z M153.7,142.2c-0.3-0.7-0.4-1.4-0.7-1.7c-0.7-0.6-0.7-1.1-0.5-1.8c0.1-0.3,0.1-0.7,0.2-1
		c0.3-0.7,0.5-1.5,1-2c0.7-0.9,1.3-0.1,2,0.4c0.3,0.2,0.7,0.1,1.1,0.1c0-0.3,0.1-0.7,0-1c-0.3-0.7-0.7-1.5-1.2-2.1
		c-0.2-0.3-0.8-0.4-1.2-0.3c-1.7,0.6-3.5,1.2-5.2,1.9c-1.2,0.5-2.2,0.2-2.8-0.9c-0.9-1.6-1.9-3.1-3.4-4.3c-0.3-0.2-0.8-0.4-1-0.3
		c-0.3,0.1-0.6,0.6-0.6,0.9c0.1,1.5,0.1,3.1,0.4,4.5c0.5,2.3,0.9,4.6,2.9,6.2c0.9,0.7,1.3,0.7,1.9-0.2c0.9-1.3,2.8-1.3,3.4,0.1
		C150.7,142.3,151.9,142.4,153.7,142.2z M25.9,209.3c-0.1,1,0.4,1.7,1.4,2.1c0.9,0.4,1.8,0.8,2.7,1.1c1,0.4,2.1,0.8,3.2,0.9
		c1.1,0.1,2.2-0.2,3.2-0.4c0.4-0.1,1-0.4,1.2-0.7c0.1-0.3-0.2-0.9-0.5-1.2c-3.7-3.4-6.9-7.2-9.3-11.5c-0.2-0.4-0.7-0.6-1.1-0.9
		c-0.2,0.5-0.7,0.9-0.7,1.4C25.9,203.1,25.9,206.2,25.9,209.3z M52.1,234.6c-0.9,0.7-1.6,1.2-2.3,1.8c-0.7,0.5-0.9,1-0.2,1.8
		c2.3,2.8,4.6,5.6,6.9,8.4c1.7,2,3.3,4.1,5,6.1c0.2,0.2,0.8,0.5,1,0.4c1-0.7,1.9-1.5,2.9-2.4C60.9,245.3,56.6,240,52.1,234.6z
		 M62.3,74.4c0.5,0.5,0.7,1,1.1,1.1c0.3,0.1,0.9-0.2,1.1-0.5c0.6-0.7,1-1.6,1.6-2.3c0.6-0.8,1.4-1.6,2-2.5c0.3-0.4,0.6-1,0.5-1.3
		c-0.2-0.4-0.9-0.8-1.3-0.7c-0.8,0.2-2,0.4-2.3,1C63.9,70.8,63.2,72.6,62.3,74.4z M135.1,197.1c1.4,0,2.8,0,4.2,0
		c0.7,0,1.5,0.1,2.2,0c0.3-0.1,0.7-0.8,0.6-1.1c-0.4-1.2-1.8-1.8-3.1-1.5c-1.1,0.3-2.1,0.6-3.2,0.8
		C135.1,195.5,134.7,195.9,135.1,197.1z M139.9,108.1c1.5-0.1,2.6-0.2,3-1.5c0.2-0.6,0.4-1.2,0.5-1.8c0-0.3-0.1-0.7-0.3-0.9
		c-0.2-0.1-0.7,0-0.9,0.2c-0.9,0.8-1.8,1.6-2.7,2.5c-0.3,0.3-0.5,0.8-0.4,1.1C139.3,107.9,139.8,108,139.9,108.1z M50,250.9
		c1.3,0,2.3-0.9,2.6-2.3c0.1-0.4-0.1-1.1-0.3-1.2c-0.4-0.2-1.2-0.1-1.4,0.2c-0.6,0.7-1,1.5-1.3,2.4C49.4,250.2,49.9,250.7,50,250.9z
		 M104.9,240c-0.5,0-0.8,0-1.2,0c-1.4,0-2.3,1.4-1.5,2.6c0.2,0.3,0.8,0.6,1.1,0.5C104.4,242.8,105.1,241.3,104.9,240z M114.6,153.8
		c-0.5,0.7-1.1,1.5-1.6,2.2c-0.1,0.2,0.1,0.7,0.1,1c0.4-0.1,0.9,0,1.1-0.2c0.5-0.5,1-1.1,1.3-1.8C115.9,154.5,115.7,154,114.6,153.8
		z M146.3,117.6c-0.8-0.6-1.4-1-2-1.3c-0.2-0.1-0.6,0.6-0.9,0.9c0.5,0.5,1,1,1.6,1.4C145.1,118.6,145.6,118.1,146.3,117.6z
		 M105.4,244.4c0.6,0.5,0.9,0.8,1.2,1.1c0.3-0.4,0.8-0.8,1-1.2c0.1-0.2-0.5-0.9-0.6-0.9C106.5,243.6,106.1,243.9,105.4,244.4z
		 M38.7,216.2c0.1-0.2,0.1-0.5,0.2-0.7c-0.5-0.2-1-0.3-1.5-0.5c-0.1,0.3-0.2,0.8-0.2,0.8C37.7,216,38.2,216.1,38.7,216.2z"/>
	<path class="st2" d="M207.6,59.9c-0.5,0.5-1.3,1-1.5,1.7c-0.8,1.9-1.1,4-2.9,5.4c-0.9,0.7-1.8,1.3-2.8,1.8c-1.7,0.9-2.1,1.5-2,3.3
		c0,0.7,0,1.4-0.3,2.1c-0.6,2-1.3,3.9-2.1,5.8c-0.1,0.4-0.5,0.9-0.9,1c-0.3,0-0.7-0.4-1-0.7c-1.2-1.2-2.3-2.4-3.6-3.5
		c-1.9-1.6-4.1-2.9-5-5.5c-0.1-0.2-0.4-0.4-0.6-0.3c-0.3,0-0.6,0.2-0.7,0.4c-0.2,0.4-0.2,0.8-0.4,1.2c-1.2,3.3-2.5,6.6-3.7,10
		c-0.3,0.8-0.5,1.6-0.7,2.5c-0.3,1.3-1.1,1.6-2.2,1c-0.7-0.4-1.4-0.9-2.1-1.2c-3-1.3-2.2-4.6-0.4-6.3c2.1-1.9,4.1-4,5.9-6.2
		c1.8-2.3,1.9-5.1,2.2-7.9c0.3-2.8,0.5-5.6,1.2-8.2c0.8-2.6,2.2-5.1,3.3-7.6c0.1-0.3,0.6-0.3,0.9-0.5c0.2,0.4,0.5,0.7,0.5,1.1
		c-0.2,2-0.6,4-0.7,6c-0.1,1.1,0,2.2,0.2,3.3c0.1,0.8,0.7,1.1,1.5,0.7c0.8-0.4,1.5-1,2.3-1.4c1-0.5,2-0.9,3-1.5
		c0.6-0.3,1.3-0.7,1.8-1.2c1.4-1.1,2.7-2.2,4-3.3c0.5-0.4,1.1-0.4,1.5,0.2c0.5,0.7,1.1,1.4,1.5,2.2c0.5,1.1,1.1,1.2,2,0.5
		c0.4-0.4,1-0.6,1.5-0.9c0,0.6,0,1.1,0,1.7c-0.7,0.8-1.5,1.7-2.2,2.5c0.1,0.1,0.2,0.3,0.3,0.4c0.6-0.2,1.3-0.3,1.9-0.5
		C207.6,58.5,207.6,59.2,207.6,59.9z M196.9,73.5c-0.5-1.1-0.9-2.3-1.6-3.3c-0.6-0.9-1.8-1.1-2.7-0.5c-0.8,0.5-1.1,1.6-0.6,2.6
		c0.7,1.5,1.4,2.9,2.1,4.4c0.3,0.7,1.2,0.7,1.5,0.1C196.1,75.7,196.4,74.7,196.9,73.5z"/>
	<path class="st2" d="M161.8,254.6c-2-2.8-3.9-5.8-7.3-7.3c-0.8-0.4-1.7-0.4-2.7-0.7c2.3-0.9,4.4-1.8,6.6-2.6c0.4-0.2,1,0.2,1.4,0.1
		c0.4-0.1,0.8-0.5,1.3-0.9c1.6,1.9,3.1,3.8,4.7,5.7c-1,1.3-1,3.4,0.2,4.4c0.4,0.4,1.3,0.4,2,0.3c1.4-0.3,2.4,0.1,3.3,1.2
		C168.1,254.6,164.9,254.6,161.8,254.6z"/>
	<path class="st2" d="M147.6,254.6c1.1-1.8,2.3-3.3,4.7-3.2c1.7,0.1,2.5,1.4,3.6,2.4c0.2,0.2,0.4,0.5,0.7,0.8
		C153.6,254.6,150.6,254.6,147.6,254.6z"/>
	<path class="st2" d="M112.8,65.7c0.1,2.5-0.3,4.6-1.2,6.5c-0.1,0.3-0.6,0.6-0.7,0.6c-0.3-0.1-0.7-0.5-0.7-0.8
		c-0.2-0.8-0.2-1.7-0.3-2.5c0-0.3-0.3-0.7-0.5-0.7c-0.3,0-0.8,0.2-0.9,0.4c-0.5,0.9-0.8,1.9-1.3,2.9c-0.2,0.5-0.3,1.3-1.1,1
		c-0.1,0,0-0.9,0.2-1.3c1.4-3.9,2.8-7.8,4.4-11.7c1.3-3.1,2.9-6.1,4.5-9c1.7-3.2,3.5-6.4,5.4-9.5c2-3.3,4.1-6.6,6.2-9.8
		c0.1-0.2,0.3-0.5,0.5-0.6c0.2-0.1,0.5-0.1,0.8-0.1c0,0.3,0.2,0.5,0.1,0.8c-0.2,0.5-0.4,1-0.7,1.5c-1.5,2.5-2.4,5.2-3.3,8
		c-1.7,5.1-2.1,10.2-2,15.5c0.1,5.4,0.6,10.7,2.6,15.9c0.5,1.3,0.6,2.7,1,4.1c0.4,1.2,1.2,2.4,1.6,3.6c0.5,1.4,1,2.8,2.5,3.6
		c0.3,0.1,0.4,0.9,0.3,1.2c-0.6,1-0.3,2,0.1,2.9c0.5,1.1,0.6,2.1,0.3,3.2c-0.2,0.7,0,1.6-0.1,2.4c-0.1,0.6-0.5,1.1-0.8,1.7
		c-0.4-0.3-0.8-0.6-1.2-0.9c-0.5-0.3-1-0.9-1.5-0.9c-1.1,0.1-2.2,0.5-3.3,0.6c-0.8,0.1-1.6,0.2-2.3,0c-1.5-0.6-3-1.2-4.4-2.1
		c-1-0.7-1.6-1.8-1.6-3.1c0-0.5,0.5-1,0.5-1.5c-0.1-1.5-0.1-3,0.4-4.5c0.1-0.4-0.3-1.2-0.7-1.5c-0.8-0.5-1.7-0.8-2.6-1.3
		c-0.4-0.2-0.9-0.5-1-0.8c-0.1-0.4,0.1-1,0.5-1.3c0.6-0.6,1.4-1,2.2-1.4c0.3-0.2,0.8-0.1,1.1,0c1.3,0.4,2.5,0.9,3.8,1.1
		c0.5,0.1,1.3-0.2,1.6-0.5c0.3-0.4,0.4-1.2,0.1-1.7c-0.5-0.9-0.9-1.5,0.3-2.1c0.2-0.1,0.3-0.8,0.3-1.2c-1-4.3-2.2-8.6-2-13
		c0-0.7-0.4-1.6-0.8-2.2c-0.5-0.6-0.6-1.1-0.3-1.8c1.3-2.5,1.7-5.2,2.2-7.9c0.1-0.4-0.2-0.9-0.3-1.4c-0.4,0.3-0.9,0.6-1.1,1
		c-2.2,4.9-4,10-5.2,15.3c-0.2,0.8-0.7,1.6-1,2.4C113,65,112.8,65.5,112.8,65.7z M120,91.4c0.1-0.1,0.5-0.2,0.9-0.4
		c-0.2-0.3-0.4-0.8-0.7-1c-0.7-0.5-1.3-1-1.2-2.1c0-0.4-0.4-1.1-0.8-1.2c-0.4-0.2-1,0.1-1.5,0.3c-0.2,0.1-0.3,0.7-0.2,0.9
		c0.3,0.8,0.7,1.5,1,2.2C117.8,91.1,118.6,91.4,120,91.4z M125.1,78c0-0.8-1-2-1.8-1.9c-0.9,0.1-1.3,0.8-1.4,1.6
		c-0.1,1,1.1,2.3,2,2.2C125.2,79.9,125,78.9,125.1,78z"/>
	<path class="st2" d="M172.5,75.8c-0.4,1.3-0.8,2.2-1.1,3.2c-0.8,2.4-1.4,4.9-2.3,7.2c-0.9,2.4-1.6,4.8-3.3,6.8
		c-0.9,1-1.6,1.1-2.2-0.1c-1.2-2.3-2.1-4.7-3.1-7.1c-0.2-0.4,0.1-1.1,0.3-1.5c1-1.6,2.1-3.1,3.3-4.5c0.2-0.2,1.1-0.2,1.4,0
		c0.8,0.7,1.2,0.3,1.5-0.4c0.7-1.4,1.3-2.8,1.9-4.3c0.6-1.5,0.9-1.7,2.2-0.7C171.7,74.9,172.1,75.3,172.5,75.8z"/>
	<path class="st2" d="M180.8,153c-1.4-1.7-3-3.7-4.6-5.6c-0.8-1-1.7-2-2.5-3.1c-1.6-2.2,0-5.7,2.7-6c0.3,0,0.8,0.4,0.8,0.6
		c-0.1,2.6,1.5,4.1,3.5,5.1c1.6,0.9,2.5,2,2.8,3.7c0.2,1.1,0.5,2.2,0.8,3.3c0.2,0.9-0.1,1.3-1,1.4
		C182.6,152.5,181.8,152.8,180.8,153z"/>
	<path class="st2" d="M165.4,241c0.7,0.3,1.5,0.7,2.2,1c2.2,1.1,4.4,2.4,6.7,3.3c1.3,0.5,2.8,0.4,4.2,0.4c0.8,0,1.6,0.5,1.6,1.4
		c0,1.1,0.2,2.1,0.9,3c0.2,0.3,0,0.9,0.1,1.3c-0.4-0.2-0.9-0.2-1.1-0.5c-1.3-2.2-3.5-2-5.6-2.2c-1.7-0.1-3.6,0-4.8-2
		c-1.2-2-2.9-3.6-4.4-5.4C165.3,241.2,165.3,241.1,165.4,241z"/>
	<path class="st2" d="M64.3,227.6c0.7-0.6,1.3-1.1,1.9-1.6c0.6-0.5,1.2-1,1.9-1.6c1.4,2.4,2.7,4.7,4,7c-1.3,1.1-2.5,2.1-3.9,3.2
		C67,232.3,65.7,230,64.3,227.6z"/>
	<path class="st2" d="M107.7,204.5c0.3,1.4,0.7,2.6,0.8,3.8c0.1,0.7-0.2,1.5-0.4,2.2c-0.6-0.3-1.4-0.5-1.9-1c-1.3-1.3-1.3-2.4,0-3.7
		C106.6,205.4,107.1,205,107.7,204.5z"/>
	<path class="st2" d="M152,150.2c3.7,2.3,7.4,4.6,11.2,7c-2.3,1.9-4.5,3.7-6.8,5.6c-0.4-1.2-0.9-2.1-1-3.1c-0.1-0.5,0.3-1.2,0.7-1.7
		c0.6-0.9,0.7-1.7-0.3-2.4c-0.8-0.5-1.7-1-2.3-1.8c-0.7-1-1.1-2.2-1.7-3.4C151.9,150.3,152,150.3,152,150.2z"/>
	<path class="st2" d="M135.4,171.8c0.8,1,1.5,1.9,2.3,2.9c-1,0.5-1.7,0.2-2.2-0.5C135,173.4,134.7,172.7,135.4,171.8z"/>
</g>
</svg>
